<svg xmlns="http://www.w3.org/2000/svg" width="33.863" height="33.678" viewBox="0 0 33.863 33.678">
  <g id="Group_17" data-name="Group 17" transform="translate(0 0)">
    <g id="Group_16" data-name="Group 16" transform="translate(0 0)">
      <path id="Path_17" data-name="Path 17" d="M30.7,372.947h0c0-.008,0-.016,0-.023s-.008-.038-.011-.057a3.245,3.245,0,0,0-.9-1.667,3.111,3.111,0,0,0-.753-.562l-.017-.01a1.064,1.064,0,0,0-.168-.086l-.02-.009c-.051-.026-.111-.05-.168-.072l-.025-.011-.031-.011-.01,0-.012,0a1.5,1.5,0,0,0-.167-.054l-.013,0a2.261,2.261,0,0,0-.219-.058,3.288,3.288,0,0,0-3.051.885c-.821.821-2.017,4.321-2.89,7.589.434-.126,1.034-.3,1.548-.458.451-.134.852-.253,1.057-.313,2.595-.833,4.4-1.622,4.94-2.163a3.265,3.265,0,0,0,.965-2.324,3.446,3.446,0,0,0-.048-.573Z" transform="translate(-22.24 -345.108)" fill="#0027ff"/>
      <path id="Path_18" data-name="Path 18" d="M119.157,264.268a63.209,63.209,0,0,0-5.554,7.321l.042.018a1.774,1.774,0,0,1,.2.087h0c.043.018.083.037.123.057l.035.02c.026.014.052.028.078.044a3.678,3.678,0,0,1,.881.659,3.813,3.813,0,0,1,.983,1.662,62.656,62.656,0,0,0,7.433-5.621,14.551,14.551,0,0,0-1.919-2.383A14.374,14.374,0,0,0,119.157,264.268Z" transform="translate(-107.01 -246.791)" fill="#0027ff"/>
      <path id="Path_19" data-name="Path 19" d="M211.641,24.8a88.635,88.635,0,0,0-15.732,14.32,14.951,14.951,0,0,1,2.328,1.894,15.151,15.151,0,0,1,1.948,2.405q.411-.363.809-.712c1.135-1,2.208-1.938,3.343-3.073l.522-.557h0l.095-.1.134-.144h0l.408-.438h0l.019-.02c.056-.06.113-.121.165-.181l0,0,0,0,1.51-1.614h0l.2-.215.16-.173h0l.164-.177a88.17,88.17,0,0,0,6.791-8.324c2.383-3.51,2.767-5.175,2.719-5.594C216.82,22.034,215.163,22.414,211.641,24.8Z" transform="translate(-183.376 -22.081)" fill="#0027ff"/>
    </g>
  </g>
</svg>
