<svg id="Group_14" data-name="Group 14" xmlns="http://www.w3.org/2000/svg" width="29.756" height="36.712" viewBox="0 0 29.756 36.712">
  <path id="Path_8" data-name="Path 8" d="M12.612,11.079H40.2a1.07,1.07,0,0,0,.58-1.971c-2.241-1.43-5.565-2.241-9.429-2.589A5.092,5.092,0,0,0,26.408,2.5,5.017,5.017,0,0,0,21.5,6.519c-3.9.348-7.226,1.2-9.429,2.589A1.058,1.058,0,0,0,12.612,11.079Zm13.8-6.492a2.951,2.951,0,0,1,2.666,1.739c-.889-.039-1.778-.077-2.666-.077s-1.816.039-2.666.077A2.951,2.951,0,0,1,26.408,4.587Z" transform="translate(-11.53 -2.5)" fill="#0027ff"/>
  <path id="Path_9" data-name="Path 9" d="M39.672,28.9H13.084a1.584,1.584,0,0,0,0,3.169h.927l2.589,20.6a3.134,3.134,0,0,0,3.13,2.744H33.064a3.167,3.167,0,0,0,3.13-2.744L38.744,32.03h.927a1.567,1.567,0,0,0,1.584-1.584A1.535,1.535,0,0,0,39.672,28.9ZM21.432,50.773h-.077a.928.928,0,0,1-.927-.85L19.268,35.856a.931.931,0,0,1,1.855-.155l1.159,14.067A.893.893,0,0,1,21.432,50.773Zm5.874-.927a.915.915,0,0,1-.927.927.94.94,0,0,1-.927-.927V35.779a.915.915,0,0,1,.927-.927.94.94,0,0,1,.927.927Zm5.024.077a.926.926,0,0,1-.927.85h-.077a.944.944,0,0,1-.85-1L31.634,35.7a.931.931,0,0,1,1.855.155Z" transform="translate(-11.5 -18.698)" fill="#0027ff"/>
</svg>
