<svg id="Group_15" data-name="Group 15" xmlns="http://www.w3.org/2000/svg" width="41.99" height="35.781" viewBox="0 0 41.99 35.781">
  <path id="Path_10" data-name="Path 10" d="M38.183,967.425A12.721,12.721,0,0,1,50.6,977.362a13.892,13.892,0,0,0-12.418,2.128,13.64,13.64,0,0,0-8.257-2.752,13.786,13.786,0,0,0-4.145.624A12.707,12.707,0,0,1,38.183,967.425Z" transform="translate(-17.188 -967.425)" fill="#0027ff" fill-rule="evenodd"/>
  <path id="Path_11" data-name="Path 11" d="M29.621,987.612a12.622,12.622,0,0,1,7.441,2.417,13.728,13.728,0,0,0-4.657,10.305c0,.4.03.79.064,1.184A12.735,12.735,0,0,1,25.156,990a12.885,12.885,0,0,1,.128-1.632A12.752,12.752,0,0,1,29.621,987.612Z" transform="translate(-16.883 -977.274)" fill="#0027ff" fill-rule="evenodd"/>
  <path id="Path_12" data-name="Path 12" d="M59.051,987.612a12.753,12.753,0,0,1,4.337.752A12.883,12.883,0,0,1,63.516,990a12.731,12.731,0,0,1-7.313,11.522c.034-.394.048-.781.048-1.184a13.706,13.706,0,0,0-4.657-10.305,12.656,12.656,0,0,1,7.457-2.417Z" transform="translate(-29.783 -977.274)" fill="#0027ff" fill-rule="evenodd"/>
  <path id="Path_13" data-name="Path 13" d="M16.313,989.956c-.033.39-.064.786-.064,1.184a13.75,13.75,0,0,0,8.481,12.69,13.722,13.722,0,0,0,4.465,7.953,12.728,12.728,0,1,1-12.882-21.827Z" transform="translate(-9 -978.418)" fill="#0027ff" fill-rule="evenodd"/>
  <path id="Path_14" data-name="Path 14" d="M64.476,989.956a12.728,12.728,0,1,1-12.882,21.827,13.726,13.726,0,0,0,4.465-7.953,13.747,13.747,0,0,0,8.481-12.69C64.54,990.742,64.509,990.346,64.476,989.956Z" transform="translate(-29.783 -978.418)" fill="#0027ff" fill-rule="evenodd"/>
  <path id="Path_15" data-name="Path 15" d="M45.761,993.581a12.623,12.623,0,0,1,4.337,11.3,12.879,12.879,0,0,1-8.673,0,12.624,12.624,0,0,1,4.337-11.3Z" transform="translate(-24.766 -980.187)" fill="#0027ff" fill-rule="evenodd"/>
  <path id="Path_16" data-name="Path 16" d="M41.906,1017.862a13.737,13.737,0,0,0,8.289,0,12.685,12.685,0,0,1-4.145,6.881A12.7,12.7,0,0,1,41.906,1017.862Z" transform="translate(-25.056 -992.034)" fill="#0027ff" fill-rule="evenodd"/>
</svg>
