<svg xmlns="http://www.w3.org/2000/svg" width="56.117" height="64.1" viewBox="0 0 56.117 64.1">
  <g id="noun_Power_796659" transform="translate(-21.9 -18)">
    <path id="Path_33" data-name="Path 33" d="M64,29.8a1.376,1.376,0,0,0-1.1-.1,1.272,1.272,0,0,0-.9.7,1.456,1.456,0,0,0,.5,2,24.956,24.956,0,0,1-9.6,46.5A25.093,25.093,0,0,1,25,54.1,25.235,25.235,0,0,1,37.5,32.4a1.456,1.456,0,0,0,.5-2,1.6,1.6,0,0,0-.9-.7,1.721,1.721,0,0,0-1.2.2A27.924,27.924,0,0,0,31.3,75a27.376,27.376,0,0,0,18.6,7.1c1.1,0,2.2-.1,3.3-.2C65.4,80.5,76.7,69,77.9,56.8A28.43,28.43,0,0,0,64,29.8Z" fill="#1d49ff"/>
    <path id="Path_34" data-name="Path 34" d="M49.6,48.3c.8,0,1.5-.9,1.5-2V20c0-1.1-.7-2-1.5-2s-1.5.9-1.5,2V46.4A1.717,1.717,0,0,0,49.6,48.3Z" fill="#1d49ff"/>
  </g>
</svg>
