<svg xmlns="http://www.w3.org/2000/svg" width="117" height="102.341" viewBox="0 0 117 102.341">
  <g id="Group_4" data-name="Group 4" transform="translate(-129 -158.659)">
    <g id="Group_3" data-name="Group 3" transform="translate(0 18)">
      <path id="Path_27" data-name="Path 27" d="M72.724,58.864A18.862,18.862,0,1,1,53.865,40,18.86,18.86,0,0,1,72.724,58.864Z" transform="translate(140.862 124.293)" fill="none" stroke="#fff" stroke-linecap="round" stroke-linejoin="round" stroke-miterlimit="10" stroke-width="2"/>
      <path id="Path_28" data-name="Path 28" d="M40.173,55.268,70.358,10H10Z" transform="translate(147 131.659)" fill="none" stroke="#fff" stroke-linecap="round" stroke-linejoin="round" stroke-miterlimit="10" stroke-width="2"/>
      <path id="Path_29" data-name="Path 29" d="M70,70l15.091,15.09Z" transform="translate(132.269 116.928)" fill="none" stroke="#fff" stroke-linecap="round" stroke-linejoin="round" stroke-miterlimit="10" stroke-width="2"/>
      <path id="Path_30" data-name="Path 30" d="M28.862,30,10,48.861Z" transform="translate(147 126.748)" fill="none" stroke="#fff" stroke-linecap="round" stroke-linejoin="round" stroke-miterlimit="10" stroke-width="2"/>
      <rect id="Rectangle_8" data-name="Rectangle 8" width="13.203" height="13.206" transform="translate(157 185.04)" stroke-width="2" stroke="#fff" stroke-linecap="round" stroke-linejoin="round" stroke-miterlimit="10" fill="none"/>
      <path id="Path_31" data-name="Path 31" d="M45,23.158l8.486,5.659,8.486-5.659L53.486,17.5Z" transform="translate(138.407 129.818)" fill="none" stroke="#fff" stroke-linecap="round" stroke-linejoin="round" stroke-miterlimit="10" stroke-width="2"/>
    </g>
    <text id="NMDRAW" transform="translate(129 255)" fill="#fff" font-size="25" font-family="Raleway-SemiBold, Raleway" font-weight="600"><tspan x="0" y="0">NMDRAW</tspan></text>
  </g>
</svg>
