<?xml version="1.0" encoding="UTF-8" standalone="no" ?>
<!DOCTYPE svg PUBLIC "-//W3C//DTD SVG 1.1//EN" "http://www.w3.org/Graphics/SVG/1.1/DTD/svg11.dtd">
<svg xmlns="http://www.w3.org/2000/svg" xmlns:xlink="http://www.w3.org/1999/xlink" version="1.1" width="980" height="1743" viewBox="0 0 980 1743" xml:space="preserve">
<desc>Created with Fabric.js 3.5.0</desc>
<defs>
</defs>
<g transform="matrix(1 0 0 1 470.82 164.78)"  >
<path style="stroke: rgb(0,0,0); stroke-width: 1; stroke-dasharray: none; stroke-linecap: round; stroke-dashoffset: 0; stroke-linejoin: round; stroke-miterlimit: 10; fill: none; fill-rule: nonzero; opacity: 1;"  transform=" translate(-470.43, -165.13)" d="M 244.19905798339843 123.67977905273438 Q 244.20005798339844 123.67977905273438 245.4679718017578 123.49473571777344 Q 246.7358856201172 123.3096923828125 247.8769989013672 123.3096923828125 Q 249.0181121826172 123.3096923828125 250.6664047241211 123.37137222290039 Q 252.314697265625 123.43305206298828 254.34336853027344 123.67977905273438 Q 256.3720397949219 123.92650604248047 258.78106689453125 124.23492050170898 Q 261.1900939941406 124.5433349609375 271.58697509765625 125.83866119384766 Q 281.9838562011719 127.13398742675781 292.1271667480469 128.3059539794922 Q 302.2704772949219 129.47792053222656 312.6673583984375 130.95829010009766 Q 323.0642395019531 132.43865966796875 334.3486785888672 134.28912353515625 Q 345.63311767578125 136.13958740234375 355.7764129638672 137.68164825439453 Q 365.9197082519531 139.2237091064453 376.1898193359375 141.07418060302734 Q 386.4599304199219 142.92465209960938 396.9835968017578 144.46670532226562 Q 407.50726318359375 146.00875854492188 417.77735900878906 147.4274444580078 Q 428.0474548339844 148.84613037109375 438.82472229003906 150.4498748779297 Q 449.60198974609375 152.05361938476562 460.3792419433594 153.78072357177734 Q 471.156494140625 155.50782775878906 481.9337615966797 157.23493194580078 Q 492.7110290527344 158.9620361328125 503.2346954345703 160.87418365478516 Q 513.7583618164062 162.7863311767578 524.1552429199219 165.1919403076172 Q 534.5521240234375 167.59754943847656 543.8078918457031 170.61997985839844 Q 553.0636596679688 173.6424102783203 562.0658569335938 176.97325897216797 Q 571.0680541992188 180.30410766601562 578.4219360351562 184.06671905517578 Q 585.7758178710938 187.82933044433594 591.9885864257812 192.2704620361328 Q 598.2013549804688 196.7115936279297 603.7801818847656 201.6461639404297 Q 609.3590087890625 206.5807342529297 613.5431518554688 211.45362854003906 Q 617.727294921875 216.32652282714844 620.5166625976562 221.8779296875 Q 623.3060302734375 227.42933654785156 624.8275451660156 232.9807357788086 Q 626.3490600585938 238.53213500976562 626.6026306152344 244.02185821533203 Q 626.856201171875 249.51158142089844 626.3490600585938 255.06299591064453 Q 625.8419189453125 260.6144104003906 623.813232421875 265.73402404785156 Q 621.7845458984375 270.8536376953125 618.8683471679688 275.17140197753906 Q 615.9521484375 279.4891662597656 612.0216369628906 283.0667419433594 Q 608.0911254882812 286.6443176269531 603.146240234375 289.97515869140625 Q 598.2013549804688 293.3059997558594 591.8617858886719 296.4517822265625 Q 585.522216796875 299.5975646972656 578.2951354980469 301.81813049316406 Q 571.0680541992188 304.0386962890625 562.4462280273438 305.76580810546875 Q 553.8244018554688 307.492919921875 543.8078918457031 308.41815185546875 Q 533.7913818359375 309.3433837890625 522.8873443603516 309.7134704589844 Q 511.9833068847656 310.08355712890625 499.43096923828125 309.0966491699219 Q 486.8786315917969 308.1097412109375 473.5655517578125 306.99945068359375 Q 460.2524719238281 305.88916015625 445.925048828125 302.99009704589844 Q 431.5976257324219 300.0910339355469 416.6362609863281 296.3284149169922 Q 401.6748962402344 292.5657958984375 386.4599151611328 288.24803161621094 Q 371.24493408203125 283.9302673339844 355.64959716796875 278.81065368652344 Q 340.05426025390625 273.6910400390625 324.7125244140625 268.38636779785156 Q 309.37078857421875 263.0816955566406 294.5362091064453 256.91346740722656 Q 279.7016296386719 250.7452392578125 265.62779235839844 244.20691680908203 Q 251.553955078125 237.66859436035156 238.74803161621094 232.1171875 Q 225.94210815429688 226.56578063964844 214.78447723388672 221.0143814086914 Q 203.62684631347656 215.46298217773438 193.48353576660156 210.40504455566406 Q 183.34022521972656 205.34710693359375 174.46483612060547 200.53588104248047 Q 165.58944702148438 195.7246551513672 158.2355499267578 191.34521484375 Q 150.88165283203125 186.9657745361328 145.04925537109375 183.32652282714844 Q 139.21685791015625 179.68727111816406 135.28632354736328 176.4181137084961 Q 131.3557891845703 173.14895629882812 129.07354736328125 169.81812286376953 Q 126.79130554199219 166.48728942871094 125.90377044677734 163.77325439453125 Q 125.0162353515625 161.05921936035156 126.28414154052734 158.09847259521484 Q 127.55204772949219 155.13772583007812 131.609375 152.1769790649414 Q 135.6667022705078 149.2162322998047 142.25984954833984 146.07044219970703 Q 148.85299682617188 142.92465209960938 158.61593627929688 140.45735931396484 Q 168.37887573242188 137.9900665283203 180.93120574951172 136.13959503173828 Q 193.48353576660156 134.28912353515625 207.30379486083984 133.2405242919922 Q 221.12405395507812 132.19192504882812 236.33900451660156 132.5003433227539 Q 251.553955078125 132.8087615966797 267.4028625488281 134.1040802001953 Q 283.25177001953125 135.39939880371094 300.1150207519531 137.80501556396484 Q 316.978271484375 140.21063232421875 334.0950927734375 143.41810607910156 Q 351.2119140625 146.62557983398438 369.08949279785156 150.9433364868164 Q 386.9670715332031 155.26109313964844 403.83030700683594 160.75081634521484 Q 420.69354248046875 166.24053955078125 437.8103942871094 172.47044372558594 Q 454.92724609375 178.70034790039062 471.28330993652344 186.2255859375 Q 487.6393737792969 193.75082397460938 503.3614959716797 201.39942169189453 Q 519.0836181640625 209.0480194091797 533.0306396484375 217.86858367919922 Q 546.9776611328125 226.68914794921875 560.4175720214844 235.87979888916016 Q 573.8574829101562 245.07044982910156 585.1419067382812 254.26111602783203 Q 596.4263305664062 263.4517822265625 605.1749267578125 271.840576171875 Q 613.9235229492188 280.2293701171875 619.6291198730469 287.3844909667969 Q 625.334716796875 294.53961181640625 628.8848876953125 299.65924072265625 Q 632.43505859375 304.77886962890625 633.7029418945312 308.10972595214844 Q 634.9708251953125 311.4405822753906 634.4636840820312 313.5994567871094 Q 633.95654296875 315.7583312988281 631.6743469238281 316.8686065673828 Q 629.3921508789062 317.9788818359375 624.5740356445312 317.9172058105469 Q 619.7559204101562 317.85552978515625 613.28955078125 315.82000732421875 Q 606.8231811523438 313.78448486328125 598.3281555175781 309.5284118652344 Q 589.8331298828125 305.2723388671875 580.3237915039062 298.8573913574219 Q 570.814453125 292.44244384765625 560.2908020019531 284.3003845214844 Q 549.7671508789062 276.1583251953125 538.7362670898438 267.58448791503906 Q 527.7053833007812 259.0106506347656 517.1817321777344 249.0798110961914 Q 506.6580810546875 239.1489715576172 496.8951416015625 229.03307342529297 Q 487.1322021484375 218.91717529296875 478.25682067871094 209.23306274414062 Q 469.3814392089844 199.5489501953125 462.5347137451172 190.17324829101562 Q 455.68798828125 180.79754638671875 450.99668884277344 172.59381103515625 Q 446.3053894042969 164.39007568359375 443.7695617675781 156.55642700195312 Q 441.2337341308594 148.7227783203125 441.10694885253906 142.06108856201172 Q 440.98016357421875 135.39939880371094 443.00885009765625 129.6012725830078 Q 445.03753662109375 123.80314636230469 450.3627624511719 117.88164901733398 Q 455.68798828125 111.96015167236328 463.80262756347656 106.65547561645508 Q 471.9172668457031 101.35079956054688 482.94810485839844 97.15640640258789 Q 493.97894287109375 92.9620132446289 507.16522216796875 89.26108169555664 Q 520.3515014648438 85.56015014648438 535.059326171875 82.9694938659668 Q 549.7671508789062 80.37883758544922 565.4892578125 79.2685546875 Q 581.2113647460938 78.15827178955078 598.0746154785156 77.91154098510742 Q 614.9378662109375 77.66481018066406 631.5475158691406 78.28163528442383 Q 648.1571655273438 78.8984603881836 665.147216796875 80.31715393066406 Q 682.1372680664062 81.73584747314453 697.9861755371094 83.70967864990234 Q 713.8350830078125 85.68350982666016 728.4161071777344 87.84238815307617 Q 742.9971313476562 90.00126647949219 754.9154663085938 92.09846496582031 Q 766.8338012695312 94.19566345214844 776.5967407226562 96.29286193847656 Q 786.3596801757812 98.39006042480469 793.3332214355469 100.48725509643555 Q 800.3067626953125 102.5844497680664 804.8712463378906 104.74332809448242 Q 809.4357299804688 106.90220642089844 811.8447265625 108.69099426269531 Q 814.2537231445312 110.47978210449219 815.0145263671875 112.0218391418457 Q 815.7753295898438 113.56389617919922 815.0145263671875 115.10595321655273 Q 814.2537231445312 116.64801025390625 811.5911560058594 118.49847412109375 Q 808.9285888671875 120.34893798828125 804.2373352050781 122.56949996948242 Q 799.5460815429688 124.7900619506836 791.5581970214844 126.94894027709961 Q 783.5703125 129.10781860351562 772.6662292480469 131.1433334350586 Q 761.7621459960938 133.17884826660156 749.9705810546875 134.78258514404297 Q 738.1790161132812 136.38632202148438 724.8659057617188 137.61996459960938 Q 711.5527954101562 138.85360717773438 697.3521728515625 140.0872573852539 Q 683.1515502929688 141.32090759277344 668.6973876953125 142.92464447021484 Q 654.2432250976562 144.52838134765625 638.7746276855469 146.1321258544922 Q 623.3060302734375 147.73587036132812 607.9643249511719 149.77137756347656 Q 592.6226196289062 151.806884765625 577.2808532714844 154.15081024169922 Q 561.9390869140625 156.49473571777344 547.3580932617188 159.27044677734375 Q 532.777099609375 162.04615783691406 518.1960754394531 164.6368179321289 Q 503.61505126953125 167.22747802734375 491.0627136230469 170.00316619873047 Q 478.5103759765625 172.7788543701172 467.47955322265625 175.30783081054688 Q 456.44873046875 177.83680725097656 446.685791015625 179.50223541259766 Q 436.9228515625 181.16766357421875 429.0618133544922 181.9695281982422 Q 421.2007751464844 182.77139282226562 415.74871826171875 182.09288024902344 Q 410.2966613769531 181.41436767578125 405.8589630126953 179.19380950927734 Q 401.4212646484375 176.97325134277344 399.0122375488281 172.71717834472656 Q 396.60321044921875 168.4611053466797 396.60321044921875 161.05923461914062 Q 396.60321044921875 153.65736389160156 398.2514953613281 145.39193725585938 Q 399.8997802734375 137.1265106201172 403.1963653564453 128.4293098449707 Q 406.4929504394531 119.73210906982422 411.8181915283203 112.0218276977539 Q 417.1434326171875 104.3115463256836 425.00450134277344 95.67603302001953 Q 432.8655700683594 87.04051971435547 442.75526428222656 79.20687484741211 Q 452.64495849609375 71.37322998046875 463.5490264892578 63.66294479370117 Q 474.4530944824219 55.952659606933594 485.7375030517578 49.476022720336914 Q 497.02191162109375 42.999385833740234 508.68670654296875 37.57134819030762 Q 520.3515014648438 32.143310546875 532.5234680175781 28.07228183746338 Q 544.6954345703125 24.001253128051758 556.9942016601562 20.73209285736084 Q 569.29296875 17.462932586669922 581.3381652832031 15.427418231964111 Q 593.3833618164062 13.3919038772583 604.6677551269531 12.775081157684326 Q 615.9521484375 12.158258438110352 626.6026306152344 12.83676290512085 Q 637.2531127929688 13.515267372131348 646.8892517089844 15.427417278289795 Q 656.525390625 17.339567184448242 665.0204467773438 19.86854076385498 Q 673.5155029296875 22.39751434326172 680.3622131347656 25.913402557373047 Q 687.2089233398438 29.429290771484375 692.2805480957031 33.68536567687988 Q 697.3521728515625 37.94144058227539 701.6630859375 43.36948013305664 Q 705.9739990234375 48.79751968383789 708.7633972167969 54.96574592590332 Q 711.5527954101562 61.13397216796875 713.4546813964844 67.98070526123047 Q 715.3565673828125 74.82743835449219 716.3708801269531 82.66107940673828 Q 717.3851928710938 90.49472045898438 717.5119934082031 99.19192504882812 Q 717.6387939453125 107.88912963867188 717.0048522949219 117.57323837280273 Q 716.3709106445312 127.2573471069336 714.2154541015625 136.50968551635742 Q 712.0599975585938 145.76202392578125 708.6366271972656 155.1994171142578 Q 705.2132568359375 164.63681030273438 701.0291748046875 173.88914489746094 Q 696.8450927734375 183.1414794921875 691.1394348144531 191.40689849853516 Q 685.4337768554688 199.6723175048828 677.8263244628906 207.1975555419922 Q 670.2188720703125 214.72279357910156 661.0898742675781 221.63121032714844 Q 651.9608764648438 228.5396270751953 641.3104248046875 234.76952362060547 Q 630.6599731445312 240.99942016601562 618.7415771484375 245.6872787475586 Q 606.8231811523438 250.37513732910156 593.2565002441406 254.26111602783203 Q 579.6898193359375 258.1470947265625 564.7284851074219 261.231201171875 Q 549.7671508789062 264.3153076171875 533.537841796875 265.8573760986328 Q 517.3085327148438 267.3994445800781 500.31849670410156 267.5227966308594 Q 483.3284606933594 267.6461486816406 466.5920104980469 266.04241943359375 Q 449.8555603027344 264.4386901855469 433.75306701660156 261.416259765625 L 417.6495737304688 258.39282934570315" stroke-linecap="round" />
</g>
<g transform="matrix(1 0 0 1 296.56 148.91)"  >
<path style="stroke: rgb(0,0,0); stroke-width: 1; stroke-dasharray: none; stroke-linecap: round; stroke-dashoffset: 0; stroke-linejoin: round; stroke-miterlimit: 10; fill: none; fill-rule: nonzero; opacity: 1;"  transform=" translate(-296.56, -148.91)" d="M 295.6763071289063 147.24140112304687 Q 295.67730712890625 147.24240112304688 295.8041076660156 147.4274444580078 Q 295.930908203125 147.61248779296875 296.0576934814453 147.98258209228516 Q 296.1844787597656 148.35267639160156 296.4380798339844 148.84613800048828 Q 296.6916809082031 149.339599609375 297.0720520019531 149.9564208984375 L 297.4534230957031 150.5742421875" stroke-linecap="round" />
</g>
<g transform="matrix(1 0 0 1 379.23 108.75)"  >
<path style="stroke: rgb(0,0,0); stroke-width: 1; stroke-dasharray: none; stroke-linecap: round; stroke-dashoffset: 0; stroke-linejoin: round; stroke-miterlimit: 10; fill: none; fill-rule: nonzero; opacity: 1;"  transform=" translate(-379.23, -108.75)" d="M 313.1735300292969 57.061942504882815 Q 313.1745300292969 57.06294250488281 313.6816864013672 57.67976379394531 Q 314.1888427734375 58.29658508300781 314.94960021972656 59.09845733642578 Q 315.7103576660156 59.90032958984375 317.1050720214844 61.19565391540527 Q 318.4997863769531 62.4909782409668 320.2748565673828 64.09471702575684 Q 322.0499267578125 65.69845581054688 324.33216857910156 67.73397064208984 Q 326.6144104003906 69.76948547363281 337.1380920410156 78.96014404296875 Q 347.6617736816406 88.15080261230469 358.9461975097656 97.15641784667969 Q 370.2306213378906 106.16203308105469 382.40260314941406 115.3526840209961 Q 394.5745849609375 124.5433349609375 419.93284606933594 142.4928741455078 L 445.29210717773435 160.44341333007813" stroke-linecap="round" />
</g>
<g transform="matrix(1 0 0 1 479.14 211.48)"  >
<path style="stroke: rgb(0,0,0); stroke-width: 1; stroke-dasharray: none; stroke-linecap: round; stroke-dashoffset: 0; stroke-linejoin: round; stroke-miterlimit: 10; fill: none; fill-rule: nonzero; opacity: 1;"  transform=" translate(-479.14, -211.48)" d="M 568.0260854492187 211.2696004638672 Q 568.0250854492188 211.2686004638672 567.8982849121094 211.02186584472656 Q 567.771484375 210.77513122558594 567.3910827636719 210.46671295166016 Q 567.0106811523438 210.15829467773438 565.6159973144531 210.09662628173828 Q 564.2213134765625 210.0349578857422 562.0658569335938 210.28168487548828 Q 559.910400390625 210.52841186523438 554.8387756347656 211.0835418701172 Q 549.7671508789062 211.638671875 540.1310119628906 212.37887573242188 Q 530.494873046875 213.11907958984375 514.8995361328125 213.92093658447266 Q 499.30419921875 214.72279357910156 482.0605926513672 214.84616088867188 Q 464.8169860839844 214.9695281982422 446.55902099609375 214.1676483154297 Q 428.3010559082031 213.3657684326172 409.2823486328125 210.71343994140625 L 390.2626413574219 208.0601114501953" stroke-linecap="round" />
</g>
<g transform="matrix(1 0 0 1 282.62 127.87)"  >
<path style="stroke: rgb(0,0,0); stroke-width: 1; stroke-dasharray: none; stroke-linecap: round; stroke-dashoffset: 0; stroke-linejoin: round; stroke-miterlimit: 10; fill: none; fill-rule: nonzero; opacity: 1;"  transform=" translate(-282.62, -127.87)" d="M 160.77037756347656 79.6376489868164 Q 160.77137756347656 79.6386489868164 161.27854919433594 79.7003288269043 Q 161.7857208251953 79.76200866699219 162.419677734375 79.94705581665039 Q 163.0536346435547 80.1321029663086 164.19475555419922 80.56388092041016 Q 165.33587646484375 80.99565887451172 166.8573760986328 81.67416381835938 Q 168.37887573242188 82.35266876220703 176.7470932006836 85.68350982666016 Q 185.1153106689453 89.01435089111328 194.87823486328125 93.51715850830078 Q 204.6411590576172 98.01996612548828 216.93993377685547 103.38632202148438 Q 229.23870849609375 108.75267791748047 244.0732879638672 114.79753494262695 Q 258.9078674316406 120.84239196777344 274.75677490234375 126.94893646240234 Q 290.6056823730469 133.05548095703125 308.1028747558594 139.3470687866211 Q 325.6000671386719 145.63865661621094 344.9991455078125 152.91716766357422 Q 364.3982238769531 160.1956787109375 384.43125915527344 168.15269470214844 L 404.4652944335937 176.11071069335938" stroke-linecap="round" />
</g>
<g transform="matrix(1 0 0 1 638.12 225.02)"  >
<path style="stroke: rgb(0,0,0); stroke-width: 1; stroke-dasharray: none; stroke-linecap: round; stroke-dashoffset: 0; stroke-linejoin: round; stroke-miterlimit: 10; fill: none; fill-rule: nonzero; opacity: 1;"  transform=" translate(-638.12, -225.02)" d="M 639.7900014648437 346.7238393554687 Q 639.7890014648438 346.72283935546875 639.2817993164062 345.42750549316406 Q 638.7745971679688 344.1321716308594 638.6478271484375 343.51536560058594 Q 638.5210571289062 342.8985595703125 638.394287109375 342.22003173828125 Q 638.2675170898438 341.54150390625 638.1407165527344 340.67796325683594 Q 638.013916015625 339.8144226074219 637.8871154785156 336.9153594970703 Q 637.7603149414062 334.01629638671875 637.7603149414062 331.54901123046875 Q 637.7603149414062 329.08172607421875 637.8871154785156 327.2312469482422 Q 638.013916015625 325.3807678222656 638.1407165527344 323.77703857421875 Q 638.2675170898438 322.1733093261719 638.6478576660156 320.56956481933594 Q 639.0281982421875 318.9658203125 639.0281982421875 317.54713439941406 Q 639.0281982421875 316.1284484863281 639.1549987792969 314.64805603027344 Q 639.2817993164062 313.16766357421875 639.4085693359375 311.6256103515625 Q 639.5353393554688 310.08355712890625 639.6621704101562 308.23309326171875 Q 639.7890014648438 306.38262939453125 640.1693420410156 304.40879821777344 Q 640.5496826171875 302.4349670410156 640.9300537109375 300.2144012451172 Q 641.3104248046875 297.99383544921875 641.3104248046875 296.02000427246094 Q 641.3104248046875 294.0461730957031 641.1836242675781 292.2574005126953 Q 641.0568237304688 290.4686279296875 641.0568237304688 288.61814880371094 Q 641.0568237304688 286.7676696777344 641.1836242675781 284.9172058105469 Q 641.3104248046875 283.0667419433594 641.5640563964844 281.4013214111328 Q 641.8176879882812 279.73590087890625 641.6908874511719 278.0087890625 Q 641.5640869140625 276.28167724609375 641.437255859375 274.43121337890625 Q 641.3104248046875 272.58074951171875 641.3104248046875 270.73028564453125 Q 641.3104248046875 268.87982177734375 641.1836242675781 266.96766662597656 Q 641.0568237304688 265.0555114746094 640.9300537109375 263.14337158203125 Q 640.8032836914062 261.2312316894531 640.8032836914062 259.5657958984375 Q 640.8032836914062 257.9003601074219 640.9300537109375 256.1732711791992 Q 641.0568237304688 254.44618225097656 640.9300537109375 252.90412139892578 Q 640.8032836914062 251.362060546875 640.8032836914062 249.8199920654297 Q 640.8032836914062 248.27792358398438 640.8032836914062 246.67418670654297 Q 640.8032836914062 245.07044982910156 640.6764831542969 243.46671295166016 Q 640.5496826171875 241.86297607421875 640.5496826171875 240.4442901611328 Q 640.5496826171875 239.02560424804688 640.5496826171875 237.6686019897461 Q 640.5496826171875 236.3115997314453 640.5496826171875 234.7078628540039 Q 640.5496826171875 233.1041259765625 640.6764831542969 231.68543243408203 Q 640.8032836914062 230.26673889160156 640.8032836914062 228.84803771972656 Q 640.8032836914062 227.42933654785156 640.8032836914062 226.19569396972656 Q 640.8032836914062 224.96205139160156 640.9300537109375 223.85177612304688 Q 641.0568237304688 222.7415008544922 641.1836242675781 221.63121795654297 Q 641.3104248046875 220.52093505859375 641.3104248046875 219.41065216064453 Q 641.3104248046875 218.3003692626953 641.437255859375 217.0667266845703 Q 641.5640869140625 215.8330841064453 641.5640869140625 214.53775024414062 Q 641.5640869140625 213.24241638183594 641.6908874511719 211.63868713378906 Q 641.8176879882812 210.0349578857422 641.6908874511719 208.6162567138672 Q 641.5640869140625 207.1975555419922 641.437255859375 205.71717834472656 Q 641.3104248046875 204.23680114746094 641.1836242675781 202.9414825439453 Q 641.0568237304688 201.6461639404297 641.0568237304688 200.35083770751953 Q 641.0568237304688 199.05551147460938 640.6764526367188 197.7601776123047 Q 640.2960815429688 196.46484375 640.1693115234375 195.41624450683594 Q 640.0425415039062 194.36764526367188 640.0425415039062 193.25736236572266 Q 640.0425415039062 192.14707946777344 639.915771484375 191.28353118896484 Q 639.7890014648438 190.41998291015625 639.7890014648438 189.55642700195312 Q 639.7890014648438 188.69287109375 639.7890014648438 187.8293228149414 Q 639.7890014648438 186.9657745361328 639.6621704101562 186.16390991210938 Q 639.5353393554688 185.36204528808594 639.6621704101562 184.62185668945312 Q 639.7890014648438 183.8816680908203 639.7890014648438 183.1414794921875 Q 639.7890014648438 182.4012908935547 639.6621704101562 181.72279357910156 Q 639.5353393554688 181.04429626464844 639.7889404296875 179.99568939208984 Q 640.0425415039062 178.94708251953125 640.0425415039062 178.0218505859375 Q 640.0425415039062 177.09661865234375 640.0425415039062 176.23307037353516 Q 640.0425415039062 175.36952209472656 640.0425415039062 174.1975555419922 Q 640.0425415039062 173.0255889892578 640.2961120605469 172.10035705566406 Q 640.5496826171875 171.1751251220703 640.6764831542969 170.12652587890625 Q 640.8032836914062 169.0779266357422 640.8032836914062 168.02932739257812 Q 640.8032836914062 166.98072814941406 640.6764831542969 165.93212890625 Q 640.5496826171875 164.88352966308594 640.6764831542969 163.95830535888672 Q 640.8032836914062 163.0330810546875 640.5496826171875 161.92279052734375 Q 640.2960815429688 160.8125 640.2960815429688 159.76390838623047 Q 640.2960815429688 158.71531677246094 640.1693115234375 157.7283935546875 Q 640.0425415039062 156.74147033691406 639.915771484375 155.8162384033203 Q 639.7890014648438 154.89100646972656 639.6621704101562 153.96576690673828 Q 639.5353393554688 153.04052734375 639.4085693359375 152.0536117553711 Q 639.2817993164062 151.0666961669922 639.2817993164062 150.14146423339844 Q 639.2817993164062 149.2162322998047 639.0281982421875 148.0442657470703 Q 638.7745971679688 146.87229919433594 638.6478271484375 145.63865661621094 Q 638.5210571289062 144.40501403808594 638.394287109375 143.2330551147461 Q 638.2675170898438 142.06109619140625 638.2675170898438 141.0124969482422 Q 638.2675170898438 139.96389770507812 638.2675170898438 138.6068878173828 Q 638.2675170898438 137.2498779296875 638.1407165527344 136.0162353515625 Q 638.013916015625 134.7825927734375 638.013916015625 133.4255828857422 Q 638.013916015625 132.06857299804688 638.013916015625 130.71156311035156 Q 638.013916015625 129.35455322265625 638.013916015625 128.05922317504883 Q 638.013916015625 126.7638931274414 638.013916015625 125.5919303894043 Q 638.013916015625 124.41996765136719 638.1407165527344 123.12464141845703 Q 638.2675170898438 121.82931518554688 638.013916015625 120.47230529785156 Q 637.7603149414062 119.11529541015625 637.6335144042969 117.69659805297852 Q 637.5067138671875 116.27790069580078 637.3799133300781 115.04425811767578 Q 637.2531127929688 113.81061553955078 637.1263427734375 112.88538360595703 Q 636.9995727539062 111.96015167236328 636.9995727539062 111.21996688842773 Q 636.9995727539062 110.47978210449219 636.7460021972656 109.80127716064453 Q 636.492431640625 109.12277221679688 636.1119995117188 108.38258361816406 Q 635.7315673828125 107.64239501953125 635.6047973632812 107.14894104003906 Q 635.47802734375 106.65548706054688 635.47802734375 106.22371292114258 Q 635.47802734375 105.79193878173828 635.2244262695312 105.42183685302734 Q 634.9708251953125 105.0517349243164 634.9708251953125 104.61996078491211 Q 634.9708251953125 104.18818664550781 634.71728515625 104.12650680541992 Q 634.4637451171875 104.06482696533203 634.4637451171875 103.69473266601562 L 634.4637451171875 103.32363836669921" stroke-linecap="round" />
</g>
<g transform="matrix(1 0 0 1 508.58 185.73)"  >
<path style="stroke: rgb(0,0,0); stroke-width: 1; stroke-dasharray: none; stroke-linecap: round; stroke-dashoffset: 0; stroke-linejoin: round; stroke-miterlimit: 10; fill: none; fill-rule: nonzero; opacity: 1;"  transform=" translate(-508.58, -185.73)" d="M 512.7450795898437 291.2097707519531 Q 512.7440795898438 291.2087707519531 512.490478515625 290.96205139160156 Q 512.2368774414062 290.71533203125 511.8565216064453 290.28355407714844 Q 511.4761657714844 289.8517761230469 511.22254943847656 289.481689453125 Q 510.96893310546875 289.1116027832031 510.84214782714844 288.61814880371094 Q 510.7153625488281 288.12469482421875 510.46177673339844 287.5078582763672 Q 510.20819091796875 286.8910217285156 510.08140563964844 286.2125244140625 Q 509.9546203613281 285.5340270996094 509.8278350830078 284.7321472167969 Q 509.7010498046875 283.9302673339844 509.3206787109375 280.5377502441406 Q 508.9403076171875 277.1452331542969 508.6867218017578 274.1844787597656 Q 508.4331359863281 271.2237243652344 508.17955017089844 268.4480285644531 Q 507.92596435546875 265.6723327636719 507.79917907714844 263.3284149169922 Q 507.6723937988281 260.9844970703125 507.41880798339844 258.64056396484375 Q 507.16522216796875 256.296630859375 507.03843688964844 253.829345703125 Q 506.9116516113281 251.362060546875 506.7848663330078 248.64804077148438 Q 506.6580810546875 245.93402099609375 506.5312805175781 242.66485595703125 Q 506.40447998046875 239.39569091796875 506.1509094238281 236.18822479248047 Q 505.8973388671875 232.9807586669922 505.8973388671875 229.64990997314453 Q 505.8973388671875 226.31906127929688 505.8973388671875 222.74149322509766 Q 505.8973388671875 219.16392517089844 505.8973388671875 214.9695281982422 Q 505.8973388671875 210.77513122558594 506.0241241455078 206.33402252197266 Q 506.1509094238281 201.89291381835938 506.0241241455078 197.51346588134766 Q 505.8973388671875 193.13401794433594 505.6437530517578 188.69288635253906 Q 505.3901672363281 184.2517547607422 505.2633819580078 180.11904907226562 Q 505.1365966796875 175.98634338378906 505.1365966796875 172.6554946899414 Q 505.1365966796875 169.32464599609375 505.0097961425781 166.24053955078125 Q 504.88299560546875 163.15643310546875 504.62939453125 160.25736236572266 Q 504.37579345703125 157.35829162597656 504.5025939941406 154.76763916015625 Q 504.62939453125 152.17698669433594 504.62939453125 149.7096939086914 Q 504.62939453125 147.24240112304688 504.7561950683594 144.77510833740234 Q 504.88299560546875 142.3078155517578 504.88299560546875 139.4704360961914 Q 504.88299560546875 136.633056640625 504.7561950683594 134.22744750976562 Q 504.62939453125 131.82183837890625 504.62939453125 129.72463989257812 Q 504.62939453125 127.62744140625 504.7561950683594 125.59192657470703 Q 504.88299560546875 123.55641174316406 505.0097961425781 121.58258819580078 Q 505.1365966796875 119.6087646484375 504.88299560546875 117.51155853271484 Q 504.62939453125 115.41435241699219 504.7561950683594 113.50220489501953 Q 504.88299560546875 111.59005737304688 504.88299560546875 109.30781936645508 Q 504.88299560546875 107.02558135986328 504.88299560546875 104.86670303344727 Q 504.88299560546875 102.70782470703125 505.0097961425781 100.79567337036133 Q 505.1365966796875 98.8835220336914 505.1365966796875 97.46482467651367 Q 505.1365966796875 96.04612731933594 505.3901672363281 94.62744140625 Q 505.64373779296875 93.20875549316406 505.7705383300781 91.91342544555664 Q 505.8973388671875 90.61809539794922 506.0241241455078 89.5078125 Q 506.1509094238281 88.39752960205078 506.1509094238281 87.16388702392578 Q 506.1509094238281 85.93024444580078 506.27769470214844 84.88164520263672 Q 506.40447998046875 83.83304595947266 506.65806579589844 82.9078140258789 Q 506.9116516113281 81.98258209228516 507.41880798339844 81.1190299987793 L 507.9269643554687 80.25447790527343" stroke-linecap="round" />
</g>
<g transform="matrix(1 0 0 1 497.29 158.35)"  >
<path style="stroke: rgb(0,0,0); stroke-width: 1; stroke-dasharray: none; stroke-linecap: round; stroke-dashoffset: 0; stroke-linejoin: round; stroke-miterlimit: 10; fill: none; fill-rule: nonzero; opacity: 1;"  transform=" translate(-497.29, -158.35)" d="M 495.75499780273435 253.2135244140625 Q 495.7539978027344 253.2125244140625 495.50042724609375 253.15084075927734 Q 495.2468566894531 253.0891571044922 494.99327087402344 252.96578979492188 Q 494.73968505859375 252.84242248535156 494.61289978027344 252.65737915039062 Q 494.4861145019531 252.4723358154297 494.23252868652344 252.28728485107422 Q 493.97894287109375 252.10223388671875 493.85215759277344 251.60877990722656 Q 493.7253723144531 251.11532592773438 493.47178649902344 250.4368133544922 Q 493.21820068359375 249.75830078125 492.96461486816406 248.70970916748047 Q 492.7110290527344 247.66111755371094 492.3306427001953 242.29476165771484 Q 491.95025634765625 236.92840576171875 491.8234558105469 230.82186126708984 Q 491.6966552734375 224.71531677246094 491.8234558105469 217.06671142578125 Q 491.95025634765625 209.41810607910156 492.07704162597656 200.8442840576172 Q 492.2038269042969 192.2704620361328 492.3306427001953 183.75830078125 Q 492.45745849609375 175.2461395263672 492.96461486816406 167.22744750976562 Q 493.4717712402344 159.20875549316406 493.59857177734375 151.00502014160156 Q 493.7253723144531 142.80128479003906 493.97894287109375 135.33773040771484 Q 494.2325134277344 127.87417602539062 494.6128845214844 119.91716384887695 Q 494.9932556152344 111.96015167236328 495.62721252441406 105.05173873901367 Q 496.26116943359375 98.14332580566406 496.89512634277344 91.91341781616211 Q 497.5290832519531 85.68350982666016 498.2898406982422 80.62556457519531 Q 499.05059814453125 75.56761932373047 499.68455505371094 71.92836380004883 Q 500.3185119628906 68.28910827636719 501.58641052246094 65.88350105285645 L 502.8553090820312 63.476893829345705" stroke-linecap="round" />
</g>
<g transform="matrix(1 0 0 1 523.68 168.83)"  >
<path style="stroke: rgb(0,0,0); stroke-width: 1; stroke-dasharray: none; stroke-linecap: round; stroke-dashoffset: 0; stroke-linejoin: round; stroke-miterlimit: 10; fill: none; fill-rule: nonzero; opacity: 1;"  transform=" translate(-523.68, -168.83)" d="M 529.7350698242187 252.22661645507813 Q 529.7340698242188 252.22561645507812 529.6072692871094 251.91719818115234 Q 529.48046875 251.60877990722656 529.3536682128906 250.9302749633789 Q 529.2268676757812 250.25177001953125 529.10009765625 249.20317840576172 Q 528.9733276367188 248.1545867919922 528.5929565429688 246.61251831054688 Q 528.2125854492188 245.07044982910156 527.8322143554688 242.97325897216797 Q 527.4518432617188 240.87606811523438 527.0714721679688 238.40877532958984 Q 526.6911010742188 235.9414825439453 524.7892150878906 225.39382934570312 Q 522.8873291015625 214.84617614746094 521.7462158203125 204.29850006103516 Q 520.6051025390625 193.75082397460938 519.7175598144531 183.88166046142578 Q 518.8300170898438 174.0124969482422 518.3228759765625 163.77324676513672 Q 517.8157348632812 153.53399658203125 517.6889343261719 145.76203155517578 Q 517.5621337890625 137.9900665283203 518.3228759765625 131.01996994018555 Q 519.0836181640625 124.04987335205078 519.8443603515625 116.95641708374023 Q 520.6051025390625 109.86296081542969 522.3801879882812 103.75641632080078 Q 524.1552734375 97.64987182617188 525.9303283691406 91.54332733154297 L 527.7063833007812 85.43578283691406" stroke-linecap="round" />
</g>
<g transform="matrix(1 0 0 1 578.21 180.12)"  >
<path style="stroke: rgb(0,0,0); stroke-width: 1; stroke-dasharray: none; stroke-linecap: round; stroke-dashoffset: 0; stroke-linejoin: round; stroke-miterlimit: 10; fill: none; fill-rule: nonzero; opacity: 1;"  transform=" translate(-578.21, -180.12)" d="M 575.8871083984375 108.01148931884765 Q 575.8861083984375 108.01248931884766 575.3789672851562 108.50594329833984 Q 574.871826171875 108.99939727783203 574.1110534667969 109.67790603637695 Q 573.3502807617188 110.35641479492188 572.4627380371094 111.28164672851562 Q 571.5751953125 112.20687866210938 570.5608825683594 113.62556838989258 Q 569.5465698242188 115.04425811767578 568.4054260253906 116.83304977416992 Q 567.2642822265625 118.62184143066406 562.9533996582031 126.393798828125 Q 558.6425170898438 134.16575622558594 554.965576171875 142.24613189697266 Q 551.2886352539062 150.32650756835938 548.8795776367188 158.5302505493164 Q 546.4705200195312 166.73399353027344 545.2026062011719 175.80128479003906 Q 543.9346923828125 184.8685760498047 543.8079223632812 192.51718139648438 Q 543.68115234375 200.16578674316406 544.9490356445312 206.6424331665039 Q 546.2169189453125 213.11907958984375 548.3724060058594 219.22561645507812 Q 550.5278930664062 225.3321533203125 553.063720703125 230.2667236328125 Q 555.5995483398438 235.2012939453125 558.2621459960938 238.53213500976562 Q 560.9247436523438 241.86297607421875 563.8409423828125 244.4536361694336 Q 566.7571411132812 247.04429626464844 569.0393981933594 248.89476776123047 Q 571.3216552734375 250.7452392578125 573.8574829101562 251.4854278564453 Q 576.393310546875 252.22561645507812 578.675537109375 252.22561645507812 Q 580.957763671875 252.22561645507812 583.239990234375 250.80691528320312 Q 585.522216796875 249.38821411132812 586.9169311523438 246.85923767089844 Q 588.3116455078125 244.33026123046875 589.8331298828125 240.937744140625 Q 591.3546142578125 237.54522705078125 591.4814147949219 233.84429168701172 Q 591.6082153320312 230.1433563232422 592.1154174804688 226.07233428955078 Q 592.6226196289062 222.00131225585938 593.0029907226562 218.36205291748047 Q 593.3833618164062 214.72279357910156 593.1297607421875 210.7751235961914 Q 592.8761596679688 206.82745361328125 592.8761596679688 203.49662017822266 Q 592.8761596679688 200.16578674316406 593.1297607421875 197.94522094726562 Q 593.3833618164062 195.7246551513672 593.6369323730469 194.36764526367188 Q 593.8905029296875 193.01063537597656 594.2708740234375 192.14708709716797 Q 594.6512451171875 191.28353881835938 595.0316162109375 190.91344451904297 Q 595.4119873046875 190.54335021972656 596.0459289550781 190.11157989501953 Q 596.6798706054688 189.6798095703125 597.6942138671875 189.6798095703125 Q 598.7085571289062 189.6798095703125 599.8496704101562 189.80316925048828 Q 600.9907836914062 189.92652893066406 602.6390686035156 189.92652893066406 Q 604.287353515625 189.92652893066406 606.1892395019531 189.80316925048828 Q 608.0911254882812 189.6798095703125 610.3733825683594 189.06298065185547 L 612.6566396484375 188.44515173339843" stroke-linecap="round" />
</g>
<g transform="matrix(1 0 0 1 589.58 131.95)"  >
<path style="stroke: rgb(0,0,0); stroke-width: 1; stroke-dasharray: none; stroke-linecap: round; stroke-dashoffset: 0; stroke-linejoin: round; stroke-miterlimit: 10; fill: none; fill-rule: nonzero; opacity: 1;"  transform=" translate(-589.58, -131.95)" d="M 590.0877309570312 132.8097615966797 Q 590.0867309570312 132.8087615966797 589.7063598632812 132.19193267822266 Q 589.3259887695312 131.57510375976562 589.1991882324219 131.32837677001953 L 589.0713876953125 131.08064978027343" stroke-linecap="round" />
</g>
<g transform="matrix(1 0 0 1 909.85 338.21)"  >
<path style="stroke: rgb(0,0,0); stroke-width: 1; stroke-dasharray: none; stroke-linecap: round; stroke-dashoffset: 0; stroke-linejoin: round; stroke-miterlimit: 10; fill: none; fill-rule: nonzero; opacity: 1;"  transform=" translate(-909.85, -338.21)" d="M 909.8534921875 338.2106628417969 L 909.8554921875 338.2106628417969" stroke-linecap="round" />
</g>
<g transform="matrix(1 0 0 1 905.67 341.05)"  >
<path style="stroke: rgb(0,0,0); stroke-width: 1; stroke-dasharray: none; stroke-linecap: round; stroke-dashoffset: 0; stroke-linejoin: round; stroke-miterlimit: 10; fill: none; fill-rule: nonzero; opacity: 1;"  transform=" translate(-905.67, -341.05)" d="M 905.7970581054688 342.7761770019531 Q 905.7970581054688 342.7751770019531 905.6702880859375 341.41815185546875 Q 905.5435180664062 340.0611267089844 905.5435180664062 339.6910400390625 L 905.5435180664062 339.31995336914065" stroke-linecap="round" />
</g>
<g transform="matrix(1 0 0 1 274.56 343.41)"  >
<circle style="stroke: none; stroke-width: 1; stroke-dasharray: none; stroke-linecap: butt; stroke-dashoffset: 0; stroke-linejoin: miter; stroke-miterlimit: 4; fill: rgb(11,97,164); fill-rule: nonzero; opacity: 1;"  cx="0" cy="0" r="20" />
</g>
</svg>