<?xml version="1.0" encoding="UTF-8" standalone="no" ?>
<!DOCTYPE svg PUBLIC "-//W3C//DTD SVG 1.1//EN" "http://www.w3.org/Graphics/SVG/1.1/DTD/svg11.dtd">
<svg xmlns="http://www.w3.org/2000/svg" xmlns:xlink="http://www.w3.org/1999/xlink" version="1.1" width="980" height="552" viewBox="0 0 980 552" xml:space="preserve">
<desc>Created with Fabric.js 3.5.0</desc>
<defs>
</defs>
<g transform="matrix(1 0 0 1 542.05 298.68)"  >
<path style="stroke: rgb(0,0,0); stroke-width: 1; stroke-dasharray: none; stroke-linecap: round; stroke-dashoffset: 0; stroke-linejoin: round; stroke-miterlimit: 10; fill: none; fill-rule: nonzero; opacity: 1;"  transform=" translate(-542.05, -298.68)" d="M 284.8902587890625 339.711205078125 Q 284.8902587890625 339.710205078125 284.704833984375 338.78009033203125 Q 284.5194091796875 337.8499755859375 284.5194091796875 335.571044921875 Q 284.5194091796875 333.2921142578125 284.5194091796875 329.9783935546875 Q 284.5194091796875 326.6646728515625 284.5194091796875 322.14569091796875 Q 284.5194091796875 317.626708984375 284.5194091796875 312.4407958984375 Q 284.5194091796875 307.2548828125 284.5194091796875 302.0689697265625 Q 284.5194091796875 296.883056640625 284.97100830078125 290.9853515625 Q 285.422607421875 285.087646484375 286.71759033203125 279.9017333984375 Q 288.0125732421875 274.7158203125 290.73114013671875 269.272705078125 Q 293.44970703125 263.82958984375 296.62286376953125 258.386474609375 Q 299.7960205078125 252.943359375 305.02081298828125 248.19110107421875 Q 310.24560546875 243.4388427734375 315.70367431640625 237.977783203125 Q 321.1617431640625 232.5167236328125 328.71331787109375 227.1214599609375 Q 336.264892578125 221.7261962890625 343.514404296875 217.06365966796875 Q 350.763916015625 212.401123046875 368.37030029296875 204.32916259765625 Q 385.9766845703125 196.2572021484375 398.05621337890625 192.6324462890625 Q 410.1357421875 189.0076904296875 424.37158203125 186.417724609375 Q 438.607421875 183.8277587890625 452.84326171875 182.53277587890625 Q 467.0791015625 181.23779296875 483.647705078125 180.54693603515625 Q 500.21630859375 179.8560791015625 506.11102294921875 179.8560791015625 Q 512.0057373046875 179.8560791015625 527.3870239257812 179.8560791015625 Q 542.768310546875 179.8560791015625 555.903564453125 179.8560791015625 Q 569.038818359375 179.8560791015625 582.174072265625 181.73126220703125 Q 595.309326171875 183.6064453125 606.375 186.51641845703125 Q 617.440673828125 189.4263916015625 627.3399658203125 194.6661376953125 Q 637.2392578125 199.9058837890625 647.1385498046875 205.1456298828125 Q 657.037841796875 210.3853759765625 666.35693359375 216.79150390625 Q 675.676025390625 223.1976318359375 684.4119262695312 230.76715087890625 Q 693.1478271484375 238.336669921875 700.439208984375 245.6280517578125 Q 707.7305908203125 252.91943359375 714.7199096679688 261.65533447265625 Q 721.709228515625 270.3912353515625 728.6985473632812 279.12713623046875 Q 735.6878662109375 287.863037109375 740.5418090820312 295.95294189453125 Q 745.395751953125 304.0428466796875 747.7315063476562 307.54498291015625 Q 750.0672607421875 311.047119140625 754.3798828125 319.13702392578125 Q 758.6925048828125 327.2269287109375 762.1647338867188 334.17437744140625 Q 765.636962890625 341.121826171875 769.1091918945312 348.06927490234375 Q 772.5814208984375 355.0167236328125 775.4285888671875 361.1895751953125 Q 778.2757568359375 367.3624267578125 780.542724609375 373.25714111328125 Q 782.8096923828125 379.15185546875 784.968994140625 383.90411376953125 Q 787.1282958984375 388.6563720703125 788.0374755859375 390.47772216796875 Q 788.9466552734375 392.299072265625 790.4180908203125 395.60980224609375 Q 791.8895263671875 398.9205322265625 792.9213256835938 401.677978515625 Q 793.953125 404.4354248046875 794.8623046875 406.25677490234375 Q 795.771484375 408.078125 796.3786010742188 409.89947509765625 Q 796.9857177734375 411.7208251953125 797.2249755859375 412.4385986328125 Q 797.4642333984375 413.1563720703125 797.7034912109375 413.8741455078125 Q 797.9427490234375 414.5919189453125 798.1610717773438 415.028564453125 Q 798.37939453125 415.4652099609375 798.5977172851562 415.90185546875 Q 798.8160400390625 416.3385009765625 799.013427734375 416.535888671875 Q 799.2108154296875 416.7332763671875 799.396240234375 417.1160888671875 L 799.5826650390625 417.4999013671875" stroke-linecap="round" />
</g>
<g transform="matrix(1 0 0 1 468.02 290.35)"  >
<path style="stroke: rgb(77,181,207); stroke-width: 1; stroke-dasharray: none; stroke-linecap: round; stroke-dashoffset: 0; stroke-linejoin: round; stroke-miterlimit: 10; fill: none; fill-rule: nonzero; opacity: 1;"  transform=" translate(-468.02, -290.35)" d="M 302.326171875 155.6661142578125 Q 302.326171875 155.6671142578125 302.326171875 156.96807861328125 Q 302.326171875 158.26904296875 302.326171875 160.54498291015625 Q 302.326171875 162.8209228515625 303.55535888671875 167.3369140625 Q 304.7845458984375 171.8529052734375 306.42645263671875 176.368896484375 Q 308.068359375 180.8848876953125 313.07183837890625 193.39508056640625 Q 318.0753173828125 205.9052734375 320.87762451171875 216.001953125 Q 323.679931640625 226.0986328125 329.3084716796875 237.9837646484375 Q 334.93701171875 249.868896484375 340.954345703125 264.58026123046875 Q 346.9716796875 279.2916259765625 354.089599609375 295.66583251953125 Q 361.20751953125 312.0400390625 369.75201416015625 327.70245361328125 Q 378.2965087890625 343.3648681640625 381.61920166015625 349.5377197265625 Q 384.94189453125 355.7105712890625 392.059814453125 368.65142822265625 Q 399.177734375 381.59228515625 406.6844482421875 392.85235595703125 Q 414.191162109375 404.1124267578125 417.30450439453125 406.83697509765625 Q 420.4178466796875 409.5615234375 426.1121826171875 415.7762451171875 Q 431.8065185546875 421.990966796875 438.25750732421875 425.95965576171875 Q 444.70849609375 429.9283447265625 448.72802734375 431.9381103515625 Q 452.74755859375 433.9478759765625 461.9171142578125 436.10418701171875 Q 471.086669921875 438.260498046875 476.26959228515625 438.260498046875 Q 481.4525146484375 438.260498046875 487.34722900390625 438.260498046875 Q 493.241943359375 438.260498046875 500.68585205078125 435.7781982421875 Q 508.1297607421875 433.2958984375 515.0772094726562 430.317138671875 Q 522.024658203125 427.33837890625 529.274169921875 422.67584228515625 Q 536.523681640625 418.0133056640625 543.773193359375 413.35076904296875 Q 551.022705078125 408.688232421875 557.7548217773438 403.50830078125 Q 564.4869384765625 398.328369140625 571.4971923828125 391.85345458984375 Q 578.5074462890625 385.3785400390625 584.9793701171875 378.36529541015625 Q 591.4512939453125 371.35205078125 596.8435668945312 363.7974853515625 Q 602.23583984375 356.242919921875 606.8953857421875 348.99041748046875 Q 611.554931640625 341.7379150390625 615.1796875 333.968017578125 Q 618.804443359375 326.1981201171875 621.4990844726562 317.02557373046875 Q 624.1937255859375 307.85302734375 626.3500366210938 298.68048095703125 Q 628.50634765625 289.5079345703125 630.1871337890625 279.40826416015625 Q 631.867919921875 269.30859375 632.2776489257812 264.78961181640625 Q 632.6873779296875 260.2706298828125 633.2047729492188 251.98333740234375 Q 633.72216796875 243.696044921875 633.72216796875 229.45721435546875 Q 633.72216796875 215.2183837890625 633.72216796875 211.324462890625 Q 633.72216796875 207.4305419921875 633.72216796875 200.7791748046875 Q 633.72216796875 194.1278076171875 633.72216796875 187.4764404296875 Q 633.72216796875 180.8250732421875 633.72216796875 178.546142578125 Q 633.72216796875 176.2672119140625 633.72216796875 171.74822998046875 Q 633.72216796875 167.229248046875 633.351318359375 163.91552734375 Q 632.98046875 160.601806640625 632.633544921875 157.826416015625 Q 632.28662109375 155.051025390625 631.9606323242188 152.7720947265625 Q 631.6346435546875 150.4931640625 631.3505249023438 149.07855224609375 Q 631.06640625 147.6639404296875 630.80322265625 146.6171875 Q 630.5400390625 145.5704345703125 630.5400390625 144.84967041015625 Q 630.5400390625 144.12890625 630.3187255859375 143.68927001953125 Q 630.097412109375 143.2496337890625 630.097412109375 143.04925537109375 Q 630.097412109375 142.848876953125 630.097412109375 142.64849853515625 Q 630.097412109375 142.4481201171875 629.8970336914062 142.4481201171875 Q 629.6966552734375 142.4481201171875 629.331787109375 142.4481201171875 Q 628.9669189453125 142.4481201171875 628.7665405273438 142.4481201171875 Q 628.566162109375 142.4481201171875 628.3657836914062 142.4481201171875 L 628.1644052734375 142.4481201171875" stroke-linecap="round" />
</g>
<g transform="matrix(1 0 0 1 593.2 247.35)"  >
<path style="stroke: rgb(183,77,207); stroke-width: 1; stroke-dasharray: none; stroke-linecap: round; stroke-dashoffset: 0; stroke-linejoin: round; stroke-miterlimit: 10; fill: none; fill-rule: nonzero; opacity: 1;"  transform=" translate(-593.2, -247.35)" d="M 616.1855703125 119.808349609375 Q 616.1845703125 119.808349609375 615.82568359375 119.808349609375 Q 615.466796875 119.808349609375 613.1878662109375 119.808349609375 Q 610.908935546875 119.808349609375 603.4620361328125 119.808349609375 Q 596.01513671875 119.808349609375 587.7278442382812 120.32574462890625 Q 579.4405517578125 120.8431396484375 567.962158203125 125.06903076171875 Q 556.4837646484375 129.294921875 544.1859130859375 137.058837890625 Q 531.8880615234375 144.82275390625 520.8851928710938 153.88165283203125 Q 509.88232421875 162.9405517578125 499.52545166015625 173.29443359375 Q 489.1685791015625 183.6483154296875 485.992431640625 188.6368408203125 Q 482.8162841796875 193.6253662109375 475.93463134765625 204.88543701171875 Q 469.052978515625 216.1455078125 465.12615966796875 225.679931640625 Q 461.1993408203125 235.21435546875 458.39404296875 245.31103515625 Q 455.5887451171875 255.40771484375 455.04742431640625 264.5772705078125 Q 454.506103515625 273.746826171875 454.506103515625 282.9163818359375 Q 454.506103515625 292.0859375 454.506103515625 299.52984619140625 Q 454.506103515625 306.9737548828125 454.506103515625 314.41766357421875 Q 454.506103515625 321.861572265625 456.7730712890625 327.30169677734375 Q 459.0400390625 332.7418212890625 461.36981201171875 335.84619140625 Q 463.6995849609375 338.9505615234375 467.15386962890625 343.2691650390625 Q 470.608154296875 347.5877685546875 477.618408203125 354.0596923828125 Q 484.628662109375 360.5316162109375 490.801513671875 363.85430908203125 Q 496.974365234375 367.177001953125 503.62274169921875 369.5516357421875 Q 510.2711181640625 371.92626953125 517.7150268554688 373.41265869140625 Q 525.158935546875 374.8990478515625 533.4432373046875 374.8990478515625 Q 541.7275390625 374.8990478515625 550.8970947265625 374.8990478515625 Q 560.066650390625 374.8990478515625 571.13232421875 374.8990478515625 Q 582.197998046875 374.8990478515625 593.263671875 373.732666015625 Q 604.329345703125 372.5662841796875 615.8047485351562 368.33740234375 Q 627.2801513671875 364.1085205078125 638.7555541992188 359.2755126953125 Q 650.23095703125 354.4425048828125 660.6835327148438 349.794921875 Q 671.1361083984375 345.1473388671875 674.8296508789062 342.270263671875 Q 678.523193359375 339.3931884765625 686.0747680664062 333.9979248046875 Q 693.6263427734375 328.6026611328125 699.5808715820312 324.134521484375 Q 705.535400390625 319.6663818359375 710.28466796875 314.91412353515625 Q 715.033935546875 310.161865234375 718.0575561523438 305.84027099609375 Q 721.0811767578125 301.5186767578125 723.5425415039062 297.409423828125 Q 726.00390625 293.3001708984375 727.475341796875 289.9864501953125 Q 728.94677734375 286.6727294921875 729.6824951171875 283.3590087890625 Q 730.418212890625 280.0452880859375 731.1539306640625 276.7315673828125 Q 731.8896484375 273.4178466796875 731.8896484375 269.52392578125 Q 731.8896484375 265.6300048828125 731.8896484375 258.9786376953125 Q 731.8896484375 252.3272705078125 731.8896484375 247.80828857421875 Q 731.8896484375 243.289306640625 730.501953125 240.513916015625 Q 729.1142578125 237.738525390625 726.5213012695312 232.9832763671875 Q 723.9283447265625 228.22802734375 720.752197265625 223.23651123046875 Q 717.5760498046875 218.2449951171875 714.1187744140625 213.92340087890625 Q 710.6614990234375 209.601806640625 706.7705688476562 205.71087646484375 Q 702.879638671875 201.8199462890625 699.5928344726562 198.53314208984375 Q 696.3060302734375 195.246337890625 694.7837524414062 194.02911376953125 Q 693.261474609375 192.8118896484375 690.6834716796875 190.60174560546875 Q 688.10546875 188.3916015625 686.1525268554688 186.7646484375 Q 684.1995849609375 185.1376953125 682.7849731445312 184.288330078125 Q 681.370361328125 183.43896484375 680.2368774414062 182.589599609375 Q 679.1033935546875 181.740234375 678.3826293945312 181.49798583984375 Q 677.661865234375 181.2557373046875 677.2222290039062 180.81610107421875 Q 676.7825927734375 180.37646484375 676.5822143554688 180.37646484375 L 676.3808359375 180.37646484375" stroke-linecap="round" />
</g>
<g transform="matrix(1 0 0 1 621.49 281.99)"  >
<path style="stroke: rgb(213,186,219); stroke-width: 1; stroke-dasharray: none; stroke-linecap: round; stroke-dashoffset: 0; stroke-linejoin: round; stroke-miterlimit: 10; fill: none; fill-rule: nonzero; opacity: 1;"  transform=" translate(-621.49, -281.99)" d="M 604.4559560546875 93.4122314453125 Q 604.4549560546875 93.4122314453125 604.6493530273438 93.21484375 Q 604.84375 93.0174560546875 604.0960693359375 93.0174560546875 Q 603.348388671875 93.0174560546875 600.572998046875 93.0174560546875 Q 597.797607421875 93.0174560546875 594.48388671875 93.0174560546875 Q 591.170166015625 93.0174560546875 585.9842529296875 93.0174560546875 Q 580.79833984375 93.0174560546875 574.900634765625 93.0174560546875 Q 569.0029296875 93.0174560546875 563.105224609375 93.0174560546875 Q 557.20751953125 93.0174560546875 555.3831787109375 93.0174560546875 Q 553.558837890625 93.0174560546875 548.3729248046875 93.0174560546875 Q 543.18701171875 93.0174560546875 539.873291015625 93.0174560546875 Q 536.5595703125 93.0174560546875 533.7841796875 93.70831298828125 Q 531.0087890625 94.399169921875 525.781005859375 98.67291259765625 Q 520.55322265625 102.9466552734375 519.0787963867188 106.25738525390625 Q 517.6043701171875 109.568115234375 516.7819213867188 114.0841064453125 Q 515.95947265625 118.60009765625 515.95947265625 125.24847412109375 Q 515.95947265625 131.8968505859375 515.95947265625 139.34075927734375 Q 515.95947265625 146.78466796875 515.95947265625 155.9542236328125 Q 515.95947265625 165.123779296875 515.95947265625 175.220458984375 Q 515.95947265625 185.317138671875 517.0809936523438 195.413818359375 Q 518.2025146484375 205.510498046875 521.976806640625 214.13873291015625 Q 525.7510986328125 222.7669677734375 531.3587036132812 231.17987060546875 Q 536.96630859375 239.5927734375 544.2576904296875 246.8841552734375 Q 551.549072265625 254.175537109375 559.9619750976562 260.34539794921875 Q 568.3748779296875 266.5152587890625 584.7490844726562 274.344970703125 Q 601.123291015625 282.1746826171875 612.18896484375 284.50445556640625 Q 623.254638671875 286.834228515625 629.9030151367188 286.834228515625 Q 636.5513916015625 286.834228515625 649.6866455078125 286.834228515625 Q 662.8218994140625 286.834228515625 685.9850463867188 286.834228515625 Q 709.148193359375 286.834228515625 715.0429077148438 284.56427001953125 Q 720.9376220703125 282.2943115234375 731.4201049804688 277.63177490234375 Q 741.902587890625 272.96923828125 745.5961303710938 270.0921630859375 Q 749.2896728515625 267.215087890625 763.5285034179688 256.5322265625 Q 777.767333984375 245.849365234375 783.1596069335938 238.2947998046875 Q 788.5518798828125 230.740234375 792.864501953125 222.1090087890625 Q 797.1771240234375 213.477783203125 799.420166015625 203.37811279296875 Q 801.6632080078125 193.2784423828125 803.343994140625 183.17877197265625 Q 805.0247802734375 173.0791015625 805.60498046875 162.01043701171875 Q 806.1851806640625 150.9417724609375 806.1851806640625 139.87310791015625 Q 806.1851806640625 128.804443359375 806.1851806640625 124.28546142578125 Q 806.1851806640625 119.7664794921875 806.1851806640625 116.4527587890625 Q 806.1851806640625 113.1390380859375 806.1851806640625 107.953125 Q 806.1851806640625 102.7672119140625 806.1851806640625 99.4534912109375 Q 806.1851806640625 96.1397705078125 806.573974609375 92.245849609375 Q 806.9627685546875 88.3519287109375 807.3994140625 87.91229248046875 Q 807.8360595703125 87.47265625 809.6574096679688 87.47265625 Q 811.478759765625 87.47265625 813.7546997070312 88.12164306640625 Q 816.0306396484375 88.7706298828125 818.7492065429688 94.21075439453125 Q 821.4677734375 99.65087890625 824.5751342773438 107.41778564453125 Q 827.6824951171875 115.1846923828125 832.5125122070312 131.06243896484375 Q 837.342529296875 146.940185546875 839.9295043945312 161.176025390625 Q 842.5164794921875 175.411865234375 843.0099487304688 182.85577392578125 Q 843.50341796875 190.2996826171875 844.3438110351562 216.40869140625 Q 845.1842041015625 242.5177001953125 845.1842041015625 259.0863037109375 Q 845.1842041015625 275.6549072265625 843.7576293945312 293.4556884765625 Q 842.3310546875 311.2564697265625 836.6337280273438 328.345458984375 Q 830.9364013671875 345.4344482421875 824.7216796875 361.31219482421875 Q 818.5069580078125 377.18994140625 809.95947265625 392.85235595703125 Q 801.4119873046875 408.5147705078125 790.017333984375 422.75360107421875 Q 778.6226806640625 436.992431640625 766.1932373046875 448.72802734375 Q 753.7637939453125 460.463623046875 747.309814453125 464.43231201171875 Q 740.8558349609375 468.4010009765625 728.9677124023438 475.2796630859375 Q 717.07958984375 482.1583251953125 705.6011962890625 486.38421630859375 Q 694.122802734375 490.610107421875 683.0541381835938 491.77349853515625 Q 671.9854736328125 492.9368896484375 661.8858032226562 492.9368896484375 Q 651.7861328125 492.9368896484375 644.4169921875 491.95294189453125 Q 637.0478515625 490.968994140625 625.6771240234375 480.2681884765625 Q 614.306396484375 469.5673828125 609.6438598632812 459.0819091796875 Q 604.9813232421875 448.596435546875 603.037353515625 434.35760498046875 Q 601.0933837890625 420.1187744140625 601.0933837890625 390.88446044921875 Q 601.0933837890625 361.650146484375 608.085693359375 340.667236328125 Q 615.0780029296875 319.684326171875 624.1369018554688 308.032470703125 Q 633.19580078125 296.380615234375 649.6118774414062 273.914306640625 Q 666.0279541015625 251.447998046875 687.2860107421875 231.07220458984375 Q 708.5440673828125 210.6964111328125 728.75537109375 193.00628662109375 Q 748.9666748046875 175.316162109375 757.3795776367188 169.70556640625 Q 765.79248046875 164.094970703125 771.7470092773438 159.13037109375 Q 777.7015380859375 154.165771484375 788.701416015625 144.4578857421875 Q 799.7012939453125 134.75 807.85400390625 127.177490234375 Q 816.0067138671875 119.60498046875 821.7010498046875 113.38726806640625 Q 827.3953857421875 107.1695556640625 831.0231323242188 102.17803955078125 Q 834.65087890625 97.1865234375 836.2060546875 93.2926025390625 Q 837.76123046875 89.398681640625 838.0423583984375 87.98406982421875 Q 838.323486328125 86.5694580078125 838.646484375 84.29052734375 Q 838.969482421875 82.0115966796875 838.969482421875 80.59698486328125 Q 838.969482421875 79.182373046875 838.969482421875 78.46160888671875 Q 838.969482421875 77.7408447265625 838.969482421875 77.30120849609375 Q 838.969482421875 76.861572265625 838.969482421875 78.31805419921875 Q 838.969482421875 79.7745361328125 837.414306640625 88.058837890625 Q 835.859130859375 96.3431396484375 835.2759399414062 107.4088134765625 Q 834.6927490234375 118.4744873046875 834.6927490234375 131.6097412109375 Q 834.6927490234375 144.7449951171875 834.6927490234375 152.18890380859375 Q 834.6927490234375 159.6328125 834.6927490234375 173.86865234375 Q 834.6927490234375 188.1044921875 834.6927490234375 202.34033203125 Q 834.6927490234375 216.576171875 834.6927490234375 228.65570068359375 Q 834.6927490234375 240.7352294921875 834.6927490234375 245.91815185546875 Q 834.6927490234375 251.10107421875 836.2449340820312 259.3853759765625 Q 837.797119140625 267.669677734375 839.6962280273438 274.31805419921875 Q 841.5953369140625 280.9664306640625 842.5703125 283.24237060546875 Q 843.5452880859375 285.518310546875 845.4892578125 289.02044677734375 Q 847.4332275390625 292.5225830078125 848.8179321289062 294.94805908203125 Q 850.20263671875 297.37353515625 851.0490112304688 298.5040283203125 Q 851.8953857421875 299.634521484375 852.6131591796875 300.113037109375 Q 853.3309326171875 300.591552734375 854.0487060546875 300.830810546875 Q 854.7664794921875 301.070068359375 854.9638671875 295.17236328125 Q 855.1612548828125 289.274658203125 853.7346801757812 282.623291015625 Q 852.30810546875 275.971923828125 845.6627197265625 265.7017822265625 Q 839.017333984375 255.431640625 829.351318359375 241.62347412109375 Q 819.685302734375 227.8153076171875 794.3837890625 201.538818359375 Q 769.082275390625 175.2623291015625 758.8121337890625 168.0128173828125 Q 748.5419921875 160.7633056640625 725.800537109375 147.287109375 Q 703.05908203125 133.8109130859375 677.9998168945312 121.71343994140625 Q 652.9405517578125 109.615966796875 641.8718872070312 106.11981201171875 Q 630.80322265625 102.6236572265625 592.1600952148438 91.43536376953125 Q 553.5169677734375 80.2470703125 543.4172973632812 79.12255859375 Q 533.317626953125 77.998046875 515.5138549804688 75.85968017578125 Q 497.7100830078125 73.7213134765625 482.3258056640625 72.3814697265625 Q 466.9415283203125 71.0416259765625 461.755615234375 71.0416259765625 Q 456.5697021484375 71.0416259765625 446.47003173828125 71.0416259765625 Q 436.370361328125 71.0416259765625 428.08306884765625 71.0416259765625 Q 419.7957763671875 71.0416259765625 414.60986328125 71.0416259765625 Q 409.4239501953125 71.0416259765625 405.530029296875 71.8192138671875 Q 401.6361083984375 72.5968017578125 399.2076416015625 74.32843017578125 Q 396.7791748046875 76.06005859375 394.56903076171875 78.63507080078125 Q 392.35888671875 81.2100830078125 390.88446044921875 84.52081298828125 Q 389.4100341796875 87.83154296875 388.67132568359375 91.14227294921875 Q 387.9326171875 94.4530029296875 387.9326171875 97.76373291015625 Q 387.9326171875 101.074462890625 387.9326171875 104.96539306640625 Q 387.9326171875 108.8563232421875 387.9326171875 112.74725341796875 Q 387.9326171875 116.63818359375 389.8765869140625 120.14031982421875 Q 391.820556640625 123.6424560546875 394.39556884765625 126.21746826171875 L 396.9715810546875 128.79348046875" stroke-linecap="round" />
</g>
<g transform="matrix(1 0 0 1 503.79 245.48)"  >
<path style="stroke: rgb(204,0,250); stroke-width: 1; stroke-dasharray: none; stroke-linecap: round; stroke-dashoffset: 0; stroke-linejoin: round; stroke-miterlimit: 10; fill: none; fill-rule: nonzero; opacity: 1;"  transform=" translate(-503.79, -245.48)" d="M 714.2503662109375 259.368431640625 Q 714.2503662109375 259.367431640625 714.6810302734375 259.367431640625 Q 715.1116943359375 259.367431640625 715.1116943359375 258.56890869140625 Q 715.1116943359375 257.7703857421875 715.1116943359375 254.4566650390625 Q 715.1116943359375 251.1429443359375 713.466796875 246.62396240234375 Q 711.8218994140625 242.10498046875 708.191162109375 237.11346435546875 Q 704.5604248046875 232.1219482421875 698.3427124023438 226.42462158203125 Q 692.125 220.727294921875 683.7091064453125 215.11669921875 Q 675.293212890625 209.506103515625 665.1935424804688 206.1385498046875 Q 655.0938720703125 202.77099609375 643.0113525390625 200.3544921875 Q 630.9288330078125 197.93798828125 617.7905883789062 197.93798828125 Q 604.65234375 197.93798828125 600.7584228515625 197.93798828125 Q 596.864501953125 197.93798828125 587.6919555664062 197.93798828125 Q 578.5194091796875 197.93798828125 571.8680419921875 198.88604736328125 Q 565.2166748046875 199.8341064453125 559.2591552734375 204.29925537109375 Q 553.3016357421875 208.764404296875 549.5004272460938 214.46173095703125 Q 545.69921875 220.1590576171875 543.3215942382812 226.80743408203125 Q 540.9439697265625 233.455810546875 539.9510498046875 240.89971923828125 Q 538.9581298828125 248.3436279296875 538.9581298828125 257.51318359375 Q 538.9581298828125 266.6827392578125 538.9581298828125 274.967041015625 Q 538.9581298828125 283.2513427734375 538.9581298828125 291.53564453125 Q 538.9581298828125 299.8199462890625 539.4515991210938 307.26385498046875 Q 539.945068359375 314.707763671875 543.7432861328125 320.40509033203125 Q 547.54150390625 326.1024169921875 552.9995727539062 331.56048583984375 Q 558.4576416015625 337.0185546875 564.9086303710938 340.98724365234375 Q 571.359619140625 344.9559326171875 578.8035278320312 347.43524169921875 Q 586.2474365234375 349.91455078125 601.6287231445312 352.5882568359375 Q 617.010009765625 355.261962890625 629.0895385742188 355.261962890625 Q 641.1690673828125 355.261962890625 647.0637817382812 355.261962890625 Q 652.95849609375 355.261962890625 664.024169921875 352.92919921875 Q 675.08984375 350.596435546875 683.1797485351562 346.28082275390625 Q 691.2696533203125 341.9652099609375 698.2799072265625 336.02862548828125 Q 705.2901611328125 330.092041015625 711.4600219726562 321.6761474609375 Q 717.6298828125 313.26025390625 721.254638671875 305.4903564453125 Q 724.87939453125 297.720458984375 729.0215454101562 281.14886474609375 Q 733.1636962890625 264.5772705078125 733.1636962890625 257.9259033203125 Q 733.1636962890625 251.2745361328125 732.5595703125 239.1920166015625 Q 731.9554443359375 227.1094970703125 727.8760986328125 216.6240234375 Q 723.7967529296875 206.1385498046875 717.6239013671875 197.72265625 Q 711.4510498046875 189.3067626953125 703.597412109375 182.57464599609375 Q 695.7437744140625 175.842529296875 687.65087890625 170.985595703125 Q 679.5579833984375 166.128662109375 671.2706909179688 164.573486328125 Q 662.9833984375 163.018310546875 646.4118041992188 163.018310546875 Q 629.8402099609375 163.018310546875 619.7405395507812 166.38287353515625 Q 609.640869140625 169.7474365234375 599.6309204101562 179.12933349609375 Q 589.6209716796875 188.51123046875 584.9584350585938 195.7607421875 Q 580.2958984375 203.01025390625 572.5289916992188 215.30511474609375 Q 564.7620849609375 227.5999755859375 558.9361572265625 241.1898193359375 Q 553.1102294921875 254.7796630859375 549.874267578125 269.0155029296875 Q 546.6383056640625 283.2513427734375 545.3433227539062 297.4871826171875 Q 544.04833984375 311.7230224609375 544.04833984375 324.8582763671875 Q 544.04833984375 337.9935302734375 545.2117309570312 349.0592041015625 Q 546.3751220703125 360.1248779296875 551.2290649414062 368.21478271484375 Q 556.0830078125 376.3046875 563.09326171875 382.776611328125 Q 570.103515625 389.24853515625 578.1934204101562 394.10247802734375 Q 586.2833251953125 398.9564208984375 603.372314453125 403.93896484375 Q 620.4613037109375 408.9215087890625 633.5965576171875 408.9215087890625 Q 646.7318115234375 408.9215087890625 659.8670654296875 407.0433349609375 Q 673.0023193359375 405.1651611328125 687.0467529296875 398.47491455078125 Q 701.0911865234375 391.78466796875 707.8233032226562 386.604736328125 Q 714.555419921875 381.4248046875 726.5930786132812 371.39093017578125 Q 738.6307373046875 361.3570556640625 748.0126342773438 351.34710693359375 Q 757.39453125 341.337158203125 759.9844970703125 336.5819091796875 Q 762.574462890625 331.82666015625 764.5184326171875 328.321533203125 Q 766.46240234375 324.81640625 770.0901489257812 319.82489013671875 Q 773.7178955078125 314.8333740234375 775.76953125 310.72412109375 Q 777.8211669921875 306.6148681640625 778.7303466796875 304.79052734375 Q 779.6395263671875 302.9661865234375 780.2885131835938 300.687255859375 Q 780.9375 298.4083251953125 778.8230590820312 299.20086669921875 Q 776.7086181640625 299.993408203125 769.1361083984375 308.1461181640625 Q 761.5635986328125 316.298828125 743.8734741210938 336.5101318359375 Q 726.183349609375 356.721435546875 705.8075561523438 377.9794921875 Q 685.4317626953125 399.237548828125 673.0023193359375 410.97314453125 Q 660.5728759765625 422.708740234375 619.1842651367188 460.54736328125 Q 577.795654296875 498.385986328125 565.0880737304688 507.08001708984375 Q 552.3804931640625 515.7740478515625 541.117431640625 522.6527099609375 Q 529.8543701171875 529.5313720703125 508.5185546875 541.8381958007812 Q 487.1827392578125 554.14501953125 468.837646484375 561.4812622070312 Q 450.4925537109375 568.8175048828125 435.1082763671875 571.4912109375 Q 419.7239990234375 574.1649169921875 407.6414794921875 574.1649169921875 Q 395.5589599609375 574.1649169921875 379.67822265625 569.3319091796875 Q 363.7974853515625 564.4989013671875 349.97137451171875 540.303955078125 Q 336.145263671875 516.1090087890625 332.60125732421875 486.87469482421875 Q 329.0572509765625 457.640380859375 329.0572509765625 421.63507080078125 Q 329.0572509765625 385.6297607421875 329.0572509765625 369.05816650390625 Q 329.0572509765625 352.486572265625 332.67901611328125 340.404052734375 Q 336.30078125 328.321533203125 348.2098388671875 283.93023681640625 Q 360.118896484375 239.5389404296875 365.51116943359375 231.984375 Q 370.9034423828125 224.4298095703125 374.87213134765625 217.975830078125 Q 378.8408203125 211.5218505859375 382.29510498046875 207.20025634765625 Q 385.7493896484375 202.878662109375 390.06201171875 194.2474365234375 Q 394.3746337890625 185.6162109375 397.54779052734375 180.173095703125 Q 400.720947265625 174.72998046875 404.345703125 166.9600830078125 Q 407.970458984375 159.190185546875 408.66131591796875 156.414794921875 Q 409.3521728515625 153.639404296875 409.3521728515625 151.8150634765625 Q 409.3521728515625 149.99072265625 409.05010986328125 148.1783447265625 Q 408.748046875 146.365966796875 404.8541259765625 145.58538818359375 Q 400.960205078125 144.8048095703125 395.0625 144.8048095703125 Q 389.164794921875 144.8048095703125 382.513427734375 144.8048095703125 Q 375.862060546875 144.8048095703125 368.4151611328125 145.29827880859375 Q 360.96826171875 145.791748046875 352.3370361328125 150.1043701171875 Q 343.705810546875 154.4169921875 336.1512451171875 160.3505859375 Q 328.5966796875 166.2841796875 322.12176513671875 173.29443359375 Q 315.6468505859375 180.3046875 310.98431396484375 187.55419921875 Q 306.32177734375 194.8037109375 303.21142578125 202.57061767578125 Q 300.10107421875 210.3375244140625 298.67449951171875 216.98590087890625 Q 297.2479248046875 223.63427734375 297.2479248046875 230.28265380859375 Q 297.2479248046875 236.9310302734375 297.6785888671875 242.11395263671875 Q 298.1092529296875 247.296875 302.8585205078125 252.52166748046875 Q 307.6077880859375 257.7464599609375 319.4510498046875 264.6011962890625 Q 331.2943115234375 271.4559326171875 354.45745849609375 277.04559326171875 Q 377.62060546875 282.63525390625 425.11029052734375 283.73883056640625 Q 472.5999755859375 284.8424072265625 495.76312255859375 284.8424072265625 Q 518.92626953125 284.8424072265625 566.4159545898438 279.31854248046875 Q 613.9056396484375 273.794677734375 661.3953247070312 266.06365966796875 Q 708.885009765625 258.3326416015625 727.9598388671875 254.66302490234375 Q 747.03466796875 250.993408203125 762.4159545898438 248.31671142578125 Q 777.7972412109375 245.6400146484375 787.8939208984375 242.834716796875 Q 797.9906005859375 240.0294189453125 803.8853149414062 238.21405029296875 Q 809.780029296875 236.398681640625 822.915283203125 232.642333984375 Q 836.050537109375 228.885986328125 843.4944458007812 226.4036865234375 Q 850.9383544921875 223.92138671875 861.8096313476562 217.880126953125 Q 872.680908203125 211.8388671875 872.680908203125 207.9449462890625 Q 872.680908203125 204.051025390625 862.4107666015625 197.4056396484375 Q 852.140625 190.76025390625 832.5005493164062 183.9593505859375 Q 812.8604736328125 177.158447265625 783.6261596679688 170.0704345703125 Q 754.391845703125 162.982421875 686.681884765625 154.03717041015625 Q 618.971923828125 145.0919189453125 594.3552856445312 145.0919189453125 Q 569.7386474609375 145.0919189453125 487.87359619140625 146.4556884765625 Q 406.008544921875 147.8194580078125 377.6624755859375 155.78973388671875 Q 349.31640625 163.760009765625 300.92950439453125 178.38763427734375 Q 252.5426025390625 193.0152587890625 234.9332275390625 200.35150146484375 Q 217.3238525390625 207.687744140625 204.8106689453125 212.69122314453125 Q 192.2974853515625 217.6947021484375 184.2105712890625 219.71343994140625 Q 176.1236572265625 221.732177734375 159.55206298828125 225.87432861328125 Q 142.98046875 230.0164794921875 132.88079833984375 231.697265625 Q 122.7811279296875 233.3780517578125 113.60858154296875 233.9163818359375 Q 104.43603515625 234.4547119140625 104.43603515625 233.407958984375 Q 104.43603515625 232.3612060546875 115.31329345703125 212.9334716796875 Q 126.1905517578125 193.5057373046875 155.0450439453125 168.62890625 Q 183.8995361328125 143.7520751953125 205.23236083984375 130.622802734375 Q 226.565185546875 117.4935302734375 267.70556640625 95.83770751953125 Q 308.845947265625 74.181884765625 358.08819580078125 55.85772705078125 Q 407.3304443359375 37.5335693359375 427.72418212890625 33.75628662109375 Q 448.117919921875 29.97900390625 489.66802978515625 21.66778564453125 Q 531.2181396484375 13.3565673828125 565.4619140625 8.59832763671875 Q 599.7056884765625 3.840087890625 610.7713623046875 3.840087890625 Q 621.8370361328125 3.840087890625 630.121337890625 3.840087890625 Q 638.4056396484375 3.840087890625 653.7869262695312 3.840087890625 Q 669.168212890625 3.840087890625 672.4789428710938 4.5758056640625 Q 675.7896728515625 5.3115234375 683.2335815429688 6.79791259765625 Q 690.677490234375 8.2843017578125 694.5684204101562 9.8394775390625 Q 698.4593505859375 11.3946533203125 701.4022216796875 13.23394775390625 Q 704.3450927734375 15.0732421875 704.3450927734375 17.84564208984375 Q 704.3450927734375 20.6180419921875 695.7138671875 24.9306640625 Q 687.0826416015625 29.2432861328125 666.0997314453125 35.4580078125 Q 645.1168212890625 41.6727294921875 591.9028930664062 59.40771484375 Q 538.68896484375 77.1427001953125 514.2607421875 87.24835205078125 Q 489.83251953125 97.35400390625 441.73272705078125 117.966064453125 Q 393.6329345703125 138.578125 342.78466796875 162.22576904296875 Q 291.9364013671875 185.8734130859375 272.5086669921875 196.75067138671875 Q 253.0809326171875 207.6279296875 217.48834228515625 225.93115234375 Q 181.895751953125 244.234375 170.6326904296875 251.113037109375 Q 159.36962890625 257.99169921875 152.419189453125 261.46392822265625 Q 145.46875 264.9361572265625 140.049560546875 267.64276123046875 Q 134.63037109375 270.349365234375 124.1448974609375 275.0089111328125 Q 113.659423828125 279.66845703125 107.48358154296875 282.515625 Q 101.3077392578125 285.36279296875 94.6563720703125 287.26190185546875 Q 88.0050048828125 289.1610107421875 86.96124267578125 289.1610107421875 Q 85.91748046875 289.1610107421875 85.91748046875 287.336669921875 Q 85.91748046875 285.5123291015625 108.74566650390625 259.8280029296875 Q 131.5738525390625 234.1436767578125 163.77496337890625 207.13446044921875 Q 195.97607421875 180.125244140625 242.77490234375 145.3251953125 Q 289.57373046875 110.525146484375 350.2076416015625 82.73236083984375 Q 410.841552734375 54.9395751953125 443.36865234375 49.36187744140625 Q 475.895751953125 43.7841796875 537.5375366210938 37.6173095703125 Q 599.1793212890625 31.450439453125 652.7341918945312 31.450439453125 Q 706.2890625 31.450439453125 724.08984375 36.4329833984375 Q 741.890625 41.41552734375 776.714599609375 56.3392333984375 Q 811.53857421875 71.262939453125 821.2015991210938 79.11358642578125 Q 830.8646240234375 86.9642333984375 850.5555419921875 101.732421875 Q 870.2464599609375 116.5006103515625 874.7116088867188 122.45513916015625 Q 879.1767578125 128.40966796875 881.5125122070312 131.91180419921875 Q 883.8482666015625 135.4139404296875 889.7818603515625 142.4241943359375 Q 895.7154541015625 149.4344482421875 899.1697387695312 153.7530517578125 Q 902.6240234375 158.0716552734375 904.8909912109375 163.51177978515625 Q 907.157958984375 168.951904296875 907.157958984375 170.77325439453125 Q 907.157958984375 172.5946044921875 903.2640380859375 172.5946044921875 Q 899.3701171875 172.5946044921875 890.3949584960938 166.9840087890625 Q 881.4197998046875 161.3734130859375 858.3882446289062 142.7711181640625 Q 835.356689453125 124.1688232421875 813.2103881835938 103.79302978515625 Q 791.0640869140625 83.417236328125 768.23291015625 56.7818603515625 Q 745.4017333984375 30.146484375 735.7357177734375 16.33831787109375 Q 726.0697021484375 2.5301513671875 717.9349365234375 -8.10784912109375 Q 709.8001708984375 -18.745849609375 703.8635864257812 -26.3004150390625 Q 697.927001953125 -33.85498046875 693.8446655273438 -38.39190673828125 Q 689.7623291015625 -42.9288330078125 677.2880249023438 -57.60430908203125 Q 664.813720703125 -72.27978515625 659.3526611328125 -77.7408447265625 Q 653.8916015625 -83.201904296875 653.1798095703125 -83.201904296875 Q 652.468017578125 -83.201904296875 652.468017578125 -73.105224609375 Q 652.468017578125 -63.008544921875 653.2216796875 -42.61480712890625 Q 653.975341796875 -22.2210693359375 660.1751098632812 7.01025390625 Q 666.3748779296875 36.2415771484375 673.9832763671875 70.4853515625 Q 681.5916748046875 104.7291259765625 691.3204956054688 139.75946044921875 Q 701.04931640625 174.789794921875 706.74365234375 191.8787841796875 Q 712.43798828125 208.9677734375 722.6602783203125 240.5677490234375 Q 732.882568359375 272.167724609375 743.5115966796875 299.62554931640625 Q 754.140625 327.0833740234375 759.38037109375 336.982666015625 Q 764.6201171875 346.8819580078125 767.9428100585938 353.0548095703125 Q 771.2655029296875 359.2276611328125 773.85546875 363.97991943359375 Q 776.4454345703125 368.732177734375 780.758056640625 377.36041259765625 Q 785.0706787109375 385.9886474609375 787.9178466796875 392.1614990234375 Q 790.7650146484375 398.3343505859375 792.708984375 401.83648681640625 Q 794.6529541015625 405.338623046875 795.4993286132812 406.750244140625 Q 796.345703125 408.161865234375 796.9109497070312 409.573486328125 Q 797.4761962890625 410.985107421875 791.022216796875 408.32635498046875 Q 784.5682373046875 405.6676025390625 768.90283203125 397.1201171875 Q 753.2374267578125 388.5726318359375 728.8092041015625 379.307373046875 Q 704.3809814453125 370.0421142578125 688.500244140625 365.2091064453125 Q 672.6195068359375 360.3760986328125 622.2288208007812 346.63372802734375 Q 571.838134765625 332.891357421875 556.453857421875 332.891357421875 Q 541.069580078125 332.891357421875 510.20831298828125 331.982177734375 Q 479.3470458984375 331.072998046875 453.23504638671875 331.072998046875 Q 427.123046875 331.072998046875 417.95050048828125 332.149658203125 Q 408.7779541015625 333.226318359375 389.70013427734375 338.36138916015625 Q 370.622314453125 343.4964599609375 357.02947998046875 348.67340087890625 Q 343.4366455078125 353.850341796875 338.44512939453125 357.02349853515625 Q 333.45361328125 360.1966552734375 330.3372802734375 362.53240966796875 Q 327.220947265625 364.8681640625 321.67913818359375 368.56170654296875 Q 316.1373291015625 372.2552490234375 313.02099609375 374.59100341796875 Q 309.9046630859375 376.9267578125 306.788330078125 379.65130615234375 Q 303.6719970703125 382.3758544921875 303.6719970703125 383.7874755859375 Q 303.6719970703125 385.1990966796875 304.71575927734375 385.45928955078125 Q 305.759521484375 385.719482421875 317.83905029296875 385.1153564453125 Q 329.9185791015625 384.51123046875 350.12091064453125 375.1861572265625 Q 370.3232421875 365.861083984375 419.9871826171875 338.6634521484375 Q 469.651123046875 311.4658203125 523.8968505859375 281.8756103515625 Q 578.142578125 252.285400390625 609.533203125 238.013671875 Q 640.923828125 223.741943359375 695.677978515625 198.189208984375 Q 750.43212890625 172.636474609375 773.4038696289062 163.6104736328125 Q 796.3756103515625 154.58447265625 811.0869750976562 149.23406982421875 Q 825.79833984375 143.8836669921875 835.89501953125 140.51611328125 Q 845.99169921875 137.1485595703125 851.8864135742188 135.33319091796875 Q 857.7811279296875 133.517822265625 871.20947265625 128.40069580078125 Q 884.6378173828125 123.2835693359375 892.0817260742188 120.80126953125 Q 899.525634765625 118.3189697265625 910.59130859375 116.56939697265625 Q 921.656982421875 114.81982421875 921.656982421875 115.53759765625 Q 921.656982421875 116.25537109375 909.2275390625 127.30010986328125 Q 896.798095703125 138.3448486328125 874.6517944335938 157.8323974609375 Q 852.5054931640625 177.3199462890625 798.2687377929688 222.5157470703125 Q 744.031982421875 267.7115478515625 721.8856811523438 287.1990966796875 Q 699.7393798828125 306.6866455078125 653.4998168945312 344.4056396484375 Q 607.26025390625 382.1246337890625 565.3452758789062 417.05029296875 Q 523.4302978515625 451.9759521484375 507.56451416015625 465.57177734375 Q 491.69873046875 479.1676025390625 480.046875 488.22650146484375 Q 468.39501953125 497.285400390625 460.8404541015625 503.218994140625 Q 453.285888671875 509.152587890625 448.05810546875 513.4263305664062 Q 442.830322265625 517.7000732421875 431.5672607421875 525.206787109375 Q 420.30419921875 532.7135009765625 406.92669677734375 540.7376098632812 Q 393.5491943359375 548.76171875 388.36328125 549.1923828125 Q 383.1773681640625 549.623046875 381.532470703125 545.1040649414062 Q 379.8875732421875 540.5850830078125 381.9212646484375 500.92510986328125 Q 383.9549560546875 461.26513671875 399.3272705078125 406.869873046875 Q 414.6995849609375 352.474609375 434.26788330078125 283.3291015625 Q 453.836181640625 214.18359375 462.00384521484375 184.23150634765625 Q 470.1715087890625 154.2794189453125 475.30657958984375 135.20159912109375 Q 480.441650390625 116.123779296875 483.35162353515625 105.05511474609375 Q 486.2615966796875 93.9864501953125 488.16070556640625 87.3350830078125 Q 490.059814453125 80.6837158203125 491.2261962890625 76.789794921875 Q 492.392578125 72.8958740234375 497.52764892578125 53.81805419921875 Q 502.6627197265625 34.740234375 503.52105712890625 29.57525634765625 Q 504.37939453125 24.4102783203125 500.53033447265625 33.38543701171875 Q 496.6812744140625 42.360595703125 486.40814208984375 59.2342529296875 Q 476.135009765625 76.10791015625 468.36810302734375 88.40277099609375 L 460.6001962890625 100.6986318359375" stroke-linecap="round" />
</g>
<g transform="matrix(1 0 0 1 237.5 480.1)"  >
<circle style="stroke: none; stroke-width: 1; stroke-dasharray: none; stroke-linecap: butt; stroke-dashoffset: 0; stroke-linejoin: miter; stroke-miterlimit: 4; fill: rgb(11,97,164); fill-rule: nonzero; opacity: 1;"  cx="0" cy="0" r="20" />
</g>
<g transform="matrix(1 0 0 1 257.56 388.7)"  >
<path style="stroke: rgb(204,0,250); stroke-width: 1; stroke-dasharray: none; stroke-linecap: round; stroke-dashoffset: 0; stroke-linejoin: round; stroke-miterlimit: 10; fill: none; fill-rule: nonzero; opacity: 1;"  transform=" translate(-257.56, -388.7)" d="M 237.2899169921875 477.655296875 Q 237.2899169921875 477.654296875 237.2899169921875 476.92156982421875 Q 237.2899169921875 476.1888427734375 237.2899169921875 473.909912109375 Q 237.2899169921875 471.6309814453125 239.76922607421875 464.18408203125 Q 242.24853515625 456.7371826171875 245.22430419921875 449.7867431640625 Q 248.2000732421875 442.8363037109375 249.6715087890625 439.5225830078125 Q 251.1429443359375 436.2088623046875 254.7677001953125 428.43896484375 Q 258.3924560546875 420.6690673828125 262.705078125 412.576171875 Q 267.0177001953125 404.4832763671875 271.330322265625 396.390380859375 Q 275.6429443359375 388.2974853515625 280.49688720703125 380.20458984375 Q 285.350830078125 372.1116943359375 290.0103759765625 364.85919189453125 Q 294.669921875 357.606689453125 299.13507080078125 351.1527099609375 Q 303.6002197265625 344.69873046875 304.90118408203125 342.74578857421875 Q 306.2021484375 340.7928466796875 309.82989501953125 335.80133056640625 Q 313.4576416015625 330.809814453125 315.91900634765625 326.7005615234375 Q 318.38037109375 322.59130859375 318.85888671875 321.87054443359375 Q 319.33740234375 321.1497802734375 321.06903076171875 318.7213134765625 Q 322.8006591796875 316.2928466796875 323.64703369140625 315.15936279296875 Q 324.493408203125 314.02587890625 325.0137939453125 312.9791259765625 Q 325.5341796875 311.932373046875 325.9708251953125 311.49273681640625 Q 326.407470703125 311.0531005859375 326.407470703125 310.85272216796875 Q 326.407470703125 310.65234375 326.407470703125 310.45196533203125 Q 326.407470703125 310.2515869140625 326.58990478515625 309.7012939453125 Q 326.7723388671875 309.1510009765625 327.053466796875 307.73638916015625 Q 327.3345947265625 306.32177734375 328.18096923828125 304.90716552734375 Q 329.02734375 303.4925537109375 329.9365234375 301.668212890625 Q 330.845703125 299.8438720703125 332.68499755859375 296.89801025390625 Q 334.5242919921875 293.9521484375 336.25592041015625 291.523681640625 Q 337.987548828125 289.09521484375 339.37225341796875 286.31982421875 Q 340.7569580078125 283.54443359375 342.964111328125 280.9664306640625 Q 345.1712646484375 278.388427734375 346.01763916015625 277.25494384765625 Q 346.864013671875 276.1214599609375 348.24871826171875 273.6929931640625 Q 349.6334228515625 271.2645263671875 351.25738525390625 269.6375732421875 Q 352.88134765625 268.0106201171875 354.0955810546875 266.48834228515625 Q 355.309814453125 264.966064453125 356.15618896484375 263.83258056640625 Q 357.0025634765625 262.6990966796875 358.216796875 261.17681884765625 Q 359.4310302734375 259.654541015625 360.214599609375 258.86798095703125 Q 360.9981689453125 258.0814208984375 361.84454345703125 256.94793701171875 Q 362.69091796875 255.814453125 363.8214111328125 254.965087890625 Q 364.951904296875 254.11572265625 365.7354736328125 253.32916259765625 Q 366.51904296875 252.5426025390625 367.3026123046875 251.75604248046875 Q 368.086181640625 250.969482421875 368.80096435546875 250.490966796875 Q 369.5157470703125 250.012451171875 369.952392578125 249.57281494140625 Q 370.3890380859375 249.1331787109375 370.82568359375 248.911865234375 Q 371.2623291015625 248.6905517578125 371.698974609375 248.46923828125 Q 372.1356201171875 248.2479248046875 372.5303955078125 248.2479248046875 Q 372.9251708984375 248.2479248046875 373.12255859375 248.4273681640625 Q 373.3199462890625 248.6068115234375 373.3199462890625 249.3245849609375 Q 373.3199462890625 250.0423583984375 373.3199462890625 250.47900390625 Q 373.3199462890625 250.9156494140625 373.3199462890625 251.6334228515625 Q 373.3199462890625 252.3511962890625 372.40777587890625 254.17254638671875 Q 371.49560546875 255.993896484375 369.1568603515625 259.10723876953125 Q 366.818115234375 262.2205810546875 362.06585693359375 267.44537353515625 Q 357.3135986328125 272.670166015625 351.37701416015625 279.680419921875 Q 345.4404296875 286.690673828125 341.1636962890625 291.91546630859375 Q 336.886962890625 297.1402587890625 330.15484619140625 304.99090576171875 Q 323.4227294921875 312.841552734375 319.9654541015625 316.7294921875 Q 316.5081787109375 320.617431640625 310.281494140625 327.3585205078125 Q 304.0548095703125 334.099609375 298.35748291015625 340.3143310546875 Q 292.66015625 346.529052734375 287.1990966796875 351.98712158203125 Q 281.738037109375 357.4451904296875 276.98577880859375 362.1944580078125 Q 272.2335205078125 366.9437255859375 268.7762451171875 370.8316650390625 Q 265.3189697265625 374.7196044921875 262.03216552734375 378.00341796875 Q 258.745361328125 381.2872314453125 256.4066162109375 384.40057373046875 Q 254.06787109375 387.513916015625 252.2255859375 390.456787109375 Q 250.38330078125 393.399658203125 248.541015625 396.342529296875 Q 246.69873046875 399.285400390625 246.088623046875 401.10675048828125 Q 245.478515625 402.9281005859375 243.42388916015625 407.03436279296875 Q 241.3692626953125 411.140625 240.801025390625 412.55224609375 Q 240.2327880859375 413.9638671875 239.580810546875 416.23980712890625 Q 238.9288330078125 418.5157470703125 238.27685546875 420.79168701171875 Q 237.6248779296875 423.067626953125 237.34075927734375 424.479248046875 Q 237.056640625 425.890869140625 236.77252197265625 427.302490234375 Q 236.4884033203125 428.714111328125 236.4884033203125 429.75787353515625 Q 236.4884033203125 430.8016357421875 236.4884033203125 431.84539794921875 Q 236.4884033203125 432.88916015625 236.4884033203125 433.60693359375 Q 236.4884033203125 434.32470703125 236.4884033203125 435.04248046875 Q 236.4884033203125 435.76025390625 236.4884033203125 436.47802734375 Q 236.4884033203125 437.19580078125 236.4884033203125 437.91357421875 Q 236.4884033203125 438.63134765625 236.925048828125 439.0679931640625 Q 237.3616943359375 439.504638671875 238.145263671875 440.2882080078125 Q 238.9288330078125 441.07177734375 239.6466064453125 441.55029296875 Q 240.3643798828125 442.02880859375 241.40814208984375 442.5491943359375 Q 242.451904296875 443.069580078125 243.169677734375 443.308837890625 Q 243.887451171875 443.548095703125 244.93121337890625 443.80828857421875 Q 245.9749755859375 444.0684814453125 246.6927490234375 444.3077392578125 Q 247.4105224609375 444.5469970703125 248.45428466796875 444.5469970703125 Q 249.498046875 444.5469970703125 250.54180908203125 444.5469970703125 Q 251.5855712890625 444.5469970703125 253.40692138671875 444.5469970703125 Q 255.228271484375 444.5469970703125 256.639892578125 444.5469970703125 Q 258.051513671875 444.5469970703125 259.87286376953125 443.9368896484375 Q 261.6942138671875 443.3267822265625 263.51556396484375 442.41461181640625 Q 265.3369140625 441.50244140625 267.1492919921875 440.59326171875 Q 268.961669921875 439.68408203125 270.373291015625 439.1158447265625 Q 271.784912109375 438.547607421875 275.08367919921875 437.447021484375 Q 278.3824462890625 436.346435546875 280.20379638671875 435.43426513671875 Q 282.025146484375 434.5220947265625 284.30108642578125 433.8701171875 Q 286.5770263671875 433.2181396484375 288.85296630859375 432.24017333984375 Q 291.12890625 431.26220703125 293.90130615234375 430.568359375 Q 296.6737060546875 429.87451171875 299.44610595703125 428.833740234375 Q 302.218505859375 427.79296875 304.99090576171875 426.752197265625 Q 307.7633056640625 425.71142578125 311.07403564453125 424.97271728515625 Q 314.384765625 424.2340087890625 318.27569580078125 423.06463623046875 Q 322.1666259765625 421.895263671875 325.47735595703125 421.15655517578125 Q 328.7880859375 420.4178466796875 332.67901611328125 419.63726806640625 Q 336.5699462890625 418.856689453125 340.46087646484375 418.46490478515625 Q 344.351806640625 418.0731201171875 346.17315673828125 418.0731201171875 Q 347.9945068359375 418.0731201171875 350.27044677734375 418.0731201171875 Q 352.54638671875 418.0731201171875 354.82232666015625 418.0731201171875 Q 357.0982666015625 418.0731201171875 358.5098876953125 418.0731201171875 Q 359.9215087890625 418.0731201171875 360.6392822265625 418.0731201171875 Q 361.3570556640625 418.0731201171875 361.793701171875 418.29144287109375 Q 362.2303466796875 418.509765625 362.2303466796875 420.78570556640625 Q 362.2303466796875 423.0616455078125 361.5364990234375 425.83404541015625 Q 360.8426513671875 428.6064453125 356.76031494140625 433.140380859375 Q 352.677978515625 437.67431640625 346.46026611328125 443.36865234375 Q 340.2425537109375 449.06298828125 327.8131103515625 460.10772705078125 Q 315.3836669921875 471.1524658203125 303.7318115234375 479.56536865234375 Q 292.0799560546875 487.978271484375 285.6259765625 491.94696044921875 Q 279.1719970703125 495.9156494140625 267.28387451171875 501.544189453125 Q 255.395751953125 507.1727294921875 242.882568359375 512.1762084960938 Q 230.369384765625 517.1796875 218.286865234375 520.8014526367188 Q 206.204345703125 524.4232177734375 194.121826171875 526.2326049804688 Q 182.039306640625 528.0419921875 171.93963623046875 528.6012573242188 Q 161.8399658203125 529.1605224609375 151.74029541015625 529.1605224609375 Q 141.640625 529.1605224609375 138.326904296875 528.4218139648438 Q 135.01318359375 527.68310546875 129.115478515625 525.4131469726562 Q 123.2177734375 523.1431884765625 117.774658203125 520.421630859375 Q 112.33154296875 517.7000732421875 110.70458984375 516.0731201171875 Q 109.07763671875 514.4461669921875 105.9613037109375 512.107421875 Q 102.844970703125 509.7686767578125 100.763427734375 507.6871337890625 Q 98.681884765625 505.6055908203125 97.054931640625 503.65264892578125 Q 95.427978515625 501.69970703125 94.57861328125 500.56622314453125 Q 93.729248046875 499.4327392578125 93.1610107421875 498.01812744140625 Q 92.5927734375 496.603515625 92.11126708984375 495.88275146484375 Q 91.6297607421875 495.1619873046875 91.14825439453125 494.44122314453125 Q 90.666748046875 493.720458984375 90.42449951171875 492.99969482421875 Q 90.1822509765625 492.2789306640625 89.70074462890625 491.55816650390625 Q 89.21923828125 490.83740234375 88.77960205078125 490.39776611328125 Q 88.3399658203125 489.9581298828125 88.11865234375 489.51849365234375 Q 87.8973388671875 489.078857421875 87.45770263671875 488.63922119140625 Q 87.01806640625 488.1995849609375 87.01806640625 487.99920654296875 Q 87.01806640625 487.798828125 87.01806640625 487.59844970703125 Q 87.01806640625 487.3980712890625 87.01806640625 487.19769287109375 Q 87.01806640625 486.997314453125 87.01806640625 486.55767822265625 Q 87.01806640625 486.1180419921875 87.73583984375 485.63653564453125 Q 88.45361328125 485.155029296875 91.22601318359375 484.461181640625 Q 93.9984130859375 483.767333984375 98.514404296875 482.1224365234375 Q 103.0303955078125 480.4775390625 110.47430419921875 478.9881591796875 Q 117.918212890625 477.498779296875 132.154052734375 474.2628173828125 Q 146.389892578125 471.02685546875 160.625732421875 468.4368896484375 Q 174.861572265625 465.846923828125 191.43017578125 463.08349609375 Q 207.998779296875 460.320068359375 227.0736083984375 457.3831787109375 Q 246.1484375 454.4462890625 255.3179931640625 453.90496826171875 Q 264.487548828125 453.3636474609375 282.288330078125 452.64886474609375 Q 300.089111328125 451.93408203125 315.47039794921875 451.26416015625 Q 330.8516845703125 450.59423828125 345.0875244140625 450.59423828125 Q 359.3233642578125 450.59423828125 364.50628662109375 450.59423828125 Q 369.689208984375 450.59423828125 378.8587646484375 450.59423828125 Q 388.0283203125 450.59423828125 390.80072021484375 450.59423828125 Q 393.5731201171875 450.59423828125 399.46783447265625 450.59423828125 Q 405.362548828125 450.59423828125 409.25347900390625 450.59423828125 Q 413.1444091796875 450.59423828125 415.42034912109375 450.59423828125 Q 417.6962890625 450.59423828125 419.51763916015625 450.59423828125 Q 421.3389892578125 450.59423828125 422.7506103515625 450.59423828125 Q 424.1622314453125 450.59423828125 424.8800048828125 450.59423828125 Q 425.5977783203125 450.59423828125 426.034423828125 450.3729248046875 Q 426.4710693359375 450.151611328125 426.66845703125 449.95123291015625 Q 426.8658447265625 449.7508544921875 427.063232421875 449.55047607421875 Q 427.2606201171875 449.35009765625 427.47894287109375 448.91046142578125 Q 427.697265625 448.4708251953125 427.8946533203125 448.27044677734375 L 428.093041015625 448.069068359375" stroke-linecap="round" />
</g>
</svg>