<?xml version="1.0" encoding="UTF-8" standalone="no" ?>
<!DOCTYPE svg PUBLIC "-//W3C//DTD SVG 1.1//EN" "http://www.w3.org/Graphics/SVG/1.1/DTD/svg11.dtd">
<svg xmlns="http://www.w3.org/2000/svg" xmlns:xlink="http://www.w3.org/1999/xlink" version="1.1" width="980" height="552" viewBox="0 0 980 552" xml:space="preserve">
<desc>Created with Fabric.js 3.5.0</desc>
<defs>
</defs>
<g transform="matrix(1 0 0 1 504.37 170.62)"  >
<path style="stroke: rgb(0,0,0); stroke-width: 1; stroke-dasharray: none; stroke-linecap: round; stroke-dashoffset: 0; stroke-linejoin: round; stroke-miterlimit: 10; fill: none; fill-rule: nonzero; opacity: 1;"  transform=" translate(-548.86, -268.4)" d="M 308.2463073730469 294.9710317382812 Q 308.2463073730469 294.97003173828125 307.97340393066406 294.42796325683594 Q 307.70050048828125 293.8858947753906 307.70050048828125 293.6615905761719 Q 307.70050048828125 293.4372863769531 307.70050048828125 291.6690216064453 Q 307.70050048828125 289.9007568359375 307.70050048828125 287.6203308105469 Q 307.70050048828125 285.33990478515625 307.70050048828125 282.4912414550781 Q 307.70050048828125 279.642578125 307.70050048828125 276.7939147949219 Q 307.70050048828125 273.94525146484375 307.70050048828125 269.8031005859375 Q 307.70050048828125 265.66094970703125 307.70050048828125 261.518798828125 Q 307.70050048828125 257.37664794921875 307.70050048828125 253.2344970703125 Q 307.70050048828125 249.09234619140625 308.26499938964844 241.72021484375 Q 308.8294982910156 234.34808349609375 311.7491912841797 230.45267486572266 Q 314.66888427734375 226.55726623535156 318.07456970214844 222.66184997558594 Q 321.4802551269531 218.7664337158203 326.09718322753906 215.1700897216797 Q 330.714111328125 211.57374572753906 336.11236572265625 207.7904815673828 Q 341.5106201171875 204.00721740722656 344.3555450439453 203.5997314453125 Q 347.2004699707031 203.19224548339844 357.98577880859375 198.47064208984375 Q 368.7710876464844 193.74903869628906 376.1394805908203 192.61256408691406 Q 383.50787353515625 191.47608947753906 390.8762664794922 191.47608947753906 Q 398.2446594238281 191.47608947753906 406.5551300048828 191.47608947753906 Q 414.8656005859375 191.47608947753906 422.23399353027344 191.47608947753906 Q 429.6023864746094 191.47608947753906 433.7407989501953 191.47608947753906 Q 437.87921142578125 191.47608947753906 445.2476043701172 191.47608947753906 Q 452.6159973144531 191.47608947753906 459.41615295410156 194.30979919433594 Q 466.21630859375 197.1435089111328 473.01646423339844 201.10995483398438 Q 479.8166198730469 205.07640075683594 489.9290008544922 211.14382934570312 Q 500.0413818359375 217.2112579345703 502.3404998779297 220.8898468017578 Q 504.6396179199219 224.5684356689453 509.73878479003906 230.23584747314453 Q 514.8379516601562 235.90325927734375 519.3726501464844 242.138916015625 Q 523.9073486328125 248.37457275390625 527.3055419921875 255.1747283935547 Q 530.7037353515625 261.9748840332031 533.5374450683594 268.77503967285156 Q 536.3711547851562 275.5751953125 539.0702819824219 281.51551818847656 Q 541.7694091796875 287.4558410644531 543.305908203125 293.100830078125 Q 544.8424072265625 298.7458190917969 546.3788757324219 304.39080810546875 Q 547.9153442382812 310.0357971191406 548.8349914550781 314.17420959472656 Q 549.754638671875 318.3126220703125 551.1341247558594 322.4510498046875 Q 552.5136108398438 326.5894775390625 553.4332580566406 330.72789001464844 Q 554.3529052734375 334.8663024902344 555.5716247558594 337.7112274169922 Q 556.7903442382812 340.55615234375 558.0090637207031 343.4010772705078 Q 559.227783203125 346.2460021972656 560.8539733886719 348.6834411621094 Q 562.4801635742188 351.1208801269531 565.078369140625 353.7190704345703 Q 567.6765747070312 356.3172607421875 570.7084045410156 358.48179626464844 Q 573.740234375 360.6463317871094 577.4188232421875 362.94544982910156 Q 581.097412109375 365.24456787109375 585.9610900878906 366.7025451660156 Q 590.8247680664062 368.1605224609375 595.6884155273438 369.6184997558594 Q 600.5520629882812 371.07647705078125 606.1970520019531 372.1007995605469 Q 611.842041015625 373.1251220703125 618.3207092285156 373.6634521484375 Q 624.7993774414062 374.2017822265625 635.1547546386719 374.2017822265625 Q 645.5101318359375 374.2017822265625 652.8785095214844 374.2017822265625 Q 660.2468872070312 374.2017822265625 668.557373046875 372.41856384277344 Q 676.8678588867188 370.6353454589844 683.6679992675781 366.6651611328125 Q 690.4681396484375 362.6949768066406 694.146728515625 360.3921203613281 Q 697.8253173828125 358.0892639160156 704.0610046386719 353.55084228515625 Q 710.2966918945312 349.0124206542969 715.964111328125 343.9095001220703 Q 721.6315307617188 338.80657958984375 727.02978515625 334.4849853515625 Q 732.4280395507812 330.16339111328125 736.7458801269531 325.2997131347656 Q 741.063720703125 320.43603515625 744.84326171875 315.03404235839844 Q 748.622802734375 309.6320495605469 751.54248046875 305.2506408691406 Q 754.462158203125 300.8692321777344 757.5388793945312 295.732666015625 Q 760.6156005859375 290.5960998535156 765.1465454101562 280.88372802734375 Q 769.677490234375 271.1713562011719 770.5971374511719 267.0292053222656 Q 771.5167846679688 262.8870544433594 773.0532531738281 257.2383270263672 Q 774.5897216796875 251.589599609375 776.2084655761719 245.10720825195312 Q 777.8272094726562 238.62481689453125 778.8515319824219 232.97608947753906 Q 779.8758544921875 227.32736206054688 780.9001770019531 221.67864227294922 Q 781.9244995117188 216.02992248535156 782.4104919433594 211.1625213623047 Q 782.896484375 206.2951202392578 783.3562927246094 202.15296936035156 Q 783.8161010742188 198.0108184814453 784.7357482910156 193.86866760253906 Q 785.6553955078125 189.7265167236328 786.0068054199219 187.958251953125 Q 786.3582153320312 186.1899871826172 786.7881469726562 182.7207489013672 Q 787.2180786132812 179.2515106201172 787.5956420898438 176.97108459472656 Q 787.9732055664062 174.69065856933594 788.3507995605469 172.4102325439453 Q 788.7283935546875 170.1298065185547 789.0536193847656 168.8213653564453 Q 789.3788452148438 167.51292419433594 789.7041015625 166.20448303222656 Q 790.0293579101562 164.8960418701172 790.0293579101562 163.99508666992188 Q 790.0293579101562 163.09413146972656 790.0293579101562 162.84365844726562 L 790.0293579101562 162.59218542480468" stroke-linecap="round" />
</g>
<g transform="matrix(1 0 0 1 659.3 156.92)"  >
<path style="stroke: rgb(0,0,0); stroke-width: 1; stroke-dasharray: none; stroke-linecap: round; stroke-dashoffset: 0; stroke-linejoin: round; stroke-miterlimit: 10; fill: none; fill-rule: nonzero; opacity: 1;"  transform=" translate(-659.3, -156.92)" d="M 659.29636328125 156.9182891845703 L 659.29836328125 156.9182891845703" stroke-linecap="round" />
</g>
<g transform="matrix(1 0 0 1 309.44 252.73)"  >
<path style="stroke: rgb(0,0,0); stroke-width: 1; stroke-dasharray: none; stroke-linecap: round; stroke-dashoffset: 0; stroke-linejoin: round; stroke-miterlimit: 10; fill: none; fill-rule: nonzero; opacity: 1;"  transform=" translate(-309.44, -252.73)" d="M 341.5863881835937 206.30006408691406 Q 341.58538818359375 206.30006408691406 340.68443298339844 206.30006408691406 Q 339.7834777832031 206.30006408691406 338.47503662109375 206.30006408691406 Q 337.1665954589844 206.30006408691406 335.2637481689453 207.81785583496094 Q 333.36090087890625 209.3356475830078 331.0804748535156 210.4721221923828 Q 328.800048828125 211.6085968017578 327.2785186767578 213.50770568847656 Q 325.7569885253906 215.4068145751953 322.7214050292969 217.1376953125 Q 319.6858215332031 218.8685760498047 317.6521301269531 220.89852905273438 Q 315.6184387207031 222.92848205566406 313.5847473144531 224.95843505859375 Q 311.5510559082031 226.98838806152344 309.5173645019531 229.0183334350586 Q 307.4836730957031 231.04827880859375 306.8817901611328 231.94549560546875 Q 306.2799072265625 232.84271240234375 303.51722717285156 236.06149291992188 Q 300.7545471191406 239.2802734375 300.1526641845703 240.177490234375 Q 299.55078125 241.07470703125 298.49281311035156 242.48406982421875 Q 297.4348449707031 243.8934326171875 296.3731384277344 245.30654907226562 Q 295.3114318847656 246.71966552734375 294.2497253417969 248.48419189453125 Q 293.1880187988281 250.24871826171875 292.5861358642578 251.14593505859375 Q 291.9842529296875 252.04315185546875 291.3300323486328 253.34786987304688 Q 290.6758117675781 254.652587890625 290.02159118652344 255.957275390625 Q 289.36737060546875 257.261962890625 288.71315002441406 258.56666564941406 Q 288.0589294433594 259.8713684082031 287.45704650878906 260.7685852050781 Q 286.85516357421875 261.6658020019531 286.25328063964844 262.5630187988281 Q 285.6513977050781 263.4602355957031 285.0495147705078 264.3574523925781 Q 284.4476318359375 265.2546691894531 283.8457489013672 266.1518859863281 Q 283.2438659667969 267.0491027832031 282.94105529785156 267.9463195800781 Q 282.63824462890625 268.8435363769531 282.03636169433594 269.7407531738281 Q 281.4344787597656 270.6379699707031 281.1316680908203 271.5351867675781 Q 280.828857421875 272.4324035644531 280.5260467529297 273.3296203613281 Q 280.2232360839844 274.2268371582031 279.94659423828125 274.77264404296875 Q 279.6699523925781 275.3184509277344 279.3671417236328 276.2156677246094 Q 279.0643310546875 277.1128845214844 279.0643310546875 277.65869140625 Q 279.0643310546875 278.2044982910156 278.7615203857422 279.1017150878906 Q 278.4587097167969 279.9989318847656 278.18206787109375 280.54473876953125 Q 277.9054260253906 281.0905456542969 277.9054260253906 282.39524841308594 Q 277.9054260253906 283.699951171875 277.6026153564453 284.59716796875 Q 277.2998046875 285.494384765625 277.2998046875 286.79908752441406 Q 277.2998046875 288.1037902832031 277.2998046875 289.0010070800781 Q 277.2998046875 289.8982238769531 277.2998046875 290.7954406738281 Q 277.2998046875 291.6926574707031 277.2998046875 292.5898742675781 Q 277.2998046875 293.4870910644531 277.2998046875 294.3843078613281 Q 277.2998046875 295.2815246582031 277.2998046875 296.1787414550781 Q 277.2998046875 297.0759582519531 277.2998046875 297.32269287109375 Q 277.2998046875 297.5694274902344 277.2998046875 298.115234375 Q 277.2998046875 298.6610412597656 277.2998046875 298.90777587890625 L 277.2998046875 299.15551049804685" stroke-linecap="round" />
</g>
</svg>