<?xml version="1.0" encoding="UTF-8" standalone="no" ?>
<!DOCTYPE svg PUBLIC "-//W3C//DTD SVG 1.1//EN" "http://www.w3.org/Graphics/SVG/1.1/DTD/svg11.dtd">
<svg xmlns="http://www.w3.org/2000/svg" xmlns:xlink="http://www.w3.org/1999/xlink" version="1.1" width="980" height="1708" viewBox="0 0 980 1708" xml:space="preserve">
<desc>Created with Fabric.js 3.5.0</desc>
<defs>
</defs>
<g transform="matrix(1 0 0 1 235.5 250.5)"  >
<polygon style="stroke: none; stroke-width: 1; stroke-dasharray: none; stroke-linecap: butt; stroke-dashoffset: 0; stroke-linejoin: miter; stroke-miterlimit: 4; fill: rgb(255,175,100); fill-rule: nonzero; opacity: 1;"  points="-75,50 0,-50 75,50 " />
</g>
<g transform="matrix(1 0 0 1 605.24 178.27)"  >
<path style="stroke: rgb(0,0,0); stroke-width: 1; stroke-dasharray: none; stroke-linecap: round; stroke-dashoffset: 0; stroke-linejoin: round; stroke-miterlimit: 10; fill: none; fill-rule: nonzero; opacity: 1;"  transform=" translate(-605.24, -178.27)" d="M 492.7100290527344 219.43905885314942 Q 492.7110290527344 219.4380588531494 492.96461486816406 219.067964553833 Q 493.21820068359375 218.6978702545166 493.59857177734375 217.9576816558838 Q 493.97894287109375 217.21749305725098 494.73968505859375 215.98385047912598 Q 495.50042724609375 214.75020790100098 498.1630554199219 211.2960147857666 Q 500.82568359375 207.84182167053223 504.88299560546875 203.09228706359863 Q 508.9403076171875 198.34275245666504 513.7583923339844 193.28479957580566 Q 518.5764770507812 188.2268466949463 525.6767883300781 181.99693489074707 Q 532.777099609375 175.76702308654785 541.9060668945312 168.5502109527588 Q 551.0350341796875 161.33339881896973 559.0228576660156 156.4604892730713 Q 567.0106811523438 151.58757972717285 573.47705078125 148.56514930725098 Q 579.9434204101562 145.5427188873291 586.5365905761719 143.50721168518066 Q 593.1297607421875 141.47170448303223 600.864013671875 139.8679599761963 Q 608.5982666015625 138.26421546936035 615.57177734375 137.09224891662598 Q 622.5452880859375 135.9202823638916 630.0260009765625 135.9202823638916 Q 637.5067138671875 135.9202823638916 644.480224609375 136.78383827209473 Q 651.4537353515625 137.64739418029785 658.0469055175781 139.4361743927002 Q 664.6400756835938 141.22495460510254 670.9796447753906 143.56888008117676 Q 677.3192138671875 145.91280555725098 682.5176696777344 148.93523597717285 Q 687.7161254882812 151.95766639709473 692.2806091308594 155.10347175598145 Q 696.8450927734375 158.24927711486816 701.2827758789062 162.1969394683838 Q 705.720458984375 166.1446018218994 708.8902282714844 170.83245277404785 Q 712.0599975585938 175.5203037261963 713.9618530273438 180.45488166809082 Q 715.8637084960938 185.38945960998535 716.8780822753906 190.63245582580566 Q 717.8924560546875 195.87545204162598 717.6388244628906 202.3520908355713 Q 717.3851928710938 208.8287296295166 715.3565368652344 216.35396003723145 Q 713.327880859375 223.8791904449463 709.2705688476562 231.65114784240723 Q 705.2132568359375 239.42310523986816 699.6344299316406 245.89975929260254 Q 694.0556030273438 252.3764133453369 676.81201171875 260.02500343322754 Q 659.5684204101562 267.67359352111816 649.5518798828125 268.7221927642822 Q 639.5353393554688 269.7707920074463 629.1384582519531 269.52405738830566 Q 618.7415771484375 269.27732276916504 607.8375244140625 267.7352695465088 Q 596.9334716796875 266.19321632385254 586.1562194824219 263.78760719299316 Q 575.3789672851562 261.3819980621338 565.7428283691406 258.60630226135254 Q 556.106689453125 255.8306064605713 548.1188354492188 252.99321937561035 Q 540.1309814453125 250.1558322906494 534.0449829101562 245.4679660797119 Q 527.958984375 240.7800998687744 523.9016723632812 233.6249713897705 Q 519.8443603515625 226.4698429107666 517.6889038085938 218.38946723937988 Q 515.533447265625 210.30909156799316 514.5191345214844 201.98198890686035 Q 513.5048217773438 193.65488624572754 514.011962890625 184.77263832092285 Q 514.5191040039062 175.89039039611816 516.0406188964844 167.62496376037598 Q 517.5621337890625 159.3595371246338 520.0979309082031 150.53897285461426 Q 522.6337280273438 141.71840858459473 526.81787109375 132.77449226379395 Q 531.0020141601562 123.83057594299316 536.7076110839844 115.68850898742676 Q 542.4132080078125 107.54644203186035 548.6259765625 101.56326484680176 Q 554.8387451171875 95.58008766174316 562.3194580078125 92.0642032623291 Q 569.8001708984375 88.54831886291504 576.773681640625 87.5613956451416 Q 583.7471923828125 86.57447242736816 590.5939025878906 88.23990440368652 Q 597.4406127929688 89.90533638000488 603.146240234375 94.40814018249512 Q 608.8518676757812 98.91094398498535 613.1627502441406 105.63430976867676 Q 617.4736328125 112.35767555236816 621.1506042480469 120.62309455871582 Q 624.8275756835938 128.88851356506348 627.87060546875 138.01748847961426 Q 630.9136352539062 147.14646339416504 633.5762329101562 156.1520709991455 Q 636.2388305664062 165.15767860412598 638.013916015625 172.55955696105957 Q 639.7890014648438 179.96143531799316 641.3104858398438 185.82125282287598 Q 642.8319702148438 191.6810703277588 644.7338256835938 196.0604953765869 Q 646.6356811523438 200.43992042541504 647.6500549316406 203.52403450012207 Q 648.6644287109375 206.6081485748291 649.5519409179688 208.5203037261963 Q 650.439453125 210.43245887756348 651.3269958496094 212.03619575500488 L 652.2155385742187 213.6409326324463" stroke-linecap="round" />
</g>
<g transform="matrix(1 0 0 1 719.16 310.38)"  >
<path style="stroke: rgb(0,0,0); stroke-width: 1; stroke-dasharray: none; stroke-linecap: round; stroke-dashoffset: 0; stroke-linejoin: round; stroke-miterlimit: 10; fill: none; fill-rule: nonzero; opacity: 1;"  transform=" translate(-719.16, -310.38)" d="M 719.4128793945313 260.78694097900393 Q 719.4138793945312 260.7879409790039 719.5407104492188 261.7748489379883 Q 719.6675415039062 262.76175689697266 719.7943115234375 263.8720474243164 Q 719.9210815429688 264.98233795166016 719.9210815429688 266.4627151489258 Q 719.9210815429688 267.9430923461914 719.7943115234375 274.0496292114258 Q 719.6675415039062 280.15616607666016 719.6675415039062 285.15242767333984 Q 719.6675415039062 290.14868927001953 719.7943115234375 294.65149688720703 Q 719.9210815429688 299.15430450439453 719.7943115234375 303.1636428833008 Q 719.6675415039062 307.17298126220703 719.6675415039062 310.87390899658203 Q 719.6675415039062 314.57483673095703 719.6675415039062 317.84400177001953 Q 719.6675415039062 321.11316680908203 719.6675415039062 323.95055389404297 Q 719.6675415039062 326.7879409790039 719.7943115234375 329.5636520385742 Q 719.9210815429688 332.33936309814453 719.9210815429688 334.80664825439453 Q 719.9210815429688 337.27393341064453 719.9210815429688 339.3711166381836 Q 719.9210815429688 341.46829986572266 719.7943115234375 343.44214630126953 Q 719.6675415039062 345.4159927368164 719.7943115234375 347.14310455322266 Q 719.9210815429688 348.8702163696289 719.7943115234375 350.1655502319336 Q 719.6675415039062 351.4608840942383 719.5407104492188 352.5711441040039 Q 719.4138793945312 353.68140411376953 719.4138793945312 354.6066360473633 Q 719.4138793945312 355.53186798095703 719.287109375 356.33373260498047 Q 719.1603393554688 357.1355972290039 719.0335388183594 357.8757858276367 Q 718.90673828125 358.61597442626953 718.7799377441406 359.1094436645508 Q 718.6531372070312 359.60291290283203 718.5263671875 359.78795623779297 L 718.3985971679688 359.9739995727539" stroke-linecap="round" />
</g>
<g transform="matrix(1 0 0 1 332.45 211.75)"  >
<path style="stroke: rgb(0,0,0); stroke-width: 1; stroke-dasharray: none; stroke-linecap: round; stroke-dashoffset: 0; stroke-linejoin: round; stroke-miterlimit: 10; fill: none; fill-rule: nonzero; opacity: 1;"  transform=" translate(-332.45, -211.75)" d="M 332.1942373046875 126.44297735595703 Q 332.1932373046875 126.44397735595703 332.4468078613281 127.24584197998047 Q 332.70037841796875 128.0477066040039 332.32000732421875 141.1243438720703 Q 331.93963623046875 154.20098114013672 330.54493713378906 164.19351196289062 Q 329.1502380371094 174.18604278564453 328.0091094970703 182.88323211669922 Q 326.86798095703125 191.5804214477539 326.1072540283203 199.78416442871094 Q 325.3465270996094 207.98790740966797 325.3465270996094 215.14305114746094 Q 325.3465270996094 222.2981948852539 326.23406982421875 228.7131576538086 Q 327.1216125488281 235.12812042236328 328.38951110839844 240.61783599853516 Q 329.65740966796875 246.10755157470703 330.67173767089844 250.48699188232422 Q 331.6860656738281 254.8664321899414 332.57359313964844 259.18419647216797 Q 333.46112060546875 263.50196075439453 334.3486633300781 268.18981170654297 Q 335.2362060546875 272.8776626586914 336.1237487792969 277.62718963623047 Q 337.01129150390625 282.37671661376953 337.8988342285156 286.5711135864258 Q 338.786376953125 290.76551055908203 339.16676330566406 293.9113082885742 L 339.5481496582031 297.0581060180664" stroke-linecap="round" />
</g>
</svg>