<?xml version="1.0" encoding="UTF-8" standalone="no" ?>
<!DOCTYPE svg PUBLIC "-//W3C//DTD SVG 1.1//EN" "http://www.w3.org/Graphics/SVG/1.1/DTD/svg11.dtd">
<svg xmlns="http://www.w3.org/2000/svg" xmlns:xlink="http://www.w3.org/1999/xlink" version="1.1" width="1199" height="714" viewBox="0 0 1199 714" xml:space="preserve">
<desc>Created with Fabric.js 3.5.0</desc>
<defs>
</defs>
<g transform="matrix(1 0 0 1 235.5 250.5)"  >
<polygon style="stroke: none; stroke-width: 1; stroke-dasharray: none; stroke-linecap: butt; stroke-dashoffset: 0; stroke-linejoin: miter; stroke-miterlimit: 4; fill: rgb(0,175,100); fill-rule: nonzero; opacity: 1;"  points="-75 50,0 -50,75 50" /></g>
<g transform="matrix(1 0 0 1 235.5 250.5)"  >
<polygon style="stroke: none; stroke-width: 1; stroke-dasharray: none; stroke-linecap: butt; stroke-dashoffset: 0; stroke-linejoin: miter; stroke-miterlimit: 4; fill: rgb(255,175,100); fill-rule: nonzero; opacity: 1;"  points="-75,50 0,-50 75,50 " />
</g>
<g transform="matrix(1 0 0 1 746 262)"  >
<path style="stroke: rgb(0,0,0); stroke-width: 1; stroke-dasharray: none; stroke-linecap: round; stroke-dashoffset: 0; stroke-linejoin: round; stroke-miterlimit: 10; fill: none; fill-rule: nonzero; opacity: 1;"  transform=" translate(-746, -262)" d="M 805.001 114 Q 805 114 804.5 114 Q 804 114 801.5 114 Q 799 114 796.5 114 Q 794 114 790.5 114 Q 787 114 783.5 114 Q 780 114 771.5 114 Q 763 114 756 114 Q 749 114 742 114 Q 735 114 725.5 114 Q 716 114 707.5 114.5 Q 699 115 689 116.5 Q 679 118 670 120 Q 661 122 650.5 124 Q 640 126 636 127 Q 632 128 615.5 133.5 Q 599 139 590 143 Q 581 147 578.5 148.5 Q 576 150 569 154.5 Q 562 159 556.5 163.5 Q 551 168 546 173 Q 541 178 538 183.5 Q 535 189 532 195 Q 529 201 527 207.5 Q 525 214 523.5 220.5 Q 522 227 522 235 Q 522 243 522 256.5 Q 522 270 522 274 Q 522 278 522 286.5 Q 522 295 525.5 308 Q 529 321 533.5 329.5 Q 538 338 544 346.5 Q 550 355 553 358 Q 556 361 563.5 367.5 Q 571 374 584 383.5 Q 597 393 606 397 Q 615 401 620 402 Q 625 403 642 406.5 Q 659 410 670.5 410 Q 682 410 694.5 410 Q 707 410 731 403 Q 755 396 763 392 Q 771 388 786.5 379.5 Q 802 371 818 360.5 Q 834 350 848.5 339.5 Q 863 329 876 317.5 Q 889 306 891.5 303 Q 894 300 922.5 264.5 Q 951 229 954 223 Q 957 217 959 212.5 Q 961 208 962 204.5 Q 963 201 965 194.5 Q 967 188 968 182.5 Q 969 177 969.5 172 Q 970 167 970 163 Q 970 159 969.5 156.5 Q 969 154 967.5 152 Q 966 150 964 148.5 Q 962 147 958 144.5 Q 954 142 950 141.5 Q 946 141 942 140.5 Q 938 140 933 140 Q 928 140 922 140 Q 916 140 909.5 140 Q 903 140 895.5 141.5 Q 888 143 881 145 Q 874 147 860 151 Q 846 155 836.5 158.5 Q 827 162 822 164 Q 817 166 802 172.5 Q 787 179 776.5 184.5 Q 766 190 760.5 192.5 Q 755 195 745.5 200.5 Q 736 206 727.5 211.5 Q 719 217 711 221 Q 703 225 695 230.5 Q 687 236 680.5 240.5 Q 674 245 667.5 249 Q 661 253 656 257 Q 651 261 649 263.5 Q 647 266 640.5 272 Q 634 278 630.5 282 Q 627 286 624 290 Q 621 294 618 298.5 Q 615 303 613 307 Q 611 311 608.5 315.5 Q 606 320 605.5 322 Q 605 324 603 328.5 Q 601 333 599.5 337 Q 598 341 597 345 Q 596 349 595 352.5 Q 594 356 593 359 Q 592 362 591.5 363.5 Q 591 365 590.5 367.5 Q 590 370 589.5 371.5 Q 589 373 588.5 374.5 Q 588 376 587.5 376.5 Q 587 377 587 378 Q 587 379 587 379.5 L 587 380.001" stroke-linecap="round" />
</g>
<g transform="matrix(1 0 0 1 749.5 273)"  >
<path style="stroke: rgb(0,0,0); stroke-width: 1; stroke-dasharray: none; stroke-linecap: round; stroke-dashoffset: 0; stroke-linejoin: round; stroke-miterlimit: 10; fill: none; fill-rule: nonzero; opacity: 1;"  transform=" translate(-749.5, -273)" d="M 758.001 196 Q 758 196 757 196 Q 756 196 754 196 Q 752 196 750 196 Q 748 196 745 196 Q 742 196 738 196 Q 734 196 724.5 196 Q 715 196 709 196 Q 703 196 700 196 Q 697 196 689.5 196 Q 682 196 669.5 196 Q 657 196 654 196.5 Q 651 197 645 198.5 Q 639 200 634 202 Q 629 204 625 206.5 Q 621 209 618 211.5 Q 615 214 612 216.5 Q 609 219 606.5 222.5 Q 604 226 602 229.5 Q 600 233 598.5 237.5 Q 597 242 596.5 247.5 Q 596 253 595.5 259 Q 595 265 595 271 Q 595 277 595 283.5 Q 595 290 595 296 Q 595 302 595 309 Q 595 316 595 322 Q 595 328 596.5 333.5 Q 598 339 599.5 344.5 Q 601 350 603.5 355.5 Q 606 361 609 365 Q 612 369 615 373 Q 618 377 622.5 380.5 Q 627 384 631.5 386 Q 636 388 642 390 Q 648 392 653.5 393 Q 659 394 670 394.5 Q 681 395 685.5 395 Q 690 395 704 393.5 Q 718 392 728.5 388.5 Q 739 385 750.5 380 Q 762 375 767.5 372.5 Q 773 370 791 361 Q 809 352 814 349 Q 819 346 828.5 340 Q 838 334 846 328.5 Q 854 323 860.5 318 Q 867 313 872.5 308 Q 878 303 882.5 297.5 Q 887 292 890.5 287.5 Q 894 283 896.5 277.5 Q 899 272 900.5 267.5 Q 902 263 903 257.5 Q 904 252 904 246 Q 904 240 904 233.5 Q 904 227 903 219.5 Q 902 212 899.5 205.5 Q 897 199 893 193 Q 889 187 885 181.5 Q 881 176 875.5 171 Q 870 166 868 164.5 Q 866 163 861 160 Q 856 157 852 155.5 Q 848 154 845 153 Q 842 152 839 151.5 Q 836 151 832.5 151 Q 829 151 824 151 Q 819 151 816 153.5 Q 813 156 809.5 159 Q 806 162 801.5 166 Q 797 170 792 174.5 Q 787 179 782 184 Q 777 189 771.5 194 Q 766 199 763.5 201 Q 761 203 756.5 206 Q 752 209 748 212 Q 744 215 743 215.5 Q 742 216 739.5 218 Q 737 220 735 221 L 732.999 222.001" stroke-linecap="round" />
</g>
<g transform="matrix(1 0 0 1 581.5 313)"  >
<path style="stroke: rgb(0,0,0); stroke-width: 1; stroke-dasharray: none; stroke-linecap: round; stroke-dashoffset: 0; stroke-linejoin: round; stroke-miterlimit: 10; fill: none; fill-rule: nonzero; opacity: 1;"  transform=" translate(-581.5, -313)" d="M 521.999 135.999 Q 522 136 523.5 137 Q 525 138 526.5 139.5 Q 528 141 531 143 Q 534 145 540.5 150 Q 547 155 553 160 Q 559 165 566 170 Q 573 175 579 181 Q 585 187 593 193.5 Q 601 200 608.5 207 Q 616 214 624 221 Q 632 228 639.5 235.5 Q 647 243 654.5 251.5 Q 662 260 669 269 Q 676 278 683.5 287.5 Q 691 297 698 306.5 Q 705 316 711 325.5 Q 717 335 719 339.5 Q 721 344 724.5 354 Q 728 364 731 372.5 Q 734 381 735 388.5 Q 736 396 736 403 Q 736 410 736 417.5 Q 736 425 734 434 Q 732 443 726 448 Q 720 453 713 458.5 Q 706 464 695.5 469.5 Q 685 475 671.5 480 Q 658 485 642.5 490 Q 627 495 609.5 499.5 Q 592 504 575.5 506.5 Q 559 509 543 511 Q 527 513 520.5 513 Q 514 513 502.5 513 Q 491 513 481 513 Q 471 513 464.5 511.5 Q 458 510 454.5 507.5 Q 451 505 439 479.5 Q 427 454 427 445 Q 427 436 431.5 418.5 Q 436 401 444.5 381 Q 453 361 466.5 339 Q 480 317 498 293 Q 516 269 536.5 247 Q 557 225 566.5 216.5 Q 576 208 593.5 193.5 Q 611 179 628 166 Q 645 153 650.5 149.5 Q 656 146 667 139 Q 678 132 682.5 130.5 Q 687 129 694 125 Q 701 121 706.5 118.5 Q 712 116 713.5 115.5 Q 715 115 718 114 Q 721 113 722.5 113 L 724.001 113" stroke-linecap="round" />
</g>
<g transform="matrix(1 0 0 1 567.5 249.5)"  >
<path style="stroke: rgb(0,0,0); stroke-width: 1; stroke-dasharray: none; stroke-linecap: round; stroke-dashoffset: 0; stroke-linejoin: round; stroke-miterlimit: 10; fill: none; fill-rule: nonzero; opacity: 1;"  transform=" translate(-567.5, -249.5)" d="M 546.001 147 Q 546 147 544.5 147 Q 543 147 542.5 147 Q 542 147 542 147.5 Q 542 148 542 149.5 Q 542 151 541.5 153 Q 541 155 539.5 161.5 Q 538 168 537 174 Q 536 180 535 186.5 Q 534 193 533.5 201 Q 533 209 532.5 218.5 Q 532 228 532 238 Q 532 248 532 258 Q 532 268 532 272 Q 532 276 532 285 Q 532 294 532 301.5 Q 532 309 532 315.5 Q 532 322 533.5 327 Q 535 332 537 336 Q 539 340 542 343 Q 545 346 548.5 348 Q 552 350 555.5 350.5 Q 559 351 564.5 351.5 Q 570 352 575.5 352 Q 581 352 593.5 352 Q 606 352 609.5 352 Q 613 352 619.5 349.5 Q 626 347 632 344 Q 638 341 643.5 337 Q 649 333 653.5 328.5 Q 658 324 662 317.5 Q 666 311 669.5 304.5 Q 673 298 674.5 291.5 Q 676 285 677.5 277.5 Q 679 270 679 262 Q 679 254 679 246.5 Q 679 239 678 231 Q 677 223 674 216 Q 671 209 667 202.5 Q 663 196 654.5 186.5 Q 646 177 638.5 171.5 Q 631 166 622 162 Q 613 158 602 155.5 Q 591 153 578.5 152 Q 566 151 552 151 Q 538 151 524.5 151 Q 511 151 506 152.5 Q 501 154 491 157.5 Q 481 161 478 162.5 Q 475 164 469 167.5 Q 463 171 459.5 174 L 455.999 177.001" stroke-linecap="round" />
</g>
<g transform="matrix(1 0 0 1 662.77 331)"  >
<path style="stroke: rgb(27,28,222); stroke-width: 1; stroke-dasharray: none; stroke-linecap: round; stroke-dashoffset: 0; stroke-linejoin: round; stroke-miterlimit: 10; fill: none; fill-rule: nonzero; opacity: 1;"  transform=" translate(-662.77, -331)" d="M 488 191.999 Q 488 192 487.5 192 Q 487 192 487 192.5 Q 487 193 487 194.5 Q 487 196 487 197.5 Q 487 199 487 201 Q 487 203 487 205.5 Q 487 208 487 211.5 Q 487 215 487 218.5 Q 487 222 487 227 Q 487 232 487 237.5 Q 487 243 487 254 Q 487 265 487 268 Q 487 271 487 278 Q 487 285 487 292.5 Q 487 300 487 308 Q 487 316 487 322.5 Q 487 329 487 335.5 Q 487 342 488.5 347.5 Q 490 353 492 357.5 Q 494 362 496.5 366.5 Q 499 371 502 374.5 Q 505 378 508.5 381 Q 512 384 515.5 385.5 Q 519 387 524 389 Q 529 391 534.5 391.5 Q 540 392 546.5 392 Q 553 392 560 392 Q 567 392 582 392 Q 597 392 606.5 391.5 Q 616 391 620.5 389 Q 625 387 634 383.5 Q 643 380 651 376 Q 659 372 666.5 367 Q 674 362 681 357 Q 688 352 693 346.5 Q 698 341 703 335 Q 708 329 712 321.5 Q 716 314 718.5 307.5 Q 721 301 722.5 293.5 Q 724 286 725 279 Q 726 272 726.5 263.5 Q 727 255 727 247.5 Q 727 240 726.5 233 Q 726 226 723 219 Q 720 212 716 205.5 Q 712 199 707.5 193.5 Q 703 188 698 184 Q 693 180 687 176.5 Q 681 173 670 169.5 Q 659 166 654.5 166 Q 650 166 642 166 Q 634 166 626.5 167 Q 619 168 611.5 171.5 Q 604 175 597.5 178.5 Q 591 182 585 186.5 Q 579 191 575 196.5 Q 571 202 567 208 Q 563 214 557.5 225.5 Q 552 237 550 246 Q 548 255 547 265 Q 546 275 545.5 286.5 Q 545 298 545 310.5 Q 545 323 545 335.5 Q 545 348 545 354 Q 545 360 545.5 370.5 Q 546 381 547.5 392 Q 549 403 551 412.5 Q 553 422 555 430.5 Q 557 439 557.5 442.5 Q 558 446 559.5 452.5 Q 561 459 562 464 Q 563 469 564 473.5 Q 565 478 565.5 482.5 Q 566 487 566 490 Q 566 493 566 495.5 Q 566 498 564.5 500 Q 563 502 560 505.5 Q 557 509 553 511 Q 549 513 544 515 Q 539 517 533.5 518.5 Q 528 520 522 521 Q 516 522 509.5 523.5 Q 503 525 495.5 525.5 Q 488 526 481.5 527 Q 475 528 472 528 Q 469 528 464 528 Q 459 528 454.5 528 Q 450 528 445.5 528 Q 441 528 437.5 528 Q 434 528 431.5 527 Q 429 526 427 524 Q 425 522 423.5 520 Q 422 518 420.5 514 Q 419 510 419 506.5 Q 419 503 419 495.5 Q 419 488 422 481 Q 425 474 430 466 Q 435 458 442.5 449 Q 450 440 460.5 429.5 Q 471 419 483 409.5 Q 495 400 509 390 Q 523 380 537.5 372 Q 552 364 566 357 Q 580 350 594 344 Q 608 338 614 336 Q 620 334 633 330 Q 646 326 657 323.5 Q 668 321 678 318.5 Q 688 316 697 314 Q 706 312 709.5 311.5 Q 713 311 719 309.5 Q 725 308 730 307 Q 735 306 739 304.5 Q 743 303 746 301 Q 749 299 753 296.5 Q 757 294 759 291 Q 761 288 762 284 Q 763 280 763.5 275 Q 764 270 764.5 260 Q 765 250 765 241 Q 765 232 762.5 222.5 Q 760 213 755 202.5 Q 750 192 742.5 181.5 Q 735 171 726.5 161.5 Q 718 152 708.5 145 Q 699 138 687.5 132 Q 676 126 664.5 121.5 Q 653 117 647 116.5 Q 641 116 620.5 113 Q 600 110 594.5 110 Q 589 110 578.5 110 Q 568 110 559.5 110 Q 551 110 547 110 Q 543 110 536.5 110 Q 530 110 524.5 110.5 Q 519 111 514.5 111.5 Q 510 112 508.5 112 Q 507 112 504.5 112 Q 502 112 500 112 Q 498 112 495.5 112 Q 493 112 492 111.5 Q 491 111 490 109 Q 489 107 489 103.5 Q 489 100 489 95.5 Q 489 91 489 88.5 Q 489 86 489 84 Q 489 82 489.5 77 Q 490 72 491.5 69.5 Q 493 67 495 65.5 Q 497 64 500.5 62 Q 504 60 507 60 Q 510 60 516 61 Q 522 62 527.5 66.5 Q 533 71 541 79 Q 549 87 557.5 97 Q 566 107 582 128 Q 598 149 608.5 166 Q 619 183 630.5 201 Q 642 219 653 238 Q 664 257 668.5 267 Q 673 277 683.5 296.5 Q 694 316 703 335.5 Q 712 355 721 372.5 Q 730 390 733.5 397 Q 737 404 743.5 417.5 Q 750 431 752 435 Q 754 439 758 447.5 Q 762 456 762.5 458 Q 763 460 764.5 464.5 Q 766 469 767 475 Q 768 481 768 482.5 Q 768 484 768 485.5 Q 768 487 765 488 Q 762 489 757.5 489.5 Q 753 490 743 490 Q 733 490 723 490 Q 713 490 701 489.5 Q 689 489 674 486 Q 659 483 644 479.5 Q 629 476 612.5 471.5 Q 596 467 578.5 461.5 Q 561 456 545 449 Q 529 442 513 433 Q 497 424 483.5 413.5 Q 470 403 458 390 Q 446 377 436 363.5 Q 426 350 418.5 335.5 Q 411 321 409 314.5 Q 407 308 402.5 296 Q 398 284 397 279.5 Q 396 275 393.5 267 Q 391 259 391 257 Q 391 255 390 250.5 Q 389 246 388.5 243.5 Q 388 241 388 237.5 Q 388 234 388 233.5 Q 388 233 389 233 Q 390 233 393 233 Q 396 233 401.5 236 Q 407 239 413.5 245 Q 420 251 434 265 Q 448 279 461 292 Q 474 305 487.5 318.5 Q 501 332 508.5 340 Q 516 348 531.5 361.5 Q 547 375 560.5 387.5 Q 574 400 580 404 Q 586 408 608 422 Q 630 436 635 437.5 Q 640 439 651 443 Q 662 447 680 449.5 Q 698 452 709.5 452 Q 721 452 732 451.5 Q 743 451 754.5 448 Q 766 445 778 440 Q 790 435 795.5 432.5 Q 801 430 819.5 421 Q 838 412 843.5 409 Q 849 406 858.5 400.5 Q 868 395 871 392.5 Q 874 390 880 386 Q 886 382 890.5 378.5 Q 895 375 896.5 374 Q 898 373 900 371 Q 902 369 904 366 Q 906 363 906 361.5 Q 906 360 906 358.5 Q 906 357 900.5 355 Q 895 353 880.5 351 Q 866 349 850 349 Q 834 349 810.5 349 Q 787 349 757.5 354 Q 728 359 675 373.5 Q 622 388 605 394.5 Q 588 401 557 413 Q 526 425 514.5 430 Q 503 435 495 438.5 Q 487 442 470 448.5 Q 453 455 448.5 456 Q 444 457 435.5 459 Q 427 461 422 461.5 Q 417 462 411 462 Q 405 462 405 456 Q 405 450 415 430.5 Q 425 411 443.5 389 Q 462 367 488 339.5 Q 514 312 530 299.5 Q 546 287 574.5 264 Q 603 241 632 221 Q 661 201 671.5 194.5 Q 682 188 690 183.5 Q 698 179 703.5 175.5 Q 709 172 712.5 170 Q 716 168 723.5 163.5 Q 731 159 735 157 Q 739 155 742.5 153 Q 746 151 744.5 151.5 Q 743 152 733 160 Q 723 168 707.5 181 Q 692 194 656.5 223.5 Q 621 253 591.5 280.5 Q 562 308 530 338.5 Q 498 369 485 383 Q 472 397 444.5 423.5 Q 417 450 405.5 460.5 Q 394 471 373 490.5 Q 352 510 346 514.5 Q 340 519 334.5 522.5 Q 329 526 319.5 531.5 Q 310 537 299 542 Q 288 547 285 547 Q 282 547 277.5 542 Q 273 537 273 525.5 Q 273 514 278 479.5 Q 283 445 294 410 Q 305 375 311.5 355.5 Q 318 336 331.5 299.5 Q 345 263 358 230.5 Q 371 198 376.5 185.5 Q 382 173 392 149 Q 402 125 405.5 118.5 Q 409 112 411 107.5 Q 413 103 415 99.5 Q 417 96 420 89.5 Q 423 83 428 75.5 Q 433 68 435.5 66.5 Q 438 65 439 65 Q 440 65 441.5 69 Q 443 73 444 82.5 Q 445 92 446.5 113 Q 448 134 448 144 Q 448 154 452 230 Q 456 306 459 323 Q 462 340 464.5 352 Q 467 364 470 372.5 Q 473 381 478.5 398.5 Q 484 416 487.5 422 Q 491 428 498 440 Q 505 452 511.5 460.5 Q 518 469 525.5 476 Q 533 483 539.5 487 Q 546 491 552.5 494 Q 559 497 562 497.5 Q 565 498 570.5 499 Q 576 500 579.5 500 Q 583 500 590.5 499.5 Q 598 499 601 491 Q 604 483 604 470.5 Q 604 458 604 439.5 Q 604 421 598 396 Q 592 371 583.5 342 Q 575 313 566.5 279 Q 558 245 550.5 212 Q 543 179 538 146.5 Q 533 114 533 101.5 Q 533 89 532 64.5 Q 531 40 531 34 Q 531 28 531 24.5 Q 531 21 532 15.5 Q 533 10 535.5 4.5 Q 538 -1 541.5 -1 Q 545 -1 547.5 0 Q 550 1 554.5 8.5 Q 559 16 567.5 37 Q 576 58 581 75.5 Q 586 93 591.5 114.5 Q 597 136 603.5 159 Q 610 182 617.5 205 Q 625 228 633.5 250 Q 642 272 646.5 282 Q 651 292 660.5 310.5 Q 670 329 680 343 Q 690 357 700.5 368.5 Q 711 380 722 388.5 Q 733 397 745 403 Q 757 409 769 413 Q 781 417 787 417 Q 793 417 812.5 418 Q 832 419 842.5 419 Q 853 419 857 416.5 Q 861 414 869.5 409.5 Q 878 405 891.5 395.5 Q 905 386 911 377.5 Q 917 369 919 364.5 Q 921 360 924 352.5 Q 927 345 929 337 Q 931 329 931 325.5 Q 931 322 931 317.5 Q 931 313 931 306 Q 931 299 926 295.5 Q 921 292 910.5 292 Q 900 292 885.5 293.5 Q 871 295 835.5 311 Q 800 327 764.5 347 Q 729 367 686.5 394 Q 644 421 597.5 454.5 Q 551 488 503 525 Q 455 562 409 599.5 Q 363 637 321 672 Q 279 707 263 720 Q 247 733 235 742.5 Q 223 752 215 757.5 Q 207 763 202 764 Q 197 765 194 765 Q 191 765 177.5 765 Q 164 765 159 765 Q 154 765 157.5 759.5 Q 161 754 180.5 736 Q 200 718 230 692.5 Q 260 667 300 637.5 Q 340 608 385.5 577.5 Q 431 547 479 517 Q 527 487 548.5 474.5 Q 570 462 609.5 439.5 Q 649 417 663 408.5 Q 677 400 704.5 381.5 Q 732 363 751 348.5 Q 770 334 774.5 328 Q 779 322 789 310 Q 799 298 804.5 288 Q 810 278 812.5 268.5 Q 815 259 816 244 Q 817 229 816.5 220.5 Q 816 212 811 204 Q 806 196 802.5 193 Q 799 190 792 184.5 Q 785 179 770.5 171.5 Q 756 164 746 163 Q 736 162 724.5 162 Q 713 162 701 166 Q 689 170 677.5 178 Q 666 186 656 196.5 Q 646 207 636 220 Q 626 233 618.5 247.5 Q 611 262 605 278.5 Q 599 295 595 312 Q 591 329 588.5 346 Q 586 363 584.5 380.5 Q 583 398 582.5 414 Q 582 430 582 446 Q 582 462 582 468 Q 582 474 582 487 Q 582 500 582 511 Q 582 522 581.5 532 Q 581 542 579.5 550 Q 578 558 577.5 561 Q 577 564 575 569.5 Q 573 575 569 582 Q 565 589 562.5 591.5 Q 560 594 555.5 596 Q 551 598 548 598 Q 545 598 541.5 598 Q 538 598 534 594 Q 530 590 527 577 Q 524 564 525.5 535.5 Q 527 507 542 475 Q 557 443 579.5 406 Q 602 369 631.5 327.5 Q 661 286 694 249 Q 727 212 744 197 Q 761 182 792.5 154.5 Q 824 127 855 106.5 Q 886 86 897.5 81 Q 909 76 932 65 Q 955 54 962.5 52.5 Q 970 51 976 49.5 Q 982 48 993 45.5 Q 1004 43 1012 42.5 Q 1020 42 1024 42 Q 1028 42 1030.5 42 Q 1033 42 1035.5 43.5 Q 1038 45 1038 48 Q 1038 51 1033.5 56 Q 1029 61 1017 68 Q 1005 75 973 89.5 Q 941 104 906.5 115.5 Q 872 127 830.5 139.5 Q 789 152 743 164 Q 697 176 651 186 Q 605 196 586 198.5 Q 567 201 551 202 Q 535 203 504 204 Q 473 205 464.5 205 Q 456 205 425 199.5 Q 394 194 390.5 190.5 Q 387 187 380 181.5 Q 373 176 372.5 174 Q 372 172 371 170.5 Q 370 169 367.5 165.5 Q 365 162 365 161.5 Q 365 161 365.5 162 Q 366 163 367 166 Q 368 169 368.5 173.5 Q 369 178 369.5 188 Q 370 198 370 208.5 Q 370 219 370 241 Q 370 263 366 283.5 Q 362 304 356.5 328.5 Q 351 353 346 377.5 Q 341 402 338.5 414 Q 336 426 335 434.5 Q 334 443 333 449 Q 332 455 331 465.5 Q 330 476 330 484 Q 330 492 330 501.5 Q 330 511 331.5 513 Q 333 515 339.5 517.5 Q 346 520 360 520 Q 374 520 391 519.5 Q 408 519 429.5 514.5 Q 451 510 476 504 Q 501 498 527.5 490.5 Q 554 483 580.5 475 Q 607 467 631 457 Q 655 447 663.5 441.5 Q 672 436 689 424 Q 706 412 718.5 400.5 Q 731 389 740.5 376 Q 750 363 751.5 357.5 Q 753 352 755.5 342 Q 758 332 758.5 316 Q 759 300 757 292 Q 755 284 740.5 271 Q 726 258 709.5 252 Q 693 246 671 242.5 Q 649 239 602 239 Q 555 239 539 239.5 Q 523 240 493 246.5 Q 463 253 453 256 Q 443 259 436 261 Q 429 263 426 264 Q 423 265 420.5 265.5 Q 418 266 409 268.5 Q 400 271 397.5 272 Q 395 273 397.5 273 Q 400 273 414.5 269.5 Q 429 266 449 262.5 Q 469 259 516 253.5 Q 563 248 602 248 Q 641 248 682.5 253 Q 724 258 743.5 264.5 Q 763 271 799 283.5 Q 835 296 849 303 Q 863 310 873 314.5 Q 883 319 890.5 322.5 Q 898 326 903 328.5 Q 908 331 917.5 334.5 Q 927 338 933 341 Q 939 344 942 346 Q 945 348 949 350 Q 953 352 952 352 Q 951 352 942 350 Q 933 348 902.5 341 Q 872 334 833 328.5 Q 794 323 747 321 Q 700 319 648 319 Q 596 319 542.5 326.5 Q 489 334 436 348 Q 383 362 361.5 372.5 Q 340 383 298 401.5 Q 256 420 243 426.5 Q 230 433 223 436.5 Q 216 440 212 442.5 Q 208 445 206 446 Q 204 447 186.5 455.5 Q 169 464 178 459 Q 187 454 217.5 436.5 Q 248 419 312.5 385 Q 377 351 437.5 324.5 Q 498 298 533 285 Q 568 272 627 249.5 Q 686 227 742.5 205.5 Q 799 184 820 176 Q 841 168 880.5 151.5 Q 920 135 931 129 Q 942 123 950 118.5 Q 958 114 963 110 Q 968 106 978 97.5 Q 988 89 993.5 83 Q 999 77 1001 73.5 Q 1003 70 1003.5 67 Q 1004 64 1003.5 64 Q 1003 64 994.5 65 Q 986 66 974.5 76 Q 963 86 948 101 Q 933 116 902 153 Q 871 190 848 222.5 Q 825 255 801 291.5 Q 777 328 766.5 347 Q 756 366 737 400 Q 718 434 712.5 446.5 Q 707 459 703.5 467 Q 700 475 697.5 480.5 Q 695 486 693 490 Q 691 494 687 502 Q 683 510 680.5 514.5 Q 678 519 676 523 Q 674 527 673.5 527 Q 673 527 673 524.5 Q 673 522 673 509 Q 673 496 674 462 Q 675 428 677 392 Q 679 356 681.5 310.5 Q 684 265 686 210 Q 688 155 688 128 Q 688 101 688 54 Q 688 7 688 -6.5 Q 688 -20 687 -29 Q 686 -38 685.5 -42.5 Q 685 -47 683.5 -56.5 Q 682 -66 679.5 -77.5 Q 677 -89 676 -88.5 Q 675 -88 672.5 -83 Q 670 -78 667.5 -69 Q 665 -60 663 -46.5 Q 661 -33 657.5 -6.5 Q 654 20 654 42.5 Q 654 65 654 110.5 Q 654 156 658 192.5 Q 662 229 671 272.5 Q 680 316 691 360.5 Q 702 405 706 426 Q 710 447 717.5 486 Q 725 525 726.5 539.5 Q 728 554 728.5 564 Q 729 574 729 582 Q 729 590 729 604 Q 729 618 722 645.5 Q 715 673 704.5 679 Q 694 685 668.5 685 Q 643 685 615.5 681 Q 588 677 550 661 Q 512 645 469 623.5 Q 426 602 407 588 Q 388 574 353 550.5 Q 318 527 304.5 516.5 Q 291 506 267.5 487 Q 244 468 238 462.5 Q 232 457 228 453 Q 224 449 222 447 Q 220 445 208.5 435.5 Q 197 426 196 424.5 Q 195 423 194 422 Q 193 421 194.5 422 Q 196 423 202 427 Q 208 431 220 436.5 Q 232 442 247 446 Q 262 450 283 454 Q 304 458 351 464 Q 398 470 441 474 Q 484 478 532 481.5 Q 580 485 629.5 487.5 Q 679 490 728.5 491.5 Q 778 493 798 493 Q 818 493 857 493 Q 896 493 907 490.5 Q 918 488 939.5 481 Q 961 474 966.5 470.5 Q 972 467 975 464.5 Q 978 462 991 452 Q 1004 442 1007 433.5 Q 1010 425 1008 415.5 Q 1006 406 994 398.5 Q 982 391 948.5 380.5 Q 915 370 898 370 Q 881 370 825 370 Q 769 370 726 376.5 Q 683 383 638.5 400 Q 594 417 547.5 441 Q 501 465 455.5 491.5 Q 410 518 391.5 531 Q 373 544 337.5 568.5 Q 302 593 290.5 602 Q 279 611 270.5 617 Q 262 623 257 626 Q 252 629 249 631 Q 246 633 234 640.5 Q 222 648 217.5 650 Q 213 652 218 646 Q 223 640 260 603 Q 297 566 341 528.5 Q 385 491 439 451 Q 493 411 525 391.5 Q 557 372 615 340 Q 673 308 729 279.5 Q 785 251 809 240 Q 833 229 879.5 207 Q 926 185 941.5 177.5 Q 957 170 968.5 163.5 Q 980 157 1003.5 145 Q 1027 133 1031.5 130 Q 1036 127 1039 125.5 Q 1042 124 1049 120.5 Q 1056 117 1059.5 115 Q 1063 113 1066.5 111 Q 1070 109 1068.5 109 Q 1067 109 1047.5 118 Q 1028 127 1001 140 Q 974 153 934.5 171 Q 895 189 818 224.5 Q 741 260 677.5 291 Q 614 322 576 340 Q 538 358 373.5 445 Q 209 532 169.5 553.5 Q 130 575 108.5 585 Q 87 595 75.5 600 Q 64 605 57.5 607 Q 51 609 46.5 610 Q 42 611 39.5 611.5 Q 37 612 36 612 Q 35 612 27.5 612 Q 20 612 21 606.5 Q 22 601 37 582.5 Q 52 564 74 543.5 Q 96 523 129 499 Q 162 475 201.5 452 Q 241 429 286.5 408 Q 332 387 353.5 381.5 Q 375 376 417 366 Q 459 356 498 350.5 Q 537 345 550.5 345 Q 564 345 574 345 Q 584 345 590 345 Q 596 345 600 345 Q 604 345 612.5 344.5 Q 621 344 629.5 344 Q 638 344 640 343 Q 642 342 638.5 339.5 Q 635 337 612 329.5 Q 589 322 574 318 Q 559 314 509 303.5 Q 459 293 440 291.5 Q 421 290 386 288.5 Q 351 287 337 287 Q 323 287 294.5 287.5 Q 266 288 257 291 Q 248 294 231.5 299 Q 215 304 204.5 309 Q 194 314 187.5 319.5 Q 181 325 178 330 Q 175 335 173 341 Q 171 347 171 357.5 Q 171 368 171 376.5 Q 171 385 176 396 Q 181 407 187.5 419.5 Q 194 432 202 446 Q 210 460 219.5 474.5 Q 229 489 239.5 503.5 Q 250 518 261 531 Q 272 544 276 548.5 Q 280 553 283.5 556 Q 287 559 289 560.5 Q 291 562 295.5 565.5 Q 300 569 305.5 572.5 Q 311 576 313.5 576.5 Q 316 577 317.5 573.5 Q 319 570 319 557.5 Q 319 545 310 507 Q 301 469 290 432.5 Q 279 396 266.5 352.5 Q 254 309 243 263 Q 232 217 230 195.5 Q 228 174 227.5 134 Q 227 94 227 81.5 Q 227 69 230 61 Q 233 53 239 36.5 Q 245 20 251.5 10 Q 258 0 271.5 -12 Q 285 -24 295 -20 Q 305 -16 324.5 -1 Q 344 14 366 43.5 Q 388 73 403.5 106 Q 419 139 437 181.5 Q 455 224 472.5 273.5 Q 490 323 507 375 Q 524 427 531 451 Q 538 475 550.5 517.5 Q 563 560 566.5 574 Q 570 588 571 597 Q 572 606 572.5 611 Q 573 616 574.5 628 Q 576 640 576.5 652.5 Q 577 665 575.5 668 Q 574 671 561 668.5 Q 548 666 536.5 657 Q 525 648 490 615.5 Q 455 583 443 568 Q 431 553 411.5 524 Q 392 495 378 465.5 Q 364 436 358.5 407.5 Q 353 379 353 351 Q 353 323 366 274 Q 379 225 401 192.5 Q 423 160 451 127 Q 479 94 496 79.5 Q 513 65 545.5 37 Q 578 9 612 -13.5 Q 646 -36 678.5 -53 Q 711 -70 742 -81 Q 773 -92 801.5 -97.5 Q 830 -103 855.5 -103 Q 881 -103 904.5 -102 Q 928 -101 938 -96 Q 948 -91 967 -81 Q 986 -71 1015 -50.5 Q 1044 -30 1049.5 -22.5 Q 1055 -15 1066.5 -0.5 Q 1078 14 1086.5 28 Q 1095 42 1097.5 47 Q 1100 52 1102 56.5 Q 1104 61 1105.5 64 Q 1107 67 1110 72.5 Q 1113 78 1114.5 81.5 Q 1116 85 1117.5 88 Q 1119 91 1118.5 89.5 Q 1118 88 1115 85.5 Q 1112 83 1105.5 78.5 Q 1099 74 1091.5 72.5 Q 1084 71 1067 70.5 Q 1050 70 1032 70 Q 1014 70 972 80.5 Q 930 91 888.5 104.5 Q 847 118 771.5 144 Q 696 170 630.5 195 Q 565 220 493.5 249.5 Q 422 279 350.5 311.5 Q 279 344 243 363 Q 207 382 179.5 397.5 Q 152 413 135 424 Q 118 435 109 441 Q 100 447 95 450.5 Q 90 454 79.5 461 Q 69 468 55.5 480.5 Q 42 493 43.5 494 Q 45 495 67 494 Q 89 493 123.5 485 Q 158 477 202.5 465 Q 247 453 299.5 440.5 Q 352 428 408.5 417 Q 465 406 522.5 397 Q 580 388 632.5 380 Q 685 372 707 368.5 Q 729 365 773.5 356.5 Q 818 348 856 338.5 Q 894 329 925.5 320 Q 957 311 968.5 307 Q 980 303 988 300 Q 996 297 1012.5 291.5 Q 1029 286 1033 284.5 Q 1037 283 1039.5 282 Q 1042 281 1046.5 279.5 Q 1051 278 1057 276 Q 1063 274 1064 274 Q 1065 274 1065 274.5 Q 1065 275 1055 281.5 Q 1045 288 1032 296 Q 1019 304 998 315.5 Q 977 327 953 339.5 Q 929 352 878 376 Q 827 400 789 416.5 Q 751 433 708 450 Q 665 467 618.5 486 Q 572 505 553 514.5 Q 534 524 518.5 532 Q 503 540 493.5 546 Q 484 552 478 556 Q 472 560 468.5 562 Q 465 564 456.5 568.5 Q 448 573 435 581.5 Q 422 590 422 590.5 Q 422 591 440 587.5 Q 458 584 488.5 572.5 Q 519 561 561 545 Q 603 529 655 512 Q 707 495 763 476.5 Q 819 458 872.5 440 Q 926 422 976.5 405 Q 1027 388 1048.5 379.5 Q 1070 371 1112 353 Q 1154 335 1187.5 317 Q 1221 299 1232 291 Q 1243 283 1249.5 278 Q 1256 273 1260.5 269.5 Q 1265 266 1268 263.5 Q 1271 261 1288 248.5 Q 1305 236 1305 234 Q 1305 232 1302.5 232 Q 1300 232 1287.5 235 Q 1275 238 1256 247 Q 1237 256 1211 268.5 Q 1185 281 1157.5 296 Q 1130 311 1101 328.5 Q 1072 346 1042.5 365 Q 1013 384 984.5 402.5 Q 956 421 929.5 440 Q 903 459 879 477.5 Q 855 496 846 504 Q 837 512 831 518 Q 825 524 813 536 Q 801 548 798 552 Q 795 556 790.5 562.5 Q 786 569 781 578.5 Q 776 588 776 592 Q 776 596 779.5 597.5 Q 783 599 798 600.5 Q 813 602 831 602 Q 849 602 873.5 597.5 Q 898 593 925 584 Q 952 575 981.5 563.5 Q 1011 552 1037.5 538.5 Q 1064 525 1089 511 Q 1114 497 1122.5 490.5 Q 1131 484 1138.5 479 Q 1146 474 1151 470 Q 1156 466 1159.5 463 Q 1163 460 1169.5 455.5 Q 1176 451 1180.5 447.5 Q 1185 444 1187.5 442 Q 1190 440 1192.5 438 Q 1195 436 1189.5 438 Q 1184 440 1171 449 Q 1158 458 1143.5 468 Q 1129 478 1119.5 485 Q 1110 492 1080.5 513.5 Q 1051 535 1031 550 Q 1011 565 1003 571.5 Q 995 578 989.5 583 Q 984 588 979.5 591.5 Q 975 595 972.5 597.5 Q 970 600 964.5 605 Q 959 610 956 612.5 Q 953 615 949 619 Q 945 623 945 623.5 Q 945 624 952.5 623.5 Q 960 623 972 618 Q 984 613 1001 606.5 Q 1018 600 1037 590 Q 1056 580 1078.5 568.5 Q 1101 557 1111 551.5 Q 1121 546 1140.5 534 Q 1160 522 1176 511 Q 1192 500 1197.5 496 Q 1203 492 1207 489 Q 1211 486 1213.5 484 Q 1216 482 1221 478.5 Q 1226 475 1229.5 473 Q 1233 471 1235.5 469 Q 1238 467 1237 467 Q 1236 467 1230.5 470.5 Q 1225 474 1210 483 Q 1195 492 1167.5 507 Q 1140 522 1121.5 533 Q 1103 544 1082 555.5 Q 1061 567 1052 572 Q 1043 577 1035.5 580.5 Q 1028 584 1022.5 586.5 Q 1017 589 1013.5 591 Q 1010 593 1003.5 596 Q 997 599 992.5 601.5 Q 988 604 985.5 605 Q 983 606 980.5 607 Q 978 608 978.5 606 Q 979 604 986 595.5 Q 993 587 998 582 Q 1003 577 1018.5 557.5 Q 1034 538 1046.5 522.5 Q 1059 507 1065 499 Q 1071 491 1081.5 476.5 Q 1092 462 1096 455.5 Q 1100 449 1102 444 Q 1104 439 1106 436 Q 1108 433 1111 427.5 Q 1114 422 1116 418 Q 1118 414 1119.5 409 Q 1121 404 1120 403.5 Q 1119 403 1113.5 403 Q 1108 403 1094.5 410.5 Q 1081 418 1066 426 Q 1051 434 1033 445 Q 1015 456 993.5 469 Q 972 482 962.5 489 Q 953 496 934 509 Q 915 522 898 534.5 Q 881 547 875.5 551.5 Q 870 556 866 559 Q 862 562 860 564 Q 858 566 853 569.5 Q 848 573 845.5 575.5 Q 843 578 840 581.5 Q 837 585 839 585 Q 841 585 850.5 582 Q 860 579 876.5 573 Q 893 567 913 558.5 Q 933 550 958 538.5 Q 983 527 1008.5 513.5 Q 1034 500 1058 486.5 Q 1082 473 1091 466.5 Q 1100 460 1117 447.5 Q 1134 435 1139 429.5 Q 1144 424 1148 420.5 Q 1152 417 1154 415 Q 1156 413 1161 408.5 Q 1166 404 1168.5 401.5 Q 1171 399 1174 395 Q 1177 391 1176.5 391 Q 1176 391 1166.5 392 Q 1157 393 1143 400 Q 1129 407 1107 418 Q 1085 429 1059 444 Q 1033 459 984 488 Q 935 517 919.5 528 Q 904 539 874.5 557.5 Q 845 576 833.5 585 Q 822 594 801.5 609.5 Q 781 625 775.5 629.5 Q 770 634 766 636.5 Q 762 639 760 640.5 Q 758 642 753 646 Q 748 650 743 654 Q 738 658 737.5 658.5 Q 737 659 738.5 658.5 Q 740 658 749.5 651 Q 759 644 773.5 634.5 Q 788 625 808 610 Q 828 595 850 577 Q 872 559 895.5 540 Q 919 521 940.5 501.5 Q 962 482 969.5 473.5 Q 977 465 983.5 458.5 Q 990 452 993.5 447.5 Q 997 443 1000 440 Q 1003 437 1008 431 Q 1013 425 1016 421.5 Q 1019 418 1022 414.5 Q 1025 411 1025 410 Q 1025 409 1021.5 409.5 Q 1018 410 1006 416.5 Q 994 423 976.5 433.5 Q 959 444 935 457.5 Q 911 471 882 489 Q 853 507 824 527 Q 795 547 766 566.5 Q 737 586 727 593.5 Q 717 601 709.5 606.5 Q 702 612 697 616 Q 692 620 689 622.5 Q 686 625 679.5 629.5 Q 673 634 669 637 Q 665 640 660 643.5 Q 655 647 660.5 642.5 Q 666 638 680.5 626 Q 695 614 728 585 Q 761 556 789.5 529 Q 818 502 847 473 Q 876 444 889 429.5 Q 902 415 926 387 Q 950 359 958.5 348.5 Q 967 338 972.5 330.5 Q 978 323 981 318.5 Q 984 314 986 311 Q 988 308 993 302 Q 998 296 1002.5 289.5 Q 1007 283 1007 281.5 Q 1007 280 1002.5 281.5 Q 998 283 975 297.5 Q 952 312 924.5 331.5 Q 897 351 865 374 Q 833 397 816 410.5 Q 799 424 731.5 483.5 Q 664 543 650 557 Q 636 571 628.5 578.5 Q 621 586 617.5 589.5 Q 614 593 612 595 Q 610 597 608.5 598.5 Q 607 600 604 603 Q 601 606 600 608 Q 599 610 602 608.5 Q 605 607 618 596.5 Q 631 586 648 573 Q 665 560 703.5 526.5 Q 742 493 756.5 480.5 Q 771 468 814.5 424 Q 858 380 870.5 366.5 Q 883 353 905.5 327.5 Q 928 302 934.5 293.5 Q 941 285 946 279.5 Q 951 274 953 270 Q 955 266 957 264 Q 959 262 962 257.5 Q 965 253 969 246.5 Q 973 240 971.5 240 Q 970 240 951.5 249.5 Q 933 259 906 277 Q 879 295 844 318.5 Q 809 342 767 372 Q 725 402 680 434 Q 635 466 592 499 Q 549 532 530.5 547.5 Q 512 563 479.5 589.5 Q 447 616 437.5 624.5 Q 428 633 422.5 638 Q 417 643 413.5 646 Q 410 649 407.5 650.5 Q 405 652 400 656.5 Q 395 661 388 666 Q 381 671 392.5 657.5 Q 404 644 422.5 623 Q 441 602 467 573 Q 493 544 523 507 Q 553 470 585.5 429.5 Q 618 389 632 370 Q 646 351 674 313.5 Q 702 276 724.5 243.5 Q 747 211 753 201 Q 759 191 763 182.5 Q 767 174 769 169 Q 771 164 775.5 154 Q 780 144 783.5 132.5 Q 787 121 787 117.5 Q 787 114 777.5 114 Q 768 114 739.5 119.5 Q 711 125 678.5 140 Q 646 155 608 176.5 Q 570 198 527.5 225 Q 485 252 443 281 Q 401 310 384 323 Q 367 336 334 360.5 Q 301 385 290.5 393.5 Q 280 402 273 407 Q 266 412 262 415.5 Q 258 419 256 420.5 Q 254 422 247.5 426.5 Q 241 431 235 435 Q 229 439 228 439 Q 227 439 227.5 438 Q 228 437 237 426.5 Q 246 416 271 387.5 Q 296 359 308.5 345.5 Q 321 332 361.5 288 Q 402 244 415 229.5 Q 428 215 452.5 184.5 Q 477 154 485.5 143.5 Q 494 133 499 124.5 Q 504 116 507 111 Q 510 106 511.5 103 Q 513 100 520.5 87.5 Q 528 75 530 70.5 Q 532 66 519.5 71.5 Q 507 77 486.5 95 Q 466 113 438 139 Q 410 165 376 198.5 Q 342 232 305.5 270 Q 269 308 255 324 Q 241 340 212.5 372.5 Q 184 405 174 416.5 Q 164 428 145 451 Q 126 474 121 480.5 Q 116 487 105.5 501.5 Q 95 516 92.5 520 L 89.999 524.001" stroke-linecap="round" />
</g>
<g transform="matrix(1 0 0 1 654.03 346.5)"  >
<path style="stroke: rgb(210,95,29); stroke-width: 1; stroke-dasharray: none; stroke-linecap: round; stroke-dashoffset: 0; stroke-linejoin: round; stroke-miterlimit: 10; fill: none; fill-rule: nonzero; opacity: 1;"  transform=" translate(-654.03, -346.5)" d="M 374 107.999 Q 374 108 374 109.5 Q 374 111 374 116 Q 374 121 373.5 125.5 Q 373 130 372 136.5 Q 371 143 370 152 Q 369 161 368.5 171 Q 368 181 368 193.5 Q 368 206 368 219.5 Q 368 233 368 246.5 Q 368 260 368 271.5 Q 368 283 368 287 Q 368 291 368 300 Q 368 309 369.5 316.5 Q 371 324 374 328.5 Q 377 333 380 337 Q 383 341 386.5 343 Q 390 345 394 346 Q 398 347 402 347 Q 406 347 415 347 Q 424 347 431.5 346 Q 439 345 445 341.5 Q 451 338 459 330.5 Q 467 323 474.5 314 Q 482 305 488.5 294.5 Q 495 284 500.5 270.5 Q 506 257 510.5 241.5 Q 515 226 517.5 212 Q 520 198 520.5 182 Q 521 166 521 149.5 Q 521 133 517 120.5 Q 513 108 507.5 96.5 Q 502 85 494.5 76.5 Q 487 68 478 61.5 Q 469 55 459 50.5 Q 449 46 438.5 44.5 Q 428 43 422 43 Q 416 43 380.5 56.5 Q 345 70 339.5 77.5 Q 334 85 330 91.5 Q 326 98 319 110.5 Q 312 123 307.5 136 Q 303 149 301 163 Q 299 177 299 189.5 Q 299 202 299 207.5 Q 299 213 304.5 230.5 Q 310 248 317 256 Q 324 264 333.5 270.5 Q 343 277 364.5 287 Q 386 297 396 298.5 Q 406 300 437 305.5 Q 468 311 478.5 312 Q 489 313 508.5 315.5 Q 528 318 547 320.5 Q 566 323 572.5 324 Q 579 325 584 326 Q 589 327 599 329.5 Q 609 332 616 334.5 Q 623 337 630.5 341.5 Q 638 346 640 350 Q 642 354 643.5 361.5 Q 645 369 645 375.5 Q 645 382 636.5 396.5 Q 628 411 617 424.5 Q 606 438 589 453 Q 572 468 550 484 Q 528 500 484 527.5 Q 440 555 423.5 562.5 Q 407 570 372.5 586.5 Q 338 603 306.5 616 Q 275 629 262 632.5 Q 249 636 239 638.5 Q 229 641 222 642 Q 215 643 201 645.5 Q 187 648 178.5 649 Q 170 650 165.5 650 Q 161 650 156 649 Q 151 648 152 643.5 Q 153 639 161.5 631 Q 170 623 186 611.5 Q 202 600 238.5 575 Q 275 550 311.5 529.5 Q 348 509 391 489.5 Q 434 470 481 450.5 Q 528 431 583 413 Q 638 395 696 378 Q 754 361 812.5 346.5 Q 871 332 896 326 Q 921 320 968.5 308 Q 1016 296 1031.5 291 Q 1047 286 1058.5 281.5 Q 1070 277 1090.5 267.5 Q 1111 258 1114.5 255 Q 1118 252 1134 241 Q 1150 230 1153.5 222 Q 1157 214 1156 205.5 Q 1155 197 1144.5 190 Q 1134 183 1116 175.5 Q 1098 168 1071.5 161.5 Q 1045 155 994 146 Q 943 137 903 136 Q 863 135 821 135 Q 779 135 737.5 140 Q 696 145 675.5 151 Q 655 157 617.5 169 Q 580 181 566 187.5 Q 552 194 527 204.5 Q 502 215 495.5 219 Q 489 223 484 226 Q 479 229 471 235 Q 463 241 458.5 245.5 Q 454 250 451 255.5 Q 448 261 448 264.5 Q 448 268 457 272.5 Q 466 277 479.5 279 Q 493 281 515.5 283 Q 538 285 566.5 286 Q 595 287 628.5 287 Q 662 287 697 287 Q 732 287 765.5 286 Q 799 285 812.5 282 Q 826 279 850.5 274.5 Q 875 270 882.5 267.5 Q 890 265 895.5 262.5 Q 901 260 912.5 255.5 Q 924 251 926 250 Q 928 249 932.5 246.5 Q 937 244 940.5 241 Q 944 238 944.5 235.5 Q 945 233 940.5 231.5 Q 936 230 922 230 Q 908 230 886.5 230 Q 865 230 818.5 233.5 Q 772 237 732.5 246.5 Q 693 256 650.5 268.5 Q 608 281 563.5 298 Q 519 315 500.5 325.5 Q 482 336 446.5 356 Q 411 376 399.5 385.5 Q 388 395 380.5 403.5 Q 373 412 357 427 Q 341 442 331.5 454.5 Q 322 467 317.5 477 Q 313 487 312 494 Q 311 501 311 511 Q 311 521 322 529 Q 333 537 349 540.5 Q 365 544 387 545.5 Q 409 547 460 548 Q 511 549 551.5 549 Q 592 549 612 549 Q 632 549 672 547.5 L 712.001 545.999" stroke-linecap="round" />
</g>
</svg>