<?xml version="1.0" encoding="UTF-8" standalone="no" ?>
<!DOCTYPE svg PUBLIC "-//W3C//DTD SVG 1.1//EN" "http://www.w3.org/Graphics/SVG/1.1/DTD/svg11.dtd">
<svg xmlns="http://www.w3.org/2000/svg" xmlns:xlink="http://www.w3.org/1999/xlink" version="1.1" width="980" height="453" viewBox="0 0 980 453" xml:space="preserve">
<desc>Created with Fabric.js 3.5.0</desc>
<defs>
</defs>
<g transform="matrix(1 0 0 1 607.6 215.52)"  >
<path style="stroke: rgb(0,0,0); stroke-width: 1; stroke-dasharray: none; stroke-linecap: round; stroke-dashoffset: 0; stroke-linejoin: round; stroke-miterlimit: 10; fill: none; fill-rule: nonzero; opacity: 1;"  transform=" translate(-607.6, -215.52)" d="M 608.8426137695312 153.34657287597656 Q 608.8416137695312 153.34657287597656 606.5103149414062 151.59751892089844 Q 604.1790161132812 149.8484649658203 603.8631286621094 149.8484649658203 Q 603.5472412109375 149.8484649658203 603.2007446289062 149.8484649658203 Q 602.854248046875 149.8484649658203 602.5077514648438 149.8484649658203 Q 602.1612548828125 149.8484649658203 601.8147277832031 149.8484649658203 Q 601.4682006835938 149.8484649658203 601.1217041015625 149.8484649658203 Q 600.7752075195312 149.8484649658203 600.7752075195312 151.11664581298828 Q 600.7752075195312 152.38482666015625 600.7752075195312 153.81565856933594 Q 600.7752075195312 155.24649047851562 600.7752075195312 156.68203735351562 Q 600.7752075195312 158.11758422851562 600.7752075195312 159.23019409179688 Q 600.7752075195312 160.34280395507812 600.7752075195312 161.45541381835938 Q 600.7752075195312 162.56802368164062 600.7752075195312 163.68063354492188 Q 600.7752075195312 164.79324340820312 600.7752075195312 165.61590576171875 Q 600.7752075195312 166.43856811523438 600.7752075195312 167.00430297851562 Q 600.7752075195312 167.57003784179688 600.9307556152344 167.72561645507812 Q 601.0863037109375 167.88119506835938 602.1989135742188 167.88119506835938 Q 603.3115234375 167.88119506835938 604.4241333007812 167.88119506835938 Q 605.5367431640625 167.88119506835938 606.9675903320312 167.88119506835938 Q 608.3984375 167.88119506835938 610.1922912597656 167.88119506835938 Q 611.9861450195312 167.88119506835938 613.4216918945312 167.88119506835938 Q 614.8572387695312 167.88119506835938 617.6175231933594 166.34664154052734 Q 620.3778076171875 164.8120880126953 621.7402954101562 162.90274047851562 Q 623.102783203125 160.99339294433594 623.7156372070312 157.9242935180664 Q 624.3284912109375 154.85519409179688 624.6679382324219 150.7677764892578 Q 625.0073852539062 146.68035888671875 625.0073852539062 142.5929412841797 Q 625.0073852539062 138.50552368164062 625.0073852539062 136.70932006835938 Q 625.0073852539062 134.91311645507812 625.0073852539062 132.3013153076172 Q 625.0073852539062 129.68951416015625 625.0073852539062 127.89331436157227 Q 625.0073852539062 126.09711456298828 623.7250671386719 124.81478881835938 Q 622.4427490234375 123.53246307373047 620.2552490234375 122.71215057373047 Q 618.0677490234375 121.89183807373047 616.2715454101562 121.89183807373047 Q 614.475341796875 121.89183807373047 611.8635559082031 122.76165008544922 Q 609.2517700195312 123.63146209716797 605.5061340332031 127.7495231628418 Q 601.760498046875 131.86758422851562 598.6300964355469 136.95211029052734 Q 595.4996948242188 142.03663635253906 592.4046936035156 149.55145263671875 Q 589.3096923828125 157.06626892089844 586.6554565429688 164.58108520507812 Q 584.001220703125 172.0959014892578 582.2992858886719 179.32313537597656 Q 580.5973510742188 186.5503692626953 580.1542053222656 194.48712921142578 Q 579.7110595703125 202.42388916015625 579.7110595703125 209.65113067626953 Q 579.7110595703125 216.8783721923828 580.4913024902344 222.74549102783203 Q 581.2715454101562 228.61260986328125 584.7908630371094 233.69712829589844 Q 588.3101806640625 238.78164672851562 593.20849609375 243.6799545288086 Q 598.1068115234375 248.57826232910156 603.8207092285156 251.84300994873047 Q 609.5346069335938 255.10775756835938 616.3351745605469 257.65826416015625 Q 623.1357421875 260.2087707519531 630.3629760742188 261.9083251953125 Q 637.5902099609375 263.6078796386719 641.67529296875 263.94732666015625 Q 645.7603759765625 264.2867736816406 652.2898559570312 264.2867736816406 Q 658.8193359375 264.2867736816406 663.9557189941406 264.2867736816406 Q 669.0921020507812 264.2867736816406 670.8859558105469 264.2867736816406 Q 672.6798095703125 264.2867736816406 675.7465515136719 263.36509704589844 Q 678.8132934570312 262.44342041015625 682.5589294433594 260.73915100097656 Q 686.3045654296875 259.0348815917969 687.6693725585938 257.1208190917969 Q 689.0341796875 255.20675659179688 689.6470642089844 252.1400146484375 Q 690.2599487304688 249.07327270507812 690.2599487304688 246.88577270507812 Q 690.2599487304688 244.69827270507812 686.8938293457031 240.58492279052734 Q 683.5277099609375 236.47157287597656 676.7247924804688 233.4944076538086 Q 669.921875 230.51724243164062 660.3987121582031 228.1364517211914 Q 650.8755493164062 225.7556610107422 638.8419189453125 225.23235321044922 Q 626.8082885742188 224.70904541015625 612.7757873535156 224.70904541015625 Q 598.7432861328125 224.70904541015625 584.7107543945312 225.83108520507812 Q 570.67822265625 226.953125 563.8752746582031 229.5036392211914 Q 557.0723266601562 232.0541534423828 552.2046813964844 234.6730194091797 Q 547.3370361328125 237.29188537597656 539.0726013183594 240.9644317626953 Q 530.8081665039062 244.63697814941406 528.8941040039062 246.0018081665039 Q 526.9800415039062 247.36663818359375 523.0458374023438 249.8676528930664 Q 519.1116333007812 252.36866760253906 514.9912261962891 256.11193084716797 Q 510.8708190917969 259.8551940917969 510.5785217285156 262.4646301269531 Q 510.2862243652344 265.0740661621094 511.31163024902344 266.61097717285156 Q 512.3370361328125 268.14788818359375 519.5642700195312 269.4231414794922 Q 526.79150390625 270.6983947753906 537.1444091796875 271.19105529785156 Q 547.497314453125 271.6837158203125 561.5274658203125 271.6837158203125 Q 575.5576171875 271.6837158203125 590.5919799804688 271.6837158203125 Q 605.6263427734375 271.6837158203125 620.6606750488281 269.3689270019531 Q 635.6950073242188 267.05413818359375 642.49560546875 264.5012664794922 Q 649.2962036132812 261.9483947753906 660.891357421875 258.25699615478516 Q 672.4865112304688 254.5655975341797 675.7229919433594 252.6232452392578 Q 678.95947265625 250.68089294433594 681.2789611816406 249.22884368896484 Q 683.5984497070312 247.77679443359375 687.88623046875 245.27342987060547 Q 692.1740112304688 242.7700653076172 697.258544921875 239.24838256835938 Q 702.3430786132812 235.72669982910156 703.5688171386719 232.65760040283203 Q 704.7945556640625 229.5885009765625 704.7945556640625 228.15059661865234 Q 704.7945556640625 226.7126922607422 698.6705017089844 224.26117706298828 Q 692.5464477539062 221.80966186523438 683.8435974121094 221.35000610351562 Q 675.1407470703125 220.89035034179688 668.60888671875 220.89035034179688 Q 662.0770263671875 220.89035034179688 646.0007934570312 220.89035034179688 Q 629.924560546875 220.89035034179688 624.4463806152344 223.62708282470703 Q 618.9682006835938 226.3638153076172 609.1055908203125 230.80010223388672 Q 599.2429809570312 235.23638916015625 596.1762390136719 237.95897674560547 Q 593.1094970703125 240.6815643310547 587.1551513671875 244.93163299560547 Q 581.2008056640625 249.18170166015625 577.4552001953125 253.2997589111328 Q 573.7095947265625 257.4178161621094 571.6658935546875 261.1634521484375 Q 569.6221923828125 264.9090881347656 568.4977722167969 270.14918518066406 Q 567.3733520507812 275.3892822265625 567.3733520507812 278.4560241699219 Q 567.3733520507812 281.52276611328125 569.9615783691406 284.1109924316406 Q 572.5498046875 286.69921875 577.0403137207031 289.69288635253906 Q 581.5308227539062 292.6865539550781 588.3314208984375 295.237060546875 Q 595.1320190429688 297.7875671386719 603.0899963378906 300.43943786621094 Q 611.0479736328125 303.09130859375 619.0059204101562 304.8592224121094 Q 626.9638671875 306.62713623046875 630.5232849121094 306.95008850097656 Q 634.0827026367188 307.2730407714844 636.692138671875 307.56297302246094 Q 639.3015747070312 307.8529052734375 643.3866271972656 308.1923522949219 Q 647.4716796875 308.53179931640625 650.5384216308594 308.8382263183594 Q 653.6051635742188 309.1446533203125 656.653076171875 309.1446533203125 L 659.7019887695312 309.1446533203125" stroke-linecap="round" />
</g>
</svg>