<?xml version="1.0" encoding="UTF-8" standalone="no" ?>
<!DOCTYPE svg PUBLIC "-//W3C//DTD SVG 1.1//EN" "http://www.w3.org/Graphics/SVG/1.1/DTD/svg11.dtd">
<svg xmlns="http://www.w3.org/2000/svg" xmlns:xlink="http://www.w3.org/1999/xlink" version="1.1" width="980" height="453" viewBox="0 0 980 453" xml:space="preserve">
<desc>Created with Fabric.js 3.5.0</desc>
<defs>
</defs>
<g transform="matrix(1 0 0 1 491.11 209.43)"  >
<path style="stroke: rgb(0,0,0); stroke-width: 1; stroke-dasharray: none; stroke-linecap: round; stroke-dashoffset: 0; stroke-linejoin: round; stroke-miterlimit: 10; fill: none; fill-rule: nonzero; opacity: 1;"  transform=" translate(-491.11, -209.43)" d="M 411.8110046386719 167.23903601074218 Q 411.8110046386719 167.2400360107422 411.8110046386719 168.62371826171875 Q 411.8110046386719 170.0074005126953 411.8110046386719 170.35155487060547 Q 411.8110046386719 170.69570922851562 412.63368225097656 170.84185791015625 Q 413.45635986328125 170.98800659179688 415.64149475097656 170.98800659179688 Q 417.8266296386719 170.98800659179688 420.89337158203125 170.98800659179688 Q 423.9601135253906 170.98800659179688 432.6818389892578 170.98800659179688 Q 441.403564453125 170.98800659179688 444.3830871582031 170.98800659179688 Q 447.36260986328125 170.98800659179688 453.89210510253906 170.98800659179688 Q 460.4216003417969 170.98800659179688 467.6488342285156 170.98800659179688 Q 474.8760681152344 170.98800659179688 481.4055633544922 170.98800659179688 Q 487.93505859375 170.98800659179688 493.80218505859375 170.59671020507812 Q 499.6693115234375 170.20541381835938 501.1048583984375 169.96497344970703 Q 502.5404052734375 169.7245330810547 506.0998077392578 168.75336456298828 Q 509.6592102050781 167.78219604492188 512.2521514892578 166.9170913696289 Q 514.8450927734375 166.05198669433594 516.0425720214844 165.09259796142578 Q 517.2400512695312 164.13320922851562 517.6148376464844 163.5674819946289 Q 517.9896240234375 163.0017547607422 518.1947021484375 162.17672729492188 Q 518.3997802734375 161.35169982910156 518.3997802734375 160.849609375 Q 518.3997802734375 160.34751892089844 518.3997802734375 160.00100708007812 Q 518.3997802734375 159.6544952392578 517.7067565917969 159.6544952392578 Q 517.0137329101562 159.6544952392578 515.217529296875 159.6544952392578 Q 513.4213256835938 159.6544952392578 510.8095245361328 160.234375 Q 508.1977233886719 160.8142547607422 505.43505859375 162.65524291992188 Q 502.6723937988281 164.49623107910156 499.28271484375 166.86759185791016 Q 495.8930358886719 169.23895263671875 492.1474151611328 173.35701751708984 Q 488.40179443359375 177.47508239746094 485.18418884277344 181.04862213134766 Q 481.9665832519531 184.62216186523438 481.1957702636719 186.41600799560547 Q 480.4249572753906 188.20985412597656 478.3812561035156 191.95547485351562 Q 476.3375549316406 195.7010955810547 475.31451416015625 199.78616333007812 Q 474.2914733886719 203.87123107910156 473.9873962402344 206.89318084716797 Q 473.6833190917969 209.91513061523438 473.6833190917969 212.52457427978516 Q 473.6833190917969 215.13401794433594 474.0557556152344 220.3741226196289 Q 474.4281921386719 225.61422729492188 479.1214141845703 229.52484893798828 Q 483.81463623046875 233.4354705810547 489.93634033203125 236.29242706298828 Q 496.05804443359375 239.14938354492188 501.28636169433594 239.8942642211914 Q 506.5146789550781 240.63914489746094 521.5490264892578 243.52909088134766 Q 536.5833740234375 246.41903686523438 547.8037414550781 246.9281997680664 Q 559.0241088867188 247.43736267089844 565.5536193847656 247.43736267089844 Q 572.0831298828125 247.43736267089844 582.43603515625 247.43736267089844 Q 592.7889404296875 247.43736267089844 603.141845703125 245.95703125 Q 613.4947509765625 244.47669982910156 617.497314453125 243.14015197753906 Q 621.4998779296875 241.80360412597656 629.0146789550781 239.14937591552734 Q 636.5294799804688 236.49514770507812 641.7695922851562 234.62115478515625 Q 647.0097045898438 232.74716186523438 648.9214172363281 231.65341186523438 Q 650.8331298828125 230.55966186523438 653.8786315917969 229.338623046875 Q 656.9241333007812 228.11758422851562 659.5335998535156 226.95547485351562 Q 662.14306640625 225.79336547851562 663.57861328125 225.31249237060547 Q 665.01416015625 224.8316192626953 667.1992797851562 224.5581817626953 Q 669.3843994140625 224.2847442626953 669.7285766601562 224.2847442626953 Q 670.07275390625 224.2847442626953 670.2613220214844 224.85047912597656 Q 670.4498901367188 225.4162139892578 670.4498901367188 228.97561645507812 Q 670.4498901367188 232.53501892089844 668.4085388183594 239.06451416015625 Q 666.3671875 245.59400939941406 663.3711547851562 250.0845184326172 Q 660.3751220703125 254.5750274658203 655.9529724121094 261.64669036865234 Q 651.5308227539062 268.7183532714844 645.2653503417969 276.90968322753906 Q 638.9998779296875 285.10101318359375 631.8574829101562 293.7708740234375 Q 624.715087890625 302.44073486328125 617.3181457519531 310.32798767089844 Q 609.9212036132812 318.2152404785156 606.5150146484375 320.598388671875 Q 603.1088256835938 322.9815368652344 601.0981140136719 324.7023162841797 Q 599.08740234375 326.423095703125 594.9669799804688 329.7915496826172 Q 590.8465576171875 333.1600036621094 588.3903503417969 335.30743408203125 Q 585.9341430664062 337.4548645019531 584.3948669433594 338.4802551269531 Q 582.8555908203125 339.5056457519531 582.0329284667969 339.9158020019531 Q 581.2102661132812 340.3259582519531 580.8637390136719 340.49803161621094 Q 580.5172119140625 340.67010498046875 581.6322021484375 338.65940856933594 Q 582.7471923828125 336.6487121582031 585.4697570800781 333.2425231933594 Q 588.1923217773438 329.8363342285156 590.2218933105469 327.8044128417969 Q 592.25146484375 325.7724914550781 594.9740600585938 322.3663024902344 Q 597.6966552734375 318.9601135253906 598.7173156738281 317.4255676269531 Q 599.7379760742188 315.8910217285156 601.1028137207031 313.9769592285156 Q 602.4676513671875 312.0628967285156 603.7476196289062 310.5236358642578 Q 605.027587890625 308.984375 605.4731140136719 307.8694152832031 Q 605.9186401367188 306.75445556640625 606.1732177734375 304.958251953125 Q 606.4277954101562 303.16204833984375 606.1873474121094 301.72650146484375 Q 605.9468994140625 300.29095458984375 600.0774230957031 299.11705017089844 Q 594.2079467773438 297.9431457519531 584.6847839355469 296.99082946777344 Q 575.16162109375 296.03851318359375 552.1198120117188 294.64068603515625 Q 529.0780029296875 293.24285888671875 518.7227325439453 292.7478485107422 Q 508.3674621582031 292.2528381347656 472.48585510253906 292.2528381347656 Q 436.604248046875 292.2528381347656 424.4787139892578 292.2528381347656 Q 412.3531799316406 292.2528381347656 403.6291046142578 292.2528381347656 Q 394.905029296875 292.2528381347656 377.75390625 292.2528381347656 Q 360.602783203125 292.2528381347656 355.954345703125 292.2528381347656 Q 351.305908203125 292.2528381347656 348.2556610107422 292.2528381347656 Q 345.2054138183594 292.2528381347656 339.3359375 292.2528381347656 Q 333.4664611816406 292.2528381347656 330.39735412597656 292.2528381347656 Q 327.3282470703125 292.2528381347656 324.71644592285156 292.2528381347656 Q 322.1046447753906 292.2528381347656 324.35107421875 292.2528381347656 Q 326.5975036621094 292.2528381347656 342.4333190917969 292.2528381347656 Q 358.2691345214844 292.2528381347656 366.9908447265625 291.33351135253906 Q 375.7125549316406 290.4141845703125 391.78643798828125 288.0310363769531 Q 407.8603210449219 285.64788818359375 415.81829833984375 283.87762451171875 Q 423.7762756347656 282.10736083984375 437.62257385253906 278.229736328125 Q 451.4688720703125 274.35211181640625 455.55393981933594 272.98963928222656 Q 459.6390075683594 271.6271667480469 462.70574951171875 270.3990478515625 Q 465.7724914550781 269.1709289550781 471.49346923828125 267.26158142089844 Q 477.2144470214844 265.35223388671875 480.96006774902344 263.64796447753906 Q 484.7056884765625 261.9436950683594 488.6375274658203 259.44032287597656 Q 492.5693664550781 256.93695068359375 492.8239440917969 255.14075469970703 Q 493.0785217285156 253.3445587158203 492.2582092285156 251.1570587158203 Q 491.4378967285156 248.9695587158203 483.9207305908203 246.3153305053711 Q 476.403564453125 243.66110229492188 465.2633361816406 240.62264251708984 Q 454.12310791015625 237.5841827392578 440.34986877441406 235.38018035888672 Q 426.5766296386719 233.17617797851562 419.3470458984375 232.74952697753906 Q 412.1174621582031 232.3228759765625 406.24798583984375 232.3228759765625 Q 400.3785095214844 232.3228759765625 390.85533142089844 232.3228759765625 Q 381.3321533203125 232.3228759765625 378.7297821044922 232.3228759765625 Q 376.1274108886719 232.3228759765625 370.8849639892578 232.3228759765625 Q 365.64251708984375 232.3228759765625 359.7730407714844 234.27700805664062 Q 353.903564453125 236.23114013671875 352.536376953125 238.1428451538086 Q 351.169189453125 240.05455017089844 350.8627471923828 243.1165771484375 Q 350.5563049316406 246.17860412597656 351.6783447265625 251.41870880126953 Q 352.8003845214844 256.6588134765625 360.1454772949219 261.7079772949219 Q 367.4905700683594 266.75714111328125 376.858154296875 272.1787414550781 Q 386.2257385253906 277.600341796875 397.82090759277344 282.3430633544922 Q 409.41607666015625 287.0857849121094 416.643310546875 288.3610534667969 Q 423.87054443359375 289.6363220214844 434.22344970703125 290.6216278076172 Q 444.57635498046875 291.60693359375 453.29808044433594 291.60693359375 Q 462.0198059082031 291.60693359375 467.8869171142578 290.8243408203125 Q 473.7540283203125 290.041748046875 481.64129638671875 283.137451171875 Q 489.528564453125 276.233154296875 494.56358337402344 258.60350799560547 Q 499.5986022949219 240.97386169433594 499.5986022949219 223.8227310180664 Q 499.5986022949219 206.67160034179688 495.5111846923828 184.8791046142578 Q 491.42376708984375 163.08660888671875 486.02809143066406 151.2156524658203 Q 480.6324157714844 139.34469604492188 472.0002746582031 120.09092330932617 Q 463.3681335449219 100.83715057373047 458.5499725341797 94.267578125 Q 453.7318115234375 87.69800567626953 445.31182861328125 75.91190719604492 Q 436.891845703125 64.12580871582031 433.5045166015625 61.75444412231445 Q 430.1171875 59.383079528808594 418.55030822753906 49.551116943359375 Q 406.9834289550781 39.719154357910156 401.11395263671875 38.93655776977539 Q 395.2444763183594 38.153961181640625 390.00201416015625 38.153961181640625 Q 384.7595520019531 38.153961181640625 377.68553161621094 42.573747634887695 Q 370.61151123046875 46.993534088134766 366.47930908203125 54.79593086242676 Q 362.34710693359375 62.59832763671875 360.78192138671875 68.46545028686523 Q 359.21673583984375 74.33257293701172 356.3597869873047 83.8533821105957 Q 353.5028381347656 93.37419128417969 352.07435607910156 102.89500045776367 Q 350.6458740234375 112.41580963134766 350.6458740234375 122.72393417358398 Q 350.6458740234375 133.0320587158203 350.6458740234375 136.59146118164062 Q 350.6458740234375 140.15086364746094 350.6458740234375 146.68035888671875 Q 350.6458740234375 153.20985412597656 350.6458740234375 155.00370025634766 Q 350.6458740234375 156.79754638671875 351.291748046875 160.35694885253906 Q 351.9376220703125 163.91635131835938 352.7060852050781 165.71019744873047 Q 353.47454833984375 167.50404357910156 353.92005920410156 168.61664581298828 Q 354.3655700683594 169.729248046875 355.8011169433594 170.4458465576172 Q 357.2366638183594 171.16244506835938 358.059326171875 170.95500946044922 Q 358.8819885253906 170.74757385253906 360.8361358642578 164.8780975341797 Q 362.790283203125 159.0086212158203 363.5021514892578 154.3766860961914 Q 364.2140197753906 149.7447509765625 367.0191192626953 135.71221923828125 Q 369.82421875 121.6796875 370.2131652832031 115.81021118164062 Q 370.60211181640625 109.94073486328125 370.97454833984375 104.69827651977539 Q 371.34698486328125 99.45581817626953 371.78778076171875 91.49548721313477 Q 372.22857666015625 83.53515625 372.22857666015625 81.34765625 Q 372.22857666015625 79.16015625 372.22857666015625 75.16938400268555 Q 372.22857666015625 71.1786117553711 372.22857666015625 68.56681060791016 Q 372.22857666015625 65.95500946044922 372.22857666015625 63.76750946044922 Q 372.22857666015625 61.58000946044922 370.9839630126953 62.822265625 Q 369.7393493652344 64.06452178955078 368.3085174560547 68.71060180664062 Q 366.877685546875 73.35668182373047 364.8363342285156 79.88618087768555 Q 362.79498291015625 86.41567993164062 360.4990539550781 95.13739395141602 Q 358.203125 103.8591079711914 355.4475402832031 112.58081817626953 Q 352.69195556640625 121.30252838134766 352.0107116699219 125.38759231567383 Q 351.3294677734375 129.47265625 349.62754821777344 136.69989013671875 Q 347.9256286621094 143.9271240234375 347.6333465576172 146.53656768798828 Q 347.341064453125 149.14601135253906 347.0133972167969 153.05428314208984 Q 346.68572998046875 156.96255493164062 346.37693786621094 160.029296875 Q 346.0681457519531 163.09603881835938 346.0681457519531 164.88988494873047 Q 346.0681457519531 166.68373107910156 346.0681457519531 167.79633331298828 Q 346.0681457519531 168.908935546875 346.0681457519531 169.47467041015625 Q 346.0681457519531 170.0404052734375 346.4123077392578 170.0404052734375 Q 346.7564697265625 170.0404052734375 348.03407287597656 168.76043701171875 Q 349.3116760253906 167.48046875 351.4543914794922 163.1903305053711 Q 353.59710693359375 158.9001922607422 355.8411865234375 154.03253173828125 Q 358.08526611328125 149.1648712158203 358.955078125 146.55307006835938 Q 359.82489013671875 143.94126892089844 360.40476989746094 141.3294677734375 Q 360.9846496582031 138.71766662597656 361.9039611816406 135.64856719970703 Q 362.8232727050781 132.5794677734375 363.4031524658203 129.96767044067383 Q 363.9830322265625 127.35587310791016 364.23524475097656 125.58795547485352 Q 364.4874572753906 123.82003784179688 364.4874572753906 121.63253784179688 Q 364.4874572753906 119.44503784179688 364.4874572753906 119.09852981567383 Q 364.4874572753906 118.75202178955078 363.3819274902344 118.75202178955078 Q 362.2763977050781 118.75202178955078 359.20965576171875 121.474609375 Q 356.1429138183594 124.19719696044922 352.6306610107422 128.87627792358398 Q 349.118408203125 133.55535888671875 344.86598205566406 139.50733947753906 Q 340.6135559082031 145.45932006835938 337.2120819091797 152.25989532470703 Q 333.81060791015625 159.0604705810547 330.3007049560547 166.516357421875 Q 326.7908020019531 173.9722442626953 324.57972717285156 181.9302215576172 Q 322.36865234375 189.88819885253906 321.94200134277344 197.1154327392578 Q 321.5153503417969 204.34266662597656 321.5153503417969 211.5699005126953 Q 321.5153503417969 218.79713439941406 322.26023864746094 224.01366424560547 Q 323.005126953125 229.23019409179688 327.6818389892578 234.7555160522461 Q 332.3585510253906 240.2808380126953 342.3720245361328 247.1332778930664 Q 352.385498046875 253.9857177734375 357.62559509277344 254.7329559326172 Q 362.8656921386719 255.48019409179688 371.58741760253906 256.39715576171875 Q 380.30914306640625 257.3141174316406 390.34617614746094 257.3141174316406 Q 400.3832092285156 257.3141174316406 416.45709228515625 254.93096923828125 Q 432.5309753417969 252.54782104492188 441.4059143066406 246.62883758544922 Q 450.2808532714844 240.70985412597656 453.8001708984375 236.01427459716797 Q 457.3194885253906 231.31869506835938 463.0310363769531 223.70015716552734 Q 468.7425842285156 216.0816192626953 471.9554748535156 207.81720733642578 Q 475.1683654785156 199.55279541015625 475.4913024902344 195.99103546142578 Q 475.8142395019531 192.4292755126953 476.8325653076172 181.20655822753906 Q 477.85089111328125 169.9838409423828 477.85089111328125 165.98834991455078 Q 477.85089111328125 161.99285888671875 475.1259460449219 158.92611694335938 Q 472.4010009765625 155.859375 468.31358337402344 154.4969024658203 Q 464.2261657714844 153.13442993164062 455.50209045410156 153.13442993164062 Q 446.77801513671875 153.13442993164062 438.05393981933594 154.970703125 Q 429.3298645019531 156.80697631835938 410.47918701171875 170.76879119873047 Q 391.6285095214844 184.73060607910156 385.2168731689453 193.11287689208984 Q 378.80523681640625 201.49514770507812 367.1629180908203 217.01508331298828 Q 355.5205993652344 232.53501892089844 345.1724090576172 249.34906768798828 Q 334.82421875 266.1631164550781 332.16998291015625 274.12109375 Q 329.5157470703125 282.0790710449219 323.73114013671875 295.9560241699219 Q 317.946533203125 309.8329772949219 315.3087921142578 321.95616149902344 Q 312.6710510253906 334.079345703125 312.2161102294922 342.70912170410156 Q 311.76116943359375 351.3388977050781 311.76116943359375 357.86839294433594 Q 311.76116943359375 364.39788818359375 313.8025207519531 368.1435089111328 Q 315.8438720703125 371.8891296386719 322.4653015136719 376.3018493652344 Q 329.08673095703125 380.7145690917969 336.31396484375 380.7145690917969 Q 343.54119873046875 380.7145690917969 351.4991760253906 379.387451171875 Q 359.4571533203125 378.0603332519531 368.6196746826172 371.44126892089844 Q 377.7821960449219 364.82220458984375 394.35108947753906 347.5602722167969 Q 410.91998291015625 330.29833984375 421.81504821777344 311.2284393310547 Q 432.7101135253906 292.1585388183594 442.7235870361328 269.26522064208984 Q 452.737060546875 246.3719024658203 456.00181579589844 233.310546875 Q 459.2665710449219 220.2491912841797 464.38880920410156 194.63092803955078 Q 469.51104736328125 169.01266479492188 470.46099853515625 159.48949432373047 Q 471.41094970703125 149.96632385253906 471.8046112060547 143.63719177246094 Q 472.1982727050781 137.3080596923828 472.1982727050781 132.6596221923828 Q 472.1982727050781 128.0111846923828 472.65557861328125 119.287109375 Q 473.1128845214844 110.56303405761719 473.1128845214844 101.0587272644043 Q 473.1128845214844 91.5544204711914 472.8394470214844 89.3669204711914 Q 472.5660095214844 87.1794204711914 469.95420837402344 87.1794204711914 Q 467.3424072265625 87.1794204711914 463.21018981933594 94.98181533813477 Q 459.0779724121094 102.78421020507812 454.4861145019531 113.49541854858398 Q 449.8942565917969 124.20662689208984 441.64634704589844 150.44720077514648 Q 433.3984375 176.68777465820312 430.9327850341797 187.04067993164062 Q 428.4671325683594 197.39358520507812 424.0214080810547 216.43756103515625 Q 419.57568359375 235.48153686523438 416.4264373779297 253.7382049560547 Q 413.2771911621094 271.994873046875 413.2771911621094 279.19618225097656 Q 413.2771911621094 286.3974914550781 413.2771911621094 292.2646179199219 Q 413.2771911621094 298.1317443847656 413.2771911621094 307.6525421142578 Q 413.2771911621094 317.17333984375 413.2771911621094 323.7028503417969 Q 413.2771911621094 330.23236083984375 413.61663818359375 334.3174133300781 Q 413.9560852050781 338.4024658203125 416.6786804199219 341.80628967285156 Q 419.4012756347656 345.2101135253906 422.0107116699219 345.2101135253906 Q 424.6201477050781 345.2101135253906 430.4872741699219 344.0362243652344 Q 436.3544006347656 342.8623352050781 448.31492614746094 329.0113067626953 Q 460.27545166015625 315.1602783203125 465.6970520019531 306.2829895019531 Q 471.11865234375 297.40570068359375 489.1301727294922 269.5669403076172 Q 507.1416931152344 241.72817993164062 512.5467987060547 232.88153076171875 Q 517.951904296875 224.03488159179688 523.0010681152344 216.68743133544922 Q 528.0502319335938 209.33998107910156 532.0598754882812 204.1258087158203 Q 536.0695190429688 198.91163635253906 542.4787902832031 190.52700805664062 Q 548.8880615234375 182.1423797607422 550.9176330566406 180.400390625 Q 552.9472045898438 178.6584014892578 559.6110534667969 171.51602935791016 L 566.27590234375 164.3726572265625" stroke-linecap="round" />
</g>
<g transform="matrix(1 0 0 1 405.95 221.55)"  >
<circle style="stroke: none; stroke-width: 1; stroke-dasharray: none; stroke-linecap: butt; stroke-dashoffset: 0; stroke-linejoin: miter; stroke-miterlimit: 4; fill: rgb(11,97,164); fill-rule: nonzero; opacity: 1;"  cx="0" cy="0" r="20" />
</g>
<g transform="matrix(1 0 0 1 155.8 512.78)"  >
<polygon style="stroke: none; stroke-width: 1; stroke-dasharray: none; stroke-linecap: butt; stroke-dashoffset: 0; stroke-linejoin: miter; stroke-miterlimit: 4; fill: rgb(11,97,164); fill-rule: nonzero; opacity: 1;"  points="-20 20,0 -20,20 20" /></g>
<g transform="matrix(1 0 0 1 251.56 515.75)"  >
<rect style="stroke: none; stroke-width: 1; stroke-dasharray: none; stroke-linecap: butt; stroke-dashoffset: 0; stroke-linejoin: miter; stroke-miterlimit: 4; fill: rgb(11,97,164); fill-rule: nonzero; opacity: 1;"  x="-20" y="-20" rx="0" ry="0" width="40" height="40" />
</g>
<g transform="matrix(1 0 0 1 164.87 231.89)"  >
<rect style="stroke: none; stroke-width: 1; stroke-dasharray: none; stroke-linecap: butt; stroke-dashoffset: 0; stroke-linejoin: miter; stroke-miterlimit: 4; fill: rgb(11,97,164); fill-rule: nonzero; opacity: 1;"  x="-20" y="-20" rx="0" ry="0" width="40" height="40" />
</g>
<g transform="matrix(1 0 0 1 202.69 375.91)"  >
<polygon style="stroke: none; stroke-width: 1; stroke-dasharray: none; stroke-linecap: butt; stroke-dashoffset: 0; stroke-linejoin: miter; stroke-miterlimit: 4; fill: rgb(11,97,164); fill-rule: nonzero; opacity: 1;"  points="-20 20,0 -20,20 20" /></g>
</svg>