<?xml version="1.0" encoding="UTF-8" standalone="no" ?>
<!DOCTYPE svg PUBLIC "-//W3C//DTD SVG 1.1//EN" "http://www.w3.org/Graphics/SVG/1.1/DTD/svg11.dtd">
<svg xmlns="http://www.w3.org/2000/svg" xmlns:xlink="http://www.w3.org/1999/xlink" version="1.1" width="981" height="1568" viewBox="0 0 981 1568" xml:space="preserve">
<desc>Created with Fabric.js 3.5.0</desc>
<defs>
</defs>
<g transform="matrix(1 0 0 1 481.75 234.28)"  >
<path style="stroke: rgb(0,0,0); stroke-width: 1; stroke-dasharray: none; stroke-linecap: round; stroke-dashoffset: 0; stroke-linejoin: round; stroke-miterlimit: 10; fill: none; fill-rule: nonzero; opacity: 1;"  transform=" translate(-481.75, -234.28)" d="M 379.07555444335935 101.93762152099609 Q 379.0745544433594 101.9386215209961 379.48048400878906 101.9386215209961 Q 379.88641357421875 101.9386215209961 379.3028869628906 102.35018539428711 Q 378.7193603515625 102.76174926757812 378.5304870605469 102.94779968261719 Q 378.34161376953125 103.13385009765625 377.80601501464844 104.46438980102539 Q 377.2704162597656 105.79492950439453 377.0420837402344 106.47147750854492 Q 376.8137512207031 107.14802551269531 376.56568908691406 108.1318359375 Q 376.317626953125 109.11564636230469 376.0695495605469 110.09945678710938 Q 375.82147216796875 111.08326721191406 375.5536804199219 112.41381072998047 Q 375.285888671875 113.74435424804688 375.285888671875 114.72816467285156 Q 375.285888671875 115.71197509765625 375.285888671875 117.04251480102539 Q 375.285888671875 118.37305450439453 375.285888671875 120.51827239990234 Q 375.285888671875 122.66349029541016 375.285888671875 123.34003448486328 Q 375.285888671875 124.0165786743164 375.285888671875 125.73331451416016 Q 375.285888671875 127.4500503540039 375.5508728027344 128.78059005737305 Q 375.81585693359375 130.1111297607422 377.2478790283203 131.25562286376953 Q 378.6799011230469 132.40011596679688 380.21058654785156 133.93080139160156 Q 381.74127197265625 135.46148681640625 383.88648986816406 136.38046264648438 Q 386.0317077636719 137.2994384765625 391.5878448486328 139.43619537353516 Q 397.14398193359375 141.5729522705078 402.020751953125 141.9788818359375 Q 406.89752197265625 142.3848114013672 413.1640319824219 142.83020782470703 Q 419.4305419921875 143.27560424804688 425.6970520019531 143.27560424804688 Q 431.96356201171875 143.27560424804688 439.77203369140625 143.27560424804688 Q 447.58050537109375 143.27560424804688 456.223388671875 143.27560424804688 Q 464.86627197265625 143.27560424804688 472.67474365234375 143.27560424804688 Q 480.48321533203125 143.27560424804688 484.73980712890625 143.27560424804688 Q 488.99639892578125 143.27560424804688 496.71185302734375 142.30870056152344 Q 504.42730712890625 141.341796875 511.44366455078125 140.40591430664062 Q 518.4600219726562 139.47003173828125 524.6391296386719 138.58487701416016 Q 530.8182373046875 137.69972229003906 537.0847473144531 136.8032989501953 Q 543.3512573242188 135.90687561035156 548.1632080078125 135.10347747802734 Q 552.9751586914062 134.30007934570312 557.8603820800781 134.30007934570312 Q 562.74560546875 134.30007934570312 564.4623413085938 134.30007934570312 Q 566.1790771484375 134.30007934570312 569.2996520996094 134.30007934570312 Q 572.4202270507812 134.30007934570312 575.0333862304688 134.30007934570312 Q 577.6465454101562 134.30007934570312 580.7671203613281 134.30007934570312 Q 583.8876953125 134.30007934570312 584.9447937011719 135.09220123291016 Q 586.0018920898438 135.8843231201172 586.7996520996094 137.2148666381836 Q 587.597412109375 138.54541015625 587.90185546875 140.68780517578125 Q 588.206298828125 142.8302001953125 588.206298828125 145.95077514648438 Q 588.206298828125 149.07135009765625 588.206298828125 152.7387924194336 Q 588.206298828125 156.40623474121094 587.7580871582031 162.67274475097656 Q 587.3098754882812 168.9392547607422 585.1928405761719 174.44183349609375 Q 583.0758056640625 179.9444122314453 580.2681579589844 186.49281311035156 Q 577.4605102539062 193.0412139892578 574.65283203125 199.5896224975586 Q 571.8451538085938 206.13803100585938 570.7429504394531 209.80547332763672 Q 569.6407470703125 213.47291564941406 566.2241821289062 224.85862731933594 Q 562.8076171875 236.2443389892578 561.8294372558594 244.0528106689453 Q 560.8512573242188 251.8612823486328 560.3410339355469 260.50415802001953 Q 559.830810546875 269.14703369140625 559.830810546875 276.86248779296875 Q 559.830810546875 284.57794189453125 559.830810546875 288.2453918457031 Q 559.830810546875 291.912841796875 560.2959289550781 298.92918395996094 Q 560.7610473632812 305.9455261230469 562.5510864257812 312.2120361328125 Q 564.3411254882812 318.4785461425781 566.5793762207031 324.74505615234375 Q 568.817626953125 331.0115661621094 570.4441528320312 335.89678955078125 Q 572.0706787109375 340.7820129394531 574.2074279785156 345.90968322753906 Q 576.3441772460938 351.037353515625 576.876953125 352.3678894042969 Q 577.4097290039062 353.69842529296875 578.0609130859375 356.31158447265625 Q 578.7120971679688 358.92474365234375 579.2843322753906 360.6414794921875 Q 579.8565673828125 362.35821533203125 580.158203125 364.48651123046875 L 580.4608388671875 366.6158071289062" stroke-linecap="round" />
</g>
<g transform="matrix(1 0 0 1 491.21 280.97)"  >
<path style="stroke: rgb(0,0,0); stroke-width: 1; stroke-dasharray: none; stroke-linecap: round; stroke-dashoffset: 0; stroke-linejoin: round; stroke-miterlimit: 10; fill: none; fill-rule: nonzero; opacity: 1;"  transform=" translate(-491.21, -280.97)" d="M 491.20545141601565 280.9696960449219 L 491.2074514160156 280.9696960449219" stroke-linecap="round" />
</g>
</svg>