<?xml version="1.0" encoding="UTF-8" standalone="no" ?>
<!DOCTYPE svg PUBLIC "-//W3C//DTD SVG 1.1//EN" "http://www.w3.org/Graphics/SVG/1.1/DTD/svg11.dtd">
<svg xmlns="http://www.w3.org/2000/svg" xmlns:xlink="http://www.w3.org/1999/xlink" version="1.1" width="980" height="453" viewBox="0 0 980 453" xml:space="preserve">
<desc>Created with Fabric.js 3.5.0</desc>
<defs>
</defs>
<g transform="matrix(1 0 0 1 483.15 239.84)"  >
<path style="stroke: rgb(0,0,0); stroke-width: 1; stroke-dasharray: none; stroke-linecap: round; stroke-dashoffset: 0; stroke-linejoin: round; stroke-miterlimit: 10; fill: none; fill-rule: nonzero; opacity: 1;"  transform=" translate(-483.15, -239.84)" d="M 386.77734375 187.2659677734375 Q 386.77734375 187.2669677734375 386.77734375 187.5451202392578 Q 386.77734375 187.82327270507812 386.77734375 188.64358520507812 Q 386.77734375 189.46389770507812 386.77734375 190.89944458007812 Q 386.77734375 192.33499145507812 386.77734375 193.44760131835938 Q 386.77734375 194.56021118164062 386.77734375 196.35405731201172 Q 386.77734375 198.1479034423828 386.77734375 199.5834503173828 Q 386.77734375 201.0189971923828 387.734375 202.21646118164062 Q 388.69140625 203.41392517089844 391.74400329589844 206.46652221679688 Q 394.7966003417969 209.5191192626953 397.4060363769531 210.67887115478516 Q 400.0154724121094 211.838623046875 402.6249237060547 212.1285629272461 Q 405.234375 212.4185028076172 407.4195098876953 212.4185028076172 Q 409.6046447753906 212.4185028076172 416.1341552734375 213.64189910888672 Q 422.6636657714844 214.86529541015625 426.74871826171875 214.86529541015625 Q 430.8337707519531 214.86529541015625 433.4290771484375 214.86529541015625 Q 436.0243835449219 214.86529541015625 439.5837860107422 214.86529541015625 Q 443.1431884765625 214.86529541015625 446.7025909423828 214.86529541015625 Q 450.2619934082031 214.86529541015625 453.3287353515625 214.25006103515625 Q 456.3954772949219 213.63482666015625 458.5806121826172 212.54107666015625 Q 460.7657470703125 211.44732666015625 463.0852508544922 209.99527740478516 Q 465.4047546386719 208.54322814941406 466.0718536376953 207.64984893798828 Q 466.73895263671875 206.7564697265625 468.27586364746094 205.47413635253906 Q 469.8127746582031 204.19180297851562 471.01023864746094 203.23241424560547 Q 472.20770263671875 202.2730255126953 473.16473388671875 201.07320404052734 Q 474.12176513671875 199.87338256835938 474.73699951171875 199.25579071044922 Q 475.35223388671875 198.63819885253906 475.72938537597656 198.07010650634766 Q 476.1065368652344 197.50201416015625 476.2786102294922 197.15550231933594 Q 476.45068359375 196.80899047851562 475.93446350097656 197.47844696044922 Q 475.4182434082031 198.1479034423828 473.3863067626953 200.1774673461914 Q 471.3543701171875 202.20703125 467.7784729003906 205.42227935791016 Q 464.20257568359375 208.6375274658203 462.2107238769531 210.62702178955078 Q 460.2188720703125 212.61651611328125 456.6429748535156 215.8317642211914 Q 453.06707763671875 219.04701232910156 449.84947204589844 222.62055206298828 Q 446.6318664550781 226.194091796875 444.24635314941406 229.5979232788086 Q 441.86083984375 233.0017547607422 439.9185028076172 236.23821258544922 Q 437.9761657714844 239.47467041015625 437.0544891357422 242.54141235351562 Q 436.1328125 245.608154296875 436.1328125 250.84825134277344 Q 436.1328125 256.0883483886719 436.1328125 259.15509033203125 Q 436.1328125 262.2218322753906 439.1971893310547 265.2862243652344 Q 442.2615661621094 268.3506164550781 446.7520751953125 271.3442840576172 Q 451.2425842285156 274.33795166015625 457.3642883300781 277.1949005126953 Q 463.4859924316406 280.0518493652344 471.4439697265625 282.70372009277344 Q 479.4019470214844 285.3555908203125 487.3599090576172 287.1235046386719 Q 495.31787109375 288.89141845703125 504.0395812988281 289.8083801269531 Q 512.7612915039062 290.725341796875 519.988525390625 291.5739440917969 Q 527.2157592773438 292.42254638671875 530.7751770019531 292.42254638671875 Q 534.3345947265625 292.42254638671875 540.8334350585938 292.42254638671875 Q 547.332275390625 292.42254638671875 552.5606079101562 292.42254638671875 Q 557.7889404296875 292.42254638671875 559.582763671875 292.42254638671875 Q 561.3765869140625 292.42254638671875 564.9360046386719 292.42254638671875 Q 568.4954223632812 292.42254638671875 570.6805725097656 292.14910888671875 Q 572.86572265625 291.87567138671875 574.6595458984375 291.36180114746094 Q 576.453369140625 290.8479309082031 577.9902954101562 289.5655975341797 L 579.5282216796875 288.2822641601563" stroke-linecap="round" />
</g>
<g transform="matrix(1 0 0 1 526.19 233.97)"  >
<path style="stroke: rgb(0,0,0); stroke-width: 1; stroke-dasharray: none; stroke-linecap: round; stroke-dashoffset: 0; stroke-linejoin: round; stroke-miterlimit: 10; fill: none; fill-rule: nonzero; opacity: 1;"  transform=" translate(-526.19, -233.97)" d="M 621.40187890625 215.2518768310547 Q 621.40087890625 215.2518768310547 621.8228149414062 214.19113159179688 Q 622.2447509765625 213.13038635253906 621.4597778320312 213.13038635253906 Q 620.6748046875 213.13038635253906 618.8786010742188 213.13038635253906 Q 617.0823974609375 213.13038635253906 614.0133056640625 213.13038635253906 Q 610.9442138671875 213.13038635253906 608.3324279785156 213.13038635253906 Q 605.7206420898438 213.13038635253906 604.8955993652344 213.13038635253906 Q 604.070556640625 213.13038635253906 601.89013671875 213.94598388671875 Q 599.709716796875 214.76158142089844 599.3632202148438 214.76158142089844 Q 599.0167236328125 214.76158142089844 598.4486083984375 214.95015716552734 Q 597.8804931640625 215.13873291015625 597.3124084472656 215.5158920288086 Q 596.7443237304688 215.89305114746094 596.7443237304688 216.3927764892578 Q 596.7443237304688 216.8925018310547 596.7443237304688 217.3922348022461 Q 596.7443237304688 217.8919677734375 600.3037414550781 217.8919677734375 Q 603.8631591796875 217.8919677734375 608.5092163085938 217.8919677734375 Q 613.1552734375 217.8919677734375 617.2285766601562 217.8919677734375 Q 621.3018798828125 217.8919677734375 628.5291137695312 217.8919677734375 Q 635.75634765625 217.8919677734375 643.7142944335938 217.8919677734375 Q 651.6722412109375 217.8919677734375 654.2817077636719 217.8919677734375 Q 656.8911743164062 217.8919677734375 662.7582702636719 217.8919677734375 Q 668.6253662109375 217.8919677734375 672.1847839355469 217.8919677734375 Q 675.7442016601562 217.8919677734375 678.3536376953125 216.7298583984375 Q 680.9630737304688 215.5677490234375 682.9926452636719 213.82576751708984 Q 685.022216796875 212.0837860107422 685.8401794433594 209.89864349365234 Q 686.6581420898438 207.7135009765625 686.6581420898438 205.5260009765625 Q 686.6581420898438 203.3385009765625 686.6581420898438 199.77674102783203 Q 686.6581420898438 196.21498107910156 685.5643920898438 194.02748107910156 Q 684.4706420898438 191.83998107910156 679.1621704101562 187.75727081298828 Q 673.8536987304688 183.674560546875 669.7662963867188 182.99332427978516 Q 665.6788940429688 182.3120880126953 652.6175231933594 180.13401794433594 Q 639.55615234375 177.95594787597656 629.3470458984375 177.95594787597656 Q 619.137939453125 177.95594787597656 607.0123901367188 177.95594787597656 Q 594.8868408203125 177.95594787597656 582.7612915039062 178.4816131591797 Q 570.6357421875 179.0072784423828 558.1189270019531 182.8141860961914 Q 545.6021118164062 186.62109375 539.4780578613281 189.47804260253906 Q 533.35400390625 192.33499145507812 523.9840393066406 197.2639389038086 Q 514.6140747070312 202.19288635253906 511.20790100097656 204.57603454589844 Q 507.8017272949219 206.9591827392578 505.7698059082031 208.69881439208984 Q 503.7378845214844 210.43844604492188 499.8036804199219 212.939453125 Q 495.8694763183594 215.44046020507812 491.565185546875 219.7423858642578 Q 487.2608947753906 224.0443115234375 486.4900817871094 225.8381576538086 Q 485.7192687988281 227.6320037841797 485.7192687988281 229.42584991455078 Q 485.7192687988281 231.21969604492188 487.3575439453125 232.85796356201172 Q 488.9958190917969 234.49623107910156 494.8629455566406 235.2764663696289 Q 500.7300720214844 236.05670166015625 510.25086975097656 236.53050231933594 Q 519.7716674804688 237.00430297851562 531.8948669433594 237.00430297851562 Q 544.01806640625 237.00430297851562 551.2453002929688 237.00430297851562 Q 558.4725341796875 237.00430297851562 569.6929016113281 237.00430297851562 Q 580.9132690429688 237.00430297851562 585.559326171875 236.28771209716797 Q 590.2053833007812 235.5711212158203 593.2721252441406 234.64944458007812 Q 596.3388671875 233.72776794433594 601.5789794921875 232.60337829589844 Q 606.819091796875 231.47898864746094 610.3784790039062 230.5078125 Q 613.9378662109375 229.53663635253906 616.1230163574219 228.71632385253906 Q 618.3081665039062 227.89601135253906 620.4933166503906 226.80226135253906 Q 622.678466796875 225.70851135253906 622.678466796875 224.88348388671875 Q 622.678466796875 224.05845642089844 619.609375 223.44322204589844 Q 616.540283203125 222.82798767089844 602.5077514648438 222.82798767089844 Q 588.4752197265625 222.82798767089844 578.9826965332031 222.82798767089844 Q 569.4901733398438 222.82798767089844 552.3390502929688 225.27713775634766 Q 535.1879272460938 227.72628784179688 515.2717590332031 233.0347442626953 Q 495.3555908203125 238.34320068359375 474.2443389892578 243.79074096679688 Q 453.1330871582031 249.23828125 433.8793029785156 256.53858947753906 Q 414.6255187988281 263.8388977050781 408.50146484375 266.2880554199219 Q 402.3774108886719 268.7372131347656 397.50975036621094 270.9812774658203 Q 392.64208984375 273.225341796875 389.8794403076172 274.7575378417969 Q 387.1167907714844 276.28973388671875 381.63861083984375 278.6351623535156 Q 376.1604309082031 280.9805908203125 373.39776611328125 282.8215789794922 Q 370.6351013183594 284.6625671386719 368.1788787841797 286.50355529785156 Q 365.72265625 288.34454345703125 365.72265625 289.16722106933594 Q 365.72265625 289.9898986816406 369.2820587158203 289.9898986816406 Q 372.8414611816406 289.9898986816406 382.3622741699219 289.9898986816406 Q 391.8830871582031 289.9898986816406 413.6732177734375 285.90248107910156 Q 435.4633483886719 281.8150634765625 444.9841613769531 279.9104309082031 Q 454.5049743652344 278.00579833984375 472.7616424560547 274.2271728515625 Q 491.018310546875 270.44854736328125 508.1670837402344 266.7736358642578 Q 525.3158569335938 263.0987243652344 531.8453674316406 261.4651794433594 Q 538.3748779296875 259.8316345214844 543.6149597167969 258.7072296142578 Q 548.8550415039062 257.58282470703125 552.4144592285156 256.61165618896484 Q 555.973876953125 255.64048767089844 562.5033569335938 253.59913635253906 Q 569.0328369140625 251.5577850341797 573.117919921875 250.1953125 Q 577.2030029296875 248.8328399658203 579.8124389648438 247.9606704711914 Q 582.421875 247.0885009765625 583.857421875 246.60762786865234 Q 585.29296875 246.1267547607422 586.1156311035156 245.91931915283203 Q 586.9382934570312 245.71188354492188 587.0938720703125 245.55394744873047 Q 587.2494506835938 245.39601135253906 586.5564270019531 245.39601135253906 Q 585.8634033203125 245.39601135253906 582.7943115234375 245.39601135253906 Q 579.7252197265625 245.39601135253906 575.0767822265625 246.11024475097656 Q 570.4283447265625 246.82447814941406 563.8988342285156 248.8634796142578 Q 557.3693237304688 250.90248107910156 544.8524780273438 254.70938873291016 L 532.3346323242188 258.5172963867187" stroke-linecap="round" />
</g>
<g transform="matrix(1 0 0 1 340.36 185.92)"  >
<path style="stroke: rgb(0,0,0); stroke-width: 1; stroke-dasharray: none; stroke-linecap: round; stroke-dashoffset: 0; stroke-linejoin: round; stroke-miterlimit: 10; fill: none; fill-rule: nonzero; opacity: 1;"  transform=" translate(-340.36, -185.92)" d="M 340.3579782714844 185.92335510253906 L 340.35997827148435 185.92335510253906" stroke-linecap="round" />
</g>
</svg>