<?xml version="1.0" encoding="UTF-8" standalone="no" ?>
<!DOCTYPE svg PUBLIC "-//W3C//DTD SVG 1.1//EN" "http://www.w3.org/Graphics/SVG/1.1/DTD/svg11.dtd">
<svg xmlns="http://www.w3.org/2000/svg" xmlns:xlink="http://www.w3.org/1999/xlink" version="1.1" width="981" height="1745" viewBox="0 0 981 1745" xml:space="preserve">
<desc>Created with Fabric.js 3.5.0</desc>
<defs>
</defs>
<g transform="matrix(1 0 0 1 465.21 303.84)"  >
<path style="stroke: rgb(0,0,0); stroke-width: 1; stroke-dasharray: none; stroke-linecap: round; stroke-dashoffset: 0; stroke-linejoin: round; stroke-miterlimit: 10; fill: none; fill-rule: nonzero; opacity: 1;"  transform=" translate(-465.21, -303.85)" d="M 382.4399953613281 197.9030069580078 Q 382.4389953613281 197.9040069580078 382.4389953613281 200.25952911376953 Q 382.4389953613281 202.61505126953125 381.7754364013672 205.26070404052734 Q 381.11187744140625 207.90635681152344 380.4454345703125 210.56924438476562 Q 379.77899169921875 213.2321319580078 379.1556396484375 215.40668487548828 Q 378.53228759765625 217.58123779296875 378.53228759765625 220.24412536621094 Q 378.53228759765625 222.90701293945312 378.53228759765625 224.6564178466797 Q 378.53228759765625 226.40582275390625 378.53228759765625 228.1552276611328 Q 378.53228759765625 229.90463256835938 378.53228759765625 231.65403747558594 Q 378.53228759765625 233.4034423828125 378.53228759765625 234.75930786132812 Q 378.53228759765625 236.11517333984375 380.7729034423828 239.1026611328125 Q 383.0135192871094 242.09014892578125 387.1184539794922 247.10855865478516 Q 391.223388671875 252.12696838378906 396.0148620605469 255.1747817993164 Q 400.80633544921875 258.22259521484375 406.0315704345703 260.8337707519531 Q 411.2568054199219 263.4449462890625 414.9164733886719 264.1745910644531 Q 418.5761413574219 264.90423583984375 424.23802185058594 267.08164978027344 Q 429.89990234375 269.2590637207031 435.561767578125 270.56321716308594 Q 441.2236328125 271.86737060546875 446.885498046875 272.73777770996094 Q 452.54736328125 273.6081848144531 456.85911560058594 273.9988555908203 Q 461.1708679199219 274.3895263671875 466.14906311035156 274.3895263671875 Q 471.12725830078125 274.3895263671875 472.4802551269531 274.3895263671875 Q 473.833251953125 274.3895263671875 476.019287109375 274.3895263671875 Q 478.205322265625 274.3895263671875 479.95472717285156 274.3895263671875 Q 481.7041320800781 274.3895263671875 482.7066650390625 274.3895263671875 Q 483.7091979980469 274.3895263671875 484.39573669433594 273.9299011230469 Q 485.082275390625 273.47027587890625 485.5016784667969 273.0480194091797 Q 485.92108154296875 272.6257629394531 486.1106719970703 272.43328857421875 Q 486.3002624511719 272.2408142089844 486.3002624511719 271.81854248046875 Q 486.3002624511719 271.3962707519531 486.0876922607422 270.9739990234375 Q 485.8751220703125 270.5517272949219 483.2237243652344 270.5517272949219 Q 480.57232666015625 270.5517272949219 476.83221435546875 270.5517272949219 Q 473.09210205078125 270.5517272949219 467.5049285888672 270.5517272949219 Q 461.9177551269531 270.5517272949219 453.9578094482422 271.545654296875 Q 445.99786376953125 272.5395812988281 436.8371887207031 276.30841064453125 Q 427.676513671875 280.0772399902344 416.80950927734375 284.65040588378906 Q 405.9425048828125 289.22357177734375 395.49778747558594 294.44305419921875 Q 385.0530700683594 299.66253662109375 374.60833740234375 304.8820343017578 Q 364.1636047363281 310.1015319824219 360.79693603515625 312.3450164794922 Q 357.4302673339844 314.5885009765625 355.0977325439453 316.25172424316406 Q 352.76519775390625 317.9149475097656 349.3985137939453 320.158447265625 Q 346.0318298339844 322.4019470214844 343.6992950439453 324.06517028808594 Q 341.36676025390625 325.7283935546875 339.7006530761719 328.0580596923828 Q 338.0345458984375 330.3877258300781 338.0345458984375 331.38739013671875 Q 338.0345458984375 332.3870544433594 339.3904113769531 332.6570739746094 Q 340.74627685546875 332.9270935058594 349.5536346435547 333.4441680908203 Q 358.3609924316406 333.96124267578125 369.96336364746094 333.96124267578125 Q 381.56573486328125 333.96124267578125 388.68687438964844 333.96124267578125 Q 395.8080139160156 333.96124267578125 408.42442321777344 333.96124267578125 Q 421.04083251953125 333.96124267578125 434.71434020996094 333.96124267578125 Q 448.3878479003906 333.96124267578125 460.9295654296875 333.3637390136719 Q 473.4712829589844 332.7662353515625 478.44947814941406 332.3497009277344 Q 483.42767333984375 331.93316650390625 487.1649169921875 331.1834259033203 Q 490.90216064453125 330.4336853027344 497.23333740234375 329.52882385253906 Q 503.56451416015625 328.62396240234375 507.9021301269531 327.83399963378906 Q 512.23974609375 327.0440368652344 515.419677734375 326.6878356933594 Q 518.599609375 326.3316345214844 520.3490295410156 326.03863525390625 Q 522.0984497070312 325.7456359863281 523.1009826660156 325.4928436279297 Q 524.103515625 325.24005126953125 524.5229187011719 325.24005126953125 Q 524.9423217773438 325.24005126953125 524.4424743652344 325.24005126953125 Q 523.942626953125 325.24005126953125 518.2778930664062 325.24005126953125 Q 512.6131591796875 325.24005126953125 507.63209533691406 326.0673522949219 Q 502.6510314941406 326.8946533203125 492.95030212402344 329.5862731933594 Q 483.24957275390625 332.27789306640625 464.9253387451172 337.2101287841797 Q 446.6011047363281 342.1423645019531 440.2124786376953 344.4231872558594 Q 433.8238525390625 346.7040100097656 420.7679443359375 351.6764678955078 Q 407.7120361328125 356.64892578125 403.3715515136719 358.22596740722656 Q 399.03106689453125 359.8030090332031 395.8712158203125 361.204833984375 Q 392.71136474609375 362.6066589355469 387.48326110839844 365.2178497314453 Q 382.2551574707031 367.82904052734375 378.5150451660156 369.3227844238281 Q 374.7749328613281 370.8165283203125 372.8991394042969 372.06610107421875 Q 371.0233459472656 373.315673828125 369.5612030029297 374.48194885253906 Q 368.09906005859375 375.6482238769531 368.09906005859375 376.6507568359375 Q 368.09906005859375 377.6532897949219 369.1015930175781 378.1531066894531 Q 370.1041259765625 378.6529235839844 378.9114685058594 379.1699981689453 Q 387.71881103515625 379.68707275390625 393.3806915283203 379.68707275390625 Q 399.0425720214844 379.68707275390625 408.74041748046875 379.68707275390625 Q 418.4382629394531 379.68707275390625 429.9458465576172 379.68707275390625 Q 441.45343017578125 379.68707275390625 453.0558166503906 379.68707275390625 Q 464.658203125 379.68707275390625 475.2867736816406 377.4464569091797 Q 485.91534423828125 375.2058410644531 490.2213439941406 374.03094482421875 Q 494.52734375 372.8560485839844 502.4844207763672 370.36839294433594 Q 510.4414978027344 367.8807373046875 512.6275177001953 367.2545166015625 Q 514.8135375976562 366.6282958984375 518.55078125 365.1316680908203 Q 522.2880249023438 363.6350402832031 524.950927734375 362.63539123535156 Q 527.6138305664062 361.6357421875 528.9696960449219 360.8199157714844 Q 530.3255615234375 360.00408935546875 531.0149841308594 359.54161071777344 Q 531.7044067382812 359.0791320800781 532.123779296875 358.86656188964844 Q 532.5431518554688 358.65399169921875 532.5431518554688 358.2317199707031 Q 532.5431518554688 357.8094482421875 531.5377502441406 357.55665588378906 Q 530.5323486328125 357.3038635253906 524.1437072753906 357.3038635253906 Q 517.7550659179688 357.3038635253906 509.03965759277344 357.3038635253906 Q 500.3242492675781 357.3038635253906 493.93560791015625 358.2144775390625 Q 487.5469665527344 359.1250915527344 476.97010803222656 362.4630432128906 Q 466.39324951171875 365.8009948730469 456.69252014160156 369.03265380859375 Q 446.9917907714844 372.2643127441406 443.14251708984375 374.1860656738281 Q 439.2932434082031 376.1078186035156 436.96070861816406 377.4378356933594 Q 434.628173828125 378.7678527832031 430.7760314941406 380.6924743652344 Q 426.92388916015625 382.6170959472656 424.5913543701172 384.28033447265625 Q 422.2588195800781 385.9435729980469 419.7826385498047 388.06353759765625 Q 417.30645751953125 390.1835021972656 417.30645751953125 391.9185485839844 Q 417.30645751953125 393.6535949707031 418.76573181152344 394.8198547363281 Q 420.2250061035156 395.9861145019531 429.92286682128906 398.14056396484375 Q 439.6207275390625 400.2950134277344 451.2230987548828 402.0329284667969 Q 462.8254699707031 403.7708435058594 470.7164764404297 404.2620544433594 Q 478.60748291015625 404.7532653808594 492.28099060058594 405.9942169189453 Q 505.9544982910156 407.23516845703125 520.6592864990234 407.8728942871094 Q 535.3640747070312 408.5106201171875 550.1377868652344 409.1511993408203 Q 564.9114990234375 409.7917785644531 569.2490844726562 409.7917785644531 Q 573.586669921875 409.7917785644531 577.3239135742188 409.7917785644531 Q 581.0611572265625 409.7917785644531 586.7230224609375 409.7917785644531 L 592.3858876953125 409.7917785644531" stroke-linecap="round" />
</g>
<g transform="matrix(1 0 0 1 121.76 489)"  >
<circle style="stroke: none; stroke-width: 1; stroke-dasharray: none; stroke-linecap: butt; stroke-dashoffset: 0; stroke-linejoin: miter; stroke-miterlimit: 4; fill: rgb(11,97,164); fill-rule: nonzero; opacity: 1;"  cx="0" cy="0" r="20" />
</g>
<g transform="matrix(1 0 0 1 148.2 356.9)"  >
<rect style="stroke: none; stroke-width: 1; stroke-dasharray: none; stroke-linecap: butt; stroke-dashoffset: 0; stroke-linejoin: miter; stroke-miterlimit: 4; fill: rgb(11,97,164); fill-rule: nonzero; opacity: 1;"  x="-20" y="-20" rx="0" ry="0" width="40" height="40" />
</g>
<g transform="matrix(1 0 0 1 670.26 255.3)"  >
<rect style="stroke: none; stroke-width: 1; stroke-dasharray: none; stroke-linecap: butt; stroke-dashoffset: 0; stroke-linejoin: miter; stroke-miterlimit: 4; fill: rgb(11,97,164); fill-rule: nonzero; opacity: 1;"  x="-20" y="-20" rx="0" ry="0" width="40" height="40" />
</g>
</svg>