<?xml version="1.0" encoding="UTF-8" standalone="no" ?>
<!DOCTYPE svg PUBLIC "-//W3C//DTD SVG 1.1//EN" "http://www.w3.org/Graphics/SVG/1.1/DTD/svg11.dtd">
<svg xmlns="http://www.w3.org/2000/svg" xmlns:xlink="http://www.w3.org/1999/xlink" version="1.1" width="980" height="453" viewBox="0 0 980 453" xml:space="preserve">
<desc>Created with Fabric.js 3.5.0</desc>
<defs>
</defs>
<g transform="matrix(1 0 0 1 447.15 193.41)"  >
<path style="stroke: rgb(0,0,0); stroke-width: 1; stroke-dasharray: none; stroke-linecap: round; stroke-dashoffset: 0; stroke-linejoin: round; stroke-miterlimit: 10; fill: none; fill-rule: nonzero; opacity: 1;"  transform=" translate(-447.15, -193.41)" d="M 309.66796875 102.07133428955078 Q 309.66796875 102.07233428955078 309.82118225097656 101.91675567626953 Q 309.9743957519531 101.76117706298828 309.9743957519531 102.04875946044922 Q 309.9743957519531 102.33634185791016 309.9743957519531 102.90207290649414 Q 309.9743957519531 103.46780395507812 309.9743957519531 104.58041381835938 Q 309.9743957519531 105.69302368164062 309.9743957519531 106.80562973022461 Q 309.9743957519531 107.9182357788086 309.9743957519531 109.71208190917969 Q 309.9743957519531 111.50592803955078 309.9743957519531 112.94147491455078 Q 309.9743957519531 114.37702178955078 309.9743957519531 116.17086410522461 Q 309.9743957519531 117.96470642089844 309.9743957519531 121.03144836425781 Q 309.9743957519531 124.09819030761719 309.9743957519531 125.53373718261719 Q 309.9743957519531 126.96928405761719 311.6126708984375 128.60755157470703 Q 313.2509460449219 130.24581909179688 319.56121826171875 133.6095733642578 Q 325.8714904785156 136.97332763671875 333.0987243652344 138.67288208007812 Q 340.3259582519531 140.3724365234375 349.04766845703125 142.20870971679688 Q 357.7693786621094 144.04498291015625 369.7181396484375 146.12169647216797 Q 381.6669006347656 148.1984100341797 393.7900695800781 149.25208282470703 Q 405.9132385253906 150.30575561523438 411.7803649902344 150.30575561523438 Q 417.6474914550781 150.30575561523438 427.90846252441406 150.30575561523438 Q 438.16943359375 150.30575561523438 449.3898010253906 150.30575561523438 Q 460.61016845703125 150.30575561523438 463.21961975097656 150.30575561523438 Q 465.8290710449219 150.30575561523438 467.62290954589844 150.30575561523438 Q 469.416748046875 150.30575561523438 472.9761505126953 150.30575561523438 Q 476.5355529785156 150.30575561523438 478.720703125 150.30575561523438 Q 480.9058532714844 150.30575561523438 482.01844787597656 150.30575561523438 Q 483.13104248046875 150.30575561523438 483.47520446777344 150.30575561523438 Q 483.8193664550781 150.30575561523438 483.4375 149.16014862060547 Q 483.0556335449219 148.01454162597656 480.8681335449219 147.46766662597656 Q 478.6806335449219 146.92079162597656 474.0321960449219 145.84825897216797 Q 469.3837585449219 144.77572631835938 462.8518981933594 144.36557006835938 Q 456.3200378417969 143.95541381835938 450.4505615234375 143.95541381835938 Q 444.5810852050781 143.95541381835938 441.9692840576172 143.95541381835938 Q 439.35748291015625 143.95541381835938 434.1385955810547 143.95541381835938 Q 428.9197082519531 143.95541381835938 424.83229064941406 144.29485321044922 Q 420.744873046875 144.63429260253906 417.67578125 145.86004638671875 Q 414.606689453125 147.08580017089844 413.9372253417969 147.9768295288086 Q 413.26776123046875 148.86785888671875 410.67718505859375 151.45608520507812 Q 408.08660888671875 154.0443115234375 407.8296661376953 155.8381576538086 Q 407.5727233886719 157.6320037841797 407.5727233886719 161.19140625 Q 407.5727233886719 164.7508087158203 408.15260314941406 167.3602523803711 Q 408.73248291015625 169.96969604492188 412.8505401611328 173.3381576538086 Q 416.9685974121094 176.7066192626953 422.68251037597656 180.3791732788086 Q 428.39642333984375 184.05172729492188 439.9915771484375 189.32247161865234 Q 451.58673095703125 194.5932159423828 461.9396514892578 197.55152130126953 Q 472.2925720214844 200.50982666015625 478.8220672607422 201.32542419433594 Q 485.3515625 202.14102172851562 495.7044677734375 203.61900329589844 Q 506.057373046875 205.09698486328125 516.4102783203125 205.58963775634766 Q 526.76318359375 206.08229064941406 536.2839965820312 206.55609893798828 Q 545.8048095703125 207.0299072265625 549.3642272949219 207.0299072265625 Q 552.9236450195312 207.0299072265625 559.453125 206.6197509765625 Q 565.9826049804688 206.2095947265625 567.7458190917969 205.4529266357422 Q 569.509033203125 204.69625854492188 573.0684204101562 203.39978790283203 Q 576.6278076171875 202.1033172607422 578.8129577636719 201.0095672607422 Q 580.9981079101562 199.9158172607422 582.1955871582031 198.95642852783203 Q 583.39306640625 197.99703979492188 583.80322265625 197.17201232910156 Q 584.21337890625 196.34698486328125 584.465576171875 194.5719985961914 Q 584.7177734375 192.79701232910156 584.0978393554688 192.17706298828125 Q 583.4779052734375 191.55711364746094 579.4564819335938 191.55711364746094 Q 575.43505859375 191.55711364746094 565.9118957519531 191.55711364746094 Q 556.3887329101562 191.55711364746094 546.8655700683594 192.9832305908203 Q 537.3424072265625 194.4093475341797 525.3700866699219 199.8498077392578 Q 513.3977661132812 205.29026794433594 501.05064392089844 212.02484893798828 Q 488.7035217285156 218.75942993164062 475.979248046875 227.431640625 Q 463.2549743652344 236.10385131835938 457.94651794433594 240.18419647216797 Q 452.6380615234375 244.26454162597656 449.0621643066406 247.47978973388672 Q 445.48626708984375 250.69503784179688 443.0347595214844 252.83775329589844 Q 440.583251953125 254.98046875 436.46282958984375 258.72373962402344 Q 432.3424072265625 262.4670104980469 429.6174621582031 265.53138732910156 Q 426.89251708984375 268.59576416015625 424.0355682373047 272.5205383300781 Q 421.1786193847656 276.4453125 421.1786193847656 277.55792236328125 Q 421.1786193847656 278.6705322265625 421.1786193847656 280.46437072753906 Q 421.1786193847656 282.2582092285156 424.245361328125 282.87109375 Q 427.3121032714844 283.4839782714844 431.9581756591797 283.8399200439453 Q 436.604248046875 284.19586181640625 443.1337432861328 284.60365295410156 Q 449.6632385253906 285.0114440917969 456.8904724121094 285.0114440917969 Q 464.1177062988281 285.0114440917969 467.67710876464844 285.0114440917969 Q 471.23651123046875 285.0114440917969 476.47662353515625 285.0114440917969 Q 481.71673583984375 285.0114440917969 486.9568328857422 284.26185607910156 Q 492.1969299316406 283.51226806640625 496.84300231933594 282.08143615722656 Q 501.48907470703125 280.6506042480469 505.04847717285156 279.67942810058594 Q 508.6078796386719 278.708251953125 511.84434509277344 277.0888366699219 Q 515.080810546875 275.46942138671875 516.9830932617188 274.38038635253906 L 518.8863759765625 273.2903513183594" stroke-linecap="round" />
</g>
</svg>