<?xml version="1.0" encoding="UTF-8" standalone="no" ?>
<!DOCTYPE svg PUBLIC "-//W3C//DTD SVG 1.1//EN" "http://www.w3.org/Graphics/SVG/1.1/DTD/svg11.dtd">
<svg xmlns="http://www.w3.org/2000/svg" xmlns:xlink="http://www.w3.org/1999/xlink" version="1.1" width="980" height="453" viewBox="0 0 980 453" xml:space="preserve">
<desc>Created with Fabric.js 3.5.0</desc>
<defs>
</defs>
<g transform="matrix(1 0 0 1 603.04 188.2)"  >
<path style="stroke: rgb(0,0,0); stroke-width: 1; stroke-dasharray: none; stroke-linecap: round; stroke-dashoffset: 0; stroke-linejoin: round; stroke-miterlimit: 10; fill: none; fill-rule: nonzero; opacity: 1;"  transform=" translate(-603.04, -188.2)" d="M 455.5714345703125 97.64546966552734 Q 455.5704345703125 97.64546966552734 453.5220184326172 97.38853454589844 Q 451.4736022949219 97.13159942626953 450.64857482910156 97.13159942626953 Q 449.82354736328125 97.13159942626953 448.7085723876953 97.13159942626953 Q 447.5935974121094 97.13159942626953 447.0985870361328 97.13159942626953 Q 446.60357666015625 97.13159942626953 446.25706481933594 97.13159942626953 Q 445.9105529785156 97.13159942626953 446.50457763671875 97.13159942626953 Q 447.0986022949219 97.13159942626953 452.3080596923828 97.13159942626953 Q 457.51751708984375 97.13159942626953 462.7576141357422 97.13159942626953 Q 467.9977111816406 97.13159942626953 471.5170440673828 97.13159942626953 Q 475.036376953125 97.13159942626953 482.9943389892578 97.13159942626953 Q 490.9523010253906 97.13159942626953 498.1795349121094 97.13159942626953 Q 505.4067687988281 97.13159942626953 513.3647613525391 97.13159942626953 Q 521.32275390625 97.13159942626953 523.9321899414062 97.13159942626953 Q 526.5416259765625 97.13159942626953 532.3969421386719 97.13159942626953 Q 538.2522583007812 97.13159942626953 542.8983459472656 97.13159942626953 Q 547.54443359375 97.13159942626953 548.6570434570312 97.13159942626953 Q 549.7696533203125 97.13159942626953 551.9359436035156 97.13159942626953 Q 554.1022338867188 97.13159942626953 555.5377807617188 97.13159942626953 Q 556.9733276367188 97.13159942626953 557.5390625 97.13159942626953 Q 558.1047973632812 97.13159942626953 558.6705322265625 97.13159942626953 Q 559.2362670898438 97.13159942626953 558.2768859863281 97.44982528686523 Q 557.3175048828125 97.76805114746094 552.6219177246094 101.28738021850586 Q 547.9263305664062 104.80670928955078 545.0245971679688 107.06021118164062 Q 542.1228637695312 109.31371307373047 537.4272766113281 113.22433853149414 Q 532.731689453125 117.13496398925781 529.8393859863281 119.38375091552734 Q 526.9470825195312 121.63253784179688 523.2014465332031 125.37580108642578 Q 519.455810546875 129.1190643310547 517.9165344238281 130.39904022216797 Q 516.3772583007812 131.67901611328125 513.9210510253906 133.8264389038086 Q 511.46484375 135.97386169433594 509.82421875 137.61212921142578 Q 508.18359375 139.25039672851562 507.2241973876953 140.44786834716797 Q 506.2648010253906 141.6453399658203 505.5458526611328 143.0808868408203 Q 504.826904296875 144.5164337158203 504.826904296875 144.86058807373047 Q 504.826904296875 145.20474243164062 505.4445037841797 145.82233428955078 Q 506.0621032714844 146.43992614746094 509.6215057373047 146.7628631591797 Q 513.180908203125 147.08580017089844 517.8269958496094 147.80004119873047 Q 522.4730834960938 148.5142822265625 526.032470703125 148.83721923828125 Q 529.5918579101562 149.16015625 538.3135681152344 149.6174545288086 Q 547.0352783203125 150.0747528076172 550.1020202636719 150.38119506835938 Q 553.1687622070312 150.68763732910156 559.035888671875 150.68763732910156 Q 564.9030151367188 150.68763732910156 567.0881652832031 150.68763732910156 Q 569.2733154296875 150.68763732910156 572.8327026367188 151.0105743408203 Q 576.39208984375 151.33351135253906 579.4588317871094 151.33351135253906 Q 582.5255737304688 151.33351135253906 584.3170776367188 151.33351135253906 Q 586.1085815429688 151.33351135253906 587.22119140625 151.33351135253906 Q 588.3338012695312 151.33351135253906 588.6779479980469 151.33351135253906 Q 589.0220947265625 151.33351135253906 589.1776733398438 151.4890899658203 Q 589.333251953125 151.64466857910156 586.2641296386719 152.7195587158203 Q 583.1950073242188 153.79444885253906 578.5465698242188 154.8646240234375 Q 573.8981323242188 155.93479919433594 568.0286560058594 157.8889389038086 Q 562.1591796875 159.84307861328125 554.6420288085938 162.4949493408203 Q 547.1248779296875 165.14682006835938 543.5631103515625 166.44093322753906 Q 540.0013427734375 167.73504638671875 533.8772888183594 170.18419647216797 Q 527.7532348632812 172.6333465576172 525.5657348632812 173.72473907470703 Q 523.3782348632812 174.81613159179688 519.6302490234375 176.85748291015625 Q 515.8822631835938 178.89883422851562 513.2704620361328 180.05858612060547 Q 510.6586608886719 181.2183380126953 508.7445983886719 182.30973052978516 Q 506.8305358886719 183.401123046875 505.93714904785156 184.06822204589844 Q 505.04376220703125 184.73532104492188 504.6312561035156 185.55799102783203 Q 504.21875 186.3806610107422 509.4588317871094 186.90867614746094 Q 514.6989135742188 187.4366912841797 521.2142944335938 187.4366912841797 Q 527.7296752929688 187.4366912841797 537.25048828125 187.4366912841797 Q 546.7713012695312 187.4366912841797 557.9916687011719 187.4366912841797 Q 569.2120361328125 187.4366912841797 575.0791320800781 186.2627944946289 Q 580.9462280273438 185.08889770507812 585.5923156738281 184.01636505126953 Q 590.2384033203125 182.94383239746094 598.9294738769531 181.11227416992188 Q 607.6205444335938 179.2807159423828 614.8477783203125 178.0030975341797 Q 622.0750122070312 176.72547912597656 624.6844482421875 176.14324951171875 Q 627.2938842773438 175.56101989746094 631.3058776855469 174.5568389892578 Q 635.31787109375 173.5526580810547 637.9273071289062 172.97042846679688 Q 640.5367431640625 172.38819885253906 642.3305969238281 171.87432098388672 Q 644.1244506835938 171.36044311523438 645.237060546875 171.13651275634766 Q 646.3496704101562 170.91258239746094 646.6938171386719 170.91258239746094 Q 647.0379638671875 170.91258239746094 646.1304321289062 170.91258239746094 Q 645.222900390625 170.91258239746094 641.4749145507812 172.61449432373047 Q 637.7269287109375 174.31640625 632.2723388671875 177.04135131835938 Q 626.8177490234375 179.76629638671875 620.4391174316406 183.5920639038086 Q 614.0604858398438 187.41783142089844 607.092529296875 191.77161407470703 Q 600.1245727539062 196.12539672851562 592.5060424804688 201.83694458007812 Q 584.8875122070312 207.54849243164062 578.6974487304688 212.85223388671875 Q 572.5073852539062 218.15597534179688 569.9168090820312 220.74420166015625 Q 567.3262329101562 223.33242797851562 566.0439147949219 224.8693389892578 Q 564.7615966796875 226.40625 561.5439758300781 229.97979736328125 Q 558.3263549804688 233.5533447265625 556.4830017089844 236.00720977783203 Q 554.6396484375 238.46107482910156 553.3432006835938 242.02047729492188 Q 552.0467529296875 245.5798797607422 552.0467529296875 248.18931579589844 Q 552.0467529296875 250.7987518310547 553.6849975585938 252.43701934814453 Q 555.3232421875 254.07528686523438 562.8380737304688 256.72715759277344 Q 570.3529052734375 259.3790283203125 579.8737182617188 261.75746154785156 Q 589.39453125 264.1358947753906 600.6148986816406 266.1748962402344 Q 611.8352661132812 268.2138977050781 624.8942565917969 270.3896179199219 Q 637.9532470703125 272.5653381347656 644.4827575683594 272.97312927246094 Q 651.0122680664062 273.38092041015625 663.9604797363281 274.9979705810547 Q 676.90869140625 276.6150207519531 688.1290588378906 277.1241912841797 Q 699.3494262695312 277.63336181640625 709.7023315429688 278.1260070800781 Q 720.0552368164062 278.61865234375 723.6146240234375 278.9416046142578 Q 727.1740112304688 279.2645568847656 734.4012451171875 279.2645568847656 Q 741.6284790039062 279.2645568847656 743.4223327636719 279.2645568847656 Q 745.2161865234375 279.2645568847656 748.7755737304688 279.2645568847656 Q 752.3349609375 279.2645568847656 754.5201110839844 279.2645568847656 Q 756.7052612304688 279.2645568847656 757.81787109375 279.2645568847656 Q 758.9304809570312 279.2645568847656 759.4962158203125 278.8850402832031 L 760.0629506835937 278.50452368164065" stroke-linecap="round" />
</g>
</svg>