<?xml version="1.0" encoding="UTF-8" standalone="no" ?>
<!DOCTYPE svg PUBLIC "-//W3C//DTD SVG 1.1//EN" "http://www.w3.org/Graphics/SVG/1.1/DTD/svg11.dtd">
<svg xmlns="http://www.w3.org/2000/svg" xmlns:xlink="http://www.w3.org/1999/xlink" version="1.1" width="980" height="551" viewBox="0 0 980 551" xml:space="preserve">
<desc>Created with Fabric.js 3.5.0</desc>
<defs>
</defs>
<g transform="matrix(1 0 0 1 431.52 204.75)"  >
<path style="stroke: rgb(0,0,0); stroke-width: 1; stroke-dasharray: none; stroke-linecap: round; stroke-dashoffset: 0; stroke-linejoin: round; stroke-miterlimit: 10; fill: none; fill-rule: nonzero; opacity: 1;"  transform=" translate(-431.52, -204.75)" d="M 340.0957570800781 112.4858861694336 Q 340.0947570800781 112.4848861694336 340.76051330566406 112.04008865356445 Q 341.42626953125 111.59529113769531 341.251220703125 111.40302658081055 Q 341.076171875 111.21076202392578 340.0803985595703 111.21076202392578 Q 339.0846252441406 111.21076202392578 336.89794921875 111.21076202392578 Q 334.7112731933594 111.21076202392578 332.04823303222656 111.21076202392578 Q 329.38519287109375 111.21076202392578 324.40919494628906 111.21076202392578 Q 319.4331970214844 111.21076202392578 315.6968994140625 112.70298385620117 Q 311.9606018066406 114.19520568847656 310.3995056152344 115.7534294128418 Q 308.8384094238281 117.31165313720703 305.8970184326172 119.88286590576172 Q 302.95562744140625 122.4540786743164 300.7115478515625 125.4413948059082 Q 298.46746826171875 128.4287109375 297.5290985107422 130.61251831054688 Q 296.5907287597656 132.79632568359375 296.2578430175781 135.4536361694336 Q 295.9249572753906 138.11094665527344 295.9249572753906 141.28765869140625 Q 295.9249572753906 144.46437072753906 295.9249572753906 147.12454223632812 Q 295.9249572753906 149.7847137451172 297.9968566894531 154.3446044921875 Q 300.0687561035156 158.9044952392578 303.61277770996094 161.6622314453125 Q 307.15679931640625 164.4199676513672 313.07977294921875 167.15188598632812 Q 319.00274658203125 169.88380432128906 324.6588439941406 171.62281799316406 Q 330.31494140625 173.36183166503906 333.4916534423828 173.7147979736328 Q 336.6683654785156 174.06776428222656 342.1981964111328 174.91718292236328 Q 347.72802734375 175.7666015625 354.10728454589844 175.7666015625 Q 360.4865417480469 175.7666015625 365.45965576171875 175.7666015625 Q 370.4327697753906 175.7666015625 374.7659606933594 175.7666015625 Q 379.0991516113281 175.7666015625 382.4595184326172 173.52252960205078 Q 385.81988525390625 171.27845764160156 390.8331756591797 167.17484283447266 Q 395.8464660644531 163.07122802734375 396.7561492919922 156.6891098022461 Q 397.66583251953125 150.30699157714844 398.1077575683594 144.09130859375 Q 398.5496826171875 137.87562561035156 398.5496826171875 129.92380142211914 Q 398.5496826171875 121.97197723388672 396.72459411621094 115.5898551940918 Q 394.8995056152344 109.20773315429688 390.6122283935547 103.49137496948242 Q 386.324951171875 97.77501678466797 380.1322326660156 93.96410751342773 Q 373.93951416015625 90.1531982421875 366.79405212402344 87.77138137817383 Q 359.6485900878906 85.38956451416016 351.69677734375 85.38956451416016 Q 343.7449645996094 85.38956451416016 336.59950256347656 85.38956451416016 Q 329.45404052734375 85.38956451416016 326.79100036621094 85.71957778930664 Q 324.1279602050781 86.04959106445312 319.98130798339844 88.9508171081543 Q 315.83465576171875 91.85204315185547 309.86863708496094 97.81519317626953 Q 303.9026184082031 103.7783432006836 302.24395751953125 108.75146102905273 Q 300.5852966308594 113.72457885742188 300.5852966308594 119.38067626953125 Q 300.5852966308594 125.03677368164062 300.5852966308594 130.69287109375 Q 300.5852966308594 136.34896850585938 301.88812255859375 142.00506591796875 Q 303.1909484863281 147.66116333007812 307.85987854003906 153.7304916381836 Q 312.52880859375 159.79981994628906 318.49195861816406 165.76296997070312 Q 324.4551086425781 171.7261199951172 332.52745056152344 177.1067352294922 Q 340.59979248046875 182.4873504638672 349.2087707519531 187.33132934570312 Q 357.8177490234375 192.17530822753906 366.9662322998047 195.40367889404297 Q 376.1147155761719 198.63204956054688 384.8097686767578 200.67811584472656 Q 393.50482177734375 202.72418212890625 403.1927947998047 203.26080322265625 Q 412.8807678222656 203.79742431640625 416.61419677734375 204.1704864501953 Q 420.3476257324219 204.54354858398438 427.4902038574219 204.54354858398438 Q 434.6327819824219 204.54354858398438 441.0120391845703 204.54354858398438 Q 447.39129638671875 204.54354858398438 449.5751037597656 204.23075103759766 Q 451.7589111328125 203.91795349121094 454.9356231689453 203.2091522216797 Q 458.1123352050781 202.50035095214844 460.7725067138672 201.83458709716797 Q 463.43267822265625 201.1688232421875 464.7756805419922 200.35958099365234 Q 466.1186828613281 199.5503387451172 466.53765869140625 199.1284942626953 Q 466.9566345214844 198.70664978027344 467.1862030029297 198.01506805419922 Q 467.415771484375 197.323486328125 464.6637725830078 197.323486328125 Q 461.9117736816406 197.323486328125 456.93577575683594 198.56604766845703 Q 451.95977783203125 199.80860900878906 445.2906951904297 203.1402816772461 Q 438.6216125488281 206.47195434570312 431.6626892089844 210.94287872314453 Q 424.7037658691406 215.41380310058594 420.9703369140625 218.72826385498047 Q 417.2369079589844 222.042724609375 412.2207489013672 226.59973907470703 Q 407.20458984375 231.15675354003906 405.64349365234375 233.02777099609375 Q 404.0823974609375 234.89878845214844 399.1121520996094 241.35839080810547 Q 394.14190673828125 247.8179931640625 393.43597412109375 250.9889678955078 Q 392.73004150390625 254.15994262695312 392.73004150390625 258.4931335449219 Q 392.73004150390625 262.8263244628906 393.3527526855469 265.00726318359375 Q 393.9754638671875 267.1882019042969 399.19537353515625 269.7967224121094 Q 404.415283203125 272.4052429199219 410.0713806152344 274.5804443359375 Q 415.72747802734375 276.7556457519531 422.86431884765625 278.1818542480469 Q 430.00115966796875 279.6080627441406 437.14373779296875 280.55792236328125 Q 444.28631591796875 281.5077819824219 448.0197448730469 281.88084411621094 Q 451.753173828125 282.25390625 457.9143371582031 282.25390625 Q 464.07550048828125 282.25390625 469.7315979003906 282.25390625 Q 475.3876953125 282.25390625 479.6979217529297 281.0773468017578 Q 484.0081481933594 279.9007873535156 485.87916564941406 278.6496124267578 Q 487.75018310546875 277.3984375 490.0774688720703 276.06690979003906 Q 492.4047546386719 274.7353820800781 494.27577209472656 273.4842224121094 Q 496.14678955078125 272.2330627441406 496.8986358642578 271.47833251953125 Q 497.6504821777344 270.7236022949219 497.94032287597656 268.9731140136719 Q 498.23016357421875 267.2226257324219 498.03790283203125 267.0303649902344 Q 497.84564208984375 266.8381042480469 493.50958251953125 266.8381042480469 Q 489.17352294921875 266.8381042480469 482.7942657470703 266.8381042480469 Q 476.4150085449219 266.8381042480469 469.2695617675781 266.8381042480469 Q 462.1241149902344 266.8381042480469 453.0531311035156 270.0377655029297 Q 443.9821472167969 273.2374267578125 433.9211120605469 277.70835876464844 Q 423.8600769042969 282.1792907714844 413.42601013183594 287.3934631347656 Q 402.991943359375 292.6076354980469 398.84527587890625 295.5088653564453 Q 394.6986083984375 298.41009521484375 391.7084197998047 300.6512908935547 Q 388.7182312011719 302.8924865722656 383.3031921386719 306.49964904785156 Q 377.8881530761719 310.1068115234375 374.89796447753906 312.3480224609375 Q 371.90777587890625 314.5892333984375 369.92198181152344 316.57215881347656 Q 367.9361877441406 318.5550842285156 367.12120056152344 319.90956115722656 Q 366.30621337890625 321.2640380859375 366.0536804199219 322.2655487060547 Q 365.8011474609375 323.2670593261719 365.8011474609375 323.68603515625 Q 365.8011474609375 324.1050109863281 371.4572448730469 324.1050109863281 Q 377.11334228515625 324.1050109863281 382.0864562988281 324.1050109863281 Q 387.0595703125 324.1050109863281 395.00852966308594 323.10923767089844 Q 402.9574890136719 322.11346435546875 420.03770446777344 317.3297424316406 Q 437.117919921875 312.5460205078125 443.4971618652344 310.2646484375 Q 449.87640380859375 307.9832763671875 461.88018798828125 303.7792205810547 Q 473.88397216796875 299.5751647949219 479.1038818359375 297.3970947265625 Q 484.32379150390625 295.2190246582031 493.47227478027344 291.45115661621094 Q 502.6207580566406 287.68328857421875 505.2809295654297 286.3517761230469 Q 507.94110107421875 285.020263671875 513.1610107421875 282.8421936035156 Q 518.3809204101562 280.66412353515625 521.7011108398438 278.81605529785156 Q 525.0213012695312 276.9679870605469 527.2051086425781 276.0296173095703 Q 529.388916015625 275.09124755859375 530.4564208984375 274.28773498535156 Q 531.52392578125 273.4842224121094 532.0663146972656 272.1268768310547 Q 532.6087036132812 270.76953125 532.1897277832031 270.3505554199219 Q 531.770751953125 269.93157958984375 524.6253051757812 269.93157958984375 Q 517.4798583984375 269.93157958984375 506.85923767089844 269.93157958984375 Q 496.2386169433594 269.93157958984375 482.576171875 269.93157958984375 Q 468.9137268066406 269.93157958984375 451.8306427001953 270.61456298828125 Q 434.74755859375 271.29754638671875 425.0567321777344 272.91029357910156 Q 415.36590576171875 274.5230407714844 408.98377990722656 276.34527587890625 Q 402.6016540527344 278.1675109863281 398.34307861328125 279.3268585205078 Q 394.0845031738281 280.4862060546875 386.9390563964844 282.38877868652344 Q 379.7936096191406 284.2913513183594 374.817626953125 285.9471435546875 Q 369.8416442871094 287.6029357910156 365.5055847167969 289.1783905029297 Q 361.1695251464844 290.75384521484375 360.6759490966797 291.7352600097656 Q 360.182373046875 292.7166748046875 361.1838836669922 292.9663391113281 Q 362.1853942871094 293.21600341796875 369.99659729003906 293.70384216308594 Q 377.80780029296875 294.1916809082031 388.425537109375 294.1916809082031 Q 399.04327392578125 294.1916809082031 413.8019256591797 294.1916809082031 Q 428.5605773925781 294.1916809082031 437.3589630126953 294.1916809082031 Q 446.1573486328125 294.1916809082031 460.91600036621094 294.1916809082031 Q 475.6746520996094 294.1916809082031 489.334228515625 292.9491271972656 Q 502.9938049316406 291.7065734863281 515.5973358154297 290.5041809082031 Q 528.2008666992188 289.3017883300781 531.9170837402344 288.55567932128906 Q 535.63330078125 287.8095703125 538.8099975585938 287.4537353515625 Q 541.9866943359375 287.097900390625 547.6427917480469 285.7922058105469 Q 553.2988891601562 284.48651123046875 557.0323181152344 283.7375183105469 Q 560.7657470703125 282.988525390625 563.9424743652344 281.57379150390625 L 567.1202016601562 280.1580576171875" stroke-linecap="round" />
</g>
<g transform="matrix(1 0 0 1 296.11 267.04)"  >
<rect style="stroke: none; stroke-width: 1; stroke-dasharray: none; stroke-linecap: butt; stroke-dashoffset: 0; stroke-linejoin: miter; stroke-miterlimit: 4; fill: rgb(11,97,164); fill-rule: nonzero; opacity: 1;"  x="-20" y="-20" rx="0" ry="0" width="40" height="40" />
</g>
</svg>