<?xml version="1.0" encoding="UTF-8" standalone="no" ?>
<!DOCTYPE svg PUBLIC "-//W3C//DTD SVG 1.1//EN" "http://www.w3.org/Graphics/SVG/1.1/DTD/svg11.dtd">
<svg xmlns="http://www.w3.org/2000/svg" xmlns:xlink="http://www.w3.org/1999/xlink" version="1.1" width="980" height="453" viewBox="0 0 980 453" xml:space="preserve">
<desc>Created with Fabric.js 3.5.0</desc>
<defs>
</defs>
<g transform="matrix(1 0 0 1 510.01 97.16)"  >
<path style="stroke: rgb(0,0,0); stroke-width: 1; stroke-dasharray: none; stroke-linecap: round; stroke-dashoffset: 0; stroke-linejoin: round; stroke-miterlimit: 10; fill: none; fill-rule: nonzero; opacity: 1;"  transform=" translate(-510.01, -97.16)" d="M 511.1018371582031 84.45939581298828 Q 511.1018371582031 84.46039581298828 510.0080871582031 85.11570358276367 Q 508.9143371582031 85.77101135253906 508.9143371582031 87.35977935791016 Q 508.9143371582031 88.94854736328125 508.9143371582031 90.06115341186523 Q 508.9143371582031 91.17375946044922 508.9143371582031 93.35890197753906 Q 508.9143371582031 95.5440444946289 508.9143371582031 96.10977935791016 Q 508.9143371582031 96.6755142211914 508.9143371582031 98.86065673828125 Q 508.9143371582031 101.0457992553711 508.9143371582031 102.83492660522461 Q 508.9143371582031 104.62405395507812 508.9143371582031 106.41790008544922 Q 508.9143371582031 108.21174621582031 508.9143371582031 109.03441619873047 L 508.9143371582031 109.85808618164063" stroke-linecap="round" />
</g>
<g transform="matrix(1 0 0 1 551.06 181.86)"  >
<path style="stroke: rgb(0,0,0); stroke-width: 1; stroke-dasharray: none; stroke-linecap: round; stroke-dashoffset: 0; stroke-linejoin: round; stroke-miterlimit: 10; fill: none; fill-rule: nonzero; opacity: 1;"  transform=" translate(-551.06, -181.86)" d="M 491.7244638671875 222.24461364746094 Q 491.7254638671875 222.24461364746094 496.5601348876953 222.24461364746094 Q 501.3948059082031 222.24461364746094 504.4615478515625 222.24461364746094 Q 507.5282897949219 222.24461364746094 509.7134246826172 221.15086364746094 Q 511.8985595703125 220.05711364746094 514.6211547851562 216.65093231201172 Q 517.34375 213.2447509765625 517.6336975097656 210.63294982910156 Q 517.9236450195312 208.02114868164062 519.4133911132812 202.80461883544922 Q 520.9031372070312 197.5880889892578 521.71875 191.05623626708984 Q 522.5343627929688 184.52438354492188 522.5343627929688 177.99252319335938 Q 522.5343627929688 171.46066284179688 522.5343627929688 165.5911865234375 Q 522.5343627929688 159.72171020507812 522.5343627929688 158.28380584716797 Q 522.5343627929688 156.8459014892578 522.5343627929688 153.77680206298828 Q 522.5343627929688 150.70770263671875 522.5343627929688 148.0959014892578 Q 522.5343627929688 145.48410034179688 522.5343627929688 144.65907287597656 Q 522.5343627929688 143.83404541015625 522.1925659179688 143.66197204589844 Q 521.8507690429688 143.48989868164062 521.5042419433594 143.48989868164062 Q 521.15771484375 143.48989868164062 520.8112182617188 143.48989868164062 Q 520.4647216796875 143.48989868164062 519.0267944335938 143.48989868164062 Q 517.5888671875 143.48989868164062 517.2093811035156 144.05563354492188 Q 516.8298950195312 144.62136840820312 516.2830200195312 146.80651092529297 Q 515.7361450195312 148.9916534423828 515.7361450195312 153.63773345947266 Q 515.7361450195312 158.2838134765625 515.7361450195312 164.15093231201172 Q 515.7361450195312 170.01805114746094 515.7361450195312 176.54754638671875 Q 515.7361450195312 183.07704162597656 515.7361450195312 190.30428314208984 Q 515.7361450195312 197.53152465820312 515.7361450195312 205.4777069091797 Q 515.7361450195312 213.42388916015625 515.7361450195312 219.29100799560547 Q 515.7361450195312 225.1581268310547 517.7751159667969 231.68762969970703 Q 519.8140869140625 238.21713256835938 521.1789245605469 240.12883758544922 Q 522.5437622070312 242.04054260253906 524.5851135253906 245.78616333007812 Q 526.62646484375 249.5317840576172 527.8239440917969 250.4888153076172 Q 529.0214233398438 251.4458465576172 530.3013916015625 252.98275756835938 Q 531.5813598632812 254.51966857910156 532.861328125 256.0565719604492 Q 534.1412963867188 257.5934753417969 534.70703125 257.9706268310547 Q 535.2727661132812 258.3477783203125 536.0954284667969 258.5528564453125 Q 536.9180908203125 258.7579345703125 537.5851745605469 256.9617385864258 Q 538.2522583007812 255.16554260253906 538.6412048339844 249.2960662841797 Q 539.0301513671875 243.4265899658203 539.5039672851562 233.9034194946289 Q 539.977783203125 224.3802490234375 540.5199279785156 211.3188934326172 Q 541.0620727539062 198.25753784179688 541.6136779785156 184.41358947753906 Q 542.165283203125 170.56964111328125 542.5895690917969 163.34004974365234 Q 543.0138549804688 156.11045837402344 543.0138549804688 143.0490951538086 Q 543.0138549804688 129.98773193359375 543.0138549804688 118.85458755493164 Q 543.0138549804688 107.72144317626953 542.6885681152344 104.15968322753906 Q 542.36328125 100.5979232788086 540.661376953125 93.36833190917969 Q 538.95947265625 86.13874053955078 538.2405090332031 84.70083618164062 Q 537.5215454101562 83.26293182373047 536.3712158203125 80.67705917358398 Q 535.2208862304688 78.0911865234375 533.6910705566406 75.34031295776367 Q 532.1612548828125 72.58943939208984 531.3362121582031 72.58943939208984 Q 530.5111694335938 72.58943939208984 528.7149658203125 72.58943939208984 Q 526.9187622070312 72.58943939208984 524.5332641601562 75.9932632446289 Q 522.1477661132812 79.39708709716797 519.9013366699219 84.26239013671875 Q 517.6549072265625 89.12769317626953 515.6983947753906 94.99481201171875 Q 513.7418823242188 100.86193084716797 512.0399780273438 108.08916854858398 Q 510.33807373046875 115.31640625 509.11231994628906 121.84590148925781 Q 507.8865661621094 128.37539672851562 507.8865661621094 131.442138671875 Q 507.8865661621094 134.50888061523438 507.8865661621094 140.37600708007812 Q 507.8865661621094 146.24313354492188 507.8865661621094 154.20110321044922 Q 507.8865661621094 162.15907287597656 510.38758850097656 166.0909194946289 Q 512.8886108398438 170.02276611328125 516.462158203125 173.2380142211914 Q 520.0357055664062 176.45326232910156 524.323486328125 178.5959701538086 Q 528.6112670898438 180.73867797851562 534.4241638183594 182.2873764038086 Q 540.237060546875 183.83607482910156 546.1041870117188 184.6163101196289 Q 551.9713134765625 185.39654541015625 557.8384399414062 185.39654541015625 Q 563.70556640625 185.39654541015625 570.2350463867188 184.98638916015625 Q 576.7645263671875 184.57623291015625 582.2403564453125 181.83714294433594 Q 587.7161865234375 179.09805297851562 592.8007202148438 175.5763702392578 Q 597.88525390625 172.0546875 599.716796875 169.60789489746094 Q 601.54833984375 167.16110229492188 602.57373046875 165.62183380126953 Q 603.59912109375 164.0825653076172 605.4259643554688 161.34111785888672 Q 607.2528076171875 158.59967041015625 608.3442077636719 156.41217041015625 Q 609.4356079101562 154.22467041015625 609.9117736816406 152.79383850097656 Q 610.387939453125 151.36300659179688 610.387939453125 149.17550659179688 Q 610.387939453125 146.98800659179688 610.1969909667969 146.419921875 Q 610.0060424804688 145.85183715820312 605.9539794921875 145.85183715820312 Q 601.9019165039062 145.85183715820312 596.0324401855469 147.02336883544922 Q 590.1629638671875 148.1949005126953 583.5297546386719 152.61469268798828 Q 576.8965454101562 157.03448486328125 572.776123046875 160.77774810791016 Q 568.6557006835938 164.52101135253906 555.7923583984375 176.15625 Q 542.9290161132812 187.79148864746094 539.4073181152344 192.48471069335938 Q 535.8856201171875 197.1779327392578 529.4739990234375 205.5602035522461 Q 523.0623779296875 213.94247436523438 518.498779296875 222.155029296875 Q 513.9351806640625 230.36758422851562 512.9640197753906 233.92698669433594 Q 511.99285888671875 237.48638916015625 510.3805236816406 243.93338775634766 Q 508.7681884765625 250.38038635253906 508.7681884765625 255.62049102783203 Q 508.7681884765625 260.860595703125 508.7681884765625 265.5066680908203 Q 508.7681884765625 270.1527404785156 509.3810577392578 273.219482421875 Q 509.9939270019531 276.2862243652344 514.4820709228516 281.1845245361328 Q 518.97021484375 286.08282470703125 523.6163024902344 287.8695983886719 Q 528.2623901367188 289.6563720703125 533.4317626953125 290.39418029785156 Q 538.6011352539062 291.1319885253906 544.46826171875 291.1319885253906 Q 550.3353881835938 291.1319885253906 555.549560546875 291.1319885253906 Q 560.7637329101562 291.1319885253906 565.6290283203125 288.88555908203125 Q 570.4943237304688 286.6391296386719 575.1875610351562 283.11744689941406 Q 579.8807983398438 279.59576416015625 581.2456359863281 277.68170166015625 Q 582.6104736328125 275.76763916015625 587.0302429199219 269.1344299316406 Q 591.4500122070312 262.501220703125 592.8572692871094 257.9234924316406 Q 594.2645263671875 253.34576416015625 594.636962890625 248.10330963134766 Q 595.0093994140625 242.86085510253906 595.0093994140625 240.67335510253906 Q 595.0093994140625 238.48585510253906 593.7129516601562 234.9240951538086 Q 592.41650390625 231.36233520507812 590.1629943847656 228.4653091430664 Q 587.9094848632812 225.5682830810547 583.2138977050781 222.04660034179688 Q 578.518310546875 218.52491760253906 574.4308776855469 217.84368133544922 Q 570.3434448242188 217.16244506835938 566.2560424804688 217.16244506835938 Q 562.1686401367188 217.16244506835938 558.6210327148438 217.48302459716797 Q 555.0734252929688 217.80360412597656 551.1392211914062 220.30461883544922 Q 547.2050170898438 222.80563354492188 544.0392761230469 226.32024383544922 Q 540.87353515625 229.83485412597656 539.4285583496094 232.14492797851562 Q 537.9835815429688 234.4550018310547 535.8479309082031 238.72157287597656 Q 533.7122802734375 242.98814392089844 532.4158020019531 246.54754638671875 Q 531.1193237304688 250.10694885253906 530.0962829589844 254.19200897216797 Q 529.0732421875 258.2770690917969 529.0732421875 261.8364715576172 Q 529.0732421875 265.3958740234375 529.0732421875 268.4626159667969 Q 529.0732421875 271.52935791015625 530.2330017089844 274.13880920410156 Q 531.3927612304688 276.7482604980469 535.1360473632812 280.49151611328125 Q 538.8793334960938 284.2347717285156 542.9643859863281 285.5948944091797 Q 547.0494384765625 286.95501708984375 552.2565307617188 287.6975402832031 Q 557.463623046875 288.4400634765625 562.7037353515625 288.4400634765625 Q 567.94384765625 288.4400634765625 573.1839294433594 288.4400634765625 Q 578.4240112304688 288.4400634765625 583.289306640625 286.1936340332031 L 588.1556020507812 283.9462045898438" stroke-linecap="round" />
</g>
<g transform="matrix(1 0 0 1 271.03 355.86)"  >
<rect style="stroke: none; stroke-width: 1; stroke-dasharray: none; stroke-linecap: butt; stroke-dashoffset: 0; stroke-linejoin: miter; stroke-miterlimit: 4; fill: rgb(11,97,164); fill-rule: nonzero; opacity: 1;"  x="-20" y="-20" rx="0" ry="0" width="40" height="40" />
</g>
<g transform="matrix(1 0 0 1 267.73 222.87)"  >
<rect style="stroke: none; stroke-width: 1; stroke-dasharray: none; stroke-linecap: butt; stroke-dashoffset: 0; stroke-linejoin: miter; stroke-miterlimit: 4; fill: rgb(11,97,164); fill-rule: nonzero; opacity: 1;"  x="-20" y="-20" rx="0" ry="0" width="40" height="40" />
</g>
<g transform="matrix(1 0 0 1 459.99 234.83)"  >
<rect style="stroke: none; stroke-width: 1; stroke-dasharray: none; stroke-linecap: butt; stroke-dashoffset: 0; stroke-linejoin: miter; stroke-miterlimit: 4; fill: rgb(11,97,164); fill-rule: nonzero; opacity: 1;"  x="-20" y="-20" rx="0" ry="0" width="40" height="40" />
</g>
<g transform="matrix(1 0 0 1 427.82 136.28)"  >
<rect style="stroke: none; stroke-width: 1; stroke-dasharray: none; stroke-linecap: butt; stroke-dashoffset: 0; stroke-linejoin: miter; stroke-miterlimit: 4; fill: rgb(11,97,164); fill-rule: nonzero; opacity: 1;"  x="-20" y="-20" rx="0" ry="0" width="40" height="40" />
</g>
<g transform="matrix(1 0 0 1 354.53 242.71)"  >
<rect style="stroke: none; stroke-width: 1; stroke-dasharray: none; stroke-linecap: butt; stroke-dashoffset: 0; stroke-linejoin: miter; stroke-miterlimit: 4; fill: rgb(11,97,164); fill-rule: nonzero; opacity: 1;"  x="-20" y="-20" rx="0" ry="0" width="40" height="40" />
</g>
</svg>