<?xml version="1.0" encoding="UTF-8" standalone="no" ?>
<!DOCTYPE svg PUBLIC "-//W3C//DTD SVG 1.1//EN" "http://www.w3.org/Graphics/SVG/1.1/DTD/svg11.dtd">
<svg xmlns="http://www.w3.org/2000/svg" xmlns:xlink="http://www.w3.org/1999/xlink" version="1.1" width="981" height="1745" viewBox="0 0 981 1745" xml:space="preserve">
<desc>Created with Fabric.js 3.5.0</desc>
<defs>
</defs>
<g transform="matrix(1 0 0 1 511.85 210.75)"  >
<path style="stroke: rgb(0,0,0); stroke-width: 1; stroke-dasharray: none; stroke-linecap: round; stroke-dashoffset: 0; stroke-linejoin: round; stroke-miterlimit: 10; fill: none; fill-rule: nonzero; opacity: 1;"  transform=" translate(-511.85, -210.75)" d="M 303.01673071289065 132.7020263671875 Q 303.0177307128906 132.7020263671875 303.70140075683594 132.7020263671875 Q 304.38507080078125 132.7020263671875 305.7409362792969 132.7020263671875 Q 307.0968017578125 132.7020263671875 308.84620666503906 132.7020263671875 Q 310.5956115722656 132.7020263671875 314.3328399658203 133.8223419189453 Q 318.070068359375 134.94265747070312 322.4076843261719 135.72974395751953 Q 326.74530029296875 136.51683044433594 331.69476318359375 137.75204467773438 Q 336.64422607421875 138.9872589111328 339.30711364746094 139.98404693603516 Q 341.9700012207031 140.9808349609375 346.9481964111328 142.63831329345703 Q 351.9263916015625 144.29579162597656 356.2639923095703 145.87284088134766 Q 360.6015930175781 147.44989013671875 365.5797882080078 148.6937255859375 Q 370.5579833984375 149.93756103515625 374.2262725830078 151.40258026123047 Q 377.8945617675781 152.8675994873047 381.6318054199219 153.98790740966797 Q 385.3690490722656 155.10821533203125 386.4405212402344 155.90966796875 Q 387.5119934082031 156.71112060546875 389.6980285644531 157.33447265625 Q 391.8840637207031 157.95782470703125 393.62486267089844 158.5380859375 Q 395.36566162109375 159.11834716796875 396.3681945800781 159.61817169189453 Q 397.3707275390625 160.1179962158203 398.0601348876953 160.1179962158203 Q 398.7495422363281 160.1179962158203 398.9391326904297 160.3075942993164 Q 399.12872314453125 160.4971923828125 399.31544494628906 160.68390655517578 Q 399.5021667480469 160.87062072753906 399.5021667480469 161.47386169433594 Q 399.5021667480469 162.0771026611328 398.7466735839844 162.82971954345703 Q 397.9911804199219 163.58233642578125 395.09849548339844 165.7482681274414 Q 392.205810546875 167.91419982910156 388.05491638183594 171.23204040527344 Q 383.9040222167969 174.5498809814453 379.7531433105469 177.8677215576172 Q 375.6022644042969 181.18556213378906 373.12608337402344 183.6588592529297 Q 370.64990234375 186.1321563720703 366.9126739501953 189.86651611328125 Q 363.1754455566406 193.6008758544922 359.903564453125 197.68856811523438 Q 356.6316833496094 201.77626037597656 353.31097412109375 205.5106201171875 Q 349.9902648925781 209.24497985839844 349.11700439453125 210.9886474609375 Q 348.2437438964844 212.73231506347656 346.47422790527344 215.5589370727539 Q 344.7047119140625 218.38555908203125 343.371826171875 220.71522521972656 Q 342.0389404296875 223.04489135742188 341.4529266357422 224.79429626464844 Q 340.8669128417969 226.543701171875 340.5940246582031 227.89956665039062 Q 340.3211364746094 229.25543212890625 340.3211364746094 231.44146728515625 Q 340.3211364746094 233.62750244140625 340.3211364746094 234.31692504882812 Q 340.3211364746094 235.00634765625 341.0737609863281 235.75896453857422 Q 341.8263854980469 236.51158142089844 343.57579040527344 237.09471893310547 Q 345.3251953125 237.6778564453125 347.9593505859375 238.00533294677734 Q 350.593505859375 238.3328094482422 353.77345275878906 238.3328094482422 Q 356.9533996582031 238.3328094482422 363.33917236328125 238.3328094482422 Q 369.7249450683594 238.3328094482422 372.38783264160156 238.3328094482422 Q 375.05072021484375 238.3328094482422 379.36534118652344 237.15504455566406 Q 383.6799621582031 235.97727966308594 388.2445068359375 233.90039825439453 Q 392.8090515136719 231.82351684570312 396.1728515625 229.57715606689453 Q 399.5366516113281 227.33079528808594 400.6138610839844 226.25070190429688 Q 401.6910705566406 225.1706085205078 404.020751953125 223.83773040771484 Q 406.3504333496094 222.50485229492188 407.8987579345703 220.95365142822266 Q 409.44708251953125 219.40245056152344 410.5329132080078 218.58663940429688 Q 411.6187438964844 217.7708282470703 412.07835388183594 217.0785369873047 Q 412.5379638671875 216.38624572753906 412.74766540527344 215.96397399902344 Q 412.9573669433594 215.5417022705078 413.14695739746094 215.34923553466797 Q 413.3365478515625 215.15676879882812 411.6417236328125 214.9643096923828 Q 409.9468994140625 214.7718505859375 406.39637756347656 217.53240203857422 Q 402.8458557128906 220.29295349121094 398.051513671875 223.77740478515625 Q 393.2571716308594 227.26185607910156 387.5550842285156 232.01023864746094 Q 381.8529968261719 236.7586212158203 375.8808898925781 242.22802734375 Q 369.9087829589844 247.6974334716797 363.9424133300781 253.66092681884766 Q 357.9760437011719 259.6244201660156 355.3562469482422 262.6147766113281 Q 352.7364501953125 265.6051330566406 350.7371368408203 267.6015930175781 Q 348.7378234863281 269.5980529785156 345.9743957519531 273.14569091796875 Q 343.2109680175781 276.6933288574219 341.08811950683594 279.1666259765625 Q 338.96527099609375 281.6399230957031 338.1494598388672 282.99578857421875 Q 337.3336486816406 284.3516540527344 337.08372497558594 285.34556579589844 Q 336.83380126953125 286.3394775390625 336.83380126953125 287.3420104980469 Q 336.83380126953125 288.34454345703125 337.5174865722656 288.57147216796875 Q 338.201171875 288.79840087890625 345.3510437011719 288.79840087890625 Q 352.50091552734375 288.79840087890625 362.0608825683594 288.26698303222656 Q 371.620849609375 287.7355651855469 378.00660705566406 285.4518585205078 Q 384.3923645019531 283.16815185546875 396.4084014892578 278.9598083496094 Q 408.4244384765625 274.75146484375 430.48876953125 266.0820007324219 Q 452.5531005859375 257.41253662109375 459.1658020019531 254.57728576660156 Q 465.77850341796875 251.74203491210938 471.0037384033203 248.69135284423828 Q 476.2289733886719 245.6406707763672 485.61370849609375 240.67108917236328 Q 494.9984436035156 235.70150756835938 502.768798828125 231.03643035888672 Q 510.5391540527344 226.37135314941406 512.4034576416016 225.12752532958984 Q 514.2677612304688 223.88369750976562 518.415771484375 220.9766387939453 Q 522.5637817382812 218.069580078125 524.8934631347656 216.40348052978516 Q 527.22314453125 214.7373809814453 528.6824035644531 213.5682373046875 Q 530.1416625976562 212.3990936279297 530.894287109375 211.6436004638672 Q 531.6469116210938 210.8881072998047 531.8365173339844 210.69564056396484 Q 532.026123046875 210.503173828125 532.2156982421875 210.3107147216797 Q 532.4052734375 210.11825561523438 532.5948791503906 210.29635620117188 Q 532.7844848632812 210.47445678710938 532.7844848632812 212.66049194335938 Q 532.7844848632812 214.84652709960938 532.7844848632812 217.0325698852539 Q 532.7844848632812 219.21861267089844 532.5115661621094 220.57447052001953 Q 532.2386474609375 221.93032836914062 531.925537109375 224.11637115478516 Q 531.6124267578125 226.3024139404297 531.3395385742188 227.65827178955078 Q 531.066650390625 229.01412963867188 531.066650390625 230.3699951171875 Q 531.066650390625 231.72586059570312 531.066650390625 232.41527557373047 Q 531.066650390625 233.1046905517578 531.066650390625 233.5240936279297 Q 531.066650390625 233.94349670410156 531.066650390625 234.3628921508789 Q 531.066650390625 234.78228759765625 532.4570007324219 234.78228759765625 Q 533.8473510742188 234.78228759765625 536.8377075195312 232.53592681884766 Q 539.8280639648438 230.28956604003906 542.9821472167969 227.1325912475586 Q 546.13623046875 223.97561645507812 550.054443359375 219.6178970336914 Q 553.97265625 215.2601776123047 558.0775756835938 210.23889923095703 Q 562.1824951171875 205.21762084960938 564.0496826171875 201.8509521484375 Q 565.9168701171875 198.48428344726562 568.9646911621094 193.68993377685547 Q 572.0125122070312 188.8955841064453 573.342529296875 186.56304168701172 Q 574.6725463867188 184.23049926757812 576.6230163574219 180.32665252685547 Q 578.573486328125 176.4228057861328 579.9035034179688 174.09026336669922 Q 581.2335205078125 171.75772094726562 582.161376953125 169.58604431152344 Q 583.0892333984375 167.41436767578125 583.5890502929688 166.40896606445312 Q 584.0888671875 165.403564453125 584.3186645507812 164.71127319335938 Q 584.5484619140625 164.01898193359375 584.7380676269531 163.8265151977539 Q 584.9276733398438 163.63404846191406 584.9276733398438 164.89798736572266 Q 584.9276733398438 166.16192626953125 584.53125 170.4995346069336 Q 584.1348266601562 174.83714294433594 583.7786254882812 178.01709747314453 Q 583.4224243164062 181.19705200195312 583.0058898925781 186.17523956298828 Q 582.58935546875 191.15342712402344 582.58935546875 196.81529998779297 Q 582.58935546875 202.4771728515625 582.58935546875 207.4553680419922 Q 582.58935546875 212.43356323242188 582.58935546875 217.41175079345703 Q 582.58935546875 222.3899383544922 582.58935546875 226.1271743774414 Q 582.58935546875 229.86441040039062 584.45654296875 233.22821044921875 Q 586.32373046875 236.59201049804688 591.3277893066406 241.1421890258789 Q 596.3318481445312 245.69236755371094 601.3100280761719 247.349853515625 Q 606.2882080078125 249.00733947753906 612.6739807128906 250.83142852783203 Q 619.0597534179688 252.655517578125 627.0168151855469 253.15248107910156 Q 634.973876953125 253.64944458007812 643.7812194824219 254.16650390625 Q 652.5885620117188 254.68356323242188 661.3959350585938 254.68356323242188 Q 670.2033081054688 254.68356323242188 674.5408935546875 254.68356323242188 Q 678.8784790039062 254.68356323242188 686.0283508300781 254.68356323242188 Q 693.17822265625 254.68356323242188 698.840087890625 253.3765411376953 Q 704.501953125 252.06951904296875 706.6880187988281 251.44329071044922 Q 708.8740844726562 250.8170623779297 714.7743530273438 248.09098052978516 L 720.6756215820312 245.36389868164062" stroke-linecap="round" />
</g>
<g transform="matrix(1 0 0 1 448.99 251.87)"  >
<path style="stroke: rgb(14,87,106); stroke-width: 1; stroke-dasharray: none; stroke-linecap: round; stroke-dashoffset: 0; stroke-linejoin: round; stroke-miterlimit: 10; fill: none; fill-rule: nonzero; opacity: 1;"  transform=" translate(-448.99, -251.87)" d="M 194.35923767089844 159.53099768066406 Q 194.35923767089844 159.53199768066406 194.35923767089844 160.0461883544922 Q 194.35923767089844 160.5603790283203 194.35923767089844 161.5629119873047 Q 194.35923767089844 162.56544494628906 194.58904266357422 163.25486755371094 Q 194.81884765625 163.9442901611328 195.57147216796875 164.69690704345703 Q 196.3240966796875 165.44952392578125 197.4099349975586 166.26246643066406 Q 198.4957733154297 167.07540893554688 199.85163116455078 167.61832427978516 Q 201.20748901367188 168.16123962402344 203.5371551513672 169.82447052001953 Q 205.8668212890625 171.48770141601562 210.43136596679688 173.56170654296875 Q 214.99591064453125 175.63571166992188 218.17586517333984 175.63571166992188 Q 221.35581970214844 175.63571166992188 225.09305572509766 176.0091552734375 Q 228.83029174804688 176.38259887695312 232.5646514892578 176.75603485107422 Q 236.29901123046875 177.1294708251953 240.03624725341797 177.1294708251953 Q 243.7734832763672 177.1294708251953 245.12934112548828 177.1294708251953 Q 246.48519897460938 177.1294708251953 252.12696838378906 177.1294708251953 Q 257.76873779296875 177.1294708251953 258.4581604003906 176.89678955078125 Q 259.1475830078125 176.6641082763672 261.32786560058594 175.72764587402344 Q 263.5081481933594 174.7911834716797 265.9814453125 172.66834259033203 Q 268.4547424316406 170.54550170898438 269.26768493652344 169.186767578125 Q 270.08062744140625 167.82803344726562 270.3506622314453 166.47504425048828 Q 270.6206970214844 165.12205505371094 271.2038269042969 163.3697738647461 Q 271.7869567871094 161.61749267578125 272.0569763183594 160.25875854492188 Q 272.3269958496094 158.9000244140625 272.57691955566406 157.89749145507812 Q 272.82684326171875 156.89495849609375 272.82684326171875 156.20266723632812 Q 272.82684326171875 155.5103759765625 272.82684326171875 155.08810424804688 Q 272.82684326171875 154.66583251953125 271.4393768310547 154.4733657836914 Q 270.0519104003906 154.28089904785156 268.96319580078125 155.09384155273438 Q 267.8744812011719 155.9067840576172 265.4270477294922 158.35135650634766 Q 262.9796142578125 160.79592895507812 260.35980224609375 163.78629302978516 Q 257.739990234375 166.7766571044922 255.4936294555664 169.76702117919922 Q 253.2472686767578 172.75738525390625 251.00090789794922 176.12118530273438 Q 248.75454711914062 179.4849853515625 247.93873596191406 180.8408432006836 Q 247.1229248046875 182.1967010498047 245.7900390625 184.52637481689453 Q 244.4571533203125 186.85604858398438 243.8309326171875 189.04208374023438 Q 243.2047119140625 191.22811889648438 242.8916015625 193.4141616821289 Q 242.5784912109375 195.60020446777344 242.5784912109375 198.2401123046875 Q 242.5784912109375 200.88002014160156 242.5784912109375 202.62942504882812 Q 242.5784912109375 204.3788299560547 242.5784912109375 205.38136291503906 Q 242.5784912109375 206.38389587402344 244.0377655029297 207.55016326904297 Q 245.49703979492188 208.7164306640625 247.24644470214844 209.29956817626953 Q 248.995849609375 209.88270568847656 250.73663330078125 210.17283630371094 Q 252.4774169921875 210.4629669189453 254.6634521484375 210.77320861816406 Q 256.8494873046875 211.0834503173828 260.0294494628906 211.0834503173828 Q 263.20941162109375 211.0834503173828 268.18760681152344 210.66692352294922 Q 273.1658020019531 210.25039672851562 275.49546813964844 208.91751098632812 Q 277.82513427734375 207.58462524414062 281.7203674316406 205.63414001464844 Q 285.6156005859375 203.68365478515625 289.5596618652344 201.31664276123047 Q 293.50372314453125 198.9496307373047 297.4477844238281 196.97616577148438 Q 301.391845703125 195.00270080566406 302.74769592285156 194.1868896484375 Q 304.1035461425781 193.37107849121094 307.28350830078125 191.95488739013672 Q 310.4634704589844 190.5386962890625 312.6495056152344 189.599365234375 Q 314.8355407714844 188.6600341796875 316.19140625 188.11424255371094 Q 317.5472717285156 187.56845092773438 318.9031219482422 187.2955551147461 Q 320.25897216796875 187.0226593017578 322.0083923339844 187.0226593017578 Q 323.7578125 187.0226593017578 324.1772003173828 187.0226593017578 Q 324.5965881347656 187.0226593017578 325.1739807128906 188.75482940673828 Q 325.7513732910156 190.48699951171875 326.12481689453125 194.22423553466797 Q 326.4982604980469 197.9614715576172 326.4982604980469 202.93965911865234 Q 326.4982604980469 207.9178466796875 326.4982604980469 213.57971954345703 Q 326.4982604980469 219.24159240722656 326.4982604980469 225.59288024902344 Q 326.4982604980469 231.9441680908203 325.5445556640625 239.0940399169922 Q 324.5908508300781 246.24391174316406 323.46766662597656 249.98114776611328 Q 322.344482421875 253.7183837890625 320.0665283203125 260.0926513671875 Q 317.78857421875 266.4669189453125 316.04490661621094 272.1287841796875 Q 314.3012390136719 277.7906494140625 312.1209411621094 283.01588439941406 Q 309.9406433105469 288.2411193847656 309.3948516845703 289.59698486328125 Q 308.84906005859375 290.9528503417969 307.5161895751953 293.61573791503906 Q 306.1833190917969 296.27862548828125 305.5570983886719 298.46466064453125 Q 304.9308776855469 300.65069580078125 304.4339141845703 301.6388702392578 Q 303.93695068359375 302.6270446777344 303.6841583251953 303.62957763671875 Q 303.4313659667969 304.6321105957031 303.4313659667969 305.051513671875 Q 303.4313659667969 305.4709167480469 303.4313659667969 306.0770263671875 Q 303.4313659667969 306.6831359863281 304.12078857421875 307.1025390625 Q 304.8102111816406 307.5219421386719 305.4996337890625 307.5219421386719 Q 306.1890563964844 307.5219421386719 306.87847900390625 307.5219421386719 Q 307.5679016113281 307.5219421386719 307.9873046875 307.7316436767578 Q 308.4067077636719 307.94134521484375 308.8260955810547 307.94134521484375 Q 309.2454833984375 307.94134521484375 309.43507385253906 308.1309356689453 Q 309.6246643066406 308.3205261230469 309.81138610839844 308.5072326660156 Q 309.99810791015625 308.6939392089844 310.2078094482422 309.11334228515625 Q 310.4175109863281 309.5327453613281 310.4175109863281 310.5209197998047 Q 310.4175109863281 311.50909423828125 310.4175109863281 312.1985168457031 Q 310.4175109863281 312.887939453125 310.4175109863281 314.63734436035156 Q 310.4175109863281 316.3867492675781 310.4175109863281 317.38352966308594 Q 310.4175109863281 318.38031005859375 310.4175109863281 319.7361755371094 Q 310.4175109863281 321.092041015625 310.4175109863281 322.84144592285156 Q 310.4175109863281 324.5908508300781 310.4175109863281 326.7768859863281 Q 310.4175109863281 328.9629211425781 310.7076416015625 330.70945739746094 Q 310.9977722167969 332.45599365234375 312.5575866699219 334.01580810546875 Q 314.1174011230469 335.57562255859375 316.4470672607422 336.90562438964844 Q 318.7767333984375 338.2356262207031 321.4396209716797 339.232421875 Q 324.1025085449219 340.2292175292969 327.28245544433594 341.28919982910156 Q 330.46240234375 342.34918212890625 333.6423645019531 342.7025146484375 Q 336.82232666015625 343.05584716796875 338.5717315673828 343.3459777832031 Q 340.3211364746094 343.6361083984375 342.5071716308594 343.6361083984375 Q 344.6932067871094 343.6361083984375 346.44261169433594 343.6361083984375 Q 348.1920166015625 343.6361083984375 349.5478820800781 343.6361083984375 Q 350.90374755859375 343.6361083984375 351.9062805175781 343.6361083984375 Q 352.9088134765625 343.6361083984375 352.9088134765625 342.2773742675781 Q 352.9088134765625 340.91864013671875 353.2506561279297 340.91864013671875 Q 353.5924987792969 340.91864013671875 358.57069396972656 339.67193603515625 Q 363.54888916015625 338.42523193359375 369.74505615234375 336.65284729003906 Q 375.94122314453125 334.8804626464844 383.0910949707031 332.9730682373047 Q 390.240966796875 331.065673828125 397.9883270263672 329.1266632080078 Q 405.7356872558594 327.1876525878906 413.6927490234375 325.69390869140625 Q 421.6498107910156 324.2001647949219 428.7996826171875 322.7696228027344 Q 435.9495544433594 321.3390808105469 443.09080505371094 319.4316864013672 Q 450.2320556640625 317.5242919921875 455.88818359375 316.2172546386719 Q 461.5443115234375 314.91021728515625 465.2815399169922 314.1604766845703 Q 469.0187683105469 313.4107360839844 472.19873046875 312.34788513183594 Q 475.3786926269531 311.2850341796875 480.3568878173828 310.038330078125 Q 485.3350830078125 308.7916259765625 489.0723114013672 307.66844177246094 Q 492.8095397949219 306.5452575683594 494.55320739746094 306.25225830078125 Q 496.296875 305.9592590332031 497.2994079589844 305.45655822753906 Q 498.30194091796875 304.953857421875 498.9913635253906 304.72117614746094 Q 499.6807861328125 304.4884948730469 497.01214599609375 304.4884948730469 Q 494.343505859375 304.4884948730469 489.7789611816406 306.9761505126953 Q 485.21441650390625 309.46380615234375 479.73927307128906 313.1119842529297 Q 474.2641296386719 316.7601623535156 470.71360778808594 319.5207214355469 Q 467.1630859375 322.2812805175781 462.53822326660156 325.6422119140625 Q 457.9133605957031 329.0031433105469 455.9140319824219 330.9995880126953 Q 453.9147033691406 332.99603271484375 450.9214782714844 335.6129608154297 Q 447.9282531738281 338.2298889160156 445.9289245605469 340.22633361816406 Q 443.9295959472656 342.2227783203125 442.7604522705078 343.6820526123047 Q 441.59130859375 345.1413269042969 441.08860778808594 346.14385986328125 Q 440.5859069824219 347.1463928222656 440.3733367919922 347.5657958984375 Q 440.1607666015625 347.9851989746094 440.1607666015625 348.67462158203125 Q 440.1607666015625 349.3640441894531 441.1518096923828 349.3640441894531 Q 442.1428527832031 349.3640441894531 445.8800964355469 349.3640441894531 Q 449.6173400878906 349.3640441894531 454.5265808105469 348.95326232910156 Q 459.4358215332031 348.54248046875 464.6610565185547 345.9284210205078 Q 469.88629150390625 343.3143615722656 476.04225158691406 339.5225524902344 Q 482.1982116699219 335.7307434082031 488.3943786621094 331.9159393310547 Q 494.5905456542969 328.10113525390625 497.0638427734375 325.6249694824219 Q 499.5371398925781 323.1488037109375 503.68516540527344 319.8280944824219 Q 507.83319091796875 316.50738525390625 509.39300537109375 314.631591796875 Q 510.95281982421875 312.75579833984375 513.4261169433594 310.63294982910156 Q 515.8994140625 308.5101013183594 517.4563598632812 306.6371765136719 Q 519.0133056640625 304.7642517089844 520.1795654296875 303.30210876464844 Q 521.3458251953125 301.8399658203125 521.8054504394531 301.1476745605469 Q 522.2650756835938 300.45538330078125 522.4747619628906 300.0331115722656 Q 522.6844482421875 299.61083984375 522.8711547851562 299.42124938964844 Q 523.057861328125 299.2316589355469 523.500244140625 300.58750915527344 Q 523.942626953125 301.943359375 525.1089172363281 303.4026336669922 Q 526.2752075195312 304.8619079589844 529.4292907714844 308.0160217285156 Q 532.5833740234375 311.1701354980469 534.456298828125 312.4197082519531 Q 536.3292236328125 313.6692810058594 540.2675476074219 316.0305480957031 Q 544.2058715820312 318.3918151855469 550.87890625 321.7268829345703 Q 557.5519409179688 325.06195068359375 563.1218872070312 326.7740173339844 Q 568.6918334960938 328.486083984375 576.6488952636719 329.47999572753906 Q 584.60595703125 330.4739074707031 592.36767578125 330.9564971923828 Q 600.12939453125 331.4390869140625 609.8272399902344 331.4390869140625 Q 619.5250854492188 331.4390869140625 628.2749938964844 331.4390869140625 Q 637.02490234375 331.4390869140625 645.8322448730469 330.40208435058594 Q 654.6395874023438 329.3650817871094 658.3768310546875 328.2418975830078 Q 662.1140747070312 327.11871337890625 668.787109375 324.25762939453125 Q 675.4601440429688 321.39654541015625 680.6853637695312 318.78248596191406 Q 685.9105834960938 316.1684265136719 690.0011596679688 313.3015899658203 Q 694.0917358398438 310.43475341796875 698.8573608398438 304.7125549316406 L 703.6239858398437 298.9893564453125" stroke-linecap="round" />
</g>
</svg>