<?xml version="1.0" encoding="UTF-8" standalone="no" ?>
<!DOCTYPE svg PUBLIC "-//W3C//DTD SVG 1.1//EN" "http://www.w3.org/Graphics/SVG/1.1/DTD/svg11.dtd">
<svg xmlns="http://www.w3.org/2000/svg" xmlns:xlink="http://www.w3.org/1999/xlink" version="1.1" width="980" height="551" viewBox="0 0 980 551" xml:space="preserve">
<desc>Created with Fabric.js 3.5.0</desc>
<defs>
</defs>
<g transform="matrix(1 0 0 1 448.68 223.81)"  >
<circle style="stroke: none; stroke-width: 1; stroke-dasharray: none; stroke-linecap: butt; stroke-dashoffset: 0; stroke-linejoin: miter; stroke-miterlimit: 4; fill: rgb(11,97,164); fill-rule: nonzero; opacity: 1;"  cx="0" cy="0" r="20" />
</g>
<g transform="matrix(1 0 0 1 380.96 321.77)"  >
<rect style="stroke: none; stroke-width: 1; stroke-dasharray: none; stroke-linecap: butt; stroke-dashoffset: 0; stroke-linejoin: miter; stroke-miterlimit: 4; fill: rgb(11,97,164); fill-rule: nonzero; opacity: 1;"  x="-20" y="-20" rx="0" ry="0" width="40" height="40" />
</g>
<g transform="matrix(1 0 0 1 248.49 348.14)"  >
<rect style="stroke: none; stroke-width: 1; stroke-dasharray: none; stroke-linecap: butt; stroke-dashoffset: 0; stroke-linejoin: miter; stroke-miterlimit: 4; fill: rgb(11,97,164); fill-rule: nonzero; opacity: 1;"  x="-20" y="-20" rx="0" ry="0" width="40" height="40" />
</g>
<g transform="matrix(1 0 0 1 455.68 227.88)"  >
<path style="stroke: rgb(0,0,0); stroke-width: 1; stroke-dasharray: none; stroke-linecap: round; stroke-dashoffset: 0; stroke-linejoin: round; stroke-miterlimit: 10; fill: none; fill-rule: nonzero; opacity: 1;"  transform=" translate(-455.68, -227.88)" d="M 593.0609130859375 209.4037393798828 Q 593.0609130859375 209.4047393798828 591.2846069335938 206.01567840576172 Q 589.50830078125 202.62661743164062 589.50830078125 202.96810150146484 Q 589.50830078125 203.30958557128906 589.50830078125 205.49340057373047 Q 589.50830078125 207.67721557617188 590.62744140625 211.41063690185547 Q 591.74658203125 215.14405822753906 593.9217834472656 220.3639678955078 Q 596.0969848632812 225.58387756347656 598.7055053710938 230.8037872314453 Q 601.3140258789062 236.02369689941406 605.5984497070312 242.21355438232422 Q 609.8828735351562 248.40341186523438 613.4814147949219 253.80410766601562 Q 617.0799560546875 259.2048034667969 621.636962890625 264.2180938720703 Q 626.1939697265625 269.23138427734375 627.752197265625 271.10240173339844 Q 629.3104248046875 272.9734191894531 633.0409851074219 276.7039794921875 Q 636.7715454101562 280.4345397949219 637.7730712890625 280.93385314941406 Q 638.7745971679688 281.43316650390625 641.1018676757812 283.09471130371094 Q 643.4291381835938 284.7562561035156 644.7836303710938 285.568359375 Q 646.1381225585938 286.3804626464844 646.8899841308594 287.13232421875 Q 647.641845703125 287.8841857910156 648.33056640625 287.8841857910156 Q 649.019287109375 287.8841857910156 649.2086791992188 287.3274688720703 Q 649.3980712890625 286.770751953125 649.3980712890625 286.3489074707031 Q 649.3980712890625 285.92706298828125 645.2657470703125 283.0344543457031 Q 641.1334228515625 280.141845703125 637.7702026367188 278.27369689941406 Q 634.406982421875 276.4055480957031 629.1842041015625 273.35797119140625 Q 623.96142578125 270.3103942871094 617.2923278808594 266.97584533691406 Q 610.6232299804688 263.64129638671875 602.3414001464844 260.53346252441406 Q 594.0595703125 257.4256286621094 577.9808654785156 251.3936004638672 Q 561.9021606445312 245.361572265625 554.7567138671875 243.45611572265625 Q 547.6112670898438 241.5506591796875 533.9488220214844 238.44568634033203 Q 520.286376953125 235.34071350097656 498.05799865722656 229.97445678710938 Q 475.8296203613281 224.6082000732422 468.6841583251953 223.6554718017578 Q 461.5386962890625 222.70274353027344 447.94512939453125 220.22909545898438 Q 434.3515625 217.7554473876953 420.6891174316406 215.89017486572266 Q 407.02667236328125 214.02490234375 395.5078582763672 211.72056579589844 Q 383.9890441894531 209.41622924804688 372.3956298828125 207.09754180908203 Q 360.8022155761719 204.7788543701172 355.8262176513672 203.1201934814453 Q 350.8502197265625 201.46153259277344 336.3096618652344 197.66783905029297 Q 321.76910400390625 193.8741455078125 318.0328063964844 192.37905883789062 Q 314.2965087890625 190.88397216796875 307.62742614746094 188.02578735351562 Q 300.9583435058594 185.1676025390625 295.0325012207031 182.4328155517578 Q 289.1066589355469 179.69802856445312 283.8838806152344 177.51995849609375 Q 278.6611022949219 175.34188842773438 276.9105987548828 174.46664428710938 Q 275.16009521484375 173.59140014648438 272.49705505371094 172.25988006591797 Q 269.8340148925781 170.92835998535156 267.6473388671875 169.98998260498047 Q 265.4606628417969 169.05160522460938 263.7101745605469 168.46619415283203 L 261.9586862792969 167.87978308105468" stroke-linecap="round" />
</g>
<g transform="matrix(1 0 0 1 491.57 259.24)"  >
<path style="stroke: rgb(0,0,0); stroke-width: 1; stroke-dasharray: none; stroke-linecap: round; stroke-dashoffset: 0; stroke-linejoin: round; stroke-miterlimit: 10; fill: none; fill-rule: nonzero; opacity: 1;"  transform=" translate(-491.57, -259.24)" d="M 253.86049597167968 144.0865712890625 Q 253.8614959716797 144.0855712890625 253.8614959716797 143.66947174072266 Q 253.8614959716797 143.2533721923828 255.48572540283203 143.04962158203125 Q 257.1099548339844 142.8458709716797 261.4431457519531 142.0567169189453 Q 265.7763366699219 141.26756286621094 273.72528076171875 139.7753448486328 Q 281.6742248535156 138.2831268310547 290.47259521484375 137.24717712402344 Q 299.2709655761719 136.2112274169922 303.00439453125 136.2112274169922 Q 306.7378234863281 136.2112274169922 310.47125244140625 136.2112274169922 Q 314.2046813964844 136.2112274169922 328.8772430419922 136.2112274169922 Q 343.5498046875 136.2112274169922 345.73362731933594 136.2112274169922 Q 347.9174499511719 136.2112274169922 354.29669189453125 136.2112274169922 Q 360.6759338378906 136.2112274169922 365.64906311035156 136.2112274169922 Q 370.6221923828125 136.2112274169922 374.9438934326172 136.2112274169922 Q 379.2655944824219 136.2112274169922 381.92576599121094 136.2112274169922 Q 384.5859375 136.2112274169922 387.24610900878906 136.2112274169922 Q 389.9062805175781 136.2112274169922 391.26075744628906 136.48097229003906 Q 392.615234375 136.75071716308594 393.69996643066406 137.83544921875 Q 394.7846984863281 138.92018127441406 395.84361267089844 142.09689331054688 Q 396.90252685546875 145.2736053466797 396.90252685546875 148.4503173828125 Q 396.90252685546875 151.6270294189453 396.90252685546875 160.42540740966797 Q 396.90252685546875 169.22378540039062 395.4734344482422 176.36636352539062 Q 394.0443420410156 183.50894165039062 387.66795349121094 193.36048126220703 Q 381.29156494140625 203.21202087402344 374.33551025390625 212.48388671875 Q 367.37945556640625 221.75575256347656 363.6460266113281 225.48631286621094 Q 359.91259765625 229.2168731689453 357.79193115234375 231.6876449584961 Q 355.6712646484375 234.15841674804688 353.79737854003906 235.71664428710938 Q 351.9234924316406 237.27487182617188 349.3063507080078 240.2621841430664 Q 346.689208984375 243.24949645996094 344.6919403076172 245.24391174316406 Q 342.6946716308594 247.2383270263672 341.6099395751953 248.04756927490234 Q 340.52520751953125 248.8568115234375 339.8336181640625 249.31595611572266 Q 339.14202880859375 249.7751007080078 338.7201843261719 249.7751007080078 Q 338.29833984375 249.7751007080078 338.48773193359375 249.39344024658203 Q 338.6771240234375 249.01177978515625 344.390625 244.7245101928711 Q 350.1041259765625 240.43724060058594 358.3830871582031 236.29631805419922 Q 366.66204833984375 232.1553955078125 377.09326171875 226.3586883544922 Q 387.52447509765625 220.56198120117188 402.0966033935547 213.9359359741211 Q 416.6687316894531 207.3098907470703 433.0659637451172 201.16020965576172 Q 449.46319580078125 195.01052856445312 457.7421569824219 191.90269470214844 Q 466.0211181640625 188.79486083984375 481.0495147705078 184.2177505493164 Q 496.0779113769531 179.64064025878906 510.83656311035156 175.78955841064453 Q 525.59521484375 171.9384765625 530.5683288574219 171.10914611816406 Q 535.5414428710938 170.27981567382812 546.1276245117188 168.0500946044922 Q 556.7138061523438 165.82037353515625 559.3739929199219 165.48748779296875 Q 562.0341796875 165.15460205078125 567.6902770996094 164.71841430664062 Q 573.3463745117188 164.2822265625 576.5230712890625 163.9263916015625 Q 579.6997680664062 163.570556640625 583.9870300292969 163.570556640625 Q 588.2742919921875 163.570556640625 589.6287841796875 163.570556640625 Q 590.9832763671875 163.570556640625 592.3119201660156 165.8978500366211 Q 593.6405639648438 168.2251434326172 593.6405639648438 172.5583267211914 Q 593.6405639648438 176.89151000976562 593.6405639648438 186.57947540283203 Q 593.6405639648438 196.26744079589844 592.085205078125 205.0658187866211 Q 590.5298461914062 213.86419677734375 587.6716918945312 220.53041076660156 Q 584.8135375976562 227.19662475585938 579.4099426269531 239.20040893554688 Q 574.00634765625 251.20419311523438 568.7893371582031 261.6354064941406 Q 563.5723266601562 272.0666198730469 561.6008605957031 276.00665283203125 Q 559.62939453125 279.9466857910156 557.8616943359375 282.7704315185547 Q 556.093994140625 285.59417724609375 554.0192260742188 290.15406799316406 Q 551.9444580078125 294.7139587402344 550.0762939453125 298.07432556152344 Q 548.2081298828125 301.4346923828125 547.2755126953125 303.6041564941406 Q 546.3428955078125 305.77362060546875 546.0903625488281 306.77513122558594 Q 545.8378295898438 307.7766418457031 545.8378295898438 309.13111877441406 Q 545.8378295898438 310.485595703125 550.1709899902344 311.0681457519531 Q 554.504150390625 311.65069580078125 560.8002014160156 311.65069580078125 Q 567.0962524414062 311.65069580078125 575.8946228027344 311.65069580078125 Q 584.6929931640625 311.65069580078125 594.3809509277344 311.65069580078125 Q 604.0689086914062 311.65069580078125 615.6594543457031 311.65069580078125 Q 627.25 311.65069580078125 639.8535461425781 311.65069580078125 Q 652.4570922851562 311.65069580078125 663.0748291015625 311.65069580078125 Q 673.6925659179688 311.65069580078125 678.6656799316406 311.65069580078125 Q 683.6387939453125 311.65069580078125 692.4371948242188 311.65069580078125 Q 701.235595703125 311.65069580078125 703.895751953125 311.65069580078125 Q 706.555908203125 311.65069580078125 710.8890991210938 311.65069580078125 Q 715.2222900390625 311.65069580078125 718.3989868164062 311.65069580078125 Q 721.57568359375 311.65069580078125 723.3233337402344 311.65069580078125 Q 725.0709838867188 311.65069580078125 726.0724792480469 311.65069580078125 Q 727.073974609375 311.65069580078125 727.7626953125 311.65069580078125 Q 728.451416015625 311.65069580078125 728.8703918457031 311.8601837158203 Q 729.2893676757812 312.0696716308594 729.2893676757812 313.8172912597656 Q 729.2893676757812 315.5649108886719 729.2893676757812 319.29833984375 Q 729.2893676757812 323.0317687988281 729.2893676757812 328.57020568847656 Q 729.2893676757812 334.108642578125 729.2893676757812 341.251220703125 Q 729.2893676757812 348.393798828125 729.2893676757812 352.72698974609375 Q 729.2893676757812 357.0601806640625 729.2893676757812 369.66371154785156 L 729.2893676757812 382.2682424316406" stroke-linecap="round" />
</g>
</svg>