<?xml version="1.0" encoding="UTF-8" standalone="no" ?>
<!DOCTYPE svg PUBLIC "-//W3C//DTD SVG 1.1//EN" "http://www.w3.org/Graphics/SVG/1.1/DTD/svg11.dtd">
<svg xmlns="http://www.w3.org/2000/svg" xmlns:xlink="http://www.w3.org/1999/xlink" version="1.1" width="981" height="2125" viewBox="0 0 981 2125" xml:space="preserve">
<desc>Created with Fabric.js 3.5.0</desc>
<defs>
</defs>
<g transform="matrix(1 0 0 1 564.14 158.37)"  >
<path style="stroke: rgb(0,0,0); stroke-width: 1; stroke-dasharray: none; stroke-linecap: round; stroke-dashoffset: 0; stroke-linejoin: round; stroke-miterlimit: 10; fill: none; fill-rule: nonzero; opacity: 1;"  transform=" translate(-564.14, -158.37)" d="M 521.8234487304687 79.41001892089844 Q 521.8224487304688 79.41001892089844 521.3840026855469 79.41001892089844 Q 520.945556640625 79.41001892089844 520.1205444335938 79.41001892089844 Q 519.2955322265625 79.41001892089844 518.4704895019531 79.41001892089844 Q 517.6454467773438 79.41001892089844 516.7520751953125 80.3010482788086 Q 515.8587036132812 81.19207763671875 515.1892395019531 82.0831069946289 Q 514.519775390625 82.97413635253906 513.8550415039062 83.85809326171875 Q 513.1903076171875 84.74205017089844 512.9828796386719 85.5647201538086 Q 512.7754516601562 86.38739013671875 512.7754516601562 87.36563873291016 Q 512.7754516601562 88.34388732910156 512.7754516601562 89.77943420410156 Q 512.7754516601562 91.21498107910156 512.7754516601562 91.55913162231445 Q 512.7754516601562 91.90328216552734 512.7754516601562 92.7259521484375 Q 512.7754516601562 93.54862213134766 513.8880615234375 93.99413681030273 Q 515.0006713867188 94.43965148925781 520.2407836914062 94.81209182739258 Q 525.4808959960938 95.18453216552734 528.9507141113281 95.18453216552734 Q 532.4205322265625 95.18453216552734 539.6477661132812 95.18453216552734 Q 546.875 95.18453216552734 554.1022338867188 95.18453216552734 Q 561.3294677734375 95.18453216552734 569.2874450683594 95.18453216552734 Q 577.2454223632812 95.18453216552734 579.4305725097656 95.18453216552734 Q 581.61572265625 95.18453216552734 587.4828186035156 95.18453216552734 Q 593.3499145507812 95.18453216552734 597.4349975585938 95.18453216552734 Q 601.5200805664062 95.18453216552734 604.5868225097656 94.87573623657227 Q 607.653564453125 94.56694030761719 609.5652465820312 93.19975280761719 Q 611.4769287109375 91.83256530761719 613.0138549804688 90.55023956298828 Q 614.55078125 89.26791381835938 615.029296875 87.83000946044922 Q 615.5078125 86.39210510253906 615.5078125 84.59590530395508 Q 615.5078125 82.7997055053711 615.5078125 81.00350189208984 Q 615.5078125 79.2072982788086 615.5078125 77.76939392089844 Q 615.5078125 76.33148956298828 612.63671875 74.09684753417969 Q 609.765625 71.8622055053711 606.696533203125 70.94053268432617 Q 603.62744140625 70.01885986328125 599.6036682128906 70.01885986328125 Q 595.5798950195312 70.01885986328125 590.3374328613281 70.01885986328125 Q 585.094970703125 70.01885986328125 579.8525085449219 70.01885986328125 Q 574.6100463867188 70.01885986328125 569.5231628417969 73.14688873291016 Q 564.436279296875 76.27491760253906 559.3493957519531 79.79424667358398 Q 554.2625122070312 83.3135757446289 549.9582214355469 87.6155014038086 Q 545.6539306640625 91.91742706298828 544.4918212890625 94.52687072753906 Q 543.3297119140625 97.13631439208984 539.3766784667969 104.1584701538086 Q 535.4236450195312 111.18062591552734 534.6740417480469 116.42072677612305 Q 533.9244384765625 121.66082763671875 533.9244384765625 126.90092468261719 Q 533.9244384765625 132.14102172851562 534.2803649902344 136.78710174560547 Q 534.6362915039062 141.4331817626953 537.9010620117188 147.14708709716797 Q 541.1658325195312 152.86099243164062 545.0764465332031 157.55421447753906 Q 548.987060546875 162.2474365234375 554.5123901367188 166.92416381835938 Q 560.0377197265625 171.60089111328125 565.7516174316406 175.2734375 Q 571.4655151367188 178.94598388671875 574.074951171875 180.1057357788086 Q 576.6843872070312 181.26548767089844 580.97216796875 183.408203125 Q 585.2599487304688 185.55091857910156 586.6954956054688 186.02943420410156 Q 588.1310424804688 186.50794982910156 591.1977844238281 187.1208267211914 Q 594.2645263671875 187.73370361328125 598.349609375 188.0731430053711 Q 602.4346923828125 188.41258239746094 604.228515625 188.41258239746094 Q 606.0223388671875 188.41258239746094 607.1349487304688 188.41258239746094 Q 608.24755859375 188.41258239746094 608.4196472167969 188.06607055664062 Q 608.5917358398438 187.7195587158203 609.2093200683594 187.099609375 Q 609.826904296875 186.4796600341797 610.2040710449219 185.91156768798828 Q 610.5812377929688 185.34347534179688 610.73681640625 185.185546875 Q 610.8923950195312 185.02761840820312 611.0479431152344 184.86968231201172 Q 611.2034912109375 184.7117462158203 611.2034912109375 185.40241241455078 Q 611.2034912109375 186.09307861328125 611.2034912109375 189.15982055664062 Q 611.2034912109375 192.2265625 609.8410339355469 196.3116226196289 Q 608.4785766601562 200.3966827392578 606.9793701171875 205.63677978515625 Q 605.4801635742188 210.8768768310547 604.5585021972656 213.9436264038086 Q 603.6368408203125 217.0103759765625 601.8477172851562 221.29815673828125 Q 600.05859375 225.5859375 599.2877807617188 227.3797836303711 Q 598.5169677734375 229.1736297607422 597.3548583984375 231.78306579589844 Q 596.1927490234375 234.3925018310547 595.0306396484375 237.00194549560547 Q 593.8685302734375 239.61138916015625 592.5862121582031 241.14830017089844 Q 591.3038940429688 242.68521118164062 589.5713195800781 244.70298767089844 L 587.8377451171875 246.72176416015625" stroke-linecap="round" />
</g>
<g transform="matrix(1 0 0 1 405.89 272.86)"  >
<path style="stroke: rgb(0,0,0); stroke-width: 1; stroke-dasharray: none; stroke-linecap: round; stroke-dashoffset: 0; stroke-linejoin: round; stroke-miterlimit: 10; fill: none; fill-rule: nonzero; opacity: 1;"  transform=" translate(-405.89, -272.86)" d="M 405.8933786621094 272.8623352050781 L 405.89537866210935 272.8623352050781" stroke-linecap="round" />
</g>
</svg>