<svg xmlns="http://www.w3.org/2000/svg" xmlns:xlink="http://www.w3.org/1999/xlink" width="86.5547" height="86.5551" viewBox="0 0 86.5547 86.5551"><defs><style>.a{fill:url(#a);}.b{fill:#562912;}</style><linearGradient id="a" x1="43.2773" y1="-9.257" x2="43.2773" y2="78.8466" gradientUnits="userSpaceOnUse"><stop offset="0" stop-color="#2a97ff"/><stop offset="0.468" stop-color="#75bebe"/><stop offset="0.7635" stop-color="#d9ca34"/><stop offset="1" stop-color="#ffce00"/></linearGradient></defs><title>Asset 2</title><path class="a" d="M86.5547,43.2793A43.2774,43.2774,0,1,1,43.2783,0,43.2725,43.2725,0,0,1,86.5547,43.2793Z"/><path class="b" d="M16.8936,28.7451a1.4109,1.4109,0,0,1-.919-2.4824,18.19,18.19,0,0,1,10.124-4.275,1.4115,1.4115,0,0,1,.253,2.8116,15.3335,15.3335,0,0,0-8.54,3.6045A1.3988,1.3988,0,0,1,16.8936,28.7451Z"/><path class="b" d="M69.1729,28.7451a1.4016,1.4016,0,0,1-.919-.3413,15.3448,15.3448,0,0,0-8.5429-3.6045,1.4123,1.4123,0,0,1-1.2793-1.5323,1.395,1.395,0,0,1,1.5341-1.2793,18.1952,18.1952,0,0,1,10.126,4.275,1.4122,1.4122,0,0,1-.9189,2.4824Z"/><path class="b" d="M55.9785,68.3325c1.1231.2275,1.8975-1.4473,1.1485-2.5449a17.1284,17.1284,0,0,0-14.0938-7.94c-5.7256,0-10.8144,3.1065-14.0957,7.9405-.7451,1.0976.0254,2.7724,1.1524,2.5449a64.9733,64.9733,0,0,1,12.9433-1.2432A64.9939,64.9939,0,0,1,55.9785,68.3325Z"/><path class="b" d="M27.5909,48.006a2.1113,2.1113,0,0,1-1.4961-.62L15.8268,37.1168A2.1168,2.1168,0,0,1,18.82,34.1231l10.2676,10.27a2.1165,2.1165,0,0,1-1.4971,3.6133Z"/><path class="b" d="M17.3234,48.006a2.1165,2.1165,0,0,1-1.4966-3.6133l10.268-10.27a2.1167,2.1167,0,0,1,2.9932,2.9937L18.82,47.3863A2.1142,2.1142,0,0,1,17.3234,48.006Z"/><path class="b" d="M68.2609,48.006a2.1116,2.1116,0,0,1-1.4966-.62L56.4967,37.1168a2.1165,2.1165,0,0,1,2.9927-2.9937l10.268,10.27a2.1165,2.1165,0,0,1-1.4965,3.6133Z"/><path class="b" d="M57.9928,48.006a2.1165,2.1165,0,0,1-1.4961-3.6133l10.2676-10.27a2.1167,2.1167,0,0,1,2.9931,2.9937l-10.268,10.27A2.1116,2.1116,0,0,1,57.9928,48.006Z"/></svg>