<svg xmlns="http://www.w3.org/2000/svg" width="86.5557" height="86.5547" viewBox="0 0 86.5557 86.5547"><defs><style>.a{fill:#ffce00;}.b{fill:#562912;}.c{fill:#fff;}.d{fill:#61c0eb;}</style></defs><title>Asset 42</title><path class="a" d="M86.5557,43.2773A43.2779,43.2779,0,1,1,43.2773,0,43.2777,43.2777,0,0,1,86.5557,43.2773Z"/><path class="b" d="M70.6943,40.0849a.6812.6812,0,0,0,1.041-.5673v-.0127a5.7178,5.7178,0,0,0-11.4355,0v.0127a.6806.6806,0,0,0,1.04.5673,8.9,8.9,0,0,1,9.3545,0Z"/><path class="b" d="M28.4717,40.0849a.6814.6814,0,0,0,1.041-.5673v-.0127a5.7183,5.7183,0,0,0-11.4365,0v.0127a.6813.6813,0,0,0,1.041.5673,8.9,8.9,0,0,1,9.3545,0Z"/><path class="b" d="M68.8623,27.2627a9.2206,9.2206,0,0,1-9.3584-7.0694,1.4106,1.4106,0,0,1,2.7568-.6c.14.6045,1.5274,5.7705,8.3614,4.7032a1.4113,1.4113,0,0,1,.4336,2.789A14.3437,14.3437,0,0,1,68.8623,27.2627Z"/><path class="b" d="M20.9482,27.2627a14.3088,14.3088,0,0,1-2.1914-.1768,1.4112,1.4112,0,1,1,.4326-2.789c7.0323,1.0849,8.31-4.461,8.36-4.6993a1.4117,1.4117,0,0,1,2.76.5957A9.2262,9.2262,0,0,1,20.9482,27.2627Z"/><path class="b" d="M30.3779,46.8769a4.0439,4.0439,0,0,0-5.1513,3.8184v.0586c0,11.2734,8.3554,20.417,18.6611,20.417s18.6611-9.1436,18.6611-20.417v-.0586a4.0444,4.0444,0,0,0-5.1523-3.8184,51.316,51.316,0,0,1-13.5088,1.68A51.3237,51.3237,0,0,1,30.3779,46.8769Z"/><path class="c" d="M43.8877,71.1709a17.4024,17.4024,0,0,0,9.9795-3.1865h-19.96A17.4056,17.4056,0,0,0,43.8877,71.1709Z"/><path class="d" d="M82.6836,43.4482a6.12,6.12,0,0,1,2.8144,3.3877,3.7155,3.7155,0,0,1-1.0966,4.0889,3.6581,3.6581,0,0,1-3.8252.0635c-1.9219-1.0528-3.1563-3.4727-3.8916-5.4551a8.04,8.04,0,0,0-2.7383-3.75.3566.3566,0,0,1,.251-.6426C76.8984,41.4717,80.2725,41.9775,82.6836,43.4482Z"/></svg>