<svg xmlns="http://www.w3.org/2000/svg" width="86.5552" height="86.5557" viewBox="0 0 86.5552 86.5557"><defs><style>.a{fill:#ffce00;}.b{fill:#562912;}.c{fill:#cc342f;}</style></defs><title>Asset 57</title><path class="a" d="M86.5552,43.2774A43.2776,43.2776,0,1,1,43.2769,0,43.2772,43.2772,0,0,1,86.5552,43.2774Z"/><path class="b" d="M71.8872,37.6983a.6783.6783,0,0,0,1.0372-.565v-.0127a5.7161,5.7161,0,1,0-11.4322,0v.0127a.68.68,0,0,0,1.0406.565,8.9165,8.9165,0,0,1,9.3544,0Z"/><path class="b" d="M24.022,37.6983a.6812.6812,0,0,0,1.041-.565v-.0127a5.7178,5.7178,0,0,0-11.4355,0v.0127a.6806.6806,0,0,0,1.041.565,8.9149,8.9149,0,0,1,9.3535,0Z"/><path class="b" d="M21.148,49.834a2.5662,2.5662,0,0,0-1.6328,3.3325C22.74,61.3228,32.1861,68.1944,43.2779,68.1944c11.0879,0,20.5376-6.8716,23.7617-15.0279a2.5691,2.5691,0,0,0-1.6328-3.3325C52.0391,45.3116,34.5147,45.3116,21.148,49.834Z"/><path class="c" d="M31.3746,65.4029a26.7733,26.7733,0,0,0,23.8061,0,19.8829,19.8829,0,0,0-23.8061,0Z"/></svg>