<svg xmlns="http://www.w3.org/2000/svg" xmlns:xlink="http://www.w3.org/1999/xlink" width="86.5557" height="86.5566" viewBox="0 0 86.5557 86.5566"><defs><style>.a{fill:url(#a);}.b{fill:#562912;}.c{fill:#61c0eb;}</style><linearGradient id="a" x1="43.2778" y1="-9.2571" x2="43.2778" y2="78.848" gradientUnits="userSpaceOnUse"><stop offset="0" stop-color="#2a97ff"/><stop offset="0.5222" stop-color="#75bebe"/><stop offset="0.8079" stop-color="#f6cd0c"/><stop offset="1" stop-color="#ffce00"/></linearGradient></defs><title>Asset 47</title><path class="a" d="M86.5557,43.2793A43.2779,43.2779,0,1,1,43.2774,0,43.2767,43.2767,0,0,1,86.5557,43.2793Z"/><path class="b" d="M30.1284,44.4736c0,3.4844-1.9912,6.3077-4.4463,6.3077s-4.4438-2.8233-4.4438-6.3077,1.99-6.3095,4.4438-6.3095S30.1284,40.99,30.1284,44.4736Z"/><path class="b" d="M66.1729,44.4736c0,3.4844-1.9893,6.3077-4.4429,6.3077-2.4561,0-4.4468-2.8233-4.4468-6.3077s1.9907-6.3095,4.4468-6.3095C64.1836,38.1641,66.1729,40.99,66.1729,44.4736Z"/><path class="b" d="M56.65,68.3789c1.1255.23,1.8975-1.4443,1.1509-2.543-3.28-4.8349-8.3691-7.9414-14.0952-7.9414a17.13,17.13,0,0,0-14.0948,7.9414c-.746,1.0987.0254,2.7725,1.15,2.543a65.2152,65.2152,0,0,1,12.9444-1.2422A65.2067,65.2067,0,0,1,56.65,68.3789Z"/><path class="b" d="M69.7705,33.1953a1.5017,1.5017,0,0,1-.2173-.0176A16.1991,16.1991,0,0,1,58.84,26.1436a1.4107,1.4107,0,0,1,2.4106-1.4659,13.5671,13.5671,0,0,0,8.7344,5.712,1.4111,1.4111,0,0,1-.2144,2.8056Z"/><path class="b" d="M17.64,33.1953a1.4111,1.4111,0,0,1-.2133-2.8056,13.4343,13.4343,0,0,0,8.7319-5.709,1.4112,1.4112,0,1,1,2.4136,1.4629,16.2065,16.2065,0,0,1-10.7144,7.0341A1.5016,1.5016,0,0,1,17.64,33.1953Z"/><path class="c" d="M25.6821,64.5557a6.1333,6.1333,0,1,1-12.2666,0c0-2.5909,3.585-8.7354,5.2735-11.4854a1.0076,1.0076,0,0,1,1.7192,0C22.0962,55.82,25.6821,61.9648,25.6821,64.5557Z"/></svg>