<svg xmlns="http://www.w3.org/2000/svg" width="86.5557" height="86.5552" viewBox="0 0 86.5557 86.5552"><defs><style>.a{fill:#ffce00;}.b{fill:#cc342f;}.c{fill:#562912;}</style></defs><title>Asset 63</title><path class="a" d="M86.5557,43.2783A43.2779,43.2779,0,1,1,43.2773,0,43.2769,43.2769,0,0,1,86.5557,43.2783Z"/><path class="b" d="M69.7539,18.4556c-7.0586-13.4571-20.12-3.9151-17.833,6.1426,1.8057,7.9023,10.4785,19.1157,10.4785,19.1157,1.25-.44,13.335-4.8,19.1-10.5C88.832,25.9619,82.9414,10.8975,69.7539,18.4556Z"/><path class="b" d="M16.8,18.4556c7.0615-13.4571,20.1221-3.9151,17.832,6.1426C32.83,32.5005,24.1553,43.7139,24.1553,43.7139c-1.25-.44-13.335-4.8-19.0987-10.5C-2.2764,25.9619,3.6143,10.8975,16.8,18.4556Z"/><path class="c" d="M27.4756,51.9732c-1.083-.3584-2.1006.8149-1.7861,2.0683,1.86,7.3906,9.02,12.9,17.5878,12.9,8.57,0,15.73-5.5093,17.5879-12.9.3155-1.2534-.7031-2.4267-1.7861-2.0683a50.4055,50.4055,0,0,1-15.8018,2.4633A50.4231,50.4231,0,0,1,27.4756,51.9732Z"/><path class="b" d="M43.2773,59.4258A9.2112,9.2112,0,0,0,34.8428,65a19.2863,19.2863,0,0,0,16.8681,0A9.2067,9.2067,0,0,0,43.2773,59.4258Z"/></svg>