<svg xmlns="http://www.w3.org/2000/svg" width="86.5557" height="86.5557" viewBox="0 0 86.5557 86.5557"><defs><style>.a{fill:#ffce00;}.b{fill:#562912;}.c{fill:#fff;}.d{fill:#cc342f;}</style></defs><title>Asset 60</title><circle class="a" cx="43.2779" cy="43.2778" r="43.2779" transform="translate(-17.9262 43.2779) rotate(-45)"/><path class="b" d="M15.3985,29.7984a1.3874,1.3874,0,0,1-.3081-.0342,1.41,1.41,0,0,1-1.0713-1.6836,7.3224,7.3224,0,0,1,4.2861-5.2534,7.7208,7.7208,0,0,1,6.7573.1962,1.4111,1.4111,0,0,1-1.4189,2.44,4.8975,4.8975,0,0,0-4.2056-.0508,4.5048,4.5048,0,0,0-2.6641,3.2818A1.412,1.412,0,0,1,15.3985,29.7984Z"/><path class="b" d="M71.1538,29.7984a1.4122,1.4122,0,0,1-1.3759-1.1045,4.5026,4.5026,0,0,0-2.6641-3.2823,4.8977,4.8977,0,0,0-4.2046.0513,1.4106,1.4106,0,1,1-1.417-2.44,7.7079,7.7079,0,0,1,6.7534-.1962,7.3183,7.3183,0,0,1,4.2871,5.2534,1.41,1.41,0,0,1-1.0708,1.6836A1.394,1.394,0,0,1,71.1538,29.7984Z"/><path class="b" d="M28.0747,47.0318a2.1113,2.1113,0,0,1-1.4961-.62L16.3106,36.1426a2.1168,2.1168,0,0,1,2.9936-2.9937l10.2676,10.27a2.1165,2.1165,0,0,1-1.4971,3.6133Z"/><path class="b" d="M17.8072,47.0318a2.1165,2.1165,0,0,1-1.4966-3.6133l10.268-10.27a2.1167,2.1167,0,1,1,2.9932,2.9937l-10.2676,10.27A2.1142,2.1142,0,0,1,17.8072,47.0318Z"/><path class="b" d="M68.7447,47.0318a2.1116,2.1116,0,0,1-1.4966-.62L56.9805,36.1426a2.1165,2.1165,0,0,1,2.9927-2.9937l10.268,10.27a2.1165,2.1165,0,0,1-1.4965,3.6133Z"/><path class="b" d="M58.4766,47.0318a2.1165,2.1165,0,0,1-1.4961-3.6133l10.2676-10.27a2.1167,2.1167,0,1,1,2.9931,2.9937l-10.268,10.27A2.1116,2.1116,0,0,1,58.4766,47.0318Z"/><path class="c" d="M43.2764,52.2261a11.1921,11.1921,0,0,0-8.29,3.6455H51.5655A11.1923,11.1923,0,0,0,43.2764,52.2261Z"/><path class="b" d="M49.99,71.83a10.7344,10.7344,0,0,0,1.5752-15.9585H34.9863A10.7338,10.7338,0,0,0,36.5635,71.83a13.7486,13.7486,0,0,1,13.4268,0Z"/><path class="d" d="M49.99,71.83a13.7486,13.7486,0,0,0-13.4268,0,11.2539,11.2539,0,0,0,13.4268,0Z"/></svg>