<svg xmlns="http://www.w3.org/2000/svg" width="86.5556" height="86.5552" viewBox="0 0 86.5556 86.5552"><defs><style>.a{fill:#ffce00;}.b{fill:#562912;}</style></defs><title>Asset 55</title><path class="a" d="M86.5556,43.2774A43.2778,43.2778,0,1,1,43.2793,0,43.2751,43.2751,0,0,1,86.5556,43.2774Z"/><path class="b" d="M71.2031,40.2051a5.6016,5.6016,0,1,1-5.6006-5.604A5.6006,5.6006,0,0,1,71.2031,40.2051Z"/><path class="b" d="M58.2822,34.6475a1.3839,1.3839,0,0,1-.5478-.1128,1.4043,1.4043,0,0,1-.754-1.8286c.1055-.2539,2.6739-6.208,11.6866-4.5078a1.4113,1.4113,0,1,1-.5225,2.7739c-6.6787-1.2588-8.4883,2.66-8.5615,2.8276A1.4252,1.4252,0,0,1,58.2822,34.6475Z"/><path class="b" d="M27.4619,40.2051a5.6021,5.6021,0,1,1-5.6035-5.604A5.6031,5.6031,0,0,1,27.4619,40.2051Z"/><path class="b" d="M14.54,36.2774a1.375,1.375,0,0,1-.55-.1133,1.4023,1.4023,0,0,1-.7519-1.8286c.1054-.2525,2.68-6.2,11.6875-4.5073a1.4111,1.4111,0,1,1-.5225,2.7734C17.7265,31.34,15.914,35.2622,15.84,35.43A1.4278,1.4278,0,0,1,14.54,36.2774Z"/><path class="b" d="M47.9521,70.8658a2.1165,2.1165,0,0,1-.1347-4.2286,22.21,22.21,0,0,0,15.8281-8.3486,2.1168,2.1168,0,1,1,3.333,2.61,26.5107,26.5107,0,0,1-18.89,9.9624C48.0429,70.8643,47.998,70.8658,47.9521,70.8658Z"/></svg>