<svg xmlns="http://www.w3.org/2000/svg" width="87.1548" height="86.5522" viewBox="0 0 87.1548 86.5522"><defs><style>.a{fill:#ffce00;}.b{fill:#562912;}.c{fill:#cc342f;}</style></defs><title>Asset 66</title><path class="a" d="M86.5552,43.2783A43.2776,43.2776,0,1,1,43.2779,0,43.2729,43.2729,0,0,1,86.5552,43.2783Z"/><path class="b" d="M42.587,63.2182a1.3415,1.3415,0,0,1-.2334-2.6621c1.4853-.2656,4.0532-1.5263,4.5405-2.8242.1059-.2822.1509-.6494-.32-1.2353-.939-1.1729-3.4517-.0274-4.8145.9716A1.3422,1.3422,0,0,1,40.1768,55.3c2.7847-2.0352,6.4922-2.9746,8.4907-.4825a3.7727,3.7727,0,0,1,.7383,3.8575c-1.0176,2.7119-4.874,4.2177-6.5815,4.5224A1.3053,1.3053,0,0,1,42.587,63.2182Z"/><path class="b" d="M45.4014,70.43a9.3834,9.3834,0,0,1-5.2241-1.9776A1.3424,1.3424,0,0,1,41.76,66.2837c1.3657.998,3.88,2.1406,4.814.9707.4716-.5869.4262-.9541.32-1.2364-.4873-1.2988-3.0552-2.5566-4.54-2.82a1.3414,1.3414,0,1,1,.4688-2.6416c1.708.3018,5.5639,1.8047,6.5825,4.5186a3.7734,3.7734,0,0,1-.7393,3.8594A4.0053,4.0053,0,0,1,45.4014,70.43Z"/><path class="b" d="M55.1543,45.394a2.115,2.115,0,0,1-1.4961-3.6123c2.6036-2.6035,8.2071-4.749,12.961,0a2.1155,2.1155,0,0,1-2.99,2.9937c-3.394-3.3872-6.622-.356-6.98,0A2.1076,2.1076,0,0,1,55.1543,45.394Z"/><path class="b" d="M31.7007,41.9927c0,3.2959-2.0464,5.9707-4.5693,5.9707s-4.5689-2.6748-4.5689-5.9707c0-3.2994,2.0464-5.9742,4.5689-5.9742S31.7007,38.6933,31.7007,41.9927Z"/><path class="c" d="M73.8975,57.688C86.5967,51.71,90.9,66.0151,83.6119,72.1489c-5.731,4.8184-18.3682,8.2432-18.3682,8.2432-.6777-1.0186-7.15-10.9659-8.2207-18.377C55.6617,52.5884,68.3946,44.7744,73.8975,57.688Z"/><path class="b" d="M17.2271,30.3c-.03,0-.0606-.0005-.09-.0025a1.2209,1.2209,0,0,1-1.1284-1.3046,11.844,11.844,0,0,1,3.7866-7.8194,11.6461,11.6461,0,0,1,8.1275-3.063,1.2189,1.2189,0,0,1,1.1958,1.2427,1.1722,1.1722,0,0,1-1.2417,1.1958,9.5146,9.5146,0,0,0-6.4365,2.4273,9.3687,9.3687,0,0,0-2.9991,6.1914A1.2188,1.2188,0,0,1,17.2271,30.3Z"/><path class="b" d="M66.5791,35.8554a1.2087,1.2087,0,0,1-.7744-.2773c-3.31-2.729-6.7075-2.9912-9.8193-.7612a1.22,1.22,0,1,1-1.4209-1.9829c3.9971-2.8609,8.6582-2.5464,12.7915.8613a1.2189,1.2189,0,0,1-.7769,2.16Z"/></svg>