<svg xmlns="http://www.w3.org/2000/svg" width="96.2427" height="86.5562" viewBox="0 0 96.2427 86.5562"><defs><style>.a{fill:#ffce00;}.b{fill:#562912;}.c{fill:#fff;}.d{fill:#e55725;}.e{fill:#61c0eb;}</style></defs><title>Asset 54</title><path class="a" d="M91.401,43.2779A43.2779,43.2779,0,1,1,48.1217,0,43.2783,43.2783,0,0,1,91.401,43.2779Z"/><path class="b" d="M26.1158,48.4805a1.9243,1.9243,0,0,0-1.8271,2.4668C26.5543,59.2,36.3453,65.4126,48.1071,65.4126c11.8369,0,21.6757-6.2924,23.86-14.6215a1.8858,1.8858,0,0,0-1.8613-2.3106Z"/><path class="c" d="M48.1051,51.7124A43.3854,43.3854,0,0,0,65.0866,48.479H31.1207A43.4146,43.4146,0,0,0,48.1051,51.7124Z"/><path class="d" d="M48.5114,60.9165A12.4135,12.4135,0,0,0,39.858,64.34a32.1036,32.1036,0,0,0,17.1241-.1851A12.4485,12.4485,0,0,0,48.5114,60.9165Z"/><path class="e" d="M91.9391,43.3946a8.4327,8.4327,0,0,1,3.9892,4.5639,5.12,5.12,0,0,1-1.37,5.6651,5.0325,5.0325,0,0,1-5.26.2163c-2.6817-1.3843-4.461-4.669-5.5391-7.3706a11.0594,11.0594,0,0,0-3.8945-5.064.492.492,0,0,1,.3232-.8945C83.9147,40.8745,88.5739,41.4556,91.9391,43.3946Z"/><path class="e" d="M4.3024,43.3946A8.4368,8.4368,0,0,0,.3131,47.9585a5.1244,5.1244,0,0,0,1.3721,5.6651A5.029,5.029,0,0,0,6.943,53.84c2.6826-1.3843,4.4629-4.669,5.541-7.3706a11.0432,11.0432,0,0,1,3.8926-5.064.4918.4918,0,0,0-.3213-.8945C12.3287,40.8745,7.6686,41.4556,4.3024,43.3946Z"/><path class="b" d="M76.73,39.9956a.6827.6827,0,0,0,1.042-.5669v-.0126a5.7173,5.7173,0,0,0-11.4346,0v.0126a.68.68,0,0,0,1.0391.5669,8.9012,8.9012,0,0,1,9.3535,0Z"/><path class="b" d="M28.8658,39.9956a.6819.6819,0,0,0,1.0411-.5669v-.0126a5.7183,5.7183,0,0,0-11.4366,0v.0126a.6817.6817,0,0,0,1.0411.5669,8.9028,8.9028,0,0,1,9.3544,0Z"/><path class="b" d="M20.2448,30.2037a1.3861,1.3861,0,0,1-.3086-.0347,1.4127,1.4127,0,0,1-1.0733-1.6826,7.33,7.33,0,0,1,4.2842-5.2544,7.7074,7.7074,0,0,1,6.7578.1963,1.41,1.41,0,1,1-1.416,2.4389,4.9,4.9,0,0,0-4.208-.0517,4.5044,4.5044,0,0,0-2.66,3.2817A1.4123,1.4123,0,0,1,20.2448,30.2037Z"/><path class="b" d="M75.9977,30.2037a1.41,1.41,0,0,1-1.374-1.1065,4.5084,4.5084,0,0,0-2.6621-3.2817,4.9081,4.9081,0,0,0-4.2071.0517,1.4108,1.4108,0,0,1-1.4189-2.4389,7.7031,7.7031,0,0,1,6.7558-.1963,7.318,7.318,0,0,1,4.2852,5.2544,1.4114,1.4114,0,0,1-1.0713,1.6826A1.3912,1.3912,0,0,1,75.9977,30.2037Z"/></svg>