<svg xmlns="http://www.w3.org/2000/svg" width="86.5557" height="86.5561" viewBox="0 0 86.5557 86.5561"><defs><style>.a{fill:#ffce00;}.b{fill:#562912;}.c{opacity:0.4;}.d{fill:#e55725;}</style></defs><title>Asset 67</title><path class="a" d="M86.5557,43.28A43.2779,43.2779,0,1,1,43.2784,0,43.2753,43.2753,0,0,1,86.5557,43.28Z"/><path class="b" d="M28.1338,52.5981a1.4366,1.4366,0,0,0-1.3476,2.335,21.7305,21.7305,0,0,0,16.4931,7.2978,21.724,21.724,0,0,0,16.4893-7.2978,1.4352,1.4352,0,0,0-1.3447-2.335,96.92,96.92,0,0,1-15.1446,1.1387A96.8851,96.8851,0,0,1,28.1338,52.5981Z"/><path class="b" d="M59.21,36.7319a.4093.4093,0,0,0-.59.4448,6.4574,6.4574,0,0,0,12.3526,0,.4077.4077,0,0,0-.5879-.4448,11.6853,11.6853,0,0,1-11.1748,0Z"/><path class="b" d="M16.1729,36.7319a.41.41,0,0,0-.5908.4448A6.105,6.105,0,0,0,21.7608,41.75a6.1061,6.1061,0,0,0,6.1777-4.5728.4112.4112,0,0,0-.5928-.4448,11.6813,11.6813,0,0,1-11.1728,0Z"/><g class="c"><path class="d" d="M77.2969,51.9009a6.6724,6.6724,0,1,1-6.6719-6.6748A6.6711,6.6711,0,0,1,77.2969,51.9009Z"/></g><g class="c"><path class="d" d="M22.6065,51.9009a6.6719,6.6719,0,1,1-6.6729-6.6748A6.6707,6.6707,0,0,1,22.6065,51.9009Z"/></g></svg>