<svg xmlns="http://www.w3.org/2000/svg" width="86.5557" height="86.5552" viewBox="0 0 86.5557 86.5552"><defs><style>.a{fill:#d24103;}.b{fill:#562912;}</style></defs><title>Asset 58</title><path class="a" d="M86.5557,43.2774A43.2779,43.2779,0,1,1,43.2774,0,43.2765,43.2765,0,0,1,86.5557,43.2774Z"/><path class="b" d="M31.1074,45.6851c0,3.4824-1.9892,6.3091-4.4443,6.3091-2.4531,0-4.4434-2.8267-4.4434-6.3091,0-3.4844,1.99-6.3081,4.4434-6.3081C29.1182,39.377,31.1074,42.2007,31.1074,45.6851Z"/><path class="b" d="M64.333,45.6851c0,3.4824-1.9883,6.3091-4.4443,6.3091-2.4541,0-4.4443-2.8267-4.4443-6.3091,0-3.4844,1.99-6.3081,4.4443-6.3081C62.3447,39.377,64.333,42.2007,64.333,45.6851Z"/><path class="b" d="M33.73,41.5386a1.222,1.222,0,0,1-1.17-.8755c-1.3057-4.437-5.7471-7.8232-11.0488-8.4243a1.2193,1.2193,0,1,1,.2754-2.4229c6.2626.71,11.5332,4.794,13.1152,10.16a1.2215,1.2215,0,0,1-.8262,1.5151A1.1964,1.1964,0,0,1,33.73,41.5386Z"/><path class="b" d="M52.8252,41.5386a1.1969,1.1969,0,0,1-.3457-.0479,1.218,1.218,0,0,1-.8242-1.5151c1.5781-5.3657,6.8477-9.45,13.1133-10.16a1.2192,1.2192,0,0,1,.2744,2.4229c-5.3018.6011-9.7422,3.9873-11.0488,8.4243A1.22,1.22,0,0,1,52.8252,41.5386Z"/><path class="b" d="M51.9883,66.1026a1.9583,1.9583,0,0,1-1.34-.5274,10.7683,10.7683,0,0,0-6.9678-2.7778,10.574,10.574,0,0,0-7.76,2.7612,1.9665,1.9665,0,1,1-2.7148-2.8457,15.08,15.08,0,0,1,20.123-.0161,1.9673,1.9673,0,0,1-1.3408,3.4058Z"/></svg>