<svg xmlns="http://www.w3.org/2000/svg" width="86.5557" height="86.5552" viewBox="0 0 86.5557 86.5552"><defs><style>.a{fill:#ffce00;}.b{fill:#562912;}.c{fill:#61c0eb;}</style></defs><title>Asset 65</title><path class="a" d="M86.5557,43.2779A43.2779,43.2779,0,1,1,43.2773,0,43.2757,43.2757,0,0,1,86.5557,43.2779Z"/><path class="b" d="M43.2764,69.563h0a8.6243,8.6243,0,0,1-8.6221-8.626V55.88a8.6249,8.6249,0,0,1,8.6221-8.626h0a8.6259,8.6259,0,0,1,8.6269,8.626V60.937A8.6253,8.6253,0,0,1,43.2764,69.563Z"/><path class="c" d="M67.2119,33.7442l-5.7187-1.9986V81.355A39.7373,39.7373,0,0,0,72.93,74.5376V31.7456Z"/><path class="c" d="M19.3447,33.7442l-5.7168-1.9986v42.792A39.7613,39.7613,0,0,0,25.0615,81.355V31.7456Z"/><path class="b" d="M14.6709,30.8516a.6816.6816,0,0,0-1.043.5669v.0127a5.7168,5.7168,0,0,0,11.4336,0v-.0127a.68.68,0,0,0-1.04-.5669,8.9012,8.9012,0,0,1-9.3506,0Z"/><path class="b" d="M62.5342,30.8516a.6808.6808,0,0,0-1.041.5669v.0127a5.7183,5.7183,0,0,0,11.4365,0v-.0127a.6806.6806,0,0,0-1.041-.5669,8.9081,8.9081,0,0,1-9.3545,0Z"/><path class="b" d="M71.2949,25.3462a1.5,1.5,0,0,1-.2177-.0156A16.1936,16.1936,0,0,1,60.3643,18.295a1.411,1.411,0,0,1,2.4111-1.4664,13.5521,13.5521,0,0,0,8.7324,5.712,1.411,1.411,0,0,1-.2129,2.8056Z"/><path class="b" d="M15.26,25.3462a1.4111,1.4111,0,0,1-.2139-2.8056,13.57,13.57,0,0,0,8.7393-5.7124,1.4111,1.4111,0,0,1,2.4111,1.4668,16.22,16.22,0,0,1-10.7178,7.0356A1.5134,1.5134,0,0,1,15.26,25.3462Z"/></svg>