<svg xmlns="http://www.w3.org/2000/svg" width="86.5547" height="93.5918" viewBox="0 0 86.5547 93.5918"><defs><style>.a{fill:#ffce00;}.b{fill:#562912;}.c{fill:#20bee8;}.d{fill:#0cacc6;}</style></defs><title>Asset 39</title><path class="a" d="M86.5547,50.3164A43.2774,43.2774,0,1,1,43.2783,7.0381,43.273,43.273,0,0,1,86.5547,50.3164Z"/><path class="b" d="M68.3594,49.415a.68.68,0,0,0,1.04-.5654v-.0127a5.7168,5.7168,0,1,0-11.4336,0V48.85a.6786.6786,0,0,0,1.0381.5654,8.9127,8.9127,0,0,1,9.3555,0Z"/><path class="b" d="M27.55,49.415a.68.68,0,0,0,1.04-.5654v-.0127a5.7168,5.7168,0,1,0-11.4336,0V48.85a.68.68,0,0,0,1.04.5654,8.9092,8.9092,0,0,1,9.3535,0Z"/><path class="b" d="M43.5127,74.709A29.1621,29.1621,0,0,1,23.85,67.0254a2.1169,2.1169,0,0,1,2.8828-3.1006,24.7732,24.7732,0,0,0,33.1309.3906,2.117,2.117,0,0,1,2.8037,3.1728A28.894,28.894,0,0,1,43.5127,74.709Z"/><path class="c" d="M43.041,0C28.2217,0,.1973,2.78.1973,13.2968c0,10.52,28.0244,13.2989,42.8437,13.2989,14.8174,0,42.8418-2.7793,42.8418-13.2989C85.8828,2.78,57.8584,0,43.041,0Zm0,21.2373c-24.8125,0-37.6093-5.5625-37.6093-7.9405,0-.6308.9365-1.4921,2.7353-2.4091C14.9287,4.8086,32.7647,3.02,43.2,3.02c10.6514,0,29.0391,1.8525,35.4668,8.2373h-.0723c1.3457.7773,2.0538,1.4971,2.0538,2.04C80.6485,15.6748,67.8535,21.2373,43.041,21.2373Z"/><path class="d" d="M78.5947,11.2568h.0723C72.2393,4.872,53.8516,3.02,43.2,3.02c-10.4355,0-28.2715,1.7891-35.0332,7.8682,4.958-2.5362,16.667-5.53,34.874-5.53C62.1465,5.3574,74.0938,8.6533,78.5947,11.2568Z"/></svg>