<svg xmlns="http://www.w3.org/2000/svg" width="86.5547" height="86.5557" viewBox="0 0 86.5547 86.5557"><defs><style>.a{fill:#ffce00;}.b{fill:#562912;}</style></defs><title>Asset 59</title><path class="a" d="M86.5547,43.2774A43.2774,43.2774,0,1,1,43.2744,0,43.2795,43.2795,0,0,1,86.5547,43.2774Z"/><path class="b" d="M65.6787,48.4453a1.3616,1.3616,0,0,1-.3955-.0576L56.09,45.7046a1.4119,1.4119,0,0,1-.253-2.6079c0-.001,7.1524-3.6987,9.291-4.8393a1.4107,1.4107,0,1,1,1.3262,2.49c-1.2.6416-3.98,2.0869-6.1914,3.2344l5.8115,1.6972a1.4117,1.4117,0,0,1-.3955,2.7661Z"/><path class="b" d="M20.8721,48.4453a1.4114,1.4114,0,0,1-.3945-2.7661l5.8115-1.6972c-2.2119-1.1475-4.9912-2.5928-6.1944-3.2344a1.4109,1.4109,0,0,1,1.3272-2.49c2.1416,1.1406,9.292,4.8393,9.292,4.8393a1.4108,1.4108,0,0,1-.2529,2.6079L21.27,48.3877A1.3737,1.3737,0,0,1,20.8721,48.4453Z"/><path class="b" d="M71.293,30.5894a1.437,1.437,0,0,1-.2178-.0171A16.1936,16.1936,0,0,1,60.36,23.5376a1.41,1.41,0,0,1,2.4082-1.4668h0a13.5769,13.5769,0,0,0,8.7383,5.7124,1.4114,1.4114,0,0,1-.2139,2.8062Z"/><path class="b" d="M15.2608,30.5894a1.4114,1.4114,0,0,1-.2159-2.8062,13.4341,13.4341,0,0,0,8.7364-5.7094,1.4108,1.4108,0,0,1,2.4121,1.4638,16.219,16.219,0,0,1-10.7158,7.0347A1.4649,1.4649,0,0,1,15.2608,30.5894Z"/><path class="b" d="M28.043,68.3843a2.107,2.107,0,0,1-1.461-.5854l-3.8076-3.64a2.1165,2.1165,0,1,1,2.9248-3.06L28.043,63.34l6.1523-5.8819a2.114,2.114,0,0,1,2.9239,0l6.1474,5.8809L49.42,57.4576a2.1164,2.1164,0,0,1,2.9248,0l6.1592,5.8842,2.35-2.2441a2.1169,2.1169,0,0,1,2.9239,3.062l-3.8125,3.64a2.1165,2.1165,0,0,1-2.9229,0l-6.1582-5.8843L44.73,67.7989a2.1188,2.1188,0,0,1-2.9258-.001L35.6553,61.916l-6.1484,5.8819A2.1139,2.1139,0,0,1,28.043,68.3843Z"/></svg>