<svg xmlns="http://www.w3.org/2000/svg" width="86.5547" height="86.5576" viewBox="0 0 86.5547 86.5576"><defs><style>.a{fill:#ffce00;}.b{fill:#562912;}</style></defs><title>Asset 50</title><path class="a" d="M86.5547,43.2773A43.2774,43.2774,0,1,1,43.2764,0,43.2783,43.2783,0,0,1,86.5547,43.2773Z"/><path class="b" d="M63.0274,57.6992H23.5283a2.1162,2.1162,0,1,1,0-4.2324H63.0274a2.1162,2.1162,0,1,1,0,4.2324Z"/><path class="b" d="M27.8135,37.4053H18.2686a1.4117,1.4117,0,0,1,0-2.8233h9.5449a1.4117,1.4117,0,0,1,0,2.8233Z"/><path class="b" d="M68.2871,37.4053H58.7432a1.4117,1.4117,0,0,1,0-2.8233h9.5439a1.4117,1.4117,0,0,1,0,2.8233Z"/></svg>