<svg xmlns="http://www.w3.org/2000/svg" width="86.5557" height="86.5547" viewBox="0 0 86.5557 86.5547"><defs><style>.a{fill:#ffce00;}.b{fill:#562912;}</style></defs><title>Asset 38</title><circle class="a" cx="43.2779" cy="43.2773" r="43.2779" transform="translate(-1.0697 1.0969) rotate(-1.4343)"/><path class="b" d="M41.2266,63.2158a1.3409,1.3409,0,0,1-.2344-2.6611c1.4864-.2637,4.0552-1.5254,4.5415-2.8243.1065-.2822.1514-.6464-.3183-1.2343-.9473-1.1807-3.398-.0645-4.8164.9707a1.3418,1.3418,0,1,1-1.5816-2.168c2.7847-2.0342,6.4917-2.9727,8.4907-.4824a3.774,3.774,0,0,1,.7383,3.8574c-1.0185,2.7139-4.8755,4.22-6.5825,4.5225A1.316,1.316,0,0,1,41.2266,63.2158Z"/><path class="b" d="M44.042,70.43a9.3689,9.3689,0,0,1-5.2246-1.9786,1.3414,1.3414,0,1,1,1.5816-2.1669c1.4179,1.0341,3.8691,2.1464,4.8164.9707.47-.5889.4248-.9541.3183-1.2354-.4863-1.2969-3.0551-2.5586-4.5415-2.8232a1.3417,1.3417,0,1,1,.4717-2.6416c1.7075.3037,5.5649,1.81,6.5825,4.5214a3.774,3.774,0,0,1-.7383,3.8575A4.0079,4.0079,0,0,1,44.042,70.43Z"/><path class="b" d="M59.3765,39.6094a.4091.4091,0,0,0-.5894.4443,6.4583,6.4583,0,0,0,12.3536,0,.4085.4085,0,0,0-.59-.4443,11.6814,11.6814,0,0,1-11.1743,0Z"/><path class="b" d="M16.34,39.6094a.4093.4093,0,0,0-.59.4443,6.1035,6.1035,0,0,0,6.1778,4.5723,6.1035,6.1035,0,0,0,6.1777-4.5723.4092.4092,0,0,0-.59-.4443,11.6824,11.6824,0,0,1-11.1748,0Z"/><path class="b" d="M13.7178,32.6445a1.409,1.409,0,0,1-1.2114-2.1309c2.3706-4,6.7578-6.6015,10.832-6.5742a1.4132,1.4132,0,0,1,1.3877,1.4366,1.4307,1.4307,0,0,1-1.4336,1.3867c-.0371-.001-.0757-.001-.1133-.001-3.0962,0-6.3974,2.0732-8.2461,5.1914A1.4112,1.4112,0,0,1,13.7178,32.6445Z"/><path class="b" d="M73.1734,32.6445a1.414,1.414,0,0,1-1.2163-.6914c-1.8462-3.1182-5.147-5.1914-8.2427-5.1914-.0459,0-.0884.0039-.1372.001a1.4118,1.4118,0,0,1-.023-2.8233h.1543c4.0635,0,8.3374,2.6241,10.6778,6.5742a1.4107,1.4107,0,0,1-1.2129,2.1309Z"/></svg>