<svg xmlns="http://www.w3.org/2000/svg" width="86.5557" height="86.5547" viewBox="0 0 86.5557 86.5547"><defs><style>.a{fill:#ffce00;}.b{fill:#261f11;}.c{fill:#483d23;}.d{fill:#562912;}</style></defs><title>Asset 49</title><circle class="a" cx="43.2778" cy="43.2773" r="43.2778" transform="translate(-1.1861 1.2196) rotate(-1.5927)"/><path class="b" d="M50.8364,25.3847a27.8474,27.8474,0,0,1-7.5537,1.0967,27.9045,27.9045,0,0,1-7.564-1.0967,67.8254,67.8254,0,0,0-20.1855-2.7089A80.683,80.683,0,0,0,2.7227,24.0547,2.4674,2.4674,0,0,0,.8008,27.0322l.3286,1.4141a2.4489,2.4489,0,0,0,1.6269,1.7148,1.5409,1.5409,0,0,1,.9854.8975c.5532,1.4873,3.5478,10.3242,5.17,13.5888,1.3286,2.6729,4.9282,4.9649,13.2954,4.9971,11.9068.0479,16.0322-7.8262,17.9253-12.9131.1978-.5312.4995-1.5488.77-2.5361a6.5134,6.5134,0,0,1,1.6309-3.0039,1.7258,1.7258,0,0,1,.749-.211,1.7466,1.7466,0,0,1,.7588.211,6.6342,6.6342,0,0,1,1.6138,3.0039c.27.9873.5664,2.0049.7656,2.5361,1.8916,5.0869,6.0166,12.961,17.9233,12.9131,8.3677-.0322,11.9707-2.3242,13.2964-4.9971,1.6211-3.2646,4.6133-12.1015,5.1743-13.5888a1.533,1.533,0,0,1,.9844-.8975,2.4491,2.4491,0,0,0,1.6265-1.7148l.33-1.4151a2.4687,2.4687,0,0,0-1.9243-2.9765A80.6646,80.6646,0,0,0,71.022,22.6758,67.7886,67.7886,0,0,0,50.8364,25.3847Z"/><path class="c" d="M48.8633,33.2754c.25,5.7666,5.8672,11.3115,11.1235,12.584,7.728,1.872,13.54.205,16.836-6.8985.9926-2.1435,3.1171-6.8115,2.98-9.3027-.2373-4.3262-5.7309-3.5664-9.2368-3.6543C70.1909,25.9961,48.52,25.3867,48.8633,33.2754Z"/><path class="c" d="M37.9087,33.2754c-.25,5.7666-5.8662,11.3115-11.1245,12.584-7.7271,1.872-13.54.205-16.835-6.8985-.9917-2.1435-3.1172-6.8115-2.9809-9.3027.2373-4.3262,5.7309-3.5664,9.2368-3.6543C16.5806,25.9961,38.252,25.3867,37.9087,33.2754Z"/><path class="d" d="M52.5083,65.417a23.7169,23.7169,0,0,1-3.5073-.2627,2.1172,2.1172,0,0,1,.6289-4.1875c6.6958,1.001,12.6489-1.5283,15.1582-6.4561a2.1171,2.1171,0,0,1,3.7724,1.9229C65.6753,62.0947,59.5864,65.417,52.5083,65.417Z"/></svg>