<svg xmlns="http://www.w3.org/2000/svg" width="86.5547" height="86.5552" viewBox="0 0 86.5547 86.5552"><defs><style>.a{fill:#ffce00;}.b{fill:#8d4d21;}.c{fill:#562912;}.d{fill:#61c0eb;}</style></defs><title>Asset 53</title><circle class="a" cx="43.2774" cy="43.2775" r="43.2777" transform="translate(-5.937 79.6618) rotate(-81.4757)"/><path class="b" d="M58.4239,68.191a1.441,1.441,0,0,0,1.35-2.3394,21.7415,21.7415,0,0,0-16.4961-7.2949,21.723,21.723,0,0,0-16.4883,7.2949,1.4386,1.4386,0,0,0,1.3457,2.3394,96.3063,96.3063,0,0,1,15.1426-1.1426A96.2755,96.2755,0,0,1,58.4239,68.191Z"/><path class="c" d="M59.211,45.6509a.4118.4118,0,0,0-.5908.4483,6.46,6.46,0,0,0,12.3554,0,.4114.4114,0,0,0-.5888-.4483,11.6836,11.6836,0,0,1-11.1758,0Z"/><path class="c" d="M16.1739,45.6509a.41.41,0,0,0-.5889.4483A6.1024,6.1024,0,0,0,21.7618,50.67a6.1011,6.1011,0,0,0,6.1757-4.5712.41.41,0,0,0-.5878-.4483,11.6836,11.6836,0,0,1-11.1758,0Z"/><path class="c" d="M13.5538,38.688a1.3983,1.3983,0,0,1-.7188-.1972,1.4129,1.4129,0,0,1-.4951-1.9331c2.3672-3.9971,6.69-6.6812,10.83-6.5733a1.411,1.411,0,0,1-.0225,2.8218c-.0449,0-.09-.001-.1338-.001-3.0967,0-6.3994,2.0737-8.2441,5.1909A1.4131,1.4131,0,0,1,13.5538,38.688Z"/><path class="c" d="M73.0059,38.688a1.4088,1.4088,0,0,1-1.2139-.6919c-1.8476-3.1172-5.1513-5.1909-8.25-5.1909-.042,0-.083.001-.1338.001a1.411,1.411,0,0,1-.02-2.8218c4.0664-.0879,8.462,2.5757,10.8321,6.5733a1.41,1.41,0,0,1-.4961,1.9326A1.3857,1.3857,0,0,1,73.0059,38.688Z"/><path class="d" d="M76.4424,59.5308A14.9662,14.9662,0,0,1,83.52,67.6245c1.2021,3.4854.4951,7.82-2.4336,10.0582-2.6084,1.9921-6.4082,1.8867-9.3291.3808C67,75.604,63.84,69.7793,61.9258,64.9864a19.5907,19.5907,0,0,0-6.9082-8.9883.8723.8723,0,0,1,.5742-1.585C62.2041,55.06,70.4707,56.09,76.4424,59.5308Z"/></svg>