<svg xmlns="http://www.w3.org/2000/svg" width="86.5552" height="86.5557" viewBox="0 0 86.5552 86.5557"><defs><style>.a{fill:#ffce00;}.b{fill:#562912;}</style></defs><title>Asset 56</title><circle class="a" cx="43.2777" cy="43.2779" r="43.2777" transform="translate(-6.2962 7.3841) rotate(-9.0939)"/><path class="b" d="M68.3579,37.6983a.6805.6805,0,0,0,1.041-.565V37.12a5.7163,5.7163,0,1,0-11.4326,0v.0131a.6806.6806,0,0,0,1.041.565,8.9041,8.9041,0,0,1,9.3506,0Z"/><path class="b" d="M27.5513,37.6983a.6813.6813,0,0,0,1.04-.565V37.12a5.718,5.718,0,0,0-11.436,0v.0131a.6807.6807,0,0,0,1.0405.565,8.9119,8.9119,0,0,1,9.355,0Z"/><path class="b" d="M43.5127,62.9917A29.164,29.164,0,0,1,23.85,55.3086a2.1164,2.1164,0,0,1,2.8819-3.1,24.7762,24.7762,0,0,0,33.1293.3921,2.1167,2.1167,0,0,1,2.8042,3.1714A28.8693,28.8693,0,0,1,43.5127,62.9917Z"/></svg>