<svg xmlns="http://www.w3.org/2000/svg" width="86.5547" height="86.5547" viewBox="0 0 86.5547 86.5547"><defs><style>.a{fill:#ffce00;}.b{fill:#562912;}</style></defs><title>Asset 51</title><path class="a" d="M86.5547,43.2793A43.2774,43.2774,0,1,1,43.2764,0,43.2741,43.2741,0,0,1,86.5547,43.2793Z"/><path class="b" d="M66.42,38.4951c0,3.81-2.0429,6.8965-4.5674,6.8965-2.5224,0-4.5693-3.0869-4.5693-6.8965s2.0469-6.8994,4.5693-6.8994C64.377,31.5957,66.42,34.6865,66.42,38.4951Z"/><path class="b" d="M30.27,38.4951c0,3.81-2.0449,6.8965-4.5683,6.8965s-4.5694-3.0869-4.5694-6.8965,2.0459-6.8994,4.5694-6.8994S30.27,34.6865,30.27,38.4951Z"/></svg>