<svg xmlns="http://www.w3.org/2000/svg" width="87.3174" height="86.5547" viewBox="0 0 87.3174 86.5547"><defs><style>.a{fill:#ffce00;}.b{fill:#fff;}.c{fill:#562912;}</style></defs><title>Asset 40</title><path class="a" d="M86.9365,43.2773A43.2776,43.2776,0,1,1,43.66,0,43.2757,43.2757,0,0,1,86.9365,43.2773Z"/><path class="b" d="M25.793,42.1758H61.5245a4.1308,4.1308,0,0,1,4.1308,4.1308V64.3379a4.1308,4.1308,0,0,1-4.1308,4.1308H25.79A4.1294,4.1294,0,0,1,21.66,64.3393V46.3086a4.1328,4.1328,0,0,1,4.1328-4.1328Z"/><path class="b" d="M64.5474,53.9551,87.3174,42.57V42.31a40.0406,40.0406,0,0,0-.2422-4.3515L47.19,57.9013l37.477.62a39.54,39.54,0,0,0,1.3628-4.21Z"/><path class="b" d="M.24,37.958A40.2962,40.2962,0,0,0,0,42.31V42.57L22.7676,53.9551l-21.4805.3564a39.7658,39.7658,0,0,0,1.3623,4.21l37.4785-.62Z"/><path class="c" d="M24.68,36.84a11.03,11.03,0,0,1-5.6343-1.5088,2.1172,2.1172,0,0,1,2.1675-3.6377,7.0954,7.0954,0,0,0,7.5674-.3769,2.1155,2.1155,0,1,1,2.52,3.3984A11.1524,11.1524,0,0,1,24.68,36.84Z"/><path class="c" d="M61.6421,36.84a11.14,11.14,0,0,1-6.62-2.125,2.1152,2.1152,0,1,1,2.52-3.3984,7.0915,7.0915,0,0,0,7.5674.3769,2.1172,2.1172,0,0,1,2.1675,3.6377A11.0311,11.0311,0,0,1,61.6421,36.84Z"/></svg>