<svg xmlns="http://www.w3.org/2000/svg" width="86.5538" height="86.5547" viewBox="0 0 86.5538 86.5547"><defs><style>.a{fill:#ffce00;}.b{fill:#562912;}</style></defs><title>Asset 43</title><path class="a" d="M86.5538,43.2773A43.2769,43.2769,0,1,1,43.2774,0,43.276,43.276,0,0,1,86.5538,43.2773Z"/><path class="b" d="M28.1348,58.5752a1.4386,1.4386,0,0,0-1.3476,2.3379A21.7273,21.7273,0,0,0,43.2793,68.209a21.7242,21.7242,0,0,0,16.4893-7.2959,1.4379,1.4379,0,0,0-1.3467-2.3379,96.3784,96.3784,0,0,1-15.1426,1.1435A96.3759,96.3759,0,0,1,28.1348,58.5752Z"/><path class="b" d="M64.7374,43.831a1.402,1.402,0,0,1-.9971-.414c-3.8379-3.836-7.5664-.3994-7.9785.0049a1.4108,1.4108,0,0,1-1.9893-2.001c2.0674-2.0694,7.2285-4.7276,11.9609,0a1.4106,1.4106,0,0,1-.996,2.41Z"/><path class="b" d="M31.3145,41.1328c0,3.2969-2.0469,5.9707-4.57,5.9707s-4.5664-2.6738-4.5664-5.9707,2.0439-5.9736,4.5664-5.9736S31.3145,37.8369,31.3145,41.1328Z"/><path class="b" d="M16.8418,35.958c-.03,0-.0595,0-.09-.0029a1.2175,1.2175,0,0,1-1.1289-1.3038,11.7186,11.7186,0,0,1,11.915-10.88,1.219,1.219,0,0,1-.0468,2.4375,9.6,9.6,0,0,0-6.4356,2.4248,9.3754,9.3754,0,0,0-3.001,6.1933A1.2172,1.2172,0,0,1,16.8418,35.958Z"/><path class="b" d="M66.1934,34.997a1.2114,1.2114,0,0,1-.7744-.2783C62.1094,31.99,58.711,31.73,55.6,33.957a1.2191,1.2191,0,0,1-1.4209-1.9814c3.997-2.8643,8.6591-2.5469,12.791.8613a1.2191,1.2191,0,0,1-.7764,2.16Z"/></svg>