<svg xmlns="http://www.w3.org/2000/svg" width="86.5551" height="86.5552" viewBox="0 0 86.5551 86.5552"><defs><style>.a{fill:#ffce00;}.b{fill:#562912;}</style></defs><title>Asset 68</title><circle class="a" cx="43.2777" cy="43.2777" r="43.2775" transform="translate(-9.5398 74.2007) rotate(-75.3477)"/><path class="b" d="M29.24,35.3462c0,2.9326-1.9907,5.3115-4.4463,5.3115-2.4536,0-4.4438-2.3789-4.4438-5.3115s1.99-5.311,4.4438-5.311C27.25,30.0352,29.24,32.4131,29.24,35.3462Z"/><path class="b" d="M64.72,40.6982a1.4092,1.4092,0,0,1-.9561-.372c-2.9028-2.6714-7.1709-.5762-7.2163-.5537a1.4108,1.4108,0,0,1-1.8169-2.0284A11.3248,11.3248,0,0,1,64.895,32.67a1.411,1.411,0,1,1-.1973,2.815,8.3248,8.3248,0,0,0-3.8574.6845,7.8551,7.8551,0,0,1,4.8354,2.08,1.4108,1.4108,0,0,1-.9555,2.4487Z"/><path class="b" d="M46.2558,71.4331A21.238,21.238,0,0,1,33.25,66.9819a2.1171,2.1171,0,0,1,2.5976-3.3437A16.9743,16.9743,0,0,0,63.2182,49.7026a2.117,2.117,0,0,1,4.232-.1279A21.238,21.238,0,0,1,46.896,71.4233C46.6826,71.4312,46.4692,71.4331,46.2558,71.4331Z"/></svg>