<svg xmlns="http://www.w3.org/2000/svg" width="86.5562" height="86.5556" viewBox="0 0 86.5562 86.5556"><defs><style>.a{fill:#ffce00;}.b{fill:#562912;}.c{fill:#fff;}.d{fill:#cc342f;}</style></defs><title>Asset 61</title><circle class="a" cx="43.2782" cy="43.2778" r="43.278"/><path class="b" d="M66.2578,28.3061a8.5984,8.5984,0,0,1-.76,3.6162,1.1858,1.1858,0,0,1-1.7456.52,3.5776,3.5776,0,0,0-2.1372-.7354,3.5412,3.5412,0,0,0-2.1216.7354,1.1866,1.1866,0,0,1-1.7466-.52,8.5834,8.5834,0,0,1-.7612-3.6162c0-3.6269,2.0752-6.5757,4.6294-6.5757C64.1822,21.73,66.2578,24.6792,66.2578,28.3061Z"/><path class="b" d="M29.57,28.3061a8.6428,8.6428,0,0,1-.7574,3.6162,1.1882,1.1882,0,0,1-1.7475.52,3.4506,3.4506,0,0,0-4.2588,0,1.188,1.188,0,0,1-1.7476-.52A8.6214,8.6214,0,0,1,20.3,28.3061c0-3.6269,2.0738-6.5757,4.6294-6.5757C27.4961,21.73,29.57,24.6792,29.57,28.3061Z"/><path class="b" d="M21.2749,45.22a1.9221,1.9221,0,0,0-1.8261,2.4673C21.7134,55.94,31.5015,62.1533,43.2657,62.1533c11.8364,0,21.6738-6.2925,23.8588-14.6221a1.8859,1.8859,0,0,0-1.8632-2.311Z"/><path class="c" d="M43.2637,48.4536a43.3839,43.3839,0,0,0,16.9814-3.2344H26.2788A43.3954,43.3954,0,0,0,43.2637,48.4536Z"/><path class="d" d="M43.67,57.6577a12.41,12.41,0,0,0-8.6547,3.4233,32.1009,32.1009,0,0,0,17.1255-.1855A12.4561,12.4561,0,0,0,43.67,57.6577Z"/></svg>