<svg xmlns="http://www.w3.org/2000/svg" width="86.5537" height="86.5547" viewBox="0 0 86.5537 86.5547"><defs><style>.a{fill:#ffce00;}.b{fill:#562912;}.c{fill:#fff;}.d{opacity:0.4;}.e{fill:#e55725;}</style></defs><title>Asset 48</title><path class="a" d="M86.5537,43.2773A43.2769,43.2769,0,1,1,43.2764,0,43.2762,43.2762,0,0,1,86.5537,43.2773Z"/><path class="b" d="M51.9893,64.1924a1.9633,1.9633,0,0,1-1.3428-.5284,10.7586,10.7586,0,0,0-6.9658-2.7753,10.6031,10.6031,0,0,0-7.7588,2.76,1.9665,1.9665,0,1,1-2.7158-2.8447,15.0793,15.0793,0,0,1,20.123-.0166,1.9659,1.9659,0,0,1-1.34,3.4053Z"/><path class="b" d="M17.1367,29.4346a1.2181,1.2181,0,0,1-.792-2.1456,18.0021,18.0021,0,0,1,10.0147-4.2275,1.2208,1.2208,0,0,1,.22,2.4316A15.5443,15.5443,0,0,0,17.93,29.1416,1.2242,1.2242,0,0,1,17.1367,29.4346Z"/><path class="b" d="M69.417,29.4346a1.22,1.22,0,0,1-.7939-.293,15.5532,15.5532,0,0,0-8.65-3.6485,1.2208,1.2208,0,0,1,.22-2.4316,18.0308,18.0308,0,0,1,10.02,4.2275,1.22,1.22,0,0,1-.7949,2.1456Z"/><path class="c" d="M70.8545,40.7705a9.1454,9.1454,0,1,1-9.1387-9.4551A9.303,9.303,0,0,1,70.8545,40.7705Z"/><path class="b" d="M65.6191,40.7705a3.9065,3.9065,0,1,1-3.9033-4.0391A3.9756,3.9756,0,0,1,65.6191,40.7705Z"/><path class="c" d="M33.9766,40.7705a9.3009,9.3009,0,0,1-9.1377,9.46,9.4629,9.4629,0,0,1,0-18.915A9.3,9.3,0,0,1,33.9766,40.7705Z"/><path class="b" d="M28.7422,40.7705a3.9065,3.9065,0,1,1-3.9033-4.0391A3.9775,3.9775,0,0,1,28.7422,40.7705Z"/><g class="d"><path class="e" d="M77.293,58.9131A6.6719,6.6719,0,1,1,70.62,52.2392,6.6722,6.6722,0,0,1,77.293,58.9131Z"/></g><g class="d"><path class="e" d="M22.6025,58.9131a6.6719,6.6719,0,1,1-6.67-6.6739A6.6728,6.6728,0,0,1,22.6025,58.9131Z"/></g></svg>