<svg xmlns="http://www.w3.org/2000/svg" width="88.354" height="86.5537" viewBox="0 0 88.354 86.5537"><defs><style>.a{fill:#ffce00;}.b{fill:#562912;}.c{fill:#61c0eb;}</style></defs><title>Asset 69</title><path class="a" d="M86.5557,43.2768A43.2779,43.2779,0,1,1,43.2759,0,43.2779,43.2779,0,0,1,86.5557,43.2768Z"/><path class="b" d="M21.4839,50.1074a1.9228,1.9228,0,0,0-1.8272,2.4678C21.9224,60.8281,31.7124,67.042,43.4736,67.042c11.8365,0,21.6743-6.292,23.8609-14.6231a1.8861,1.8861,0,0,0-1.8618-2.3115Z"/><path class="b" d="M43.4736,53.3418a43.3716,43.3716,0,0,0,16.98-3.2354H26.4868A43.3957,43.3957,0,0,0,43.4736,53.3418Z"/><path class="b" d="M43.8774,62.5449a12.4261,12.4261,0,0,0-8.6538,3.4238,31.9086,31.9086,0,0,0,8.25,1.0733,31.5843,31.5843,0,0,0,8.8765-1.26A12.462,12.462,0,0,0,43.8774,62.5449Z"/><path class="b" d="M72.0962,41.6235a.68.68,0,0,0,1.04-.5664v-.0132a5.7161,5.7161,0,0,0-11.4321,0v.0132a.68.68,0,0,0,1.0405.5664,8.9036,8.9036,0,0,1,9.3516,0Z"/><path class="b" d="M24.2334,41.6235a.6818.6818,0,0,0,1.041-.5664v-.0132a5.7178,5.7178,0,0,0-11.4355,0v.0132a.6806.6806,0,0,0,1.041.5664,8.9069,8.9069,0,0,1,9.3535,0Z"/><path class="b" d="M15.6094,31.8325a1.4191,1.4191,0,0,1-1.3789-1.7178A7.3248,7.3248,0,0,1,18.5161,24.86a7.7139,7.7139,0,0,1,6.7573.1972,1.4105,1.4105,0,1,1-1.4184,2.4385,4.8961,4.8961,0,0,0-4.2056-.0522,4.51,4.51,0,0,0-2.664,3.2827A1.4133,1.4133,0,0,1,15.6094,31.8325Z"/><path class="b" d="M71.3657,31.8325a1.4148,1.4148,0,0,1-1.3764-1.1064,4.51,4.51,0,0,0-2.6636-3.2827,4.909,4.909,0,0,0-4.2061.0522,1.41,1.41,0,1,1-1.4179-2.4385A7.7057,7.7057,0,0,1,68.459,24.86a7.3244,7.3244,0,0,1,4.2851,5.2548,1.4083,1.4083,0,0,1-1.07,1.6822A1.4272,1.4272,0,0,1,71.3657,31.8325Z"/><path class="c" d="M88.354,33.8c0,4.3159-2.9189,7.8105-6.5186,7.8105S75.3169,38.1157,75.3169,33.8c0-3.29,3.7969-11.2285,5.5952-14.8022a1.0333,1.0333,0,0,1,1.85,0C84.56,22.5713,88.354,30.51,88.354,33.8Z"/></svg>