<svg xmlns="http://www.w3.org/2000/svg" width="86.5552" height="86.5547" viewBox="0 0 86.5552 86.5547"><defs><style>.a{fill:#ffce00;}.b{fill:#fff;}.c{fill:#562912;}.d{fill:#cc342f;}</style></defs><title>Asset 41</title><circle class="a" cx="43.2774" cy="43.2773" r="43.2775" transform="translate(-6.4526 7.6012) rotate(-9.3444)"/><path class="b" d="M43.7588,50.7636a11.1892,11.1892,0,0,0-8.2905,3.6446H52.0474A11.186,11.186,0,0,0,43.7588,50.7636Z"/><path class="c" d="M50.4726,70.3681a10.7373,10.7373,0,0,0,1.5748-15.96H35.4683a10.7352,10.7352,0,0,0,1.5771,15.96,13.74,13.74,0,0,1,13.4272,0Z"/><path class="d" d="M50.4726,70.3681a13.74,13.74,0,0,0-13.4272,0,11.2586,11.2586,0,0,0,13.4272,0Z"/><path class="c" d="M17.1382,25.2773a1.22,1.22,0,0,1-.7935-2.1465,18.0268,18.0268,0,0,1,10.0166-4.2246,1.2188,1.2188,0,1,1,.2193,2.4278,15.5552,15.5552,0,0,0-8.6495,3.6513A1.2272,1.2272,0,0,1,17.1382,25.2773Z"/><path class="c" d="M69.4184,25.2773a1.2246,1.2246,0,0,1-.7919-.292,15.5713,15.5713,0,0,0-8.6524-3.6513,1.2189,1.2189,0,1,1,.22-2.4278,18.0415,18.0415,0,0,1,10.0181,4.2246,1.2208,1.2208,0,0,1-.794,2.1465Z"/><path class="b" d="M70.8564,36.6133a9.1456,9.1456,0,1,1-9.14-9.4561A9.3013,9.3013,0,0,1,70.8564,36.6133Z"/><path class="c" d="M65.62,36.6133a3.9065,3.9065,0,1,1-3.9033-4.0391A3.9755,3.9755,0,0,1,65.62,36.6133Z"/><path class="b" d="M33.98,36.6133a9.3011,9.3011,0,0,1-9.14,9.46,9.4635,9.4635,0,0,1,0-18.916A9.3014,9.3014,0,0,1,33.98,36.6133Z"/><path class="c" d="M28.7432,36.6133a3.9065,3.9065,0,1,1-3.9039-4.0391A3.9766,3.9766,0,0,1,28.7432,36.6133Z"/></svg>