<svg xmlns="http://www.w3.org/2000/svg" width="86.5552" height="86.5557" viewBox="0 0 86.5552 86.5557"><defs><style>.a{fill:#ffce00;}.b{fill:#562912;}.c{fill:#fff;}.d{fill:#cc342f;}</style></defs><title>Asset 52</title><path class="a" d="M86.5552,43.2774A43.2776,43.2776,0,1,1,43.2769,0,43.2769,43.2769,0,0,1,86.5552,43.2774Z"/><path class="b" d="M29.852,41.7832a.4109.4109,0,0,0,.59-.4472,6.1025,6.1025,0,0,0-6.1782-4.5708,6.1007,6.1007,0,0,0-6.1758,4.5708.41.41,0,0,0,.59.4472,11.684,11.684,0,0,1,11.1738,0Z"/><path class="c" d="M72.2178,36.7652A11.9339,11.9339,0,1,1,60.2827,24.8335,11.934,11.934,0,0,1,72.2178,36.7652Z"/><path class="b" d="M64.917,36.7652a4.6324,4.6324,0,1,1-4.6343-4.6343A4.6345,4.6345,0,0,1,64.917,36.7652Z"/><path class="b" d="M24.3345,54.2373a1.9317,1.9317,0,0,0-2.4575,2.7466,25.2026,25.2026,0,0,0,21.4,12.274,25.2,25.2,0,0,0,21.3984-12.274,1.93,1.93,0,0,0-2.4541-2.7466,44.1309,44.1309,0,0,1-18.9443,4.1421A44.1137,44.1137,0,0,1,24.3345,54.2373Z"/><path class="d" d="M43.2769,60.4961a46.2475,46.2475,0,0,1-9.6665-1.02V76.5215a9.6667,9.6667,0,0,0,19.3334,0V59.4766A46.2657,46.2657,0,0,1,43.2769,60.4961Z"/></svg>