<svg xmlns="http://www.w3.org/2000/svg" width="33.847" height="33.683" viewBox="0 0 33.847 33.683">
  <g id="Group_17" data-name="Group 17" transform="translate(-0.005 -0.01)">
    <g id="Group_16" data-name="Group 16">
      <path id="Path_17" data-name="Path 17" d="M30.7,372.947h0v-.023c0-.007-.008-.038-.011-.057a3.245,3.245,0,0,0-.9-1.667,3.112,3.112,0,0,0-.753-.562l-.017-.01a1.062,1.062,0,0,0-.168-.086l-.02-.009c-.051-.026-.111-.05-.168-.072l-.025-.011-.031-.011h-.022a1.5,1.5,0,0,0-.167-.054h-.013a2.259,2.259,0,0,0-.219-.058,3.288,3.288,0,0,0-3.051.885c-.821.821-2.017,4.321-2.89,7.589.434-.126,1.034-.3,1.548-.458l1.057-.313c2.595-.833,4.4-1.622,4.94-2.163a3.265,3.265,0,0,0,.965-2.324,3.445,3.445,0,0,0-.048-.573Z" transform="translate(-22.24 -345.108)" fill="#fff"/>
      <path id="Path_18" data-name="Path 18" d="M119.157,264.268a63.207,63.207,0,0,0-5.554,7.321l.042.018a1.779,1.779,0,0,1,.2.087h0c.043.018.083.037.123.057l.035.02c.026.014.052.028.078.044a3.677,3.677,0,0,1,.881.659,3.813,3.813,0,0,1,.983,1.662,62.653,62.653,0,0,0,7.433-5.621,14.549,14.549,0,0,0-1.919-2.383,14.373,14.373,0,0,0-2.3-1.864Z" transform="translate(-107.01 -246.791)" fill="#fff"/>
      <path id="Path_19" data-name="Path 19" d="M211.641,24.8a88.635,88.635,0,0,0-15.732,14.32,14.951,14.951,0,0,1,2.328,1.894,15.151,15.151,0,0,1,1.948,2.4l.809-.712c1.135-1,2.208-1.938,3.343-3.073l.522-.557h0l.1-.1.134-.144h0l.408-.438h0l.019-.02c.056-.06.113-.121.165-.181h0l1.51-1.614h0l.2-.215.16-.173h0l.164-.177a88.168,88.168,0,0,0,6.791-8.324c2.383-3.51,2.767-5.175,2.719-5.594C216.82,22.034,215.163,22.414,211.641,24.8Z" transform="translate(-183.376 -22.081)" fill="#fff"/>
    </g>
  </g>
</svg>
