<svg xmlns="http://www.w3.org/2000/svg" width="34.607" height="34.624" viewBox="0 0 34.607 34.624">
  <g id="noun_rectangle_2959982" transform="translate(-5.493 -5.493)">
    <path id="Path_28" data-name="Path 28" d="M32.39,8.5H9.324a.824.824,0,0,0-.824.824V32.39a.824.824,0,0,0,.824.824H32.39a.824.824,0,0,0,.824-.824V9.324A.824.824,0,0,0,32.39,8.5Zm-.824,23.066H10.148V10.148H31.566Z" transform="translate(1.947 1.947)" fill="none" stroke="#fff" stroke-width="2"/>
    <path id="Path_29" data-name="Path 29" d="M6.905,5.745a.827.827,0,0,0-1.17,1.17L7.383,8.563a.827.827,0,1,0,1.17-1.17Z" transform="translate(0 0.006)" fill="#fff"/>
    <path id="Path_30" data-name="Path 30" d="M25.332,8.8a.824.824,0,0,0,.577-.247l1.648-1.648a.827.827,0,0,0-1.17-1.17L24.739,7.383A.824.824,0,0,0,25.332,8.8Z" transform="translate(12.3)" fill="#fff"/>
    <path id="Path_31" data-name="Path 31" d="M7.393,24.745,5.745,26.393a.827.827,0,0,0,1.17,1.17l1.648-1.648a.827.827,0,1,0-1.17-1.17Z" transform="translate(0.006 12.311)" fill="#fff"/>
    <path id="Path_32" data-name="Path 32" d="M25.905,24.745a.827.827,0,1,0-1.17,1.17l1.648,1.648a.827.827,0,1,0,1.17-1.17Z" transform="translate(12.304 12.311)" fill="#fff"/>
  </g>
</svg>
