<svg xmlns="http://www.w3.org/2000/svg" width="38.922" height="38.945" viewBox="0 0 38.922 38.945">
  <g id="noun_Pallet_2171186" transform="translate(-2.007 -2.001)">
    <path id="Path_1" data-name="Path 1" d="M24.552,2.246a19.472,19.472,0,1,0-3.074,38.7,19.036,19.036,0,0,0,3.737-.37,5.411,5.411,0,0,0,4.1-7.029,3.3,3.3,0,0,1,.8-3.423,3.341,3.341,0,0,1,3.443-.8,5.4,5.4,0,0,0,7.01-4.12A19.451,19.451,0,0,0,24.552,2.246Zm14,22.546a3.341,3.341,0,0,1-4.366,2.562A5.411,5.411,0,0,0,27.36,34.18a3.341,3.341,0,0,1-2.56,4.365,17.4,17.4,0,1,1-3.32-34.5,18.447,18.447,0,0,1,2.788.225,17.4,17.4,0,0,1,14.347,20.5Z" fill="#fff"/>
    <path id="Path_2" data-name="Path 2" d="M12.1,14a4.1,4.1,0,1,0,4.1,4.1A4.1,4.1,0,0,0,12.1,14Zm0,6.149a2.05,2.05,0,1,1,2.05-2.05A2.05,2.05,0,0,1,12.1,20.149Z" transform="translate(6.303 12.596)" fill="#fff"/>
    <path id="Path_3" data-name="Path 3" d="M8.074,11a3.074,3.074,0,1,0,3.074,3.074A3.074,3.074,0,0,0,8.074,11Zm0,4.1a1.025,1.025,0,1,1,.726-.3A1.025,1.025,0,0,1,8.074,15.1Z" transform="translate(3.154 9.447)" fill="#fff"/>
    <path id="Path_4" data-name="Path 4" d="M11.1,14.2A4.1,4.1,0,1,0,7,10.1a4.1,4.1,0,0,0,4.1,4.1Zm0-6.149A2.05,2.05,0,1,1,9.05,10.1,2.05,2.05,0,0,1,11.1,8.051Z" transform="translate(5.254 4.199)" fill="#fff"/>
    <path id="Path_5" data-name="Path 5" d="M15.074,5a3.074,3.074,0,1,0,3.074,3.074A3.074,3.074,0,0,0,15.074,5Zm0,4.1a1.025,1.025,0,1,1,.726-.3,1.025,1.025,0,0,1-.726.3Z" transform="translate(10.502 3.149)" fill="#fff"/>
  </g>
</svg>
