<svg xmlns="http://www.w3.org/2000/svg" width="89.723" height="89.686" viewBox="0 0 89.723 89.686">
  <g id="noun_Smiley_1646633" transform="translate(-110.004 -110.118)">
    <g id="Group_21" data-name="Group 21" transform="translate(110.004 110.118)">
      <g id="Group_20" data-name="Group 20" transform="translate(0)">
        <path id="Path_28" data-name="Path 28" d="M185.007,124.824a42.346,42.346,0,1,1-4.966-4.274,42.279,42.279,0,0,1,4.966,4.274,1.113,1.113,0,0,0,1.574-1.574,44.9,44.9,0,0,0-24.239-12.521,44.856,44.856,0,1,0,29.963,68.955,44.909,44.909,0,0,0-1.194-51.178,46.354,46.354,0,0,0-4.52-5.29A1.13,1.13,0,0,0,185.007,124.824Z" transform="translate(-110.004 -110.118)" fill="#fff"/>
      </g>
    </g>
    <g id="Group_23" data-name="Group 23" transform="translate(133.029 134.853)">
      <g id="Group_22" data-name="Group 22">
        <path id="Path_29" data-name="Path 29" d="M328.317,338.891a4.913,4.913,0,0,1-3.192,4.587,4.895,4.895,0,1,1,3.192-4.587,1.117,1.117,0,0,0,2.232,0,7.22,7.22,0,0,0-4.687-6.7,7.144,7.144,0,0,0-7.856,2.087,7.119,7.119,0,1,0,12.543,4.609A1.117,1.117,0,0,0,328.317,338.891Z" transform="translate(-316.324 -331.767)" fill="#fff"/>
      </g>
    </g>
    <g id="Group_25" data-name="Group 25" transform="translate(162.501 135.232)">
      <g id="Group_24" data-name="Group 24" transform="translate(0)">
        <path id="Path_30" data-name="Path 30" d="M592.417,342.291a4.913,4.913,0,0,1-3.192,4.587,4.895,4.895,0,1,1,3.192-4.587,1.117,1.117,0,0,0,2.232,0,7.22,7.22,0,0,0-4.687-6.7,7.144,7.144,0,0,0-7.856,2.087,7.119,7.119,0,1,0,12.543,4.609A1.117,1.117,0,0,0,592.417,342.291Z" transform="translate(-580.424 -335.167)" fill="#fff"/>
      </g>
    </g>
    <g id="Group_27" data-name="Group 27" transform="translate(138.876 169.306)">
      <g id="Group_26" data-name="Group 26" transform="translate(0 0)">
        <path id="Path_31" data-name="Path 31" d="M369.8,642.732h29.83a1.117,1.117,0,0,0,0-2.232H369.8a1.117,1.117,0,0,0,0,2.232Z" transform="translate(-368.725 -640.5)" fill="#fff"/>
      </g>
    </g>
  </g>
</svg>
