<svg xmlns="http://www.w3.org/2000/svg" width="91.299" height="91.349" viewBox="0 0 91.299 91.349">
  <g id="noun_Smiley_1646633" transform="translate(-109.178 -109.303)">
    <g id="Group_21" data-name="Group 21" transform="translate(110.004 110.118)">
      <g id="Group_20" data-name="Group 20">
        <path id="Path_28" data-name="Path 28" d="M185.007,124.824a42.346,42.346,0,1,1-4.966-4.274,42.346,42.346,0,0,1,4.966,4.274,1.113,1.113,0,1,0,1.574-1.574,44.664,44.664,0,1,0,4.53,5.256,46.354,46.354,0,0,0-4.52-5.29,1.13,1.13,0,0,0-1.584,1.608Z" transform="translate(-110.004 -110.118)" fill="#fff" stroke="#fff" stroke-width="1.5"/>
      </g>
    </g>
    <g id="Group_23" data-name="Group 23" transform="translate(133.029 134.853)">
      <g id="Group_22" data-name="Group 22">
        <path id="Path_29" data-name="Path 29" d="M328.317,338.891a4.895,4.895,0,1,1-3.429-4.672,4.913,4.913,0,0,1,3.429,4.672,1.117,1.117,0,0,0,2.232,0,7.22,7.22,0,0,0-4.687-6.7,7.124,7.124,0,1,0,4.687,6.7,1.117,1.117,0,0,0-2.232,0Z" transform="translate(-316.324 -331.767)" fill="#fff" stroke="#fff" stroke-width="1.5"/>
      </g>
    </g>
    <g id="Group_25" data-name="Group 25" transform="translate(162.501 135.232)">
      <g id="Group_24" data-name="Group 24">
        <path id="Path_30" data-name="Path 30" d="M592.417,342.291a4.895,4.895,0,1,1-3.429-4.672,4.913,4.913,0,0,1,3.429,4.672,1.117,1.117,0,0,0,2.232,0,7.22,7.22,0,0,0-4.687-6.7,7.124,7.124,0,1,0,4.687,6.7,1.117,1.117,0,0,0-2.232,0Z" transform="translate(-580.424 -335.167)" fill="#fff" stroke="#fff" stroke-width="1.5"/>
      </g>
    </g>
    <g id="Group_27" data-name="Group 27" transform="translate(138.876 169.306)">
      <g id="Group_26" data-name="Group 26">
        <path id="Path_31" data-name="Path 31" d="M369.8,642.732h29.83a1.117,1.117,0,0,0,0-2.232H369.8a1.117,1.117,0,0,0,0,2.232Z" transform="translate(-368.725 -640.5)" fill="#fff" stroke="#fff" stroke-width="1.5"/>
      </g>
    </g>
  </g>
</svg>
