<svg xmlns="http://www.w3.org/2000/svg" width="82" height="82" viewBox="0 0 82 82">
  <g id="noun_emoticon_1965379" transform="translate(-9 -9)">
    <g id="Group_39" data-name="Group 39">
      <path id="Path_6" data-name="Path 6" d="M68.75,9A22.25,22.25,0,1,0,91,31.25,22.275,22.275,0,0,0,68.75,9Zm0,42.5A20.25,20.25,0,1,1,89,31.25,20.273,20.273,0,0,1,68.75,51.5Z"/>
      <circle id="Ellipse_5" data-name="Ellipse 5" cx="1.625" cy="1.625" r="1.625" transform="translate(57.125 25.688)"/>
      <circle id="Ellipse_6" data-name="Ellipse 6" cx="1.625" cy="1.625" r="1.625" transform="translate(77.125 25.688)"/>
      <path id="Path_7" data-name="Path 7" d="M75.333,29.4H62.5a1,1,0,0,0-1,1,7.417,7.417,0,0,0,14.833,0A1,1,0,0,0,75.333,29.4Zm-6.417,6.417A5.425,5.425,0,0,1,63.593,31.4H74.241A5.425,5.425,0,0,1,68.917,35.813Z"/>
      <path id="Path_8" data-name="Path 8" d="M31.25,46.5A22.25,22.25,0,1,0,53.5,68.75,22.275,22.275,0,0,0,31.25,46.5Zm0,42.5A20.25,20.25,0,1,1,51.5,68.75,20.273,20.273,0,0,1,31.25,89Z"/>
      <circle id="Ellipse_7" data-name="Ellipse 7" cx="1.625" cy="1.625" r="1.625" transform="translate(19.625 63.188)"/>
      <circle id="Ellipse_8" data-name="Ellipse 8" cx="1.625" cy="1.625" r="1.625" transform="translate(39.625 63.188)"/>
      <path id="Path_9" data-name="Path 9" d="M31.417,65.855A7.445,7.445,0,0,0,24.7,70.139a1,1,0,0,0,1.813.847,5.407,5.407,0,0,1,9.808,0,1,1,0,0,0,1.813-.847A7.445,7.445,0,0,0,31.417,65.855Z"/>
    </g>
  </g>
</svg>
