<svg xmlns="http://www.w3.org/2000/svg" width="37.186" height="36.946" viewBox="0 0 37.186 36.946">
  <g id="noun_paintbrush_2861542" transform="translate(-1.06 -1.123)">
    <g id="Group_1" data-name="Group 1" transform="translate(1.057 1.14)">
      <path id="Path_7" data-name="Path 7" d="M36.383,281.212a3.719,3.719,0,0,0-1.608.544H34.77a61.882,61.882,0,0,0-14.157,10.119,42.38,42.38,0,0,0-8.465,12.1,5.489,5.489,0,0,0-1.781-.318,4.983,4.983,0,0,0-3.76,1.615c-1.7,1.869-1.379,3.851-1.5,5.391a4.061,4.061,0,0,1-.7,2.163,7.625,7.625,0,0,1-2.977,2.282.667.667,0,0,0-.1,1.133,8.937,8.937,0,0,0,11.875-.778,8.878,8.878,0,0,0,2.691-4.972,6.174,6.174,0,0,0-.373-3.234,42.45,42.45,0,0,0,12.046-8.436,61.886,61.886,0,0,0,10.119-14.157v-.005a3.716,3.716,0,0,0,.544-1.609,1.643,1.643,0,0,0-1.845-1.846Zm.082,1.333c.233-.015.313.038.353.078s.093.121.078.353A2.518,2.518,0,0,1,36.529,284l-.01.018-.009.018a61.353,61.353,0,0,1-9.888,13.845A40.821,40.821,0,0,1,21.4,302.27a13.487,13.487,0,0,0-1.842-2.386,13.5,13.5,0,0,0-2.387-1.844,40.783,40.783,0,0,1,4.389-5.223A61.353,61.353,0,0,1,35.4,282.932l.018-.01.017-.01a2.508,2.508,0,0,1,1.027-.368Zm-20.057,16.6a12.49,12.49,0,0,1,2.2,1.685,12.488,12.488,0,0,1,1.685,2.2,37.644,37.644,0,0,1-5.42,3.056,6.2,6.2,0,0,0-.69-.836,5.375,5.375,0,0,0-.838-.683,37.722,37.722,0,0,1,3.06-5.424Zm-6.026,5.846a4.114,4.114,0,0,1,2.859,1.207,4.58,4.58,0,0,1,1.33,4.1,7.611,7.611,0,0,1-2.3,4.207A7.484,7.484,0,0,1,3.1,315.77a9.979,9.979,0,0,0,2.4-2.17,5.508,5.508,0,0,0,.936-2.824c.138-1.782-.188-3.125,1.153-4.6a3.68,3.68,0,0,1,2.789-1.183Z" transform="translate(-1.057 -281.207)" fill="#fff"/>
    </g>
  </g>
</svg>
