<svg xmlns="http://www.w3.org/2000/svg" width="35.664" height="35.664" viewBox="0 0 35.664 35.664">
  <g id="noun_square_1859177" transform="translate(-93.5 -153.5)">
    <path id="Path_14" data-name="Path 14" d="M53.958,56.164H22.706A2.212,2.212,0,0,1,20.5,53.958V22.706A2.212,2.212,0,0,1,22.706,20.5H53.958a2.212,2.212,0,0,1,2.206,2.206V53.958a2.212,2.212,0,0,1-2.206,2.206ZM22.706,22.313a.4.4,0,0,0-.393.393V53.958a.4.4,0,0,0,.393.393H53.958a.4.4,0,0,0,.393-.393V22.706a.4.4,0,0,0-.393-.393Z" transform="translate(73 133)" fill="#242424"/>
  </g>
</svg>
