<svg xmlns="http://www.w3.org/2000/svg" width="35.388" height="31.183" viewBox="0 0 35.388 31.183">
  <g id="noun_triangle_2452047" transform="translate(-3.903 -69.252)">
    <g id="Group_7" data-name="Group 7" transform="translate(3.902 69.25)">
      <path id="Path_13" data-name="Path 13" d="M39.879,69.206,55.653,96.579a1.894,1.894,0,0,1-1.626,2.856H22.436a1.927,1.927,0,0,1-1.67-2.856L36.584,69.206a1.9,1.9,0,0,1,3.3,0Zm-1.406.835a.293.293,0,0,0-.527,0L22.172,97.37a.308.308,0,0,0,.264.483H54.027a.322.322,0,0,0,.264-.483Z" transform="translate(-20.526 -68.25)" fill="#fff" fill-rule="evenodd"/>
    </g>
  </g>
</svg>
